<svg id="svg" version="1.1" xmlns="http://www.w3.org/2000/svg" xmlns:xlink="http://www.w3.org/1999/xlink" width="400" height="218.3368869936034" viewBox="0, 0, 400,218.3368869936034"><g id="svgg"><path id="path0" d="M163.326 31.766 C 111.266 37.140,81.320 63.750,89.179 97.655 C 90.872 104.959,100.396 119.188,104.696 120.839 C 105.045 120.972,105.330 121.271,105.330 121.501 C 105.330 121.732,106.215 122.529,107.296 123.273 C 109.523 124.805,109.348 125.151,106.120 125.595 C 105.007 125.748,103.673 126.241,103.156 126.689 C 102.638 127.138,102.059 127.505,101.869 127.505 C 101.184 127.505,100.588 129.287,100.860 130.523 C 101.302 132.536,103.078 133.194,108.370 133.305 C 113.391 133.410,117.913 134.366,119.135 135.581 C 119.981 136.423,119.771 137.313,118.725 137.313 C 118.380 137.313,116.923 137.808,115.488 138.412 C 112.831 139.530,105.564 141.508,99.787 142.685 C 78.871 146.948,73.974 155.571,87.898 163.620 C 94.072 167.188,116.192 168.673,136.674 166.893 C 146.636 166.028,159.495 165.902,163.433 166.631 C 165.016 166.924,167.607 167.384,169.190 167.652 C 170.773 167.921,173.987 168.951,176.333 169.941 C 178.678 170.932,181.365 171.990,182.303 172.292 C 184.189 172.900,186.221 174.359,189.784 177.660 C 193.944 181.514,200.491 184.227,209.382 185.783 C 216.512 187.030,238.545 187.419,244.563 186.404 C 246.205 186.127,250.235 185.510,253.518 185.032 C 268.314 182.881,280.540 176.779,283.781 169.927 C 285.735 165.796,284.850 163.555,279.053 157.955 C 274.805 153.851,274.707 153.378,277.590 150.895 C 281.303 147.697,287.255 146.273,302.345 144.972 C 305.277 144.719,309.852 144.236,312.511 143.898 C 315.170 143.560,318.433 143.281,319.760 143.278 C 323.167 143.270,331.725 141.841,336.161 140.539 C 352.672 135.692,353.040 125.135,336.887 119.707 C 331.042 117.742,318.586 115.357,310.718 114.696 C 307.872 114.456,304.488 114.055,303.198 113.803 C 301.908 113.551,299.606 113.103,298.081 112.807 C 294.917 112.192,292.964 111.487,292.964 110.959 C 292.964 109.474,297.113 107.579,303.976 105.930 C 315.296 103.210,315.636 98.069,304.691 95.115 C 303.753 94.862,298.284 94.277,292.537 93.815 C 266.741 91.743,266.030 91.396,264.190 79.961 C 262.654 70.413,259.366 64.056,252.087 56.557 C 247.268 51.594,236.505 43.497,234.726 43.497 C 234.462 43.497,233.803 43.113,233.262 42.644 C 232.721 42.175,231.967 41.791,231.586 41.791 C 231.205 41.791,230.474 41.497,229.961 41.138 C 226.621 38.798,207.809 33.882,195.684 32.181 C 188.878 31.226,170.807 30.994,163.326 31.766 M189.979 33.893 C 217.499 35.793,244.572 47.623,251.069 60.588 C 253.633 65.706,254.155 67.828,254.214 73.381 C 254.268 78.512,254.282 78.584,254.641 75.693 C 255.145 71.647,254.782 67.506,253.711 65.086 C 253.223 63.982,252.884 62.655,252.958 62.137 C 253.117 61.018,255.866 65.216,256.907 68.167 C 257.244 69.123,257.936 70.467,258.445 71.155 C 259.493 72.573,260.065 76.058,259.324 76.515 C 258.665 76.923,258.715 78.918,259.382 78.785 C 259.735 78.714,259.959 79.364,260.045 80.712 C 260.137 82.141,260.021 82.711,259.656 82.630 C 258.197 82.308,257.954 91.411,259.314 95.440 C 259.810 96.908,260.458 98.081,260.774 98.081 C 261.086 98.081,261.933 98.578,262.656 99.186 L 263.969 100.292 269.831 100.015 C 290.160 99.057,294.014 99.249,293.735 101.209 C 293.638 101.887,293.093 102.290,291.684 102.728 C 285.923 104.515,281.955 106.525,281.153 108.062 C 279.536 111.160,283.284 115.957,287.345 115.987 C 288.394 115.995,287.643 114.578,286.349 114.110 C 282.815 112.832,281.007 110.690,282.354 109.375 C 283.519 108.238,288.948 105.446,290.574 105.147 C 296.696 104.022,296.380 97.813,290.192 97.651 C 289.500 97.633,289.460 97.559,289.979 97.258 C 290.764 96.804,300.116 97.007,304.478 97.573 C 312.363 98.597,312.362 101.122,304.476 102.610 C 293.922 104.600,289.004 107.716,290.556 111.430 C 292.092 115.107,296.395 116.185,316.418 117.911 C 331.842 119.240,345.315 124.197,346.517 128.986 C 346.954 130.728,345.437 133.598,343.641 134.424 C 337.782 137.118,335.150 138.162,334.275 138.139 C 333.718 138.124,331.727 138.524,329.851 139.027 C 326.928 139.810,325.003 139.963,316.418 140.092 C 310.906 140.174,306.876 140.145,307.463 140.025 C 308.049 139.906,309.351 139.535,310.356 139.200 C 311.361 138.866,313.393 138.593,314.872 138.593 C 320.109 138.593,328.381 137.194,331.654 135.755 C 332.411 135.422,333.844 134.863,334.838 134.512 C 337.409 133.605,340.090 131.956,341.117 130.650 L 341.998 129.530 341.084 127.903 C 338.972 124.144,328.154 120.475,315.372 119.180 C 312.077 118.846,308.422 118.392,307.249 118.169 C 306.077 117.947,304.231 117.869,303.149 117.997 C 301.824 118.153,299.428 117.844,295.825 117.052 C 292.584 116.340,290.163 116.008,289.691 116.213 C 288.960 116.530,288.964 116.560,289.765 116.713 C 290.235 116.803,292.210 117.266,294.155 117.742 C 296.284 118.263,299.168 118.612,301.404 118.621 C 303.446 118.629,306.748 118.891,308.742 119.203 C 310.736 119.514,313.806 119.890,315.565 120.037 C 327.658 121.048,340.725 125.837,340.725 129.257 C 340.725 131.081,336.765 133.209,329.424 135.330 C 324.175 136.846,323.263 137.003,315.565 137.718 C 313.102 137.947,309.360 138.330,307.249 138.569 C 305.139 138.808,301.493 139.010,299.147 139.018 C 292.777 139.039,292.245 139.925,298.294 140.437 C 299.232 140.517,297.623 140.614,294.719 140.653 C 291.814 140.693,288.264 140.914,286.830 141.144 C 285.395 141.375,282.732 141.758,280.911 141.995 C 272.960 143.033,265.985 147.458,266.810 150.942 C 267.337 153.169,267.773 153.307,267.693 151.221 C 267.541 147.253,273.947 143.743,282.942 142.865 C 290.761 142.102,303.606 141.595,304.633 142.009 C 305.338 142.294,305.063 142.390,303.412 142.436 C 290.211 142.805,284.986 143.179,283.709 143.848 C 282.957 144.242,280.826 145.043,278.972 145.629 C 269.881 148.501,269.457 152.900,277.616 159.705 C 280.112 161.787,281.035 162.843,281.254 163.870 C 281.416 164.626,281.742 165.486,281.979 165.779 C 283.142 167.223,280.950 171.271,277.768 173.556 C 273.514 176.611,261.989 180.537,253.305 181.889 C 250.842 182.272,248.060 182.787,247.122 183.032 C 244.778 183.645,223.223 183.949,218.763 183.432 C 201.865 181.473,196.315 179.524,188.989 172.982 C 185.313 169.699,182.250 167.983,178.217 166.950 C 176.712 166.564,175.047 165.970,174.519 165.630 C 173.991 165.289,171.688 164.737,169.402 164.402 C 167.116 164.067,164.190 163.611,162.900 163.387 C 157.785 162.502,151.919 162.428,142.431 163.130 C 110.577 165.486,99.366 165.242,90.901 162.009 C 87.289 160.629,83.256 157.769,82.973 156.387 C 82.173 152.476,82.162 152.521,84.326 150.886 C 86.679 149.109,92.411 146.376,94.883 145.852 C 95.821 145.653,98.584 144.990,101.022 144.378 C 103.460 143.767,105.532 143.343,105.625 143.436 C 105.824 143.635,99.384 145.416,98.467 145.416 C 98.124 145.416,97.466 145.676,97.003 145.994 C 96.541 146.312,95.168 146.899,93.952 147.298 C 91.759 148.018,87.573 150.828,88.023 151.278 C 88.152 151.407,88.989 151.006,89.884 150.386 C 92.024 148.902,96.203 147.251,100.426 146.219 C 106.201 144.808,113.113 142.859,115.352 142.012 C 116.525 141.567,119.499 140.688,121.962 140.058 C 128.982 138.260,133.782 135.316,131.917 133.952 C 131.719 133.807,131.557 132.825,131.557 131.770 C 131.557 130.714,131.415 129.346,131.241 128.730 L 130.926 127.608 132.695 128.218 C 133.668 128.553,134.865 129.056,135.356 129.335 C 135.846 129.614,137.285 130.228,138.553 130.700 C 142.910 132.319,143.430 136.073,139.477 137.371 C 138.639 137.646,137.281 138.217,136.461 138.640 C 135.640 139.064,132.569 140.008,129.638 140.740 C 107.787 146.191,100.031 150.890,103.954 156.301 C 105.892 158.974,116.541 160.409,123.241 158.901 L 126.013 158.277 120.896 158.229 C 118.081 158.203,114.435 157.987,112.793 157.750 C 111.151 157.513,108.988 157.206,107.986 157.068 C 104.848 156.635,103.096 153.611,104.812 151.589 C 106.607 149.472,118.480 145.029,129.211 142.457 C 142.062 139.378,146.148 137.797,147.276 135.467 C 148.793 132.335,145.224 128.510,138.451 126.010 C 130.664 123.135,126.827 120.794,125.114 117.871 C 124.549 116.906,123.684 115.753,123.192 115.308 C 122.700 114.863,121.939 113.797,121.502 112.940 C 120.408 110.797,118.853 109.687,116.495 109.367 C 113.696 108.988,113.272 108.841,111.513 107.648 C 110.186 106.747,109.976 106.702,110.100 107.341 C 110.297 108.368,113.269 109.931,116.015 110.452 C 118.680 110.958,120.256 111.875,120.256 112.920 C 120.256 113.330,121.211 114.717,122.378 116.001 C 123.544 117.286,124.504 118.474,124.510 118.642 C 124.557 120.000,129.386 123.852,133.605 125.896 C 134.996 126.569,136.054 127.201,135.956 127.300 C 135.674 127.581,130.889 126.030,128.908 125.014 C 127.921 124.508,126.623 124.094,126.023 124.094 C 124.894 124.094,120.687 121.929,119.846 120.916 C 119.583 120.598,118.368 119.841,117.146 119.233 C 115.840 118.583,113.081 116.353,110.448 113.818 C 107.985 111.448,105.139 108.856,104.122 108.057 C 102.399 106.703,100.908 105.080,98.638 102.087 C 96.851 99.731,97.666 101.777,99.685 104.717 C 100.801 106.342,102.288 107.961,102.989 108.314 C 104.069 108.857,111.656 115.991,111.154 115.991 C 106.538 115.991,93.415 100.785,92.140 93.958 C 91.688 91.540,92.269 91.985,93.356 94.888 C 94.394 97.663,96.451 101.051,96.680 100.364 C 96.769 100.097,96.066 98.153,95.116 96.045 C 94.167 93.936,93.390 91.897,93.390 91.513 C 93.390 91.129,92.921 89.660,92.348 88.250 C 91.116 85.217,90.561 82.094,91.185 81.708 C 91.443 81.549,91.838 82.408,92.151 83.809 C 92.763 86.543,93.590 87.483,93.316 85.133 C 92.941 81.916,93.979 83.643,95.316 88.458 C 95.702 89.850,96.988 92.632,98.173 94.641 C 99.358 96.650,100.925 99.323,101.656 100.581 C 102.935 102.781,106.512 106.423,106.957 105.978 C 107.076 105.860,106.479 105.089,105.631 104.266 C 104.361 103.032,101.066 98.093,101.066 97.423 C 101.066 97.321,100.177 95.849,99.090 94.154 C 95.647 88.783,93.487 79.781,94.633 75.586 C 95.401 72.777,95.774 73.417,95.872 77.719 C 95.992 82.952,96.273 84.380,97.928 88.146 C 98.746 90.008,100.623 92.171,101.142 91.851 C 101.380 91.704,100.997 90.999,100.272 90.250 C 96.663 86.521,95.245 75.697,97.347 67.926 C 98.253 64.574,97.455 65.639,96.320 69.295 C 95.548 71.782,95.149 72.495,94.529 72.495 C 93.769 72.495,93.774 72.424,94.627 70.978 C 95.120 70.143,95.524 69.232,95.527 68.952 C 95.534 68.010,97.611 63.966,98.087 63.966 C 98.346 63.966,98.422 64.206,98.257 64.499 C 97.463 65.904,98.985 63.891,100.754 61.194 C 109.215 48.297,133.180 37.477,159.275 34.772 C 175.311 33.110,177.659 33.042,189.979 33.893 M189.339 36.591 C 189.339 36.821,191.114 37.141,193.284 37.302 C 195.453 37.462,197.900 37.752,198.721 37.945 C 200.922 38.463,204.930 38.903,204.620 38.593 C 204.127 38.100,199.402 37.180,195.949 36.905 C 194.072 36.755,191.818 36.529,190.938 36.402 C 190.020 36.270,189.339 36.351,189.339 36.591 M210.665 40.100 C 211.488 40.296,212.735 40.755,213.437 41.121 C 214.138 41.487,215.049 41.787,215.461 41.788 C 215.872 41.790,218.054 42.559,220.308 43.497 C 225.066 45.477,226.642 45.750,222.647 43.902 C 218.375 41.926,211.751 39.655,210.398 39.702 C 209.222 39.743,209.234 39.760,210.665 40.100 M135.821 42.342 C 130.293 44.235,130.251 44.253,130.547 44.549 C 130.741 44.743,138.806 42.169,140.512 41.368 C 140.981 41.148,141.940 40.894,142.644 40.804 C 143.821 40.653,143.804 40.638,142.431 40.615 C 141.610 40.601,138.635 41.379,135.821 42.342 M126.652 46.260 C 126.652 46.607,125.885 47.283,124.946 47.761 C 119.708 50.434,112.462 56.685,110.611 60.128 C 110.169 60.949,109.682 61.717,109.527 61.835 C 109.373 61.952,109.119 62.816,108.962 63.754 C 108.753 65.011,108.797 65.291,109.130 64.819 C 109.379 64.467,109.585 63.747,109.588 63.220 C 109.592 62.692,109.769 62.260,109.981 62.260 C 110.193 62.260,110.847 61.445,111.433 60.448 C 113.043 57.712,118.660 52.550,123.562 49.301 C 125.967 47.708,127.826 46.230,127.695 46.017 C 127.318 45.408,126.652 45.563,126.652 46.260 M150.320 49.851 C 136.800 54.791,128.785 60.983,128.785 66.486 C 128.785 68.712,129.460 68.265,129.992 65.686 C 131.104 60.303,141.742 53.013,153.518 49.565 L 155.011 49.128 153.731 49.099 C 153.028 49.084,151.493 49.422,150.320 49.851 M236.255 50.060 C 239.470 52.267,246.469 61.277,246.478 63.220 C 246.480 63.630,246.674 63.966,246.908 63.966 C 249.358 63.966,240.833 51.619,237.015 49.638 C 235.152 48.671,234.644 48.954,236.255 50.060 M175.906 49.877 C 177.079 50.080,179.586 50.262,181.478 50.282 C 183.370 50.303,185.961 50.498,187.235 50.715 C 191.742 51.483,193.603 51.647,193.603 51.276 C 193.603 51.069,191.875 50.670,189.763 50.389 C 185.152 49.775,172.633 49.313,175.906 49.877 M157.356 53.152 C 147.095 55.997,136.855 61.397,136.898 63.939 C 136.906 64.388,137.289 64.172,138.071 63.279 C 140.179 60.872,143.975 58.656,149.359 56.690 C 151.295 55.984,153.454 55.149,154.158 54.836 C 154.861 54.523,156.972 53.934,158.849 53.527 C 160.725 53.120,163.028 52.535,163.966 52.227 L 165.672 51.666 164.179 51.670 C 163.358 51.673,160.288 52.339,157.356 53.152 M200.426 52.996 C 200.800 53.401,206.061 55.062,206.279 54.844 C 206.576 54.547,203.694 53.394,201.802 53.052 C 200.928 52.895,200.309 52.869,200.426 52.996 M171.855 55.311 C 165.051 55.846,157.337 57.162,155.032 58.181 C 151.773 59.623,152.229 59.983,155.925 58.885 C 159.483 57.828,167.714 56.440,172.921 56.019 C 175.587 55.804,176.433 55.616,175.693 55.403 C 175.107 55.234,174.435 55.110,174.200 55.128 C 173.966 55.145,172.910 55.228,171.855 55.311 M150.746 58.594 C 147.165 59.729,145.390 60.889,138.715 66.459 C 136.791 68.064,135.616 70.380,135.594 72.610 C 135.581 73.913,135.547 73.943,134.954 73.159 C 134.095 72.023,134.170 69.509,135.140 66.956 C 136.163 64.264,135.435 64.136,134.257 66.800 C 132.656 70.420,134.193 76.204,137.753 79.957 C 139.335 81.625,140.332 84.014,139.068 83.109 C 134.957 80.166,131.493 77.223,130.458 75.794 C 129.772 74.847,129.211 74.259,129.211 74.487 C 129.211 75.337,131.647 78.062,134.434 80.329 C 138.974 84.022,139.918 84.625,140.269 84.056 C 140.491 83.696,140.866 83.783,141.611 84.365 C 148.289 89.587,171.854 93.769,185.288 92.116 C 209.791 89.100,221.278 81.123,217.493 69.751 C 216.659 67.243,215.235 65.517,215.975 67.910 C 216.460 69.477,216.700 75.830,216.237 74.840 C 216.018 74.371,215.825 73.497,215.808 72.898 C 215.751 70.811,211.621 65.345,208.316 62.982 C 207.483 62.387,207.949 63.106,209.651 65.042 C 212.144 67.879,214.072 70.980,214.072 72.152 C 214.072 72.452,213.412 71.716,212.606 70.518 C 210.980 68.104,207.646 65.115,204.657 63.391 C 202.770 62.302,197.868 60.416,197.868 60.778 C 197.868 60.949,202.401 63.113,202.758 63.113 C 203.301 63.113,209.986 68.521,211.072 69.839 C 213.134 72.340,215.275 77.345,214.491 77.830 C 214.163 78.033,213.238 75.555,213.216 74.414 C 213.197 73.430,208.792 69.086,206.325 67.616 C 200.411 64.093,187.454 61.026,181.237 61.677 L 178.038 62.011 182.729 62.291 C 194.717 63.006,206.680 67.488,211.012 72.888 C 213.319 75.764,212.322 75.821,209.375 72.982 C 206.472 70.184,203.097 68.211,201.302 68.260 C 200.356 68.286,200.423 68.367,201.807 68.876 C 205.564 70.256,210.464 74.873,211.644 78.145 C 212.121 79.467,211.307 78.939,210.469 77.384 C 207.945 72.697,202.745 70.089,192.324 68.286 C 189.988 67.881,188.363 67.405,188.486 67.161 C 188.603 66.928,188.987 66.777,189.339 66.824 C 192.908 67.307,200.516 67.856,200.726 67.646 C 201.199 67.173,200.723 67.052,196.375 66.541 C 194.030 66.265,190.959 65.877,189.552 65.678 C 173.893 63.469,153.667 68.265,146.194 75.960 C 143.073 79.174,142.405 79.585,143.579 77.568 C 145.151 74.869,149.050 71.805,153.814 69.526 C 156.349 68.313,158.711 67.170,159.064 66.985 C 160.198 66.389,165.160 65.307,168.118 65.009 C 172.428 64.576,171.232 64.099,166.737 64.458 C 157.837 65.169,146.893 70.743,142.794 76.652 C 141.552 78.442,140.505 79.107,141.014 77.782 C 141.158 77.407,141.048 76.959,140.771 76.787 C 137.657 74.863,148.681 66.343,158.640 62.978 C 162.756 61.587,164.992 61.141,172.068 60.300 C 174.482 60.013,174.545 59.977,173.174 59.675 C 166.425 58.189,148.465 64.828,143.052 70.809 C 142.638 71.267,142.116 71.642,141.892 71.642 C 140.889 71.642,149.389 64.800,152.193 63.350 C 152.922 62.973,153.518 62.569,153.518 62.451 C 153.518 61.575,146.892 66.006,143.388 69.226 C 139.854 72.473,137.930 73.171,140.547 70.256 C 142.380 68.214,145.527 65.339,147.110 64.259 C 147.690 63.863,147.915 63.539,147.611 63.539 C 145.631 63.539,138.755 70.064,137.846 72.805 L 137.313 74.414 137.463 72.185 C 137.665 69.181,138.996 67.287,143.361 63.789 C 146.499 61.274,148.355 60.170,152.239 58.509 C 153.698 57.885,152.825 57.935,150.746 58.594 M250.780 63.966 C 250.772 64.318,251.182 65.469,251.692 66.525 C 252.740 68.695,252.937 73.554,252.098 76.522 C 251.528 78.537,251.797 79.083,252.506 77.351 C 253.506 74.911,253.171 68.302,251.915 65.672 C 251.299 64.382,250.789 63.614,250.780 63.966 M240.107 65.285 C 241.002 66.959,239.905 72.654,237.903 76.722 C 234.479 83.678,228.913 88.163,220.043 91.113 C 215.826 92.515,215.781 93.029,219.977 91.873 C 229.834 89.159,241.652 77.226,240.643 71.007 C 240.477 69.986,240.567 69.312,240.897 69.109 C 241.878 68.502,241.113 64.392,240.019 64.392 C 239.804 64.392,239.844 64.794,240.107 65.285 M247.973 69.797 C 247.975 75.574,247.637 76.513,243.780 81.450 C 242.284 83.365,241.939 84.009,242.662 83.535 C 246.975 80.708,250.389 70.409,248.487 65.959 C 248.046 64.927,247.972 65.477,247.973 69.797 M152.199 66.472 C 148.598 68.273,145.960 69.980,144.592 71.395 C 142.264 73.803,143.385 73.644,146.559 71.116 C 148.159 69.842,150.612 68.096,152.012 67.236 C 154.691 65.589,154.793 65.175,152.199 66.472 M187.207 66.887 C 187.207 67.086,184.760 67.380,181.770 67.541 C 172.803 68.022,166.563 68.515,165.885 68.795 C 165.533 68.940,164.679 69.154,163.987 69.271 C 159.536 70.024,154.882 71.867,151.173 74.344 C 146.156 77.695,145.987 77.772,148.129 75.735 C 151.987 72.065,158.472 69.111,166.098 67.551 C 170.971 66.554,187.207 66.043,187.207 66.887 M190.327 69.104 C 193.418 69.585,196.131 70.160,196.354 70.383 C 196.906 70.936,196.344 70.908,190.883 70.107 C 187.629 69.630,184.133 69.469,179.253 69.574 C 172.372 69.721,171.878 69.457,177.650 68.716 C 182.347 68.114,184.349 68.175,190.327 69.104 M227.340 69.616 L 225.912 71.002 226.184 69.829 C 226.333 69.184,226.275 68.657,226.055 68.657 C 225.834 68.657,225.518 69.278,225.351 70.038 C 225.020 71.544,223.701 73.522,221.368 76.013 C 220.544 76.892,220.077 77.612,220.330 77.612 C 220.714 77.612,224.042 73.896,225.073 72.315 C 225.238 72.062,225.740 71.653,226.189 71.405 C 226.937 70.993,229.329 68.230,228.938 68.230 C 228.845 68.230,228.126 68.854,227.340 69.616 M127.131 69.083 C 127.104 70.082,128.929 73.496,129.602 73.705 C 130.016 73.833,129.929 73.503,129.324 72.653 C 128.839 71.972,128.151 70.746,127.795 69.929 C 127.439 69.112,127.141 68.731,127.131 69.083 M170.432 70.131 C 170.001 70.457,168.274 70.948,166.594 71.221 C 162.294 71.920,157.048 73.266,154.838 74.238 C 152.216 75.391,152.284 75.054,155.002 73.429 C 158.703 71.215,173.047 68.149,170.432 70.131 M183.369 71.145 C 183.369 71.472,174.758 71.345,173.774 71.004 C 173.539 70.923,175.602 70.841,178.358 70.823 C 181.114 70.804,183.369 70.949,183.369 71.145 M192.894 71.512 C 198.129 72.197,198.558 72.329,201.232 74.061 C 204.437 76.138,204.415 76.429,201.179 74.789 C 198.701 73.534,193.082 72.267,188.034 71.827 C 186.181 71.665,184.768 71.366,184.895 71.161 C 185.223 70.631,186.643 70.693,192.894 71.512 M202.871 72.087 C 205.310 73.141,207.575 74.922,209.032 76.934 C 210.732 79.280,210.250 79.289,207.850 76.957 C 206.725 75.863,204.307 74.098,202.476 73.034 C 198.070 70.475,198.234 70.083,202.871 72.087 M256.767 75.160 C 256.737 77.397,256.887 78.891,257.143 78.891 C 257.633 78.891,257.633 74.632,257.143 72.708 C 256.913 71.806,256.802 72.530,256.767 75.160 M109.182 72.495 C 109.182 72.846,109.368 73.422,109.595 73.774 C 109.962 74.343,110.008 74.343,110.008 73.774 C 110.008 73.422,109.822 72.846,109.595 72.495 C 109.227 71.926,109.182 71.926,109.182 72.495 M93.390 77.399 C 93.390 78.661,93.215 79.802,93.000 79.935 C 92.428 80.288,92.307 79.610,92.470 76.977 C 92.655 73.999,93.390 74.335,93.390 77.399 M187.433 75.255 C 194.953 76.475,201.071 78.623,204.702 81.319 L 206.889 82.942 202.698 84.928 C 189.987 90.950,168.236 91.255,152.559 85.631 C 146.895 83.599,146.984 83.704,149.147 81.645 C 154.867 76.199,173.787 73.042,187.433 75.255 M219.527 75.573 C 218.524 77.119,217.861 78.465,218.103 78.465 C 218.479 78.465,220.608 75.050,220.376 74.818 C 220.256 74.698,219.874 75.038,219.527 75.573 M110.448 75.407 C 110.448 77.516,120.272 86.994,122.459 86.994 C 122.766 86.994,122.017 86.321,120.796 85.498 C 117.586 83.337,113.131 79.043,111.876 76.901 C 110.813 75.086,110.448 74.705,110.448 75.407 M100.663 79.104 C 100.610 81.507,102.480 85.995,104.484 88.273 L 105.797 89.765 104.693 88.012 C 104.086 87.047,102.935 84.456,102.136 82.255 C 101.336 80.053,100.674 78.635,100.663 79.104 M249.068 80.682 C 249.053 81.080,249.520 81.924,250.107 82.556 C 251.528 84.090,251.453 84.435,249.695 84.435 C 246.252 84.435,240.201 92.763,243.094 93.520 C 243.622 93.658,244.636 93.470,245.348 93.102 C 246.303 92.608,246.832 92.551,247.364 92.883 C 248.016 93.290,249.474 89.382,249.468 87.247 C 249.466 86.443,247.773 88.437,247.338 89.757 C 246.894 91.101,244.279 93.036,243.695 92.452 C 242.628 91.384,247.540 86.072,249.889 85.754 C 251.567 85.527,251.797 85.356,252.123 84.095 C 252.323 83.322,252.767 82.582,253.109 82.450 C 253.451 82.319,253.731 81.944,253.731 81.617 C 253.731 80.911,251.920 80.822,250.711 81.469 C 250.023 81.837,249.812 81.745,249.487 80.936 C 249.206 80.234,249.087 80.162,249.068 80.682 M253.859 86.141 C 253.859 87.431,253.939 87.958,254.037 87.313 C 254.134 86.668,254.134 85.613,254.037 84.968 C 253.939 84.323,253.859 84.851,253.859 86.141 M234.968 88.691 C 230.444 91.462,221.190 100.213,222.784 100.213 C 223.186 100.213,225.564 98.229,228.068 95.805 C 230.573 93.380,233.486 90.812,234.542 90.097 C 236.252 88.940,238.366 86.993,237.913 86.994 C 237.818 86.994,236.493 87.758,234.968 88.691 M256.133 87.633 C 255.936 88.102,255.427 89.481,255.000 90.696 L 254.224 92.906 255.470 94.210 C 256.156 94.928,256.716 95.814,256.716 96.179 C 256.716 96.545,257.004 97.399,257.354 98.078 C 257.991 99.310,257.987 99.318,254.902 102.578 C 253.203 104.375,251.650 106.129,251.451 106.477 C 248.444 111.735,239.252 111.160,237.671 105.614 C 236.123 100.182,223.881 109.722,223.881 116.361 C 223.881 124.102,232.829 124.786,246.640 118.100 C 252.491 115.268,253.124 115.103,252.675 116.525 C 251.173 121.285,252.617 122.702,260.391 124.093 C 264.953 124.910,267.103 125.750,267.539 126.885 C 268.016 128.127,267.824 128.358,266.315 128.358 C 265.496 128.358,262.377 128.819,259.385 129.382 C 256.393 129.945,252.769 130.600,251.333 130.838 C 248.794 131.260,247.320 131.854,243.633 133.945 C 241.908 134.923,240.427 134.769,241.861 133.760 C 244.313 132.037,244.214 132.128,243.284 132.454 C 242.814 132.618,241.807 132.840,241.045 132.947 C 239.416 133.177,239.397 133.230,240.514 134.429 C 240.984 134.934,241.224 135.470,241.047 135.621 C 240.194 136.346,236.144 137.740,234.889 137.740 C 230.267 137.742,222.175 141.760,222.175 144.053 C 222.175 146.614,229.138 150.623,232.235 149.845 C 233.810 149.450,233.455 148.827,231.657 148.827 C 229.988 148.827,225.267 146.786,224.334 145.661 C 223.595 144.771,226.047 141.578,227.469 141.578 C 227.527 141.578,227.491 142.591,227.389 143.829 L 227.202 146.081 229.486 147.066 C 237.582 150.558,238.024 151.052,235.421 153.705 C 229.557 159.679,210.923 159.097,215.812 153.092 L 216.680 152.026 216.403 153.518 L 216.126 155.011 218.084 153.001 C 220.316 150.710,220.414 150.170,219.083 147.535 C 216.571 142.562,202.155 139.803,188.180 141.620 C 174.837 143.354,163.825 141.833,167.271 138.731 C 168.781 137.371,169.073 137.277,173.657 136.681 C 176.946 136.254,178.125 135.928,178.555 135.330 C 180.366 132.808,180.574 132.716,180.807 134.328 C 181.074 136.170,183.703 137.265,187.928 137.295 C 189.380 137.305,190.697 137.522,190.855 137.777 C 191.189 138.318,173.583 138.088,171.924 137.530 C 171.050 137.236,170.945 137.316,171.071 138.183 C 171.363 140.188,180.574 141.013,189.979 139.876 C 192.090 139.621,199.286 139.224,205.970 138.994 C 222.162 138.436,225.992 137.742,225.419 135.469 C 225.265 134.856,225.803 134.430,227.963 133.461 C 230.784 132.196,231.070 131.880,230.192 131.002 C 229.504 130.314,227.525 130.364,224.986 131.135 C 223.834 131.484,221.531 131.766,219.868 131.760 L 216.844 131.751 218.657 130.928 C 221.090 129.824,220.998 128.975,218.124 126.032 C 216.834 124.710,215.778 123.870,215.778 124.163 C 215.778 124.457,216.489 125.425,217.357 126.315 L 218.936 127.932 216.611 127.927 C 214.902 127.923,213.777 127.631,212.367 126.825 L 210.448 125.729 211.482 126.830 C 212.909 128.351,211.678 128.335,209.363 126.803 C 207.809 125.774,207.715 125.610,208.306 124.957 C 208.663 124.563,208.955 124.093,208.955 123.914 C 208.955 123.735,209.339 123.101,209.808 122.504 C 211.661 120.149,210.994 119.450,208.275 120.896 C 207.172 121.482,205.725 121.962,205.059 121.962 C 204.393 121.962,201.303 122.806,198.193 123.838 C 188.958 126.902,186.462 126.776,179.632 122.900 C 173.687 119.527,172.623 119.031,168.870 117.890 C 164.088 116.436,159.684 116.833,158.508 118.826 C 158.320 119.143,157.813 119.403,157.381 119.403 C 156.573 119.403,156.067 120.210,156.090 121.463 C 156.101 122.106,156.145 122.103,156.537 121.429 C 156.776 121.018,157.227 120.682,157.538 120.682 C 157.850 120.682,158.379 120.269,158.715 119.764 C 160.291 117.390,171.755 119.403,172.590 122.200 C 172.835 123.020,167.581 124.529,164.499 124.525 C 162.861 124.522,161.620 124.704,161.620 124.947 C 161.620 126.173,167.437 125.491,170.940 123.854 C 174.543 122.170,174.414 122.202,174.414 122.979 C 174.414 123.304,174.941 123.904,175.586 124.313 C 179.402 126.734,181.009 129.406,179.368 130.601 C 178.754 131.049,178.252 131.782,178.252 132.232 C 178.252 133.412,177.557 133.236,176.737 131.847 C 174.761 128.502,165.822 125.040,163.326 126.652 C 162.871 126.947,163.376 127.068,165.075 127.072 C 171.785 127.091,179.194 133.591,173.536 134.496 C 168.419 135.314,164.462 137.886,165.069 140.000 C 165.784 142.495,166.582 142.886,171.890 143.342 C 174.556 143.571,176.796 143.818,176.868 143.890 C 177.006 144.028,166.964 146.067,162.900 146.726 C 154.001 148.170,146.496 144.076,152.977 141.313 C 158.888 138.793,161.325 137.436,162.350 136.091 C 163.669 134.362,163.789 131.868,162.595 131.007 C 159.713 128.928,158.272 128.259,156.214 128.047 C 153.454 127.762,153.255 128.172,155.839 128.823 C 158.449 129.480,161.194 131.879,161.194 133.503 C 161.194 135.638,153.921 138.952,146.269 140.305 C 144.744 140.574,142.154 141.166,140.512 141.619 C 138.870 142.073,135.800 142.808,133.689 143.253 C 128.851 144.274,126.407 145.326,124.333 147.283 C 123.432 148.132,122.543 148.827,122.357 148.827 C 121.661 148.827,121.467 150.686,121.974 152.497 C 122.441 154.164,122.637 154.371,123.744 154.371 C 124.429 154.371,125.566 154.669,126.271 155.034 C 128.581 156.229,134.813 156.704,138.087 155.936 C 139.655 155.568,142.761 155.063,144.989 154.813 C 151.138 154.125,158.536 153.148,166.098 152.025 C 180.298 149.917,179.856 149.957,183.529 150.463 C 185.434 150.725,188.337 151.049,189.979 151.182 C 196.831 151.738,201.706 153.122,201.706 154.511 C 201.706 155.169,197.893 157.014,194.865 157.822 C 192.966 158.328,192.888 158.309,190.939 156.820 C 187.633 154.297,184.798 154.015,166.098 154.347 C 156.606 154.516,163.226 155.164,174.748 155.194 C 186.144 155.223,186.424 155.245,188.394 156.244 C 191.602 157.871,192.232 158.786,190.820 159.767 C 188.754 161.199,188.060 162.035,188.060 163.085 C 188.060 163.656,187.860 164.650,187.615 165.293 C 186.653 167.822,196.459 172.458,205.544 173.770 C 206.599 173.922,208.038 174.222,208.742 174.436 C 215.432 176.469,230.761 176.496,240.085 174.491 C 241.141 174.264,243.923 173.852,246.269 173.574 C 260.282 171.917,267.348 168.200,267.725 162.290 L 267.899 159.554 265.856 157.369 C 264.499 155.918,262.568 154.542,260.107 153.271 C 248.393 147.221,254.156 141.853,275.355 139.067 C 281.907 138.206,284.604 137.536,288.486 135.807 C 289.659 135.284,291.217 134.629,291.948 134.351 C 294.703 133.303,297.463 129.457,296.769 127.633 C 295.495 124.281,288.417 119.965,281.450 118.292 C 277.567 117.360,278.536 117.025,283.271 117.662 C 285.552 117.969,286.877 117.984,287.155 117.706 C 287.738 117.124,287.664 117.089,283.582 116.005 C 274.555 113.607,271.931 109.981,277.363 107.411 C 278.790 106.736,280.257 106.184,280.623 106.184 C 282.251 106.183,284.252 102.845,283.235 101.828 C 282.342 100.935,278.184 100.667,271.306 101.061 C 267.472 101.280,263.771 101.347,263.082 101.209 C 260.198 100.632,257.382 95.530,256.800 89.828 C 256.573 87.599,256.394 87.009,256.133 87.633 M261.632 88.380 C 261.792 89.142,262.216 90.396,262.574 91.167 C 263.285 92.698,263.168 93.122,262.141 92.728 C 261.313 92.410,261.087 91.835,260.728 89.131 C 260.407 86.710,261.149 86.092,261.632 88.380 M260.121 90.744 C 260.129 91.894,261.901 93.817,262.953 93.817 C 263.356 93.817,264.012 94.112,264.411 94.473 C 265.313 95.290,269.613 96.051,269.386 95.354 C 269.301 95.095,268.527 94.705,267.665 94.488 C 266.577 94.213,266.098 93.855,266.098 93.315 C 266.098 92.292,266.303 92.318,269.883 93.795 C 273.166 95.149,276.470 95.722,283.700 96.194 C 286.227 96.358,288.398 96.659,288.523 96.861 C 288.834 97.364,273.666 97.328,272.334 96.822 C 271.555 96.525,270.905 96.596,269.931 97.081 C 265.957 99.064,261.083 97.191,259.907 93.231 C 259.172 90.756,259.039 88.101,259.701 89.126 C 259.929 89.478,260.118 90.206,260.121 90.744 M93.850 91.132 C 96.256 97.460,101.435 104.589,105.745 107.504 C 107.687 108.818,109.973 110.646,110.823 111.567 C 111.674 112.489,113.041 113.495,113.861 113.804 C 119.550 115.949,121.560 117.359,123.010 120.222 C 124.820 123.793,125.619 123.604,124.065 119.971 C 122.582 116.505,120.820 115.176,114.834 113.010 C 113.265 112.442,111.917 111.643,111.530 111.052 C 111.171 110.504,109.772 109.303,108.423 108.383 C 103.914 105.312,99.216 99.522,95.306 92.217 C 94.047 89.866,93.100 89.160,93.850 91.132 M106.981 91.128 C 107.248 91.642,107.653 92.178,107.881 92.319 C 108.112 92.462,108.181 93.399,108.037 94.451 C 107.811 96.096,107.944 96.550,109.114 98.141 C 109.847 99.139,110.448 100.163,110.448 100.419 C 110.448 100.981,112.668 102.345,113.584 102.345 C 113.946 102.345,115.126 101.749,116.206 101.021 C 117.527 100.129,118.511 99.761,119.216 99.896 C 120.062 100.058,120.171 99.985,119.781 99.515 C 119.065 98.652,118.162 98.803,116.510 100.063 C 114.559 101.551,110.578 101.301,111.536 99.751 C 111.660 99.550,111.288 98.973,110.710 98.470 C 109.234 97.187,108.486 95.279,109.146 94.483 C 109.762 93.741,109.318 92.781,107.657 91.258 C 106.575 90.266,106.528 90.257,106.981 91.128 M137.527 92.825 C 135.433 93.879,134.942 94.257,135.881 94.092 C 137.090 93.879,141.879 91.214,140.915 91.290 C 140.693 91.307,139.168 91.998,137.527 92.825 M251.829 95.809 C 251.155 97.356,249.868 99.395,248.968 100.341 C 247.119 102.285,247.173 102.747,249.163 102.019 L 250.533 101.518 249.337 102.571 C 248.678 103.151,247.719 103.628,247.204 103.631 C 246.472 103.636,246.403 103.723,246.886 104.028 C 247.967 104.712,245.304 105.102,244.068 104.441 C 243.042 103.892,240.636 100.374,241.022 99.987 C 241.125 99.884,241.858 100.468,242.650 101.286 C 243.536 102.200,244.499 102.772,245.153 102.772 C 246.226 102.772,243.478 99.925,237.935 95.294 C 234.177 92.154,229.252 94.781,227.482 100.870 C 226.790 103.250,224.513 106.237,222.414 107.516 C 221.011 108.372,221.434 108.576,223.210 107.901 C 224.477 107.419,228.145 104.150,228.145 103.503 C 228.145 101.613,232.634 97.507,234.638 97.564 C 235.297 97.583,235.726 97.419,235.590 97.200 C 235.043 96.314,232.505 96.797,231.175 98.039 C 229.258 99.830,229.545 98.713,231.506 96.752 C 233.564 94.694,235.076 94.551,236.147 96.313 C 236.555 96.983,237.518 98.061,238.289 98.710 C 239.059 99.358,239.987 100.463,240.350 101.166 C 242.750 105.807,245.216 106.855,249.087 104.880 C 251.305 103.749,253.668 100.626,251.749 101.363 C 250.958 101.666,250.954 101.703,252.400 96.392 C 253.490 92.390,253.371 92.269,251.829 95.809 M253.391 96.512 C 252.782 98.196,252.706 99.713,253.261 99.126 C 253.648 98.716,254.373 95.096,254.068 95.096 C 253.977 95.096,253.672 95.733,253.391 96.512 M199.574 97.232 C 196.856 97.712,189.023 100.302,189.638 100.518 C 189.920 100.616,192.562 100.097,195.508 99.364 C 209.099 95.982,218.574 103.759,212.464 113.281 C 211.006 115.554,210.847 115.991,211.483 115.991 C 212.331 115.991,214.572 111.245,214.934 108.680 C 215.588 104.052,211.246 98.170,206.659 97.469 C 203.503 96.986,201.368 96.915,199.574 97.232 M244.883 97.103 C 244.355 97.204,243.923 97.466,243.923 97.684 C 243.923 98.225,244.369 98.162,245.629 97.441 C 246.711 96.823,246.600 96.772,244.883 97.103 M170.220 98.028 C 169.831 98.275,170.276 98.545,171.637 98.888 C 172.728 99.163,174.586 100.051,175.765 100.863 C 179.416 103.374,181.247 103.704,189.765 103.391 C 197.286 103.114,203.461 104.112,204.486 105.770 C 204.626 105.997,205.169 106.183,205.692 106.183 C 207.518 106.183,210.826 110.118,210.531 111.939 C 209.539 118.048,192.275 123.148,185.288 119.394 C 183.881 118.638,181.290 117.681,179.531 117.267 C 177.772 116.852,174.896 116.095,173.139 115.583 C 169.807 114.612,164.976 114.342,162.402 114.983 C 161.279 115.262,161.965 115.392,165.672 115.601 C 168.859 115.781,171.570 116.227,174.129 116.991 C 176.200 117.610,179.075 118.306,180.517 118.538 C 181.958 118.771,183.694 119.372,184.374 119.874 C 188.975 123.277,202.335 121.708,207.532 117.156 C 210.738 114.347,212.280 110.736,210.981 109.077 C 209.355 107.001,206.171 104.900,202.701 103.615 L 198.934 102.219 190.605 102.309 C 181.774 102.404,179.137 101.989,177.186 100.197 C 175.234 98.404,171.474 97.233,170.220 98.028 M164.072 99.409 C 161.444 101.371,163.048 103.205,166.279 101.932 C 170.021 100.457,172.381 100.724,174.635 102.878 C 176.138 104.316,177.328 104.947,180.380 105.929 L 184.230 107.168 187.820 106.462 C 199.530 104.162,207.507 108.825,199.743 113.433 L 197.228 114.925 190.192 114.858 L 183.156 114.790 187.633 115.589 C 194.511 116.815,195.824 116.734,199.663 114.841 C 201.471 113.949,202.958 112.986,202.968 112.702 C 202.977 112.417,203.369 111.978,203.838 111.727 C 205.161 111.019,205.018 108.209,203.602 107.095 C 200.097 104.338,194.753 103.660,185.812 104.840 C 182.666 105.254,178.443 104.218,176.291 102.503 C 173.353 100.161,172.543 99.791,170.362 99.792 C 169.190 99.792,167.745 100.045,167.153 100.354 C 164.586 101.694,163.383 101.493,165.032 100.000 C 166.707 98.484,165.943 98.014,164.072 99.409 M303.863 98.893 C 303.732 99.105,304.633 99.356,305.864 99.452 C 308.360 99.645,308.521 99.611,308.120 98.962 C 307.779 98.410,304.198 98.352,303.863 98.893 M125.501 101.964 C 124.750 102.181,124.019 102.548,123.876 102.779 C 123.557 103.295,123.814 103.291,126.175 102.747 C 129.846 101.900,132.052 103.452,133.515 107.909 C 135.520 114.014,140.802 116.885,145.532 114.439 C 146.276 114.054,148.138 113.284,149.668 112.728 C 152.187 111.814,152.289 111.733,150.741 111.881 C 149.800 111.971,147.728 112.566,146.137 113.203 C 140.560 115.434,136.241 113.447,134.574 107.883 C 133.037 102.752,129.886 100.696,125.501 101.964 M259.390 101.750 C 259.531 101.891,259.132 102.489,258.502 103.078 L 257.356 104.148 258.544 103.441 C 259.465 102.891,260.287 102.796,262.214 103.014 C 263.579 103.168,266.403 103.065,268.489 102.784 C 276.051 101.767,285.736 102.564,280.815 103.799 C 279.299 104.179,273.744 107.773,272.603 109.111 C 271.171 110.792,271.382 111.709,272.872 110.281 L 274.103 109.102 273.885 111.038 L 273.667 112.975 275.857 114.337 C 278.351 115.887,278.392 116.176,276.056 115.740 C 274.906 115.525,273.935 114.910,272.814 113.687 C 270.780 111.465,270.580 112.679,272.601 114.983 L 273.987 116.562 271.869 116.272 C 269.378 115.931,266.525 114.203,266.525 113.035 C 266.525 111.894,266.966 110.874,267.461 110.874 C 268.293 110.874,270.362 108.510,270.362 107.560 C 270.362 105.581,267.438 105.298,260.554 106.610 C 258.093 107.079,256.051 107.463,256.017 107.463 C 255.551 107.463,255.619 105.849,256.137 104.595 C 257.177 102.076,258.532 100.891,259.390 101.750 M137.488 104.820 C 140.420 107.983,157.101 111.479,162.687 110.101 L 164.392 109.681 161.923 109.638 C 156.290 109.540,145.958 107.988,144.788 107.063 C 144.547 106.873,143.390 106.585,142.217 106.424 C 140.896 106.241,139.356 105.626,138.166 104.806 L 136.247 103.482 137.488 104.820 M129.764 105.240 C 130.391 105.894,131.176 107.337,131.510 108.446 C 133.563 115.266,140.247 119.929,144.698 117.646 C 146.331 116.808,151.387 113.292,151.212 113.116 C 151.036 112.941,148.714 114.140,146.467 115.567 C 141.299 118.850,134.028 115.058,132.155 108.102 C 131.703 106.423,129.886 104.051,129.052 104.051 C 128.817 104.051,129.138 104.586,129.764 105.240 M98.546 107.108 C 99.221 108.370,98.647 108.005,97.594 106.503 C 96.904 105.520,96.841 105.293,97.375 105.722 C 97.789 106.054,98.316 106.678,98.546 107.108 M236.430 106.001 C 236.799 106.369,237.100 106.862,237.100 107.096 C 237.100 111.366,244.830 113.721,250.746 111.255 C 252.468 110.537,265.400 107.889,267.184 107.889 C 267.721 107.889,267.513 108.321,266.361 109.596 C 262.523 113.845,265.756 117.152,275.105 118.541 C 283.897 119.848,291.959 123.200,294.786 126.723 L 296.040 128.286 294.972 130.077 C 292.874 133.596,283.303 136.417,270.492 137.291 C 250.419 138.662,244.421 148.876,259.820 155.466 C 267.108 158.585,269.117 164.239,263.869 166.864 C 260.884 168.358,255.579 170.476,254.158 170.742 C 252.873 170.982,252.951 170.905,254.715 170.191 C 255.843 169.734,257.378 168.907,258.127 168.352 C 258.876 167.798,260.585 166.692,261.926 165.894 C 263.267 165.096,264.468 164.172,264.595 163.840 C 264.749 163.439,264.362 163.543,263.436 164.151 C 260.972 165.771,252.711 169.669,251.173 169.937 C 249.722 170.189,249.740 170.163,251.812 168.988 C 254.431 167.505,257.996 165.071,257.996 164.767 C 257.996 164.563,255.055 166.147,251.812 168.097 C 251.109 168.521,250.287 168.867,249.986 168.868 C 248.519 168.873,246.382 170.154,246.867 170.739 C 247.468 171.463,246.652 171.864,244.635 171.836 L 243.284 171.817 244.563 171.231 C 246.858 170.180,240.882 171.006,236.461 172.351 C 233.144 173.360,217.916 172.777,214.497 171.511 C 214.058 171.348,216.997 171.204,221.029 171.189 C 234.214 171.143,249.360 167.497,252.047 163.722 C 254.688 160.014,253.094 156.401,246.690 151.582 C 242.219 148.217,242.084 147.508,245.295 144.256 C 247.585 141.937,248.551 141.382,247.776 142.829 C 245.711 146.687,248.421 151.410,255.710 156.656 C 260.212 159.897,260.938 161.328,259.201 163.536 C 258.300 164.682,258.299 164.702,259.151 164.245 C 262.567 162.417,260.650 159.035,252.906 153.230 C 249.521 150.692,248.188 148.399,248.188 145.115 C 248.188 140.555,252.746 138.317,265.420 136.656 C 268.448 136.259,272.574 135.474,274.588 134.912 C 276.603 134.349,279.269 133.604,280.512 133.256 C 286.822 131.488,288.659 128.059,285.510 123.931 C 282.721 120.274,277.216 118.903,266.029 119.078 C 259.336 119.183,258.852 119.137,257.713 118.277 C 256.501 117.362,256.468 117.179,257.002 114.336 L 257.273 112.893 254.367 113.204 C 250.107 113.661,247.142 114.519,243.070 116.477 C 236.245 119.758,231.485 119.383,229.337 115.396 C 228.963 114.702,229.026 114.620,229.783 114.818 C 230.555 115.020,230.635 114.900,230.425 113.851 C 230.008 111.767,233.525 107.637,234.960 108.524 C 235.199 108.672,235.394 108.610,235.394 108.386 C 235.394 105.854,230.164 109.629,229.584 112.580 C 229.423 113.401,229.005 114.283,228.655 114.539 C 226.985 115.765,230.877 119.403,233.858 119.403 C 234.469 119.403,234.968 119.595,234.968 119.829 C 234.968 120.496,231.566 120.295,229.226 119.491 C 226.220 118.458,226.159 116.947,228.915 111.802 C 232.292 105.497,234.343 103.914,236.430 106.001 M103.807 112.536 C 104.493 113.259,104.935 113.971,104.787 114.118 C 104.478 114.427,99.360 109.665,99.360 109.068 C 99.360 108.591,102.062 110.698,103.807 112.536 M217.522 109.969 C 214.925 113.616,214.593 118.614,216.738 121.777 C 219.151 125.336,220.012 125.571,231.040 125.680 C 238.771 125.756,240.718 125.896,241.476 126.426 C 241.988 126.785,242.988 127.090,243.698 127.103 C 244.773 127.123,244.382 127.417,241.365 128.856 C 236.404 131.222,237.756 131.418,243.136 129.112 C 247.771 127.126,248.537 126.437,246.643 125.962 C 245.519 125.679,245.507 125.650,246.383 125.326 C 246.951 125.116,248.039 125.238,249.237 125.647 C 252.231 126.667,251.992 126.954,246.695 128.691 C 242.944 129.922,239.058 131.653,238.885 132.171 C 238.698 132.734,239.029 132.744,239.984 132.205 C 241.318 131.454,246.187 129.638,246.875 129.635 C 249.424 129.626,252.452 127.770,252.452 126.218 C 252.452 123.694,240.725 122.619,226.813 123.868 C 222.321 124.271,217.910 122.795,217.910 120.887 C 217.910 120.613,217.527 120.041,217.058 119.616 C 215.642 118.335,215.864 114.318,217.512 111.399 C 218.950 108.851,218.956 107.954,217.522 109.969 M227.765 112.047 C 227.102 113.253,226.041 114.529,226.026 114.138 C 226.005 113.565,227.440 111.301,227.825 111.301 C 228.018 111.301,227.990 111.636,227.765 112.047 M225.883 116.521 C 225.706 117.840,225.824 118.532,226.319 119.079 C 227.190 120.041,226.516 120.034,225.261 119.068 C 224.314 118.339,224.309 118.293,225.006 116.519 C 225.907 114.224,226.190 114.225,225.883 116.521 M255.675 115.660 C 253.087 119.355,256.231 121.184,265.488 121.368 C 275.066 121.559,283.509 124.147,284.377 127.159 C 284.737 128.407,284.789 128.446,284.823 127.494 C 284.905 125.198,283.272 123.960,277.399 121.866 L 273.987 120.650 276.546 120.885 C 284.464 121.613,288.968 127.948,283.441 130.584 C 280.954 131.770,279.004 132.031,279.745 131.079 C 280.351 130.301,280.342 130.300,279.465 131.046 C 277.803 132.460,274.321 133.439,268.586 134.106 C 250.086 136.259,239.964 141.112,241.145 147.263 C 241.457 148.888,240.466 147.951,239.417 145.629 C 238.893 144.468,238.838 144.441,238.823 145.337 C 238.801 146.633,239.435 147.781,241.430 150.060 C 245.474 154.677,244.299 157.692,237.100 161.166 C 231.378 163.928,226.261 164.421,219.227 162.885 C 212.467 161.410,211.253 160.102,212.934 156.105 L 213.501 154.757 214.166 156.450 C 215.815 160.649,228.521 160.496,235.431 156.193 C 239.059 153.934,239.684 149.805,236.569 148.679 C 235.571 148.319,233.906 147.714,232.869 147.336 C 225.795 144.757,227.027 142.725,238.166 138.601 C 239.574 138.080,241.780 137.116,243.070 136.460 C 246.612 134.657,253.516 132.687,258.698 132.000 C 270.249 130.469,273.130 129.113,271.172 126.127 C 269.522 123.610,268.605 123.209,263.630 122.830 C 254.752 122.154,251.565 119.846,254.393 116.138 C 255.590 114.569,256.739 114.140,255.675 115.660 M106.552 116.226 C 106.687 116.922,106.615 116.953,106.019 116.459 C 105.204 115.782,105.103 114.992,105.864 115.245 C 106.157 115.343,106.467 115.784,106.552 116.226 M112.154 118.667 C 112.154 120.088,111.092 119.186,110.973 117.664 C 110.866 116.287,110.896 116.251,111.506 117.032 C 111.862 117.488,112.154 118.223,112.154 118.667 M192.324 117.271 L 189.552 117.550 192.619 117.624 C 194.305 117.664,195.804 117.505,195.949 117.271 C 196.094 117.036,195.961 116.877,195.654 116.918 C 195.347 116.958,193.849 117.117,192.324 117.271 M117.752 118.094 C 118.603 118.561,119.811 119.551,120.435 120.293 C 121.735 121.838,122.428 121.670,121.376 120.065 C 120.650 118.958,119.122 118.012,117.271 117.524 C 116.524 117.328,116.669 117.499,117.752 118.094 M117.302 120.938 C 120.326 122.977,121.406 123.933,121.224 124.409 C 121.006 124.976,120.893 124.959,120.401 124.285 C 120.086 123.856,119.829 123.733,119.829 124.012 C 119.829 124.853,118.913 124.583,118.675 123.672 C 118.553 123.206,118.271 122.937,118.048 123.074 C 117.594 123.355,115.991 122.059,115.991 121.409 C 115.991 120.825,114.642 119.859,113.802 119.843 C 113.192 119.831,112.290 118.124,112.894 118.124 C 113.023 118.124,115.007 119.390,117.302 120.938 M289.262 118.425 C 289.602 118.976,292.345 119.668,295.736 120.059 C 297.641 120.278,298.177 120.229,297.836 119.868 C 297.585 119.601,295.857 119.209,293.998 118.996 C 292.139 118.783,290.251 118.467,289.802 118.294 C 289.276 118.091,289.084 118.137,289.262 118.425 M224.248 121.510 C 224.801 121.993,225.457 122.388,225.705 122.388 C 226.229 122.388,226.204 122.367,224.520 121.381 L 223.241 120.632 224.248 121.510 M309.808 121.081 C 308.780 121.321,309.157 121.442,311.727 121.698 C 318.227 122.347,327.243 125.334,328.182 127.151 C 328.954 128.644,328.810 128.913,326.524 130.241 C 323.565 131.960,310.330 135.202,306.397 135.172 L 305.117 135.162 306.183 134.328 C 306.770 133.870,308.161 133.187,309.275 132.811 C 310.389 132.435,311.301 131.864,311.301 131.541 C 311.301 130.829,309.062 131.522,306.546 133.013 C 304.685 134.116,299.200 135.955,296.190 136.485 C 295.002 136.694,291.727 137.349,288.913 137.942 C 286.098 138.534,282.139 139.210,280.114 139.444 C 278.089 139.678,275.594 140.249,274.570 140.714 C 273.546 141.179,272.284 141.563,271.766 141.568 C 270.162 141.584,262.077 145.612,261.064 146.899 C 259.603 148.757,260.532 152.665,262.435 152.665 C 262.733 152.665,263.754 153.385,264.702 154.264 C 265.651 155.144,267.618 156.609,269.074 157.521 C 276.686 162.287,274.734 167.106,262.900 172.760 C 261.023 173.657,259.741 174.395,260.051 174.402 C 261.252 174.427,267.105 171.675,269.201 170.100 C 270.414 169.189,271.535 168.443,271.692 168.443 C 272.183 168.443,274.627 164.360,274.627 163.540 C 274.627 161.468,269.601 155.852,267.013 155.030 C 266.068 154.730,264.849 153.788,262.200 151.312 C 260.257 149.496,261.927 145.416,264.613 145.416 C 264.861 145.416,265.792 145.045,266.680 144.592 C 269.391 143.210,277.625 140.799,281.237 140.330 C 283.113 140.086,286.759 139.498,289.339 139.024 C 291.919 138.549,295.341 137.969,296.943 137.734 C 298.545 137.499,300.259 137.090,300.754 136.826 C 301.248 136.562,304.063 136.179,307.009 135.976 C 325.155 134.727,334.689 129.537,327.492 124.826 C 323.706 122.347,313.580 120.203,309.808 121.081 M146.457 122.566 C 146.003 122.899,145.743 123.284,145.881 123.422 C 146.019 123.560,146.480 123.288,146.906 122.817 C 147.812 121.816,147.626 121.712,146.457 122.566 M303.198 124.094 C 303.198 124.328,303.883 124.520,304.720 124.520 C 306.509 124.520,315.317 126.482,316.810 127.213 C 318.295 127.940,318.349 128.636,316.977 129.380 C 315.445 130.210,316.002 130.249,317.924 129.446 C 320.519 128.362,318.855 126.189,314.780 125.341 C 313.453 125.065,311.420 124.575,310.264 124.253 C 307.823 123.573,303.198 123.469,303.198 124.094 M123.667 124.982 C 123.667 126.021,122.671 125.875,122.463 124.805 C 122.382 124.384,122.599 124.094,122.996 124.094 C 123.392 124.094,123.667 124.458,123.667 124.982 M269.689 125.784 C 270.742 126.835,270.850 127.132,270.383 127.693 C 269.480 128.782,268.657 128.494,268.657 127.089 C 268.657 126.064,268.349 125.650,267.058 124.935 L 265.458 124.050 266.951 124.295 C 267.785 124.432,268.993 125.089,269.689 125.784 M281.861 126.198 C 282.540 127.467,282.393 128.420,281.343 129.541 L 280.384 130.566 281.548 130.037 C 283.201 129.286,283.276 125.373,281.637 125.373 C 281.518 125.373,281.619 125.744,281.861 126.198 M128.887 126.390 C 129.964 127.208,130.943 129.761,130.467 130.513 C 130.181 130.965,130.075 130.983,130.070 130.579 C 130.067 130.276,129.174 129.076,128.087 127.914 C 126.095 125.784,126.663 124.702,128.887 126.390 M202.132 126.001 C 202.132 126.321,197.403 127.609,197.151 127.358 C 197.027 127.233,197.857 126.845,198.995 126.495 C 201.192 125.820,202.132 125.672,202.132 126.001 M113.412 127.114 C 116.112 127.693,116.158 128.225,113.539 128.581 C 112.425 128.733,111.166 128.953,110.740 129.071 C 110.208 129.219,110.008 129.084,110.101 128.637 C 110.174 128.280,110.043 127.927,109.808 127.853 C 109.574 127.779,109.321 128.148,109.246 128.674 C 109.057 130.003,110.668 130.705,112.649 130.158 C 116.375 129.129,125.507 132.058,124.492 133.956 C 123.978 134.915,123.000 135.001,122.661 134.118 C 122.331 133.258,119.821 131.766,118.763 131.801 C 118.195 131.820,118.480 132.086,119.616 132.596 C 121.841 133.596,123.149 135.017,122.469 135.697 C 122.092 136.074,121.740 135.975,121.002 135.282 C 118.914 133.319,116.664 132.718,104.904 130.982 C 102.199 130.582,102.059 129.353,104.568 128.043 C 107.173 126.682,110.009 126.384,113.412 127.114 M207.676 127.365 C 207.676 127.523,207.349 128.012,206.950 128.453 C 206.251 129.226,206.267 129.239,207.404 128.807 C 208.258 128.482,208.842 128.496,209.516 128.859 C 210.029 129.134,211.023 129.478,211.727 129.622 C 215.802 130.461,211.872 131.271,202.026 131.622 C 197.862 131.771,194.456 132.029,194.456 132.197 C 194.456 132.503,198.379 133.018,201.235 133.086 L 202.772 133.122 201.493 133.533 C 200.789 133.759,198.822 133.831,197.122 133.692 C 195.349 133.548,194.030 133.607,194.030 133.831 C 194.030 134.917,203.410 135.097,209.493 134.127 C 215.101 133.232,225.173 132.950,222.859 133.751 C 221.946 134.068,220.961 134.523,220.671 134.764 C 217.968 137.007,186.508 137.160,183.478 134.945 C 182.448 134.191,182.694 134.049,187.026 132.888 C 190.953 131.837,193.681 130.909,196.013 129.832 C 196.752 129.490,197.616 129.211,197.932 129.211 C 198.249 129.211,199.947 128.743,201.706 128.172 C 204.801 127.166,207.676 126.778,207.676 127.365 M181.676 128.809 C 181.941 129.304,181.943 129.678,181.682 129.839 C 181.457 129.978,180.975 129.515,180.610 128.810 C 180.016 127.661,180.015 127.554,180.604 127.780 C 180.965 127.919,181.447 128.382,181.676 128.809 M139.527 129.424 C 144.088 131.277,145.921 133.784,143.953 135.477 C 142.447 136.772,141.725 136.737,142.595 135.409 C 144.084 133.137,142.649 131.183,138.499 129.837 C 137.261 129.435,136.065 128.938,135.842 128.732 C 135.062 128.012,136.902 128.357,139.527 129.424 M152.026 129.112 C 152.729 129.524,153.858 130.145,154.533 130.491 C 156.247 131.369,156.761 132.676,156.161 134.631 C 155.549 136.623,155.812 136.930,156.685 135.242 C 158.008 132.683,157.013 130.707,153.654 129.221 C 151.255 128.160,150.292 128.095,152.026 129.112 M187.846 129.638 C 186.650 130.152,183.369 130.152,183.369 129.638 C 183.369 129.396,184.522 129.224,186.034 129.241 C 187.918 129.262,188.449 129.378,187.846 129.638 M191.151 130.930 C 189.828 131.462,182.912 132.734,182.668 132.490 C 182.559 132.381,183.967 131.970,185.798 131.577 C 187.628 131.184,189.318 130.794,189.552 130.710 C 190.659 130.315,192.167 130.522,191.151 130.930 M180.384 131.963 C 179.244 132.594,178.846 132.534,179.300 131.798 C 179.455 131.548,180.002 131.350,180.516 131.358 C 181.417 131.373,181.412 131.395,180.384 131.963 M133.596 134.093 C 133.310 135.020,133.151 135.852,133.242 135.942 C 133.584 136.285,134.376 134.244,134.249 133.347 C 134.145 132.621,133.998 132.790,133.596 134.093 M231.595 135.210 C 228.417 136.338,228.459 136.398,232.372 136.318 C 234.267 136.279,235.818 136.133,235.819 135.994 C 235.821 135.699,234.348 134.313,234.082 134.360 C 233.983 134.377,232.864 134.759,231.595 135.210 M247.206 136.223 C 244.333 137.248,239.232 141.493,239.232 142.860 C 239.232 143.094,239.901 142.546,240.718 141.642 C 242.763 139.378,245.121 137.821,248.281 136.647 C 249.995 136.011,250.575 135.651,249.893 135.649 C 249.307 135.647,248.098 135.905,247.206 136.223 M335.796 136.697 C 334.981 137.350,334.982 137.354,335.821 136.968 C 336.290 136.752,336.962 136.469,337.313 136.339 C 337.866 136.134,337.863 136.097,337.288 136.068 C 336.923 136.049,336.251 136.333,335.796 136.697 M265.245 139.295 C 263.721 139.627,261.514 140.290,260.341 140.770 C 257.046 142.116,256.823 142.156,258.366 141.118 C 259.841 140.125,265.053 138.641,266.951 138.674 C 267.537 138.684,266.770 138.964,265.245 139.295 M149.765 143.369 C 146.575 146.559,156.870 148.982,165.811 147.146 C 168.314 146.632,172.186 145.840,174.414 145.387 C 190.056 142.204,205.602 142.519,212.468 146.156 C 217.002 148.558,217.161 149.026,214.479 152.084 C 207.800 159.698,211.512 164.382,224.975 165.327 C 233.726 165.942,245.629 159.633,245.629 154.380 C 245.629 151.785,249.909 154.237,251.770 157.897 C 254.736 163.735,247.177 167.472,227.719 169.788 C 223.071 170.341,212.691 170.055,212.461 169.367 C 212.370 169.094,211.688 168.866,210.945 168.861 C 206.509 168.832,196.044 164.892,195.419 163.015 C 195.332 162.755,196.567 161.829,198.164 160.958 C 204.882 157.292,205.515 156.581,204.713 153.600 C 204.189 151.655,202.027 150.047,199.147 149.460 C 198.326 149.292,197.463 149.003,197.228 148.817 C 194.172 146.396,169.832 147.071,159.701 149.858 C 153.416 151.587,148.083 151.749,142.547 150.378 C 141.193 150.043,139.563 149.651,138.925 149.506 C 136.938 149.056,136.647 147.777,138.270 146.621 C 141.637 144.224,151.781 141.354,149.765 143.369 M140.273 143.836 C 135.042 147.003,134.768 147.417,136.567 149.423 C 137.542 150.509,143.317 152.186,146.409 152.280 C 147.153 152.303,146.034 152.603,143.923 152.947 C 136.128 154.217,127.017 152.905,126.735 150.471 C 126.590 149.217,130.244 146.695,132.208 146.695 C 132.743 146.695,133.820 146.208,134.600 145.614 C 135.793 144.704,140.852 142.610,142.192 142.472 C 142.413 142.449,141.550 143.063,140.273 143.836 M214.925 145.216 C 218.061 146.819,219.487 150.314,217.450 151.404 C 216.701 151.805,216.676 151.753,217.134 150.748 C 217.912 149.041,216.715 147.012,213.981 145.403 C 211.869 144.160,212.583 144.018,214.925 145.216 M126.928 147.741 C 124.841 149.675,126.023 153.467,128.736 153.536 C 129.114 153.545,130.864 153.918,132.623 154.364 L 135.821 155.174 132.196 154.936 C 128.039 154.663,124.219 153.507,123.134 152.195 C 122.104 150.948,122.097 150.961,124.780 148.706 C 127.239 146.638,128.945 145.872,126.928 147.741 M194.301 149.383 C 194.693 149.775,190.705 149.686,189.339 149.272 C 188.647 149.062,189.279 148.973,191.138 149.017 C 192.714 149.055,194.137 149.219,194.301 149.383 M305.330 150.546 C 295.419 151.119,293.015 151.781,292.100 154.186 C 290.954 157.201,292.965 159.263,298.653 160.906 C 305.332 162.835,308.466 162.147,307.658 158.929 C 307.265 157.364,308.630 156.770,312.000 157.040 C 319.195 157.618,324.080 154.804,320.964 151.877 C 319.025 150.056,316.916 149.876,305.330 150.546 M201.584 151.794 C 205.691 153.659,204.722 156.359,198.984 159.038 C 193.733 161.491,192.974 162.649,195.005 165.110 C 195.906 166.203,200.893 168.869,202.038 168.870 C 202.338 168.870,203.738 169.453,205.150 170.166 C 206.562 170.878,209.099 171.767,210.788 172.141 C 212.477 172.514,214.147 172.997,214.499 173.214 C 215.503 173.832,211.369 173.308,207.249 172.296 C 205.256 171.806,202.377 171.208,200.853 170.966 C 192.436 169.633,186.890 165.571,189.832 162.894 C 192.312 160.638,194.562 159.106,195.793 158.836 C 196.528 158.674,198.044 158.084,199.160 157.523 C 200.277 156.962,201.407 156.503,201.672 156.503 C 202.288 156.503,203.034 154.569,202.727 153.769 C 202.599 153.434,201.501 152.676,200.287 152.085 C 197.688 150.820,198.859 150.557,201.584 151.794 M318.524 152.407 C 322.366 153.795,319.909 154.618,312.300 154.491 L 306.690 154.397 304.837 156.101 C 303.149 157.653,303.079 157.793,304.051 157.687 C 304.940 157.589,305.140 157.771,305.256 158.782 L 305.395 159.994 302.911 159.801 C 300.649 159.626,296.710 158.349,294.397 157.040 C 292.343 155.878,295.258 152.544,297.661 153.307 L 298.582 153.599 297.692 154.222 C 296.606 154.983,296.546 156.147,297.548 157.025 C 298.709 158.044,301.115 159.158,301.426 158.822 C 301.580 158.655,301.514 158.446,301.279 158.356 C 295.658 156.217,296.367 154.693,303.838 152.852 C 307.635 151.916,316.428 151.650,318.524 152.407 M85.289 153.857 C 85.286 155.894,89.361 158.615,94.030 159.695 C 97.306 160.452,106.501 161.632,108.529 161.555 C 109.940 161.502,108.782 161.286,102.345 160.406 C 100.352 160.133,97.761 159.627,96.588 159.282 C 95.416 158.938,93.785 158.553,92.964 158.428 C 90.800 158.100,87.092 155.832,86.125 154.246 C 85.368 153.004,85.291 152.968,85.289 153.857 M90.800 156.230 C 91.396 156.969,93.459 158.209,94.094 158.209 C 94.568 158.209,93.815 157.618,91.898 156.483 C 90.594 155.712,90.335 155.652,90.800 156.230 M154.727 156.632 C 155.177 157.174,155.139 157.319,154.500 157.484 C 154.013 157.611,154.172 157.702,154.935 157.733 C 156.357 157.791,156.429 156.411,155.019 156.139 C 154.313 156.003,154.268 156.079,154.727 156.632 M139.446 157.174 C 137.921 157.527,135.954 157.710,135.075 157.581 C 133.794 157.393,133.475 157.482,133.475 158.030 C 133.475 158.611,133.846 158.672,135.928 158.437 C 137.276 158.284,141.258 158.027,144.776 157.864 C 149.400 157.651,150.700 157.484,149.467 157.263 C 145.660 156.578,142.154 156.547,139.446 157.174 M127.612 158.076 C 128.022 158.184,128.694 158.184,129.104 158.076 C 129.515 157.969,129.179 157.881,128.358 157.881 C 127.537 157.881,127.201 157.969,127.612 158.076 M159.340 158.926 C 159.181 159.085,155.359 159.367,150.847 159.551 C 136.626 160.131,138.948 160.599,155.224 160.432 C 170.525 160.276,173.961 160.476,174.317 161.543 C 174.453 161.953,173.807 162.027,171.576 161.859 L 168.657 161.638 171.642 162.428 C 177.615 164.008,183.600 166.764,186.907 169.457 C 190.037 172.007,197.575 176.854,200.251 178.037 C 202.780 179.156,213.499 181.526,213.957 181.068 C 214.527 180.498,213.170 180.088,208.182 179.322 C 205.441 178.902,202.719 178.309,202.132 178.006 C 201.546 177.703,199.915 176.894,198.507 176.208 C 195.436 174.710,188.689 170.406,188.197 169.631 C 187.271 168.170,182.464 165.274,178.499 163.787 C 176.877 163.179,175.464 162.426,175.360 162.115 C 175.219 161.691,175.511 161.725,176.527 162.250 C 177.273 162.636,178.205 162.877,178.600 162.786 C 179.687 162.535,174.762 160.433,171.933 159.941 C 164.306 158.613,160.000 158.266,159.340 158.926 M92.246 160.773 C 93.467 161.554,106.783 163.747,111.727 163.981 C 114.710 164.123,115.920 164.059,115.352 163.790 C 114.883 163.568,113.156 163.368,111.514 163.346 C 109.872 163.324,107.761 163.131,106.823 162.918 C 105.885 162.706,102.369 162.124,99.011 161.625 C 95.653 161.126,92.582 160.619,92.188 160.497 C 91.601 160.317,91.611 160.366,92.246 160.773 M129.211 161.705 C 126.514 161.919,121.429 162.003,117.910 161.892 C 113.087 161.740,111.776 161.805,112.580 162.153 C 115.300 163.334,133.705 162.882,136.034 161.578 C 136.801 161.149,136.046 161.163,129.211 161.705 M280.024 168.297 C 277.886 172.374,267.732 177.020,256.077 179.255 C 254.200 179.615,250.746 180.333,248.401 180.850 C 246.013 181.376,242.512 181.809,240.446 181.833 C 238.416 181.857,236.844 182.020,236.953 182.196 C 238.099 184.051,258.977 180.025,271.390 175.556 C 276.347 173.771,282.226 168.651,280.873 167.298 C 280.756 167.181,280.374 167.630,280.024 168.297 M153.308 172.536 C 140.356 175.429,138.947 182.807,151.653 181.208 C 157.199 180.510,163.092 180.914,167.268 182.278 C 175.429 184.944,182.095 180.223,175.134 176.707 C 174.386 176.329,173.390 175.684,172.921 175.274 C 172.452 174.863,171.109 174.181,169.936 173.758 C 168.763 173.334,167.556 172.799,167.254 172.568 C 166.276 171.823,156.601 171.801,153.308 172.536 M168.230 175.143 C 171.538 176.158,175.323 178.284,175.176 179.046 C 174.971 180.110,170.102 180.049,166.962 178.943 C 164.668 178.135,163.527 178.043,156.319 178.084 C 148.413 178.129,148.265 178.113,149.215 177.344 C 152.560 174.636,162.737 173.458,168.230 175.143 M150.498 174.979 C 149.687 175.614,147.122 176.988,147.122 176.788 C 147.122 176.467,149.759 174.844,150.284 174.842 C 150.499 174.841,150.595 174.903,150.498 174.979 M146.269 177.347 C 146.269 177.892,145.015 178.846,144.705 178.536 C 144.395 178.226,145.349 176.972,145.894 176.972 C 146.100 176.972,146.269 177.141,146.269 177.347 M176.972 180.236 C 176.972 180.851,175.829 181.515,175.441 181.126 C 175.322 181.008,175.352 180.403,175.508 179.783 C 175.808 178.586,176.972 178.947,176.972 180.236 M244.989 179.760 C 242.878 180.070,238.513 180.459,235.288 180.626 C 232.063 180.793,229.424 181.095,229.424 181.297 C 229.424 182.160,249.626 180.230,250.711 179.263 C 251.009 178.997,249.016 179.170,244.989 179.760 M216.844 180.810 C 218.037 181.323,220.792 181.323,221.109 180.810 C 221.274 180.542,220.374 180.395,218.682 180.414 C 216.784 180.435,216.243 180.552,216.844 180.810 M222.601 180.810 C 222.601 181.054,223.741 181.216,225.267 181.188 C 227.813 181.141,227.856 181.123,226.226 180.786 C 223.867 180.298,222.601 180.306,222.601 180.810 " stroke="none" fill="#000000" fill-rule="evenodd"></path></g></svg>