<svg id="svg" version="1.1" xmlns="http://www.w3.org/2000/svg" xmlns:xlink="http://www.w3.org/1999/xlink" width="400" height="218.3368869936034" viewBox="0, 0, 400,218.3368869936034"><g id="svgg"><path id="path0" d="M237.740 16.405 C 233.892 17.273,225.160 21.121,225.160 21.948 C 225.160 22.038,226.359 21.625,227.825 21.030 C 235.785 17.802,236.989 17.433,240.512 17.143 C 242.505 16.979,244.136 16.652,244.136 16.418 C 244.136 15.766,240.601 15.758,237.740 16.405 M247.394 22.678 C 237.449 23.924,228.308 28.193,218.216 36.305 C 215.921 38.150,213.715 39.662,213.312 39.665 C 212.241 39.675,211.360 40.344,211.698 40.890 C 212.134 41.596,213.802 41.467,216.502 40.518 C 218.165 39.934,219.427 39.755,220.585 39.940 C 222.071 40.178,222.243 40.117,222.105 39.400 C 221.922 38.450,221.844 38.446,218.654 39.209 C 213.660 40.403,216.154 37.638,223.313 34.042 L 227.650 31.864 232.695 31.658 C 237.154 31.476,238.214 31.578,241.822 32.540 C 246.217 33.712,253.956 37.311,252.878 37.683 C 252.527 37.804,251.855 38.003,251.386 38.126 C 250.917 38.248,251.461 38.281,252.595 38.199 C 256.449 37.920,265.373 45.157,270.535 52.748 C 273.232 56.715,274.370 57.795,272.381 54.499 C 268.386 47.882,265.581 44.787,259.488 40.278 L 256.077 37.754 257.356 37.441 C 258.472 37.169,258.433 37.151,257.047 37.299 C 255.771 37.436,254.599 37.027,251.077 35.218 C 243.076 31.107,236.577 29.953,228.846 31.270 C 226.000 31.754,226.544 31.089,230.705 28.997 C 242.217 23.209,255.256 22.208,267.164 26.200 C 267.633 26.357,266.874 25.876,265.477 25.132 C 260.840 22.660,254.454 21.794,247.394 22.678 M287.527 22.879 C 285.607 23.295,286.634 23.881,289.282 23.881 C 293.014 23.881,297.007 25.876,300.406 29.440 C 303.016 32.176,303.685 32.456,302.601 30.359 C 300.385 26.073,291.997 21.911,287.527 22.879 M219.723 25.506 C 218.961 25.869,218.337 26.324,218.337 26.516 C 218.337 27.156,219.129 26.878,220.339 25.813 C 221.700 24.616,221.645 24.588,219.723 25.506 M204.159 29.985 C 199.851 36.474,190.904 41.535,183.582 41.625 C 175.730 41.721,159.565 46.138,151.386 50.423 C 144.270 54.151,142.110 55.685,134.226 62.610 C 126.171 69.687,117.594 82.520,114.369 92.324 C 113.906 93.731,113.127 95.884,112.639 97.108 C 109.821 104.164,108.278 123.212,110.021 129.424 C 110.218 130.128,110.689 132.692,111.068 135.122 C 111.446 137.552,112.250 140.714,112.854 142.148 C 113.458 143.583,114.500 146.310,115.170 148.209 C 120.865 164.342,135.593 180.539,152.347 189.090 C 171.784 199.011,195.243 200.213,215.139 192.309 C 217.819 191.244,224.596 187.521,229.244 184.559 C 231.076 183.392,238.514 177.498,240.775 175.421 C 244.732 171.788,254.220 158.839,257.145 153.079 C 259.939 147.577,270.762 139.953,275.173 140.379 C 276.372 140.495,276.563 140.685,276.678 141.875 C 276.831 143.462,278.038 143.406,278.038 141.812 C 278.038 137.359,265.275 140.809,260.853 146.458 C 259.591 148.069,257.692 149.518,257.324 149.150 C 256.251 148.078,266.332 138.429,274.545 132.666 C 276.407 131.360,275.999 131.044,273.922 132.184 C 268.236 135.302,261.824 140.852,257.015 146.817 C 255.114 149.176,254.101 149.496,255.451 147.312 C 255.966 146.479,256.286 145.696,256.163 145.573 C 255.831 145.241,254.004 148.545,252.241 152.665 C 250.086 157.701,249.403 158.968,248.267 160.038 L 247.280 160.968 247.746 159.743 C 248.744 157.116,247.839 158.409,246.278 161.840 C 244.689 165.332,242.162 168.402,240.701 168.616 C 240.365 168.666,239.561 169.190,238.915 169.782 C 237.038 171.500,232.487 174.414,231.680 174.414 C 231.117 174.414,231.261 174.121,232.279 173.191 C 233.015 172.518,234.236 170.872,234.992 169.533 C 236.426 166.992,237.154 166.506,240.217 166.044 C 242.715 165.667,245.629 162.538,245.629 160.233 C 245.629 159.920,246.604 158.521,247.795 157.124 C 249.849 154.716,251.523 151.887,253.028 148.278 C 254.157 145.571,252.882 147.035,251.576 149.945 C 250.904 151.443,249.314 153.963,248.043 155.545 C 246.772 157.128,245.025 159.536,244.160 160.898 C 243.295 162.259,241.977 163.745,241.230 164.201 C 238.395 165.930,238.529 164.875,241.533 161.823 C 243.159 160.171,244.171 158.642,244.983 156.608 C 246.287 153.346,247.119 152.259,253.521 145.443 C 256.040 142.760,258.948 139.402,259.982 137.980 C 261.016 136.558,263.061 134.339,264.526 133.049 C 271.055 127.300,279.318 116.350,279.318 113.445 C 279.318 112.430,278.418 113.133,277.558 114.819 C 274.767 120.292,263.805 133.902,262.187 133.902 C 261.667 133.902,262.095 133.346,268.140 126.177 C 275.098 117.927,278.766 109.999,279.462 101.706 C 279.699 98.879,279.660 98.969,278.714 103.412 C 276.828 112.270,272.352 120.218,264.461 128.720 C 262.546 130.783,261.428 130.806,262.486 128.760 C 263.421 126.952,262.890 127.217,261.564 129.220 C 259.938 131.676,259.850 131.018,261.394 127.958 C 262.121 126.518,262.623 125.188,262.509 125.004 C 262.395 124.819,263.300 123.610,264.520 122.316 C 266.719 119.984,270.789 113.327,270.789 112.062 C 270.789 110.817,272.069 108.345,272.961 107.868 C 278.331 104.994,277.214 90.654,271.073 83.635 C 267.346 79.376,266.480 79.187,269.865 83.371 C 274.863 89.549,276.963 98.296,274.862 104.186 C 273.939 106.774,272.095 108.431,272.047 106.716 C 272.036 106.306,271.508 107.050,270.875 108.370 C 270.184 109.808,269.509 110.691,269.190 110.573 C 268.835 110.443,268.657 110.822,268.657 111.706 C 268.657 113.137,267.165 116.382,265.167 119.296 C 263.931 121.100,262.687 121.688,262.687 120.469 C 262.687 119.719,261.707 119.639,260.490 120.290 C 259.426 120.860,259.239 120.698,259.557 119.481 C 259.767 118.679,260.013 118.570,261.140 118.779 C 263.958 119.302,266.726 111.693,266.362 104.424 C 266.038 97.959,265.729 97.975,265.278 104.478 C 265.074 107.414,264.691 109.543,264.165 110.661 L 263.364 112.367 263.115 109.808 C 262.869 107.290,262.535 107.290,262.105 109.808 C 261.897 111.022,261.570 112.417,260.620 116.132 C 260.390 117.030,260.090 117.878,259.952 118.015 C 259.344 118.623,259.329 117.668,259.912 115.430 C 260.335 113.808,260.452 112.148,260.268 110.388 C 260.038 108.193,260.113 107.675,260.726 107.227 C 261.494 106.666,260.934 105.898,260.123 106.400 C 259.883 106.548,259.575 106.085,259.430 105.359 C 259.190 104.158,258.422 103.487,258.422 104.478 C 258.422 105.242,257.634 104.926,257.356 104.050 C 257.191 103.531,257.347 102.933,257.753 102.527 C 258.121 102.159,258.425 101.632,258.428 101.355 C 258.431 101.079,258.550 100.421,258.691 99.893 C 258.910 99.077,258.781 98.934,257.832 98.934 C 257.219 98.934,256.716 98.736,256.716 98.494 C 256.716 97.781,258.046 97.481,258.885 98.005 C 259.312 98.272,259.762 98.329,259.883 98.132 C 260.233 97.567,259.662 97.228,258.359 97.228 C 257.005 97.228,256.889 96.931,256.573 92.685 C 256.466 91.242,256.561 89.878,256.785 89.654 C 257.406 89.033,257.701 84.786,257.208 83.582 C 256.825 82.649,256.767 82.790,256.743 84.710 C 256.729 85.917,256.343 88.123,255.886 89.614 C 255.430 91.105,254.659 94.147,254.172 96.375 C 252.304 104.939,251.901 105.882,251.356 102.974 C 251.196 102.124,250.707 101.273,250.232 101.019 C 249.339 100.541,249.363 98.201,250.310 93.390 C 251.226 88.739,251.225 88.633,250.293 88.389 C 249.698 88.234,248.687 86.710,247.139 83.633 C 245.885 81.142,244.361 78.376,243.752 77.486 C 242.508 75.669,242.407 75.220,243.177 74.909 C 243.470 74.791,243.110 74.679,242.376 74.661 C 241.643 74.642,240.795 74.328,240.492 73.964 C 239.525 72.798,234.421 70.023,231.557 69.106 C 230.032 68.617,228.472 68.042,228.091 67.827 C 226.643 67.011,224.148 66.774,224.418 67.478 C 224.555 67.835,224.442 68.366,224.167 68.660 C 223.770 69.084,224.116 69.143,225.860 68.951 C 227.402 68.780,228.287 68.886,228.845 69.308 C 229.819 70.046,229.649 70.064,222.814 69.952 C 213.804 69.803,207.235 71.785,200.831 76.585 C 198.679 78.199,196.748 79.965,196.540 80.510 C 196.333 81.055,195.992 81.395,195.782 81.265 C 195.572 81.136,195.289 81.472,195.153 82.012 C 195.018 82.553,194.446 83.531,193.883 84.187 C 192.780 85.470,191.898 87.913,191.898 89.681 C 191.898 90.929,191.128 93.189,190.811 92.872 C 188.852 90.913,190.170 85.237,193.653 80.636 C 195.287 78.477,195.611 77.330,194.273 78.440 C 191.282 80.922,188.645 87.938,189.295 91.684 C 189.627 93.599,189.646 95.182,189.357 96.802 C 188.952 99.063,188.998 99.266,190.613 102.452 C 192.481 106.137,192.290 106.636,190.026 103.991 C 185.406 98.593,185.356 89.355,189.908 82.121 C 190.795 80.711,191.060 79.962,190.711 79.846 C 189.826 79.551,190.108 78.952,192.778 75.444 C 199.773 66.254,215.111 57.969,221.155 60.114 C 222.327 60.530,222.306 60.478,220.718 59.061 C 219.115 57.629,217.910 57.151,217.910 57.946 C 217.910 58.153,218.342 58.452,218.870 58.611 C 219.802 58.890,219.805 58.909,218.977 59.270 C 217.510 59.909,216.976 59.777,217.271 58.849 C 217.490 58.157,217.347 57.996,216.513 57.996 C 215.474 57.996,213.716 56.504,214.193 56.027 C 216.434 53.787,225.185 56.615,226.470 59.995 C 226.695 60.587,227.197 60.981,227.728 60.981 C 229.900 60.981,225.359 56.551,221.767 55.164 C 220.467 54.663,219.465 54.092,219.542 53.896 C 219.618 53.700,219.447 53.462,219.162 53.367 C 218.865 53.268,218.772 53.400,218.942 53.676 C 219.126 53.973,218.913 54.158,218.387 54.158 C 217.312 54.158,216.923 53.547,217.282 52.417 C 217.475 51.808,217.778 51.625,218.269 51.822 C 219.985 52.514,220.188 52.475,219.190 51.648 C 218.603 51.163,218.366 50.761,218.663 50.756 C 219.315 50.744,220.794 51.545,221.987 52.557 C 223.068 53.473,227.271 54.362,228.757 53.990 C 230.905 53.451,229.821 52.878,226.652 52.878 C 224.208 52.878,223.454 52.739,223.454 52.286 C 223.454 51.948,222.768 51.545,221.855 51.346 L 220.256 50.998 222.388 50.726 L 224.520 50.454 221.667 50.387 C 217.102 50.280,217.712 48.780,222.734 47.765 C 226.452 47.013,227.188 47.634,225.789 50.341 C 225.431 51.033,225.234 51.599,225.351 51.599 C 226.474 51.599,227.274 47.038,226.221 46.634 C 225.106 46.206,220.076 47.393,218.515 48.452 C 215.953 50.191,214.993 49.830,216.641 47.748 C 220.440 42.952,235.477 41.679,242.852 45.530 L 244.136 46.200 240.725 46.775 C 237.010 47.401,231.983 48.923,231.983 49.422 C 231.983 49.594,233.553 49.207,235.471 48.564 C 240.468 46.887,244.569 46.568,246.760 47.685 C 250.907 49.801,256.486 55.801,259.023 60.874 C 260.273 63.373,260.182 63.444,256.968 62.469 C 255.817 62.119,254.474 61.849,253.983 61.867 C 253.493 61.885,254.712 62.415,256.692 63.045 L 260.292 64.190 261.722 68.337 C 262.884 71.708,263.129 73.004,263.026 75.259 L 262.900 78.034 261.129 76.859 C 260.155 76.213,258.263 75.312,256.926 74.858 C 255.381 74.333,254.363 73.712,254.135 73.156 C 253.783 72.300,253.769 72.303,253.484 73.265 C 253.280 73.952,252.985 74.167,252.503 73.976 C 252.123 73.826,250.757 73.599,249.467 73.472 C 245.756 73.104,247.469 73.981,251.568 74.547 C 257.393 75.351,262.260 77.941,262.260 80.237 C 262.260 81.425,261.705 81.850,261.206 81.043 C 261.068 80.820,260.355 80.209,259.621 79.687 C 258.604 78.962,258.886 79.450,260.806 81.739 C 264.345 85.955,267.551 92.119,267.194 94.022 C 266.922 95.470,267.517 96.406,268.246 95.677 C 269.133 94.790,265.678 86.029,263.351 83.263 C 262.534 82.292,262.389 81.771,262.622 80.636 L 262.911 79.219 265.113 81.199 C 268.798 84.512,272.392 93.236,272.507 99.147 C 272.543 100.968,272.609 101.129,272.961 100.248 C 274.610 96.123,269.020 81.758,264.921 79.587 C 264.036 79.118,263.946 78.730,263.814 74.826 C 263.700 71.443,263.440 70.003,262.539 67.770 C 261.111 64.231,261.092 64.317,263.092 65.284 C 264.019 65.732,265.001 66.098,265.274 66.098 C 265.547 66.098,266.717 66.793,267.873 67.642 C 269.030 68.491,270.079 69.082,270.205 68.956 C 270.565 68.596,266.049 65.701,264.392 65.230 C 262.273 64.627,261.819 64.147,259.958 60.554 C 257.055 54.947,253.105 50.494,248.090 47.175 C 244.509 44.805,233.084 40.085,230.927 40.085 C 229.341 40.085,229.618 40.800,231.328 41.120 C 234.090 41.638,233.246 42.090,228.996 42.369 C 222.855 42.771,218.649 44.193,216.615 46.554 L 215.048 48.375 211.682 47.817 C 207.368 47.103,207.198 46.882,209.889 45.495 C 212.789 44.001,212.033 44.014,208.647 45.517 C 207.187 46.165,205.988 46.914,205.982 47.183 C 205.975 47.451,205.682 47.780,205.330 47.915 C 204.012 48.421,204.749 48.920,206.119 48.449 C 207.713 47.901,211.808 48.064,211.220 48.652 C 210.550 49.322,208.102 49.628,208.102 49.042 C 208.102 48.669,207.942 48.640,207.569 48.942 C 207.276 49.181,205.347 49.463,203.282 49.571 C 200.263 49.728,199.276 49.953,198.238 50.720 C 197.528 51.245,196.833 51.559,196.693 51.419 C 196.552 51.279,196.807 50.884,197.259 50.542 C 197.711 50.200,197.865 49.914,197.600 49.907 C 197.336 49.899,196.880 50.181,196.588 50.533 C 196.022 51.215,194.883 51.407,194.883 50.821 C 194.883 50.390,196.493 48.901,197.655 48.259 C 198.124 47.999,198.254 47.781,197.944 47.774 C 197.634 47.767,196.527 48.261,195.485 48.872 C 194.074 49.699,193.292 49.905,192.424 49.680 C 191.783 49.514,190.682 49.284,189.979 49.169 C 187.768 48.808,188.236 48.617,191.507 48.542 L 194.670 48.471 192.111 48.223 L 189.552 47.974 191.898 46.392 C 194.103 44.904,194.352 44.834,196.067 45.224 C 197.488 45.547,198.167 45.496,199.138 44.994 C 200.585 44.246,202.427 44.168,204.130 44.783 L 205.330 45.217 204.297 44.406 L 203.264 43.595 204.510 42.956 C 205.196 42.605,206.869 42.070,208.228 41.769 C 210.700 41.220,211.872 40.512,210.308 40.512 C 209.536 40.512,206.566 41.397,200.123 43.548 C 196.628 44.714,195.875 44.377,198.518 42.829 C 201.409 41.135,213.192 31.615,211.087 32.673 C 210.366 33.035,206.839 35.839,204.904 37.589 C 202.942 39.363,196.347 43.366,193.846 44.302 C 192.616 44.762,190.908 45.821,190.049 46.655 C 188.595 48.067,186.597 49.000,186.097 48.500 C 185.978 48.380,186.988 47.590,188.343 46.743 C 191.083 45.029,191.101 44.721,188.381 46.109 C 185.366 47.647,178.252 52.792,178.252 53.434 C 178.252 53.639,178.850 53.303,179.582 52.688 C 182.195 50.489,182.813 50.356,186.337 51.238 C 190.373 52.248,190.612 52.515,188.754 53.932 C 177.615 62.428,169.840 88.631,175.274 99.363 C 175.690 100.185,176.254 101.720,176.527 102.774 C 176.801 103.828,177.536 105.687,178.161 106.904 C 180.078 110.638,178.355 110.166,175.529 106.183 C 169.064 97.070,166.471 78.384,171.003 73.559 C 171.456 73.078,172.097 71.916,172.428 70.979 C 173.262 68.615,177.592 62.075,179.004 61.046 C 180.306 60.097,180.092 59.371,178.725 60.103 C 173.973 62.646,168.167 74.881,167.727 83.281 C 167.474 88.100,167.588 89.242,168.902 95.049 C 169.135 96.079,170.568 99.440,172.087 102.518 C 174.806 108.027,175.160 108.515,181.901 116.030 C 182.618 116.830,184.057 118.212,185.099 119.101 L 186.994 120.717 184.861 119.549 C 173.536 113.346,168.689 108.357,162.548 96.588 C 161.993 95.524,161.651 95.179,161.639 95.670 C 161.629 96.103,161.980 96.966,162.419 97.589 C 162.859 98.211,163.841 99.968,164.602 101.493 C 169.798 111.900,181.321 120.624,194.725 124.297 C 197.691 125.111,200.236 125.899,200.379 126.049 C 200.956 126.653,190.298 124.971,186.141 123.801 C 185.672 123.669,185.445 123.726,185.637 123.928 C 185.828 124.129,186.980 124.516,188.195 124.789 C 189.411 125.061,191.269 125.609,192.324 126.007 C 196.864 127.719,206.178 127.415,210.235 125.422 L 211.301 124.899 210.335 125.742 C 209.805 126.206,209.133 126.670,208.843 126.774 C 208.553 126.877,208.424 127.081,208.557 127.226 C 208.689 127.371,210.203 126.817,211.921 125.993 C 213.639 125.170,215.123 124.576,215.219 124.672 C 215.684 125.137,206.683 130.616,203.625 131.729 C 201.748 132.412,199.315 133.318,198.217 133.742 C 196.266 134.496,196.199 134.495,195.266 133.675 C 194.339 132.860,194.320 132.859,194.612 133.655 C 195.013 134.751,194.257 135.167,191.844 135.175 C 189.347 135.183,187.207 135.604,187.207 136.087 C 187.207 136.648,190.932 136.524,193.705 135.871 C 195.769 135.386,196.228 135.387,196.636 135.878 C 196.902 136.198,197.311 136.461,197.546 136.461 C 197.797 136.461,197.768 136.215,197.476 135.863 C 197.071 135.374,197.353 135.132,199.023 134.538 C 200.147 134.138,202.146 133.352,203.465 132.790 C 204.784 132.229,206.043 131.770,206.262 131.770 C 206.642 131.770,209.885 129.895,212.563 128.126 C 215.017 126.506,213.091 128.448,209.914 130.797 C 208.143 132.106,205.969 133.903,205.083 134.789 C 204.054 135.818,201.267 137.476,197.370 139.377 L 191.268 142.354 189.491 140.793 C 188.513 139.935,187.696 138.930,187.673 138.560 C 187.651 138.191,187.154 137.438,186.567 136.887 C 185.981 136.336,185.501 135.652,185.501 135.367 C 185.501 135.082,185.103 134.396,184.616 133.843 C 183.681 132.780,183.684 132.958,184.633 134.861 C 185.450 136.497,185.322 136.544,179.360 136.772 L 174.038 136.976 173.876 134.906 L 173.714 132.836 173.638 134.877 L 173.561 136.918 169.616 136.636 C 167.447 136.481,165.511 136.208,165.315 136.030 C 164.684 135.455,167.427 129.754,169.560 127.205 C 170.698 125.846,171.201 125.098,170.678 125.543 C 169.090 126.898,166.535 130.569,165.457 133.049 C 164.896 134.339,164.325 135.535,164.188 135.707 C 164.051 135.878,161.834 135.529,159.261 134.929 C 152.879 133.442,153.321 133.675,154.275 132.305 C 154.725 131.659,155.571 130.075,156.155 128.785 C 156.739 127.495,158.163 125.384,159.319 124.094 C 162.520 120.523,162.961 119.879,161.620 120.729 C 159.846 121.855,156.538 126.231,154.656 129.945 L 152.878 133.451 151.173 132.662 C 150.235 132.229,148.220 131.333,146.695 130.671 C 142.410 128.812,136.887 125.066,136.887 124.018 C 136.887 122.195,139.028 119.236,139.636 120.219 C 139.768 120.433,141.219 121.492,142.859 122.573 L 145.842 124.538 144.852 126.128 C 143.249 128.706,143.214 128.785,143.667 128.785 C 143.905 128.785,144.605 127.925,145.221 126.873 L 146.341 124.962 147.632 125.630 C 149.631 126.664,152.239 127.506,152.239 127.118 C 152.239 126.926,151.087 126.252,149.680 125.621 C 146.414 124.155,146.477 123.662,150.493 119.190 C 151.969 117.546,151.950 117.554,149.969 119.403 C 148.838 120.458,147.598 121.850,147.212 122.495 C 146.315 123.996,146.237 123.986,143.544 121.996 C 139.000 118.640,139.019 118.872,142.964 114.967 C 146.472 111.494,149.603 109.343,153.271 107.883 L 155.797 106.878 156.896 108.343 C 158.218 110.105,161.950 114.013,161.130 112.778 C 160.813 112.301,159.712 110.809,158.682 109.462 C 156.554 106.679,156.600 106.468,159.331 106.468 C 161.086 106.468,161.219 106.404,160.527 105.897 C 160.097 105.583,159.448 105.414,159.084 105.521 C 155.994 106.432,155.856 106.309,153.115 100.213 C 151.573 96.785,150.533 95.022,150.533 95.835 C 150.533 96.463,153.785 103.923,154.630 105.232 C 155.192 106.104,155.179 106.222,154.492 106.439 C 149.347 108.063,146.073 110.180,141.182 115.044 L 138.441 117.770 137.026 116.135 C 136.248 115.235,134.534 113.114,133.216 111.422 L 130.821 108.345 133.937 104.894 C 136.582 101.965,140.546 98.507,141.259 98.507 C 141.372 98.507,142.195 99.754,143.086 101.278 C 144.916 104.407,146.975 106.697,145.677 104.159 C 145.288 103.398,144.398 101.806,143.700 100.622 C 141.838 97.465,142.741 96.346,147.974 95.324 C 150.371 94.856,150.959 94.637,150.959 94.214 C 150.959 93.996,150.672 93.817,150.320 93.817 C 149.908 93.817,149.678 93.399,149.674 92.644 C 149.670 91.999,149.471 91.183,149.231 90.832 C 148.919 90.373,148.877 90.675,149.081 91.898 C 149.238 92.836,149.440 93.686,149.530 93.788 C 149.620 93.889,148.203 94.486,146.382 95.114 C 144.560 95.742,142.744 96.396,142.345 96.566 C 140.870 97.198,137.899 87.816,139.254 86.804 C 140.067 86.197,140.065 86.188,139.185 86.410 C 138.502 86.581,138.219 86.395,138.018 85.642 C 137.292 82.933,137.506 82.635,141.685 80.525 C 147.892 77.391,147.386 77.197,147.674 82.826 C 147.809 85.470,148.109 88.209,148.340 88.913 C 148.635 89.809,148.687 88.310,148.514 83.902 C 148.261 77.421,148.276 77.353,149.893 77.568 C 150.128 77.599,149.984 77.360,149.574 77.038 C 148.254 76.001,149.724 68.296,152.252 63.004 L 153.590 60.202 157.624 59.900 C 162.540 59.531,162.248 59.168,160.732 63.762 C 159.462 67.610,157.839 76.531,158.321 77.013 C 158.894 77.586,159.488 76.616,159.488 75.106 C 159.488 70.215,162.505 60.554,164.033 60.554 C 164.564 60.554,164.603 60.426,164.217 59.960 C 163.433 59.016,164.900 56.290,166.191 56.290 C 167.439 56.290,170.149 57.395,170.149 57.905 C 170.149 58.113,171.875 56.579,173.984 54.495 C 177.800 50.726,179.952 49.331,181.214 49.809 C 181.754 50.013,181.741 49.923,181.145 49.321 C 180.178 48.345,178.036 49.645,173.690 53.848 C 170.694 56.746,170.589 56.805,169.256 56.340 C 168.504 56.078,167.428 55.864,166.863 55.864 L 165.837 55.864 166.607 54.542 C 167.859 52.393,172.599 48.188,173.769 48.188 C 174.335 48.188,175.780 48.398,176.981 48.656 C 180.130 49.331,180.088 48.809,176.917 47.875 L 174.217 47.080 176.291 46.076 C 178.080 45.210,178.551 45.139,179.724 45.564 C 180.472 45.834,181.678 46.055,182.404 46.055 C 183.130 46.055,183.793 46.262,183.877 46.515 C 183.965 46.777,184.339 46.632,184.753 46.175 C 185.448 45.408,185.418 45.383,183.996 45.550 C 183.182 45.645,182.516 45.542,182.516 45.322 C 182.516 44.905,186.186 43.923,187.747 43.923 C 188.632 43.923,188.633 43.911,187.821 43.303 C 187.038 42.715,187.095 42.642,188.913 41.936 C 196.901 38.829,206.777 30.779,205.885 28.103 C 205.798 27.841,205.021 28.688,204.159 29.985 M234.328 37.100 C 234.017 37.605,234.434 37.605,235.608 37.100 C 236.430 36.747,236.427 36.733,235.526 36.704 C 235.012 36.687,234.473 36.866,234.328 37.100 M238.166 37.161 C 245.280 38.827,246.459 39.659,241.706 39.659 C 239.982 39.659,238.813 39.818,239.041 40.022 C 239.263 40.222,241.269 40.227,243.497 40.034 C 248.843 39.569,256.473 42.428,262.673 47.218 L 264.606 48.710 262.687 46.905 C 259.735 44.129,255.129 41.327,251.106 39.859 C 247.850 38.672,239.497 36.679,237.953 36.721 L 236.461 36.762 238.166 37.161 M275.099 38.547 C 275.242 38.701,276.744 39.211,278.438 39.680 C 283.435 41.065,289.022 44.011,292.964 47.340 C 296.376 50.222,296.999 50.337,294.030 47.537 C 290.926 44.609,286.989 42.249,281.994 40.324 C 278.430 38.949,274.546 37.948,275.099 38.547 M223.881 39.659 C 224.232 39.886,225.480 40.056,226.652 40.036 C 228.354 40.008,228.569 39.931,227.719 39.659 C 226.110 39.144,223.083 39.144,223.881 39.659 M179.104 43.458 C 178.753 43.657,177.985 43.947,177.399 44.103 L 176.333 44.385 177.399 43.743 C 177.985 43.390,178.753 43.100,179.104 43.098 C 179.673 43.097,179.673 43.137,179.104 43.458 M265.458 43.917 C 265.928 44.129,267.373 44.594,268.670 44.950 C 271.317 45.678,277.620 49.297,278.887 50.818 C 279.343 51.365,279.722 51.592,279.730 51.323 C 279.764 50.152,274.635 46.509,270.789 44.973 C 268.503 44.060,263.646 43.098,265.458 43.917 M175.267 45.438 C 175.267 46.469,170.077 47.254,168.230 46.501 C 167.070 46.028,168.460 45.684,172.281 45.500 C 173.806 45.427,175.101 45.330,175.160 45.285 C 175.219 45.240,175.267 45.308,175.267 45.438 M306.191 45.416 C 306.189 45.650,306.592 46.507,307.088 47.320 C 309.336 51.008,310.541 55.042,310.783 59.686 C 310.967 63.229,311.096 63.909,311.394 62.900 C 311.916 61.133,311.470 56.489,310.511 53.702 C 309.384 50.426,306.204 44.326,306.191 45.416 M203.425 47.521 C 202.837 47.847,201.779 48.008,201.027 47.886 C 200.287 47.765,199.570 47.848,199.433 48.070 C 199.011 48.753,203.109 48.414,204.478 47.654 C 205.181 47.262,205.469 46.942,205.117 46.941 C 204.765 46.939,204.004 47.201,203.425 47.521 M158.839 51.402 C 156.081 53.988,154.593 55.071,153.518 55.276 C 152.697 55.433,151.276 55.823,150.360 56.144 C 149.444 56.464,148.611 56.642,148.508 56.540 C 148.101 56.132,151.987 53.985,154.487 53.236 C 157.019 52.478,155.498 52.393,152.772 53.141 C 152.088 53.329,151.812 53.222,151.812 52.769 C 151.812 51.927,161.887 47.033,162.454 47.600 C 162.571 47.717,160.944 49.428,158.839 51.402 M170.576 47.723 L 171.642 48.027 170.682 48.549 C 169.333 49.282,164.413 55.144,163.361 57.271 L 162.484 59.043 158.428 59.112 C 156.196 59.149,154.371 59.093,154.371 58.986 C 154.371 56.905,160.308 51.599,162.638 51.599 C 163.814 51.599,164.606 51.406,164.606 51.118 C 164.606 50.796,164.043 50.727,162.900 50.910 C 160.707 51.261,160.745 51.130,163.433 49.067 C 165.752 47.287,167.734 46.914,170.576 47.723 M285.264 48.934 C 286.426 50.530,288.266 55.571,288.303 57.259 C 288.319 58.016,288.513 59.019,288.734 59.488 C 289.013 60.082,289.086 59.436,288.974 57.356 C 288.822 54.514,287.268 50.273,285.677 48.356 C 284.760 47.251,284.402 47.752,285.264 48.934 M191.247 49.942 L 192.942 50.413 191.789 51.404 C 190.732 52.313,190.537 52.346,189.441 51.799 C 188.783 51.471,187.206 50.937,185.936 50.612 C 184.647 50.282,183.899 49.913,184.244 49.777 C 185.317 49.355,189.485 49.453,191.247 49.942 M212.241 51.002 C 212.725 52.477,210.929 53.349,207.676 53.219 L 204.478 53.092 206.083 52.094 C 208.775 50.420,211.871 49.871,212.241 51.002 M227.719 50.919 C 228.305 51.276,229.159 51.576,229.616 51.584 C 230.942 51.608,229.814 50.796,228.132 50.515 L 226.652 50.268 227.719 50.919 M204.933 52.239 C 203.250 53.737,200.819 54.286,200.213 53.305 C 200.068 53.070,200.153 52.878,200.401 52.878 C 200.650 52.878,200.853 52.708,200.853 52.499 C 200.853 52.291,200.576 52.147,200.238 52.180 C 199.900 52.212,199.564 52.047,199.492 51.812 C 199.374 51.429,201.866 51.003,205.330 50.816 L 206.610 50.747 204.933 52.239 M240.512 51.377 C 240.512 51.490,241.231 51.953,242.111 52.406 C 242.990 52.860,244.102 53.583,244.580 54.014 C 247.176 56.350,247.386 56.493,247.088 55.718 C 246.590 54.420,240.512 50.408,240.512 51.377 M196.588 51.995 C 196.588 52.553,192.152 54.587,190.965 54.573 C 190.048 54.562,190.091 54.457,191.572 53.080 C 193.129 51.632,196.588 50.884,196.588 51.995 M215.963 53.092 L 217.101 54.584 215.817 54.584 C 215.111 54.584,212.943 55.400,210.998 56.397 L 207.463 58.209 206.369 57.087 C 205.701 56.402,204.564 55.845,203.449 55.657 C 199.981 55.071,202.295 54.484,207.897 54.529 C 212.631 54.567,213.275 54.490,213.051 53.908 C 212.192 51.670,214.405 51.049,215.963 53.092 M198.538 53.061 C 199.414 53.938,199.325 54.007,197.577 53.803 C 196.130 53.634,196.070 53.574,196.806 53.036 C 197.791 52.315,197.792 52.315,198.538 53.061 M235.753 53.316 C 238.377 53.698,248.048 58.217,248.650 59.343 C 248.865 59.744,249.041 60.468,249.041 60.953 C 249.041 61.437,249.227 61.834,249.456 61.834 C 250.001 61.834,251.060 63.917,252.267 67.366 C 252.803 68.897,253.256 69.895,253.273 69.585 C 253.380 67.683,248.713 57.186,248.053 57.846 C 247.896 58.004,247.429 57.846,247.018 57.496 C 243.902 54.846,238.753 52.867,235.181 52.947 C 233.607 52.982,233.651 53.010,235.753 53.316 M149.254 53.623 C 149.254 54.276,143.830 58.967,141.365 60.447 C 137.619 62.694,135.671 64.312,134.889 65.824 C 133.896 67.745,132.037 69.953,130.179 71.415 L 128.571 72.682 130.384 70.609 C 131.381 69.469,132.202 68.228,132.209 67.850 C 132.227 66.860,135.036 63.778,137.604 61.931 C 138.819 61.056,141.629 59.046,143.848 57.463 C 146.067 55.880,147.994 54.296,148.129 53.945 C 148.378 53.294,149.254 53.043,149.254 53.623 M221.962 54.353 C 222.900 54.663,224.462 55.316,225.433 55.804 C 226.404 56.292,227.991 56.869,228.960 57.087 C 229.928 57.304,231.197 57.794,231.778 58.175 C 232.360 58.556,232.836 58.677,232.836 58.443 C 232.836 57.919,230.582 56.716,229.599 56.716 C 229.202 56.716,228.089 56.357,227.126 55.918 C 223.228 54.142,222.104 53.733,221.201 53.760 C 220.566 53.779,220.815 53.973,221.962 54.353 M174.887 56.910 C 173.698 58.423,172.865 59.744,173.036 59.844 C 173.207 59.944,174.262 58.706,175.380 57.092 C 177.936 53.403,177.709 53.319,174.887 56.910 M159.595 55.316 C 160.240 55.414,161.295 55.414,161.940 55.316 C 162.585 55.218,162.058 55.138,160.768 55.138 C 159.478 55.138,158.950 55.218,159.595 55.316 M154.495 55.970 C 151.504 59.885,151.231 60.128,149.827 60.128 C 149.047 60.128,147.400 60.512,146.167 60.981 C 144.933 61.450,143.859 61.833,143.781 61.833 C 143.111 61.834,146.773 58.163,147.947 57.657 C 149.121 57.150,153.764 55.655,154.743 55.467 C 154.830 55.451,154.719 55.677,154.495 55.970 M198.106 56.090 C 197.199 56.777,196.162 56.921,196.162 56.361 C 196.162 55.732,196.704 55.437,197.832 55.451 C 198.893 55.464,198.903 55.487,198.106 56.090 M259.083 56.325 C 259.198 56.510,260.775 56.985,262.588 57.381 C 276.793 60.478,287.052 68.930,292.032 81.641 C 292.423 82.638,292.812 85.353,292.952 88.060 C 293.180 92.488,293.227 92.679,293.789 91.471 C 297.122 84.310,288.596 68.011,278.822 62.859 C 272.328 59.436,269.011 58.019,266.098 57.423 C 259.849 56.144,258.878 55.992,259.083 56.325 M191.898 57.123 C 188.460 59.722,183.099 65.735,181.551 68.728 C 180.470 70.818,180.396 70.881,180.634 69.510 C 180.777 68.689,181.198 67.538,181.570 66.953 C 181.942 66.367,182.267 65.433,182.291 64.878 C 182.316 64.307,182.916 63.378,183.671 62.744 C 187.604 59.435,188.885 58.415,190.376 57.403 C 192.248 56.133,193.516 55.900,191.898 57.123 M195.309 56.665 C 195.309 56.871,194.580 57.687,193.688 58.477 C 188.005 63.517,183.553 70.493,181.549 77.496 C 180.997 79.425,180.413 81.136,180.251 81.298 C 179.642 81.907,179.990 78.500,180.782 76.099 C 181.235 74.724,181.515 73.453,181.403 73.272 C 180.482 71.781,187.715 61.512,191.713 58.635 C 192.365 58.166,193.297 57.453,193.784 57.050 C 194.769 56.236,195.309 56.099,195.309 56.665 M204.636 57.328 C 207.195 58.651,207.141 59.097,204.198 60.942 C 202.710 61.874,200.360 63.464,198.976 64.474 C 197.592 65.485,196.233 66.407,195.955 66.525 C 193.262 67.660,185.967 78.649,184.205 84.222 C 183.909 85.160,183.421 86.311,183.123 86.780 C 182.824 87.249,182.448 88.351,182.288 89.229 C 181.672 92.595,181.124 90.303,181.355 85.335 C 181.876 74.168,187.947 62.877,195.677 58.700 C 198.826 56.998,198.720 57.313,194.753 61.460 C 188.686 67.800,180.338 84.532,182.276 86.469 C 182.523 86.716,182.544 86.652,183.521 82.516 C 186.370 70.457,199.572 54.709,204.636 57.328 M214.434 57.513 C 215.541 58.473,215.638 59.704,214.606 59.695 C 213.963 59.689,213.948 59.627,214.499 59.243 C 214.972 58.913,214.763 58.871,213.699 59.082 C 212.696 59.280,212.348 59.223,212.552 58.894 C 212.712 58.635,213.168 58.407,213.565 58.389 C 213.961 58.370,214.060 58.263,213.785 58.150 C 213.509 58.038,212.509 58.341,211.563 58.824 C 209.678 59.785,208.529 59.949,208.529 59.255 C 208.529 58.874,212.526 56.733,213.261 56.721 C 213.401 56.718,213.929 57.075,214.434 57.513 M207.676 59.836 C 207.676 60.144,207.052 60.715,206.290 61.105 C 205.528 61.495,204.041 62.317,202.985 62.931 C 200.476 64.391,201.221 63.643,204.691 61.220 C 207.848 59.015,207.676 59.095,207.676 59.836 M211.087 59.866 C 211.087 60.124,205.427 63.465,204.478 63.767 C 204.009 63.916,205.254 63.062,207.246 61.870 C 210.945 59.655,211.087 59.581,211.087 59.866 M236.674 60.024 C 236.674 60.201,237.351 60.558,238.178 60.817 C 239.629 61.271,239.657 61.259,238.965 60.494 C 238.261 59.716,236.674 59.390,236.674 60.024 M142.413 61.650 C 141.896 62.486,141.124 63.893,140.698 64.774 C 140.272 65.656,139.624 66.626,139.258 66.930 C 138.892 67.233,138.593 67.850,138.593 68.301 C 138.593 68.751,137.631 70.023,136.455 71.127 C 131.403 75.870,126.655 80.597,126.942 80.597 C 127.112 80.597,127.881 79.986,128.651 79.240 C 129.421 78.494,130.133 77.966,130.234 78.068 C 130.699 78.537,129.659 82.043,128.937 82.441 C 128.501 82.681,127.496 83.522,126.702 84.310 C 124.892 86.108,124.547 85.798,125.511 83.239 C 125.925 82.138,126.325 80.810,126.399 80.287 C 126.565 79.109,128.805 76.347,132.522 72.739 C 134.086 71.220,135.274 69.886,135.162 69.774 C 134.484 69.096,125.217 79.126,124.492 81.322 C 124.051 82.659,123.913 82.790,123.671 82.100 C 123.437 81.431,123.223 81.681,122.573 83.386 C 122.128 84.549,120.865 86.691,119.764 88.146 C 118.663 89.600,117.562 91.135,117.317 91.557 C 117.071 91.979,116.864 92.114,116.857 91.857 C 116.850 91.600,117.612 90.203,118.550 88.751 C 119.488 87.300,120.256 85.919,120.256 85.683 C 120.256 82.742,130.515 71.410,137.916 66.176 C 139.303 65.195,140.303 64.392,140.140 64.392 C 139.711 64.392,137.688 65.686,136.569 66.676 C 136.042 67.142,135.494 67.406,135.350 67.262 C 134.874 66.786,142.171 60.128,143.169 60.128 C 143.270 60.128,142.930 60.813,142.413 61.650 M242.004 60.627 C 242.473 60.887,243.221 61.409,243.665 61.787 C 244.431 62.437,244.448 62.425,243.997 61.564 C 243.526 60.666,242.619 60.116,241.650 60.141 C 241.376 60.148,241.535 60.367,242.004 60.627 M245.203 60.554 C 245.203 60.789,245.538 60.983,245.949 60.987 C 246.359 60.990,247.175 61.088,247.761 61.206 C 248.436 61.341,248.279 61.194,247.335 60.806 C 245.492 60.049,245.203 60.015,245.203 60.554 M151.150 61.514 C 150.247 64.470,149.784 65.079,148.040 65.602 C 147.074 65.891,144.921 66.683,143.253 67.361 L 140.222 68.595 140.506 67.453 C 141.276 64.369,144.150 61.994,148.293 61.017 C 151.069 60.363,151.480 60.435,151.150 61.514 M171.513 62.154 C 170.592 63.461,168.592 67.328,169.071 66.875 C 169.497 66.472,172.688 60.981,172.496 60.981 C 172.410 60.981,171.968 61.509,171.513 62.154 M167.860 61.743 C 166.103 64.586,164.179 72.830,164.256 77.186 L 164.320 80.810 164.607 76.759 C 164.946 71.981,165.466 69.630,167.189 65.077 C 168.293 62.159,168.626 60.503,167.860 61.743 M222.431 62.005 C 222.598 62.441,222.047 62.732,220.392 63.081 C 210.394 65.185,201.831 69.398,195.157 75.498 C 191.395 78.936,191.357 79.848,195.112 76.573 C 196.944 74.976,199.084 73.400,199.869 73.072 C 200.654 72.744,202.190 71.794,203.282 70.960 C 208.563 66.929,222.218 62.409,224.184 64.040 C 225.409 65.057,225.773 63.687,224.592 62.506 C 223.410 61.324,222.049 61.009,222.431 62.005 M227.305 62.565 C 227.291 63.601,228.411 64.392,229.891 64.392 C 230.413 64.392,232.626 65.273,234.808 66.348 C 237.967 67.906,239.041 68.246,240.074 68.020 C 241.828 67.634,241.284 66.951,239.222 66.951 C 237.653 66.951,232.372 64.514,231.746 63.501 C 231.614 63.288,230.759 63.113,229.847 63.113 C 228.716 63.113,228.049 62.875,227.753 62.367 C 227.363 61.698,227.317 61.718,227.305 62.565 M233.469 63.123 C 233.295 63.405,234.024 63.518,235.532 63.443 C 236.815 63.379,237.777 63.182,237.670 63.006 C 237.377 62.523,233.778 62.623,233.469 63.123 M240.938 63.159 C 240.938 63.453,241.771 64.474,242.790 65.429 C 243.809 66.383,244.772 67.692,244.930 68.337 C 245.225 69.537,245.795 69.850,246.274 69.075 C 246.421 68.836,245.771 67.673,244.828 66.489 C 242.833 63.983,240.938 62.361,240.938 63.159 M153.092 64.392 C 152.248 64.663,152.203 64.734,152.878 64.734 C 153.348 64.734,154.211 64.580,154.797 64.392 C 155.642 64.122,155.686 64.051,155.011 64.051 C 154.542 64.051,153.678 64.205,153.092 64.392 M275.480 64.168 C 275.480 64.307,275.993 65.422,276.621 66.645 C 277.249 67.869,277.809 69.158,277.865 69.510 C 277.922 69.861,278.263 70.917,278.624 71.855 C 279.679 74.598,278.743 82.717,276.977 86.131 C 276.594 86.872,276.351 87.800,276.436 88.195 C 276.698 89.404,278.469 85.486,279.161 82.171 C 280.414 76.160,279.811 71.357,277.133 66.020 C 276.416 64.592,275.480 63.543,275.480 64.168 M201.706 65.399 C 201.706 65.484,200.295 66.634,198.572 67.954 C 195.734 70.127,191.451 74.744,189.062 78.204 C 187.517 80.442,184.648 90.552,184.648 93.761 C 184.648 95.042,184.474 95.522,184.009 95.522 C 181.871 95.522,184.833 83.346,188.210 78.252 C 188.988 77.079,189.977 75.544,190.409 74.840 C 191.748 72.659,195.440 68.684,197.228 67.498 C 199.947 65.695,201.706 64.871,201.706 65.399 M149.661 66.205 C 149.651 66.498,149.357 67.505,149.007 68.443 C 148.657 69.382,148.255 71.524,148.114 73.204 C 147.791 77.041,148.043 76.725,143.497 78.995 C 137.677 81.900,137.660 81.902,137.820 79.675 C 137.960 77.731,138.121 77.618,142.385 76.472 C 143.882 76.070,142.411 76.014,140.583 76.404 C 137.985 76.958,137.959 76.921,138.585 73.601 C 139.286 69.886,139.555 69.606,144.410 67.535 C 148.997 65.578,149.690 65.403,149.661 66.205 M297.935 68.657 C 298.081 70.416,298.370 72.239,298.578 72.708 C 299.107 73.904,298.625 67.731,298.090 66.457 C 297.791 65.747,297.747 66.382,297.935 68.657 M211.109 67.848 C 209.086 68.543,206.983 69.588,206.312 70.230 C 204.394 72.068,204.927 72.622,207.463 71.427 L 208.742 70.824 207.463 71.049 C 205.918 71.320,207.159 70.042,208.742 69.732 C 213.804 68.738,216.428 67.905,216.554 67.250 C 216.752 66.220,215.422 66.366,211.109 67.848 M217.309 66.889 C 217.071 67.274,222.151 68.397,222.510 68.038 C 222.607 67.940,221.852 67.644,220.832 67.380 C 219.811 67.116,218.657 66.808,218.266 66.695 C 217.875 66.582,217.445 66.669,217.309 66.889 M232.911 70.376 C 241.463 72.752,250.288 87.280,248.767 96.482 C 248.418 98.595,248.201 98.512,246.732 95.701 C 243.668 89.837,230.365 80.170,225.373 80.179 C 224.373 80.181,228.478 82.531,232.012 83.980 C 233.318 84.516,234.853 85.325,235.424 85.779 L 236.461 86.604 234.755 85.894 C 231.209 84.418,225.309 82.658,223.249 82.461 C 219.506 82.104,218.307 81.844,218.555 81.442 C 218.688 81.227,219.365 81.165,220.059 81.304 C 221.818 81.656,221.645 81.153,219.835 80.653 C 215.523 79.462,208.522 81.391,204.590 84.852 C 203.535 85.780,202.520 86.402,202.334 86.233 C 202.148 86.065,202.135 86.170,202.305 86.465 C 202.491 86.789,202.114 87.503,201.359 88.259 C 200.669 88.949,200.179 89.589,200.270 89.680 C 200.362 89.772,200.035 90.756,199.543 91.867 C 198.185 94.938,198.815 94.632,200.985 91.168 C 202.057 89.458,203.664 87.310,204.558 86.393 C 208.200 82.659,217.014 80.025,218.406 82.255 C 218.867 82.993,219.393 83.157,221.318 83.162 C 223.560 83.168,227.845 84.290,231.983 85.954 C 234.761 87.071,242.635 92.464,243.059 93.540 C 243.257 94.044,244.198 95.490,245.150 96.754 C 247.423 99.771,247.978 101.462,247.335 103.412 C 246.691 105.361,246.307 105.295,245.656 103.120 C 244.917 100.653,240.958 95.596,236.287 91.151 C 231.140 86.254,230.523 86.345,235.415 91.279 C 240.729 96.638,244.239 101.505,244.599 104.012 C 244.754 105.089,245.129 106.258,245.433 106.610 C 246.853 108.253,240.838 122.814,239.026 122.118 C 238.432 121.890,237.998 123.612,237.716 127.317 C 237.431 131.069,235.260 134.464,231.214 137.485 C 228.433 139.561,228.607 139.940,231.518 138.149 C 235.036 135.985,238.806 129.899,238.806 126.384 C 238.806 125.597,239.163 124.756,239.706 124.267 C 241.047 123.056,243.453 118.015,244.875 113.433 C 245.567 111.205,246.293 109.213,246.490 109.008 C 246.996 108.477,247.829 111.875,247.853 114.570 C 247.878 117.400,247.969 117.399,248.864 114.560 C 249.561 112.350,249.554 112.179,248.673 109.371 C 247.622 106.021,247.571 105.088,248.365 103.655 L 248.939 102.619 249.617 103.930 C 249.990 104.651,250.414 106.077,250.559 107.098 C 251.022 110.363,251.642 111.970,252.113 111.129 C 252.337 110.730,252.394 109.660,252.240 108.752 C 251.956 107.068,252.597 105.106,253.292 105.535 C 253.694 105.784,254.040 104.283,254.126 101.919 C 254.156 101.098,254.428 99.468,254.729 98.297 L 255.278 96.169 255.794 99.293 C 256.498 103.554,256.095 106.049,253.855 111.301 C 251.899 115.888,250.201 118.509,250.626 116.287 C 250.929 114.701,250.105 113.351,249.687 114.749 C 249.125 116.631,247.566 118.599,245.986 119.422 C 244.473 120.210,242.488 122.695,241.130 125.502 L 240.470 126.866 241.451 125.591 C 241.990 124.890,243.014 123.550,243.726 122.613 C 246.743 118.647,248.453 118.978,246.064 123.065 C 245.121 124.679,244.350 126.316,244.350 126.704 C 244.350 127.091,242.553 129.243,240.356 131.487 C 236.395 135.532,236.360 135.587,236.071 138.143 C 235.529 142.931,234.711 144.110,231.063 145.365 C 229.787 145.804,227.945 146.571,226.969 147.069 C 225.717 147.707,224.404 147.974,222.516 147.974 L 219.838 147.974 221.006 146.891 C 221.649 146.295,222.175 145.573,222.175 145.286 C 222.175 144.572,223.875 141.436,224.465 141.062 C 224.727 140.895,224.979 140.286,225.023 139.709 C 225.148 138.085,226.250 136.264,228.907 133.291 C 230.247 131.791,231.981 129.361,232.760 127.890 C 234.579 124.460,233.321 125.462,231.147 129.176 C 230.244 130.720,229.006 132.448,228.398 133.017 L 227.292 134.051 227.325 133.017 C 227.388 131.036,228.374 128.936,230.825 125.567 C 234.470 120.554,237.007 114.841,237.619 110.269 L 238.116 106.554 238.869 107.968 C 239.284 108.746,239.631 109.909,239.641 110.554 C 239.651 111.199,239.854 111.727,240.093 111.727 C 240.552 111.727,240.425 110.893,239.403 107.165 C 239.068 105.945,238.622 104.841,238.411 104.710 C 238.200 104.580,238.022 102.822,238.017 100.803 C 238.006 96.766,236.916 93.715,234.764 91.693 C 233.328 90.344,233.400 91.117,234.905 93.200 C 236.345 95.193,237.100 97.252,237.100 99.186 C 237.100 101.130,236.401 101.380,236.059 99.558 C 235.691 97.596,229.084 90.234,226.652 89.076 C 225.714 88.629,225.315 88.506,225.766 88.801 C 227.269 89.788,229.876 92.228,229.659 92.445 C 229.541 92.562,229.148 92.412,228.785 92.111 C 228.421 91.809,228.025 91.662,227.904 91.783 C 227.783 91.904,228.699 92.843,229.940 93.869 C 234.805 97.894,236.819 101.914,236.531 107.022 C 236.239 112.218,235.596 112.536,234.140 108.204 C 232.887 104.476,229.839 98.952,228.582 98.131 L 227.526 97.441 228.677 98.959 C 230.382 101.208,233.492 108.099,234.362 111.556 L 235.124 114.584 233.264 118.497 C 231.004 123.253,229.982 124.390,230.543 121.525 C 231.136 118.498,230.920 111.794,230.124 108.529 C 229.724 106.887,229.255 104.280,229.081 102.735 C 228.839 100.590,228.489 99.599,227.602 98.544 C 226.962 97.784,226.439 96.988,226.439 96.775 C 226.439 95.585,223.446 91.789,221.207 90.141 C 219.811 89.114,218.946 88.273,219.283 88.273 C 220.436 88.273,223.917 90.935,226.319 93.654 C 228.889 96.563,229.913 97.023,227.896 94.361 C 224.365 89.705,220.422 86.932,216.492 86.343 C 214.118 85.987,214.145 85.833,216.679 85.287 C 218.223 84.954,217.898 84.915,214.819 85.065 C 212.767 85.165,211.087 85.166,211.087 85.069 C 211.087 84.773,212.927 83.882,214.286 83.519 C 215.289 83.252,215.094 83.207,213.388 83.311 C 208.840 83.591,202.641 88.677,200.065 94.243 C 199.078 96.376,198.956 96.492,198.724 95.522 C 198.227 93.451,197.814 95.923,198.122 99.122 C 198.449 102.522,198.748 103.490,200.277 106.110 C 201.740 108.617,201.899 108.167,200.636 105.095 C 197.603 97.716,204.430 84.748,210.044 87.223 C 211.253 87.756,211.262 87.779,210.263 87.812 C 208.687 87.864,205.694 89.463,204.488 90.897 C 202.940 92.736,203.160 93.383,204.772 91.735 C 208.315 88.110,215.876 87.684,219.766 90.890 C 222.062 92.783,221.837 93.570,219.317 92.455 C 212.658 89.510,201.587 95.102,201.749 101.330 L 201.791 102.985 202.171 101.371 C 204.199 92.762,212.261 90.407,219.857 96.205 C 221.874 97.745,222.416 97.986,221.918 97.122 C 221.740 96.812,221.774 96.737,222.000 96.944 C 222.213 97.139,222.340 97.379,222.281 97.477 C 222.223 97.575,222.466 97.990,222.822 98.401 C 225.864 101.910,226.013 102.200,226.013 104.626 C 226.013 105.936,225.730 107.637,225.384 108.408 C 225.038 109.178,224.553 110.616,224.306 111.602 C 223.625 114.326,223.128 114.143,223.581 111.336 C 224.073 108.278,222.700 104.727,220.008 102.098 C 218.018 100.155,217.785 100.538,219.658 102.672 C 221.683 104.977,222.724 107.737,222.431 110.021 C 221.818 114.809,221.433 116.302,220.479 117.593 C 219.318 119.163,219.104 119.299,219.477 118.230 C 219.620 117.820,218.798 118.403,217.651 119.526 C 216.504 120.649,214.510 122.141,213.220 122.841 C 211.570 123.736,211.254 123.829,212.154 123.154 C 216.446 119.934,221.150 114.054,220.662 112.517 C 220.389 111.654,220.216 111.834,219.150 114.087 C 216.209 120.307,207.289 125.171,200.742 124.125 C 197.659 123.633,197.815 123.243,201.102 123.222 C 210.649 123.162,216.344 117.420,216.690 107.505 C 216.779 104.947,216.707 104.713,215.535 103.776 C 213.762 102.357,213.370 102.534,214.724 104.143 C 218.072 108.122,213.994 117.637,207.469 121.068 C 205.327 122.194,204.965 122.187,199.786 120.912 C 187.696 117.935,180.778 111.340,176.730 98.934 C 174.780 92.958,175.040 76.686,177.035 79.831 C 177.228 80.135,177.391 81.055,177.397 81.876 C 177.403 82.697,177.694 84.311,178.043 85.462 C 178.392 86.614,178.678 88.259,178.678 89.119 C 178.678 91.160,180.346 95.998,182.032 98.846 C 182.767 100.088,183.369 101.169,183.369 101.249 C 183.369 102.624,187.109 106.641,189.257 107.572 C 190.622 108.164,192.050 109.124,192.430 109.704 C 193.157 110.814,194.924 111.586,194.762 110.724 C 194.648 110.122,195.625 110.199,198.934 111.053 C 204.093 112.385,209.013 110.952,208.928 108.143 L 208.901 107.249 208.537 108.150 C 207.802 109.969,200.543 110.693,198.573 109.144 C 197.994 108.688,197.377 108.316,197.201 108.316 C 195.296 108.316,192.178 103.349,192.421 100.702 L 192.564 99.147 193.873 101.787 C 194.657 103.366,196.236 105.463,197.804 107.008 C 201.049 110.202,201.260 109.691,198.104 106.282 C 195.257 103.207,193.915 100.114,193.900 96.588 C 193.860 87.630,205.901 74.627,214.235 74.627 C 214.928 74.627,215.368 74.501,215.213 74.346 C 212.605 71.738,227.559 72.950,232.129 75.718 C 237.802 79.153,239.530 80.372,241.684 82.455 C 244.858 85.523,244.462 84.352,241.069 80.635 C 238.325 77.628,238.247 77.483,239.044 76.863 C 239.793 76.279,239.798 76.244,239.091 76.488 C 238.661 76.637,238.014 76.759,237.653 76.759 C 237.117 76.759,237.094 76.877,237.527 77.399 C 237.819 77.751,237.881 78.038,237.664 78.038 C 236.979 78.038,236.247 77.048,236.247 76.119 C 236.247 75.627,236.007 74.955,235.714 74.626 C 235.260 74.116,235.293 74.113,235.938 74.602 C 236.354 74.917,236.834 75.035,237.004 74.864 C 237.500 74.367,235.470 72.972,233.542 72.485 C 232.567 72.239,230.810 71.656,229.638 71.190 L 227.505 70.343 229.349 70.576 C 230.552 70.728,231.099 70.657,230.923 70.373 C 230.586 69.827,230.936 69.828,232.911 70.376 M228.463 71.984 C 231.248 73.047,234.542 74.953,234.542 75.502 C 234.542 75.729,233.598 75.421,232.445 74.818 C 228.625 72.821,217.673 71.227,215.565 72.361 C 215.096 72.614,214.043 72.964,213.225 73.140 C 206.325 74.624,197.331 81.852,195.104 87.704 C 193.839 91.025,193.137 91.163,194.010 87.919 C 197.096 76.461,216.581 67.448,228.463 71.984 M137.529 73.667 C 137.067 77.233,136.995 77.346,133.956 79.211 C 130.413 81.386,130.343 81.396,130.721 79.638 C 131.190 77.457,135.987 71.944,137.659 71.664 C 137.732 71.652,137.674 72.553,137.529 73.667 M301.382 75.066 C 301.697 79.673,300.890 84.998,299.525 87.328 C 298.109 89.745,299.095 89.524,300.853 87.030 C 302.420 84.807,303.013 76.194,301.795 73.339 C 301.177 71.890,301.168 71.930,301.382 75.066 M126.996 74.128 C 126.031 75.480,122.272 79.564,122.659 78.841 C 123.283 77.673,126.845 73.389,127.210 73.368 C 127.399 73.357,127.303 73.699,126.996 74.128 M177.527 77.894 C 177.406 78.208,177.019 78.465,176.666 78.465 C 176.031 78.465,176.182 75.986,176.887 74.846 C 177.225 74.300,177.819 77.132,177.527 77.894 M247.466 77.765 C 247.761 78.533,249.308 84.756,249.668 86.623 C 249.789 87.254,250.244 87.839,250.707 87.960 C 251.266 88.106,251.663 88.771,251.945 90.036 C 252.273 91.503,252.370 91.643,252.406 90.696 C 252.445 89.673,252.586 89.537,253.358 89.782 C 253.968 89.976,254.169 89.916,253.973 89.598 C 253.812 89.338,253.452 89.119,253.173 89.110 C 252.406 89.087,250.038 85.169,250.664 84.960 C 251.052 84.831,251.029 84.509,250.572 83.652 C 250.239 83.027,249.542 81.409,249.024 80.057 C 248.506 78.704,247.882 77.473,247.636 77.322 C 247.359 77.150,247.294 77.318,247.466 77.765 M158.316 79.104 C 158.321 80.043,158.409 80.376,158.511 79.846 C 158.613 79.315,158.609 78.548,158.502 78.140 C 158.395 77.732,158.312 78.166,158.316 79.104 M229.955 78.145 C 230.158 78.761,234.115 79.140,234.115 78.544 C 234.115 78.327,233.396 78.031,232.516 77.886 C 230.200 77.503,229.759 77.548,229.955 78.145 M211.514 79.143 C 207.789 80.132,204.648 81.871,202.457 84.156 C 199.899 86.824,199.772 87.626,202.308 85.089 C 205.771 81.626,211.856 79.281,217.663 79.172 C 219.630 79.135,221.150 78.961,221.042 78.785 C 220.704 78.236,213.977 78.490,211.514 79.143 M136.887 80.089 C 136.887 81.685,136.465 82.120,132.032 85.093 C 129.948 86.490,127.661 88.353,126.950 89.232 C 125.328 91.238,124.947 91.241,124.947 89.247 C 124.947 87.601,128.197 83.582,129.528 83.582 C 129.838 83.582,130.210 83.271,130.356 82.891 C 130.658 82.104,135.443 78.891,136.313 78.891 C 136.658 78.891,136.887 79.370,136.887 80.089 M252.026 79.236 C 252.026 79.426,252.329 79.954,252.700 80.409 C 253.317 81.166,253.353 81.170,253.126 80.456 C 252.990 80.026,252.878 79.498,252.878 79.283 C 252.878 79.067,252.687 78.891,252.452 78.891 C 252.217 78.891,252.026 79.046,252.026 79.236 M153.153 82.729 C 153.043 87.646,157.472 100.213,159.314 100.213 C 159.978 100.213,159.985 100.143,159.389 99.467 C 157.343 97.146,154.765 90.142,153.763 84.185 C 153.277 81.293,153.190 81.085,153.153 82.729 M136.880 85.522 C 136.886 86.639,136.392 87.222,133.369 89.668 C 131.434 91.234,128.933 93.313,127.811 94.288 C 125.498 96.299,125.544 96.302,125.200 94.120 C 124.928 92.392,126.829 90.023,129.744 88.455 C 130.389 88.108,130.917 87.637,130.917 87.408 C 130.917 87.179,132.100 86.121,133.546 85.056 C 136.381 82.970,136.868 83.038,136.880 85.522 M124.334 85.507 C 124.175 86.352,123.410 87.753,122.634 88.618 C 121.857 89.484,120.814 90.997,120.315 91.981 C 119.817 92.966,119.143 93.925,118.818 94.114 C 118.493 94.302,117.799 95.458,117.276 96.682 C 116.290 98.987,115.139 100.409,115.139 99.320 C 115.139 98.068,116.624 94.811,117.745 93.603 C 118.399 92.900,119.226 91.621,119.585 90.762 C 119.943 89.903,120.994 88.325,121.919 87.256 C 122.845 86.186,123.731 84.907,123.887 84.414 C 124.332 83.011,124.655 83.798,124.334 85.507 M215.565 87.846 C 216.280 88.154,216.193 88.218,215.032 88.243 C 214.270 88.259,213.646 88.081,213.646 87.846 C 213.646 87.340,214.387 87.340,215.565 87.846 M261.299 89.861 C 260.653 91.049,260.027 92.952,259.909 94.091 C 259.721 95.903,259.752 96.015,260.160 94.989 C 260.815 93.339,261.400 93.532,261.450 95.416 C 261.473 96.295,261.646 97.495,261.834 98.081 L 262.175 99.147 262.263 98.081 C 262.416 96.214,262.205 94.643,261.609 93.216 C 261.090 91.973,261.118 91.685,261.880 90.431 C 262.348 89.661,262.673 88.733,262.602 88.367 C 262.527 87.980,261.983 88.604,261.299 89.861 M123.937 90.603 C 123.531 94.064,119.395 99.406,119.406 96.457 C 119.407 96.060,119.665 95.256,119.978 94.670 C 121.836 91.197,123.671 88.317,124.046 88.286 C 124.137 88.279,124.088 89.322,123.937 90.603 M138.606 91.921 C 139.239 93.785,139.964 95.819,140.216 96.442 C 140.652 97.522,140.535 97.679,137.748 99.751 C 136.138 100.948,134.151 102.840,133.332 103.956 C 130.640 107.624,130.230 107.832,129.436 105.933 C 127.975 102.435,127.882 102.668,132.571 98.029 C 134.945 95.680,136.887 93.675,136.887 93.574 C 136.887 92.738,135.253 94.030,131.729 97.655 C 126.895 102.626,127.310 102.433,126.694 99.989 C 126.072 97.519,126.230 97.243,130.588 93.168 C 136.846 87.314,137.030 87.286,138.606 91.921 M310.570 91.404 C 310.570 97.313,305.266 107.861,299.836 112.753 C 299.340 113.199,298.934 113.768,298.934 114.016 C 298.934 114.725,303.000 110.545,305.567 107.197 C 310.824 100.342,314.185 89.552,311.063 89.552 C 310.765 89.552,310.570 90.286,310.570 91.404 M284.607 91.151 C 286.398 96.963,286.868 105.864,285.591 109.808 C 285.026 111.555,285.014 111.790,285.525 111.107 C 287.990 107.815,287.966 97.784,285.480 91.791 C 284.880 90.346,284.207 89.852,284.607 91.151 M218.531 93.797 C 221.206 95.678,220.834 96.206,218.068 94.456 C 214.959 92.489,214.342 91.912,215.778 92.313 C 216.365 92.477,217.604 93.145,218.531 93.797 M196.872 94.531 C 196.288 96.595,196.131 98.110,196.450 98.604 C 196.666 98.937,196.897 98.160,197.048 96.588 C 197.305 93.915,197.245 93.213,196.872 94.531 M213.646 93.950 C 213.646 94.023,214.270 94.533,215.032 95.083 L 216.418 96.084 215.384 94.950 C 214.501 93.982,213.646 93.490,213.646 93.950 M124.619 95.578 C 124.835 97.044,121.399 103.428,120.645 102.962 C 119.544 102.282,120.259 99.023,121.962 96.963 C 122.900 95.827,123.667 94.751,123.667 94.571 C 123.667 93.609,124.452 94.439,124.619 95.578 M219.664 98.827 C 221.125 100.176,222.882 102.143,223.568 103.198 C 224.371 104.433,224.706 104.737,224.508 104.051 C 224.002 102.304,221.366 99.005,219.390 97.645 C 216.627 95.744,216.709 96.098,219.664 98.827 M191.045 98.319 C 191.045 99.223,190.872 99.730,190.618 99.574 C 189.911 99.137,190.151 96.802,190.903 96.802 C 190.981 96.802,191.045 97.485,191.045 98.319 M118.272 101.487 C 117.748 102.780,116.828 104.407,116.229 105.102 C 115.629 105.798,115.139 106.510,115.139 106.686 C 115.139 107.592,113.316 111.705,113.000 111.510 C 112.220 111.028,114.087 105.467,115.236 104.852 C 115.700 104.604,115.991 103.956,115.991 103.177 C 115.991 101.229,118.651 96.703,118.979 98.092 C 119.125 98.711,118.837 100.094,118.272 101.487 M177.492 97.974 C 177.583 98.150,178.661 100.363,179.888 102.891 C 184.596 112.586,191.091 118.218,199.221 119.654 C 202.900 120.304,203.415 120.313,203.990 119.739 C 204.344 119.384,205.414 118.970,206.368 118.817 C 207.322 118.665,208.102 118.379,208.102 118.181 C 208.102 117.984,207.095 118.090,205.864 118.418 C 203.621 119.014,202.394 118.964,196.988 118.058 C 192.778 117.353,190.366 115.874,186.429 111.585 C 183.383 108.268,180.337 103.530,180.892 102.974 C 181.155 102.711,185.214 107.803,186.087 109.490 C 187.458 112.142,196.493 117.146,200.691 117.580 C 203.041 117.822,206.831 116.458,208.119 114.905 C 209.108 113.714,208.199 113.797,205.872 115.111 C 202.526 116.999,200.072 116.911,195.167 114.728 C 191.348 113.028,187.633 110.411,187.633 109.421 C 187.633 108.828,181.239 102.081,180.803 102.214 C 180.655 102.259,179.901 101.251,179.127 99.975 C 178.354 98.699,177.633 97.655,177.524 97.655 C 177.416 97.655,177.402 97.799,177.492 97.974 M124.832 105.810 L 123.488 107.973 122.719 107.024 C 121.391 105.385,121.350 104.237,122.561 102.649 C 123.170 101.851,123.667 101.020,123.667 100.801 C 123.667 100.582,123.989 99.943,124.383 99.381 C 126.023 97.040,126.454 103.202,124.832 105.810 M261.407 99.524 C 261.407 99.652,261.672 100.388,261.996 101.158 C 263.357 104.398,263.663 105.843,263.065 106.213 C 262.753 106.406,262.635 106.701,262.803 106.868 C 263.614 107.680,264.813 105.667,264.197 104.527 C 263.866 103.913,263.343 102.562,263.034 101.523 C 262.582 100.002,261.407 98.557,261.407 99.524 M114.413 101.386 C 114.278 102.265,113.894 103.465,113.560 104.051 C 113.225 104.638,113.045 104.806,113.158 104.426 C 113.271 104.045,113.497 102.846,113.660 101.760 C 113.823 100.675,114.114 99.787,114.307 99.787 C 114.500 99.787,114.548 100.506,114.413 101.386 M166.747 100.481 C 166.752 100.685,167.132 101.333,167.591 101.919 C 168.049 102.505,168.437 103.177,168.453 103.412 C 168.523 104.448,172.281 108.104,172.281 107.135 C 172.281 106.529,171.754 105.847,170.807 105.228 C 169.996 104.698,169.007 103.544,168.609 102.663 C 167.907 101.109,166.728 99.727,166.747 100.481 M119.939 102.878 C 120.166 104.397,118.064 109.481,117.048 109.871 C 116.741 109.989,116.354 111.078,116.190 112.292 C 116.025 113.506,115.516 115.506,115.057 116.738 C 114.128 119.237,113.164 119.809,113.622 117.591 C 113.779 116.828,114.055 115.053,114.234 113.646 C 114.568 111.030,115.420 108.742,116.060 108.742 C 116.257 108.742,116.421 108.214,116.426 107.569 C 116.430 106.924,117.006 105.552,117.705 104.520 C 118.404 103.488,118.977 102.385,118.977 102.068 C 118.977 100.897,119.740 101.540,119.939 102.878 M128.676 106.399 L 129.541 108.747 128.310 109.783 C 127.633 110.353,127.076 111.167,127.072 111.593 C 127.057 113.396,126.331 113.625,125.402 112.118 C 123.837 109.582,123.853 108.923,125.541 106.381 C 127.456 103.496,127.607 103.497,128.676 106.399 M122.218 108.063 C 122.480 108.853,119.988 114.712,119.389 114.712 C 119.010 114.712,118.124 112.698,118.124 111.838 C 118.124 111.453,118.651 109.837,119.296 108.247 C 120.531 105.206,121.253 105.160,122.218 108.063 M259.338 111.056 C 259.394 112.794,259.237 114.470,258.989 114.783 C 258.741 115.096,258.427 116.743,258.292 118.442 C 258.154 120.174,257.753 121.950,257.381 122.482 C 256.450 123.812,256.428 118.786,257.356 116.565 C 258.032 114.948,258.152 113.419,257.727 111.834 C 257.280 110.166,256.840 110.792,256.858 113.068 C 256.873 114.924,256.706 115.400,255.773 116.160 C 254.714 117.021,254.689 117.147,255.132 119.267 C 255.564 121.335,255.522 121.582,254.482 123.105 C 253.871 124.001,253.135 125.597,252.847 126.652 L 252.323 128.571 251.782 125.586 C 251.484 123.945,251.225 121.743,251.206 120.694 L 251.173 118.787 250.280 119.679 C 249.428 120.532,249.419 120.632,250.088 121.926 C 250.496 122.715,250.773 124.207,250.752 125.499 C 250.731 126.720,250.820 128.198,250.949 128.785 C 251.146 129.685,250.552 130.515,247.132 134.115 L 243.080 138.380 243.227 134.216 C 243.334 131.198,243.558 129.850,244.042 129.312 C 244.410 128.905,245.561 126.695,246.601 124.401 C 248.039 121.227,248.932 119.852,250.336 118.650 C 251.785 117.410,252.724 115.926,254.708 111.734 C 258.341 104.061,259.111 103.948,259.338 111.056 M295.797 106.362 C 295.416 106.945,294.640 108.438,294.073 109.681 C 292.084 114.040,285.517 118.882,276.972 122.289 C 275.696 122.798,275.697 122.798,277.381 122.606 C 283.578 121.897,292.378 115.179,295.421 108.833 C 296.906 105.737,297.117 104.348,295.797 106.362 M228.955 114.580 C 228.979 117.674,228.837 120.305,228.641 120.426 C 228.445 120.547,228.259 121.334,228.227 122.174 C 228.112 125.249,225.040 130.177,221.393 133.140 C 218.947 135.128,218.716 134.931,220.535 132.410 C 222.696 129.413,223.453 127.853,223.453 126.392 C 223.454 125.662,224.017 123.824,224.704 122.309 C 225.926 119.614,227.053 113.284,226.057 114.712 C 225.812 115.064,225.490 116.215,225.342 117.271 C 224.484 123.373,219.285 134.402,216.770 135.453 C 215.939 135.800,215.356 136.180,215.473 136.297 C 215.590 136.415,216.378 136.221,217.225 135.868 C 218.071 135.514,218.763 135.407,218.763 135.629 C 218.763 135.852,218.615 136.034,218.435 136.034 C 217.855 136.034,212.154 141.543,212.154 142.104 C 212.154 142.401,210.761 143.683,209.060 144.952 C 207.359 146.221,206.056 147.349,206.165 147.458 C 206.476 147.770,211.453 143.933,214.280 141.201 C 217.001 138.572,224.551 132.196,224.944 132.196 C 225.280 132.196,223.556 135.496,222.047 137.740 C 221.338 138.795,218.361 142.095,215.433 145.073 C 209.313 151.296,210.478 150.974,202.986 148.519 C 197.542 146.735,197.706 146.897,200.254 145.825 C 203.068 144.642,204.816 143.701,205.330 143.094 C 205.565 142.817,206.521 142.075,207.455 141.444 C 208.389 140.814,208.999 140.299,208.811 140.299 C 208.623 140.299,207.604 140.893,206.548 141.621 C 205.491 142.348,203.057 143.667,201.140 144.553 L 197.655 146.164 195.581 145.080 L 193.507 143.997 196.954 142.877 C 198.850 142.261,200.946 141.354,201.613 140.861 C 202.279 140.369,204.059 139.349,205.570 138.594 C 210.997 135.883,218.495 127.440,222.802 119.190 C 224.149 116.610,225.599 114.170,226.024 113.768 C 226.450 113.365,227.025 111.926,227.304 110.569 C 228.398 105.235,228.894 106.440,228.955 114.580 M132.092 111.886 C 133.205 113.380,135.050 115.683,136.193 117.004 L 138.271 119.404 136.833 121.494 L 135.394 123.583 132.409 120.925 C 130.768 119.463,128.803 117.353,128.044 116.236 L 126.663 114.206 128.044 111.692 C 129.747 108.592,129.635 108.586,132.092 111.886 M189.339 110.197 C 189.339 110.450,192.531 112.154,193.004 112.154 C 193.163 112.154,192.834 111.796,192.275 111.359 C 191.218 110.534,189.339 109.790,189.339 110.197 M124.249 112.104 C 125.041 113.460,125.039 113.516,124.093 116.547 C 122.943 120.228,122.970 120.190,122.162 119.159 C 120.236 116.701,120.171 116.212,121.371 113.215 C 122.589 110.173,123.023 110.005,124.249 112.104 M182.173 112.687 C 183.182 113.918,185.256 116.168,186.780 117.688 C 188.866 119.766,189.185 120.221,188.069 119.523 C 186.109 118.299,179.531 111.745,179.531 111.017 C 179.531 109.941,180.340 110.452,182.173 112.687 M195.522 111.642 C 196.292 112.355,198.815 113.007,200.597 112.954 C 202.245 112.905,202.211 112.883,199.995 112.556 C 198.702 112.365,197.071 111.993,196.370 111.728 C 195.669 111.464,195.288 111.425,195.522 111.642 M118.307 114.646 C 119.059 116.314,119.057 116.343,117.996 118.185 C 117.408 119.207,116.795 120.857,116.635 121.853 C 116.213 124.478,115.705 124.429,115.368 121.731 C 115.128 119.813,115.238 119.041,115.959 117.551 C 116.446 116.545,116.844 115.004,116.844 114.126 C 116.844 112.217,117.282 112.373,118.307 114.646 M162.473 114.137 C 162.473 115.471,171.352 122.137,175.480 123.903 C 176.652 124.405,178.935 125.435,180.553 126.193 C 184.226 127.914,188.624 128.777,194.670 128.965 C 197.249 129.045,198.593 129.033,197.655 128.937 C 187.333 127.886,182.544 126.806,179.104 124.752 C 177.814 123.982,176.028 123.116,175.135 122.829 C 172.975 122.133,167.026 118.120,164.499 115.654 C 163.385 114.567,162.473 113.885,162.473 114.137 M167.591 114.679 C 167.591 115.213,169.707 117.697,170.162 117.697 C 170.362 117.697,170.023 116.930,169.409 115.991 C 168.346 114.369,167.591 113.823,167.591 114.679 M132.277 115.672 C 131.425 117.342,130.926 118.977,131.269 118.977 C 131.559 118.977,133.475 115.447,133.475 114.914 C 133.475 114.345,132.705 114.832,132.277 115.672 M130.454 120.352 L 134.896 124.926 134.118 127.495 C 133.201 130.525,133.238 130.514,130.936 128.465 L 129.140 126.866 129.657 124.824 C 129.941 123.701,130.077 122.686,129.960 122.569 C 129.843 122.451,129.528 123.226,129.260 124.291 C 128.992 125.355,128.612 126.226,128.416 126.226 C 127.945 126.226,123.667 121.297,123.667 120.754 C 123.667 119.993,125.496 115.534,125.758 115.658 C 125.898 115.724,128.012 117.836,130.454 120.352 M158.682 116.264 C 159.216 117.608,168.555 124.125,169.127 123.553 C 169.241 123.438,168.415 122.816,167.290 122.170 C 166.165 121.523,163.731 119.836,161.880 118.419 C 160.029 117.003,158.590 116.033,158.682 116.264 M239.985 116.844 C 239.478 118.564,239.574 120.234,240.125 119.287 C 240.366 118.872,240.505 117.912,240.431 117.155 C 240.304 115.836,240.285 115.823,239.985 116.844 M121.372 119.926 C 121.959 121.061,121.926 121.324,120.917 123.527 C 120.319 124.833,119.829 126.575,119.829 127.396 C 119.829 129.076,119.283 128.880,117.674 126.620 C 116.689 125.236,117.113 122.122,118.671 119.305 C 119.649 117.537,120.202 117.664,121.372 119.926 M192.260 119.157 C 192.905 119.490,194.730 120.182,196.316 120.694 C 199.569 121.746,199.839 122.322,196.718 121.553 C 194.587 121.028,189.563 118.605,190.533 118.570 C 190.838 118.559,191.615 118.823,192.260 119.157 M112.573 119.936 C 112.570 120.464,112.381 121.183,112.154 121.535 C 111.846 122.011,111.738 121.765,111.734 120.576 C 111.730 119.696,111.919 118.977,112.154 118.977 C 112.388 118.977,112.577 119.408,112.573 119.936 M174.414 121.109 C 174.765 121.336,175.437 121.512,175.906 121.499 L 176.759 121.475 175.906 121.109 C 174.631 120.561,173.566 120.561,174.414 121.109 M114.256 122.921 C 114.200 125.490,113.496 126.247,113.463 123.774 C 113.446 122.543,113.625 121.535,113.859 121.535 C 114.094 121.535,114.272 122.159,114.256 122.921 M219.163 123.561 C 218.632 124.440,217.747 125.951,217.195 126.918 C 216.062 128.905,209.727 134.832,206.823 136.621 C 198.437 141.790,191.898 144.532,191.898 142.881 C 191.898 142.555,198.357 139.446,199.036 139.446 C 199.699 139.446,204.484 136.822,205.970 135.644 C 206.791 134.993,208.038 134.161,208.742 133.795 C 210.252 133.011,215.234 127.840,217.802 124.392 C 219.860 121.629,220.601 121.176,219.163 123.561 M124.041 123.484 C 124.747 124.381,124.823 124.787,124.461 125.723 C 124.218 126.351,123.892 128.497,123.737 130.490 L 123.454 134.115 122.014 132.040 C 119.440 128.333,121.389 120.112,124.041 123.484 M259.441 123.774 C 257.765 126.647,254.148 131.076,254.166 130.234 C 254.175 129.803,259.222 123.241,259.545 123.241 C 259.659 123.241,259.612 123.481,259.441 123.774 M208.849 123.961 C 208.438 124.069,208.102 124.334,208.102 124.552 C 208.102 124.769,207.887 124.947,207.624 124.947 C 207.293 124.947,207.309 124.749,207.676 124.307 C 207.968 123.955,208.519 123.690,208.901 123.717 C 209.486 123.759,209.478 123.797,208.849 123.961 M291.964 124.291 C 291.531 124.619,288.652 125.889,285.567 127.113 C 279.915 129.356,277.508 130.605,281.037 129.462 C 286.002 127.856,292.679 124.910,293.781 123.840 C 294.263 123.372,292.647 123.773,291.964 124.291 M115.913 125.927 C 115.988 126.311,116.714 127.290,117.528 128.103 C 118.899 129.475,119.385 133.209,118.330 134.265 C 117.953 134.641,116.416 131.436,116.366 130.171 C 116.336 129.408,116.263 128.593,116.205 128.358 C 116.146 128.124,116.071 127.788,116.038 127.612 C 116.005 127.436,115.799 127.575,115.580 127.922 C 115.079 128.715,114.298 126.909,114.617 125.691 C 114.857 124.771,115.720 124.928,115.913 125.927 M261.367 125.906 C 261.095 126.434,260.560 127.234,260.180 127.685 C 259.799 128.136,259.728 128.365,260.021 128.193 C 261.759 127.177,258.181 133.837,255.523 136.567 C 252.906 139.254,252.278 139.173,254.715 136.463 C 255.768 135.291,257.043 133.633,257.547 132.777 L 258.465 131.222 255.992 133.352 C 253.438 135.551,251.674 136.678,251.327 136.331 C 251.217 136.221,251.778 135.729,252.573 135.238 C 254.311 134.164,257.592 130.615,259.875 127.338 C 261.613 124.845,262.216 124.266,261.367 125.906 M129.487 128.529 L 133.387 131.670 132.654 132.788 C 132.251 133.403,131.661 135.152,131.343 136.675 C 130.676 139.873,130.735 139.839,128.733 138.188 C 127.245 136.962,127.216 136.881,127.555 134.883 C 128.664 128.361,128.432 126.834,127.223 132.689 C 126.453 136.417,126.519 136.324,125.219 135.472 C 124.228 134.823,124.193 134.643,124.378 131.044 C 124.725 124.264,124.394 124.427,129.487 128.529 M139.561 127.988 C 141.022 128.968,142.279 129.817,142.354 129.875 C 142.477 129.971,140.804 133.915,140.493 134.261 C 140.344 134.427,135.691 131.932,134.829 131.223 C 134.244 130.743,134.403 128.912,135.215 126.777 C 135.698 125.506,135.976 125.583,139.561 127.988 M114.953 130.637 C 115.071 131.583,115.686 132.746,116.595 133.738 C 118.088 135.368,118.939 137.980,117.839 137.558 C 117.110 137.278,117.124 137.498,117.936 139.069 C 118.302 139.776,118.535 140.870,118.455 141.500 C 118.314 142.599,118.278 142.577,117.545 140.938 C 117.082 139.903,116.867 138.690,116.998 137.854 C 117.117 137.096,117.065 136.384,116.883 136.271 C 116.058 135.761,113.908 130.610,114.143 129.709 C 114.468 128.467,114.720 128.755,114.953 130.637 M247.434 131.343 C 247.434 132.164,247.521 132.500,247.629 132.090 C 247.736 131.679,247.736 131.007,247.629 130.597 C 247.521 130.187,247.434 130.522,247.434 131.343 M147.339 131.978 C 149.213 132.796,151.071 133.467,151.467 133.470 C 152.554 133.478,152.751 134.130,152.241 136.024 C 151.650 138.220,151.033 138.235,145.532 136.191 C 140.599 134.357,140.844 134.523,141.689 133.585 C 142.061 133.173,142.496 132.308,142.657 131.663 C 143.029 130.172,143.235 130.186,147.339 131.978 M254.090 132.196 C 253.570 132.900,252.965 133.475,252.746 133.475 C 252.310 133.475,253.144 132.287,254.158 131.463 C 255.133 130.672,255.120 130.803,254.090 132.196 M122.813 136.994 C 122.815 139.361,122.444 139.502,120.933 137.707 C 119.850 136.420,119.314 132.428,120.116 131.625 C 120.794 130.948,122.811 134.963,122.813 136.994 M137.004 133.739 C 138.699 134.587,140.155 135.345,140.241 135.423 C 140.588 135.737,138.803 143.284,138.383 143.284 C 138.133 143.284,136.565 142.630,134.897 141.831 L 131.866 140.378 132.067 138.313 C 132.267 136.255,133.373 132.196,133.734 132.196 C 133.838 132.196,135.310 132.890,137.004 133.739 M213.744 135.821 C 210.148 139.517,209.495 140.737,212.659 137.846 C 214.116 136.516,217.721 132.196,217.375 132.196 C 217.317 132.197,215.684 133.828,213.744 135.821 M242.404 133.307 C 243.208 136.513,240.450 141.036,236.354 143.227 C 235.213 143.837,235.221 143.882,236.053 141.525 C 236.415 140.499,236.848 138.706,237.016 137.542 C 237.289 135.643,237.540 135.259,239.449 133.813 C 241.982 131.895,242.047 131.883,242.404 133.307 M250.143 133.582 C 249.753 134.110,249.106 135.115,248.705 135.817 C 248.303 136.518,247.337 137.717,246.558 138.482 C 244.936 140.074,245.125 140.289,246.982 138.967 C 247.957 138.273,248.370 138.179,248.754 138.563 C 249.302 139.114,248.252 140.149,245.842 141.434 C 245.139 141.810,243.504 142.907,242.209 143.873 C 239.716 145.733,233.404 149.111,233.061 148.768 C 232.443 148.150,235.397 145.226,238.992 142.897 C 241.584 141.218,244.411 138.868,246.762 136.440 C 250.437 132.644,251.494 131.750,250.143 133.582 M226.184 134.222 C 225.638 136.582,221.373 144.828,219.771 146.618 C 218.147 148.434,218.089 148.458,215.665 148.324 L 213.206 148.188 216.039 145.416 C 221.510 140.062,222.260 139.207,224.173 136.141 C 226.285 132.755,226.591 132.462,226.184 134.222 M161.727 136.478 C 163.231 136.895,163.326 137.022,163.326 138.610 C 163.326 140.578,163.405 140.561,158.422 139.679 C 152.552 138.640,152.076 138.328,152.954 136.095 L 153.586 134.486 156.857 135.261 C 158.656 135.687,160.848 136.235,161.727 136.478 M259.976 136.141 C 259.896 136.668,259.625 137.100,259.375 137.100 C 259.124 137.100,258.760 137.275,258.564 137.488 C 258.358 137.714,258.432 137.748,258.742 137.570 C 259.035 137.401,259.275 137.443,259.275 137.662 C 259.275 138.198,258.421 138.850,257.248 139.209 C 255.970 139.601,252.070 143.420,250.365 145.949 C 248.647 148.497,247.515 148.701,247.999 146.375 C 248.183 145.496,248.444 143.821,248.580 142.653 C 248.802 140.750,248.960 140.489,250.107 140.146 C 250.810 139.935,252.323 139.403,253.468 138.964 C 254.614 138.525,255.781 138.166,256.063 138.166 C 256.344 138.166,257.326 137.503,258.245 136.692 C 260.248 134.923,260.158 134.951,259.976 136.141 M145.842 137.316 C 147.836 138.069,149.860 138.834,150.340 139.016 C 151.157 139.327,151.193 139.571,150.912 142.840 C 150.553 147.022,150.620 146.937,148.081 146.447 L 146.055 146.055 145.926 143.805 C 145.778 141.226,144.989 141.167,144.989 143.735 C 144.989 145.710,144.478 145.842,141.706 144.584 C 140.050 143.832,139.929 143.665,140.090 142.355 C 140.186 141.576,140.359 139.926,140.476 138.689 C 140.713 136.161,141.013 135.458,141.728 135.749 C 141.997 135.859,143.849 136.564,145.842 137.316 M250.746 136.474 C 250.746 136.984,249.543 137.532,249.193 137.181 C 248.819 136.808,249.453 136.034,250.132 136.034 C 250.470 136.034,250.746 136.232,250.746 136.474 M126.389 138.719 C 126.527 139.236,126.643 140.283,126.647 141.045 C 126.650 141.807,126.870 142.431,127.135 142.431 C 127.452 142.431,127.539 141.845,127.389 140.725 C 127.118 138.705,127.071 138.720,129.204 140.131 C 130.730 141.141,131.882 145.842,130.603 145.842 C 130.038 145.842,127.565 144.054,127.348 143.488 C 127.215 143.141,126.835 142.857,126.503 142.857 C 126.172 142.857,125.399 142.200,124.787 141.396 C 123.737 140.020,123.653 139.492,124.046 136.771 C 124.139 136.129,126.141 137.794,126.389 138.719 M115.775 138.806 C 115.962 139.689,115.921 139.887,115.644 139.446 C 114.992 138.408,114.543 136.604,115.060 137.100 C 115.305 137.335,115.626 138.102,115.775 138.806 M169.936 137.601 C 173.501 137.870,173.707 138.020,173.321 140.075 L 173.023 141.668 170.200 141.435 C 164.067 140.929,163.230 140.449,164.170 137.978 C 164.559 136.954,164.782 136.831,165.786 137.083 C 166.427 137.244,168.294 137.477,169.936 137.601 M186.001 137.593 C 186.429 137.981,186.780 138.517,186.780 138.783 C 186.780 139.050,187.636 140.107,188.681 141.133 C 190.777 143.190,190.788 143.512,188.785 144.091 C 187.676 144.412,187.605 144.493,188.408 144.524 C 188.951 144.546,189.764 144.365,190.215 144.124 C 191.034 143.686,196.134 146.020,196.307 146.913 C 196.375 147.268,191.311 149.227,187.552 150.299 C 185.362 150.923,184.659 150.571,184.042 148.546 C 183.888 148.039,183.482 147.392,183.139 147.108 C 182.092 146.239,182.419 145.923,184.895 145.409 C 187.908 144.783,187.644 144.367,184.586 144.923 C 182.124 145.371,181.863 145.236,181.406 143.284 C 181.269 142.697,180.887 141.613,180.557 140.874 C 179.296 138.048,179.797 137.586,184.828 136.938 C 185.044 136.910,185.572 137.205,186.001 137.593 M122.310 141.615 L 122.446 143.468 121.502 142.630 C 120.614 141.841,120.622 141.892,121.624 143.497 C 122.872 145.494,123.455 147.122,122.923 147.122 C 122.157 147.122,120.321 144.724,119.904 143.177 C 119.499 141.678,119.575 141.403,120.362 141.527 C 120.856 141.605,120.719 141.023,120.029 140.110 C 119.685 139.655,119.403 138.911,119.403 138.457 C 119.403 136.556,122.159 139.550,122.310 141.615 M179.110 138.699 C 179.114 139.227,179.232 140.091,179.373 140.618 C 179.611 141.507,179.492 141.577,177.768 141.572 C 174.498 141.562,173.987 141.268,173.987 139.396 L 173.987 137.740 176.546 137.740 C 178.913 137.740,179.105 137.812,179.110 138.699 M158.134 140.715 C 160.555 141.189,162.618 141.578,162.718 141.578 C 162.818 141.578,162.900 143.111,162.900 144.985 L 162.900 148.392 158.955 148.118 C 156.786 147.968,154.243 147.622,153.305 147.350 L 151.599 146.856 151.657 143.799 C 151.727 140.111,151.981 139.308,152.983 139.619 C 153.395 139.747,155.712 140.240,158.134 140.715 M135.564 143.136 C 138.807 144.804,138.841 144.868,138.248 148.082 L 137.953 149.683 136.247 148.895 C 135.309 148.462,133.974 147.932,133.281 147.718 C 131.888 147.286,131.454 146.295,131.386 143.390 C 131.333 141.128,131.626 141.110,135.564 143.136 M170.019 142.261 L 173.514 142.549 173.802 144.855 C 174.156 147.690,174.477 147.434,169.915 147.957 C 163.540 148.687,163.961 148.928,163.485 144.279 L 163.195 141.448 164.860 141.711 C 165.775 141.855,168.097 142.103,170.019 142.261 M125.515 143.209 C 126.503 144.240,126.695 144.861,126.853 147.528 L 127.038 150.643 125.992 149.661 C 125.417 149.121,124.947 148.367,124.947 147.985 C 124.947 147.604,124.774 147.110,124.564 146.887 C 124.022 146.314,123.502 142.004,123.974 142.004 C 124.187 142.004,124.880 142.546,125.515 143.209 M180.513 143.869 L 181.148 145.734 178.114 146.619 C 174.648 147.630,174.884 147.698,174.387 145.556 C 173.580 142.079,173.633 142.004,176.932 142.004 L 179.877 142.004 180.513 143.869 M247.347 144.200 C 247.088 145.221,246.566 146.777,246.186 147.659 C 245.378 149.535,245.693 150.140,246.906 149.043 C 247.376 148.617,247.761 148.454,247.761 148.681 C 247.761 148.908,247.158 149.539,246.421 150.084 C 245.684 150.629,245.215 150.857,245.380 150.591 C 245.545 150.325,245.590 150.107,245.482 150.107 C 245.373 150.107,244.710 151.124,244.008 152.368 C 242.527 154.992,238.286 158.643,239.625 156.141 C 239.857 155.707,240.452 153.840,240.947 151.993 C 241.442 150.146,242.057 148.381,242.313 148.073 C 242.650 147.666,242.645 147.378,242.292 147.025 C 241.610 146.343,241.329 146.769,241.058 148.899 C 240.929 149.915,240.676 150.938,240.496 151.173 C 240.316 151.407,239.950 152.418,239.682 153.420 C 238.387 158.261,236.958 160.208,233.192 162.257 C 230.711 163.607,230.716 163.628,232.772 160.496 C 235.582 156.216,235.654 154.956,232.860 158.955 C 229.574 163.659,228.000 164.974,224.833 165.656 L 223.441 165.956 225.838 162.615 C 228.302 159.183,230.696 154.914,229.872 155.424 C 229.617 155.582,228.926 156.663,228.336 157.827 C 224.162 166.063,220.278 167.748,211.847 164.980 C 210.506 164.539,208.539 164.179,207.476 164.179 C 206.302 164.179,205.544 163.986,205.544 163.688 C 205.544 163.233,208.926 159.738,210.882 158.171 C 211.347 157.799,212.707 156.401,213.905 155.066 L 216.083 152.638 220.088 152.690 C 222.291 152.719,224.634 152.533,225.294 152.278 C 228.322 151.104,227.781 152.001,224.306 153.916 C 218.710 157.000,224.251 154.835,232.525 150.704 C 237.504 148.218,242.058 145.967,242.644 145.701 C 243.230 145.435,244.555 144.492,245.588 143.606 C 247.807 141.702,247.967 141.756,247.347 144.200 M118.963 145.384 C 118.948 146.115,118.089 145.205,117.182 143.497 C 116.801 142.781,116.909 142.810,117.853 143.678 C 118.471 144.246,118.970 145.014,118.963 145.384 M252.891 144.539 C 252.647 144.995,252.227 145.505,251.957 145.671 C 251.629 145.874,251.581 145.776,251.813 145.375 C 252.727 143.790,253.693 143.041,252.891 144.539 M144.563 148.286 C 144.563 149.318,144.762 150.534,145.004 150.988 C 145.550 152.007,145.605 152.009,142.226 150.899 C 139.620 150.044,139.442 149.904,139.395 148.661 C 139.262 145.162,139.435 144.982,142.186 145.747 L 144.563 146.409 144.563 148.286 M130.966 149.536 C 131.110 150.688,131.368 152.071,131.539 152.611 C 131.813 153.472,131.755 153.538,131.064 153.149 C 128.277 151.584,127.780 150.616,127.885 146.960 L 127.932 145.306 129.318 146.374 C 130.443 147.241,130.753 147.835,130.966 149.536 M123.441 149.504 C 123.744 150.228,124.135 151.284,124.309 151.850 L 124.626 152.878 123.466 151.812 C 122.170 150.622,120.682 147.970,120.682 146.851 C 120.682 145.804,122.706 147.750,123.441 149.504 M182.955 148.702 C 184.399 150.979,184.482 150.860,180.504 152.199 C 176.449 153.564,176.195 153.432,175.473 149.583 C 175.198 148.116,175.199 148.116,177.471 147.455 C 181.182 146.376,181.530 146.455,182.955 148.702 M150.189 147.812 C 151.159 148.411,150.550 152.665,149.495 152.665 C 146.621 152.665,145.432 151.559,145.422 148.879 L 145.416 147.012 147.630 147.305 C 148.848 147.467,149.999 147.695,150.189 147.812 M232.464 148.081 C 231.921 149.597,227.187 151.027,221.855 151.286 C 217.576 151.493,216.889 151.299,217.996 150.192 C 218.394 149.794,218.361 149.680,217.849 149.680 C 217.486 149.680,216.824 150.085,216.377 150.579 C 215.611 151.427,211.973 151.560,211.182 150.770 C 210.730 150.318,212.131 149.204,212.899 149.405 C 214.267 149.763,226.127 148.522,227.932 147.833 C 230.716 146.770,232.892 146.889,232.464 148.081 M199.748 148.615 L 202.160 149.682 200.760 150.895 C 199.990 151.562,198.449 152.451,197.335 152.871 C 196.221 153.291,195.309 153.813,195.309 154.031 C 195.309 154.850,199.057 153.258,201.498 151.402 L 203.210 150.100 205.763 150.995 C 207.167 151.488,208.375 151.948,208.447 152.018 C 208.740 152.304,197.232 159.915,196.507 159.915 C 196.178 159.915,194.873 159.261,193.607 158.463 L 191.304 157.011 192.932 156.331 C 193.828 155.956,194.729 155.650,194.935 155.650 C 195.141 155.650,195.309 155.463,195.309 155.235 C 195.309 154.759,192.754 155.139,192.132 155.707 C 191.255 156.508,190.213 155.980,188.335 153.781 L 186.374 151.486 189.705 150.157 C 191.537 149.426,193.308 148.820,193.640 148.812 C 193.972 148.804,194.723 148.523,195.309 148.188 C 196.748 147.365,196.971 147.387,199.748 148.615 M204.691 147.929 C 204.691 148.462,205.895 148.868,206.167 148.427 C 206.291 148.227,206.089 147.948,205.720 147.806 C 204.826 147.463,204.691 147.479,204.691 147.929 M135.394 149.419 C 137.924 150.475,137.956 150.510,138.249 152.536 C 138.412 153.662,138.658 155.193,138.796 155.938 C 139.297 158.651,136.681 156.881,136.055 154.084 C 135.775 152.834,135.355 151.812,135.122 151.812 C 134.888 151.812,134.797 152.148,134.919 152.559 C 135.041 152.969,135.275 153.868,135.440 154.555 L 135.739 155.806 134.316 154.975 C 132.843 154.114,132.538 153.446,132.011 149.933 C 131.763 148.281,131.816 147.907,132.268 148.103 C 132.580 148.239,133.987 148.831,135.394 149.419 M158.178 148.809 C 160.858 149.042,163.188 149.382,163.357 149.563 C 163.783 150.023,164.546 153.862,164.266 154.142 C 163.873 154.535,158.573 154.330,155.224 153.793 L 152.026 153.281 151.898 150.592 C 151.782 148.168,151.845 147.927,152.537 148.144 C 152.960 148.276,155.498 148.575,158.178 148.809 M175.111 150.719 C 175.776 153.340,175.806 153.298,172.827 153.866 C 166.562 155.060,164.766 154.367,164.648 150.710 L 164.606 149.395 168.124 148.959 C 174.232 148.200,174.487 148.265,175.111 150.719 M127.714 153.925 L 128.314 156.201 126.839 154.772 C 125.502 153.476,124.529 151.340,124.523 149.688 C 124.517 148.244,127.130 151.713,127.714 153.925 M120.981 151.066 C 121.462 151.594,122.099 152.505,122.397 153.092 L 122.939 154.158 121.978 153.305 C 120.700 152.171,119.247 150.107,119.726 150.107 C 119.936 150.107,120.500 150.538,120.981 151.066 M145.313 152.497 C 151.444 154.016,151.140 153.774,151.736 157.607 C 152.351 161.564,152.480 161.395,149.452 160.604 C 146.340 159.792,146.291 159.734,145.930 156.463 C 145.755 154.872,145.451 153.820,145.203 153.945 C 144.718 154.187,144.709 154.673,145.139 157.308 L 145.444 159.178 144.044 158.944 C 140.981 158.433,140.372 157.953,139.657 155.495 C 138.918 152.952,139.162 150.759,140.142 151.135 C 140.467 151.260,142.794 151.873,145.313 152.497 M185.161 152.276 C 186.262 152.796,189.392 156.498,189.114 156.950 C 188.473 157.987,180.267 160.029,179.800 159.268 C 177.037 154.762,176.691 153.537,178.170 153.500 C 178.567 153.491,179.851 153.124,181.023 152.685 C 183.609 151.717,183.915 151.687,185.161 152.276 M213.743 152.591 C 214.560 152.915,211.544 156.279,206.506 160.661 C 203.532 163.249,203.454 163.263,200.230 161.787 L 197.799 160.674 199.219 159.459 C 200.001 158.790,200.862 158.236,201.134 158.226 C 201.407 158.217,202.558 157.480,203.693 156.590 C 209.166 152.295,211.078 151.534,213.743 152.591 M130.314 153.847 C 131.504 154.833,133.563 159.488,132.808 159.488 C 131.697 159.488,129.613 157.550,129.226 156.156 C 128.391 153.151,128.695 152.507,130.314 153.847 M126.090 155.757 C 128.274 157.999,130.468 161.620,129.642 161.620 C 129.401 161.620,128.677 160.829,128.034 159.862 C 127.392 158.895,126.050 157.265,125.053 156.240 C 123.343 154.481,122.820 153.518,123.575 153.518 C 123.759 153.518,124.891 154.526,126.090 155.757 M177.575 156.616 C 179.514 160.272,179.549 160.108,176.652 160.893 C 169.539 162.819,168.612 162.519,166.822 157.710 L 165.923 155.292 167.503 155.067 C 168.372 154.943,170.218 154.718,171.604 154.567 C 172.991 154.416,174.526 154.141,175.016 153.955 C 176.097 153.545,175.762 153.196,177.575 156.616 M155.616 154.602 C 156.418 154.764,158.840 154.892,160.998 154.886 L 164.922 154.875 166.471 158.318 C 167.322 160.212,167.970 161.807,167.911 161.863 C 167.014 162.718,159.893 162.061,159.502 161.087 L 159.116 160.128 159.089 161.129 C 159.064 162.051,154.943 162.234,153.484 161.378 C 152.205 160.628,152.135 153.738,153.409 154.097 C 153.821 154.212,154.814 154.440,155.616 154.602 M243.897 156.586 C 242.573 159.152,240.032 161.920,238.597 162.361 C 236.342 163.053,236.685 162.368,240.610 158.346 C 243.919 154.957,245.052 154.350,243.897 156.586 M252.156 156.105 C 251.733 156.825,251.024 157.736,250.582 158.131 C 250.140 158.526,250.417 157.937,251.197 156.823 C 252.806 154.526,253.307 154.151,252.156 156.105 M136.217 157.083 C 138.418 158.296,141.973 164.179,140.504 164.179 C 139.162 164.179,138.058 162.922,137.437 160.690 C 137.058 159.325,136.587 158.209,136.391 158.209 C 135.876 158.209,135.947 158.750,136.699 160.548 C 137.064 161.423,137.269 162.233,137.155 162.348 C 136.690 162.812,134.278 160.917,134.062 159.919 C 133.935 159.330,133.655 158.292,133.440 157.612 C 132.679 155.208,132.778 155.189,136.217 157.083 M126.209 162.260 C 127.119 163.902,129.121 166.961,130.658 169.059 C 132.195 171.157,133.349 172.977,133.222 173.104 C 132.787 173.538,127.314 165.921,125.583 162.473 C 124.935 161.183,123.843 159.264,123.155 158.209 L 121.905 156.290 123.230 157.783 C 123.958 158.603,125.299 160.618,126.209 162.260 M126.776 159.742 C 127.427 160.819,127.713 161.621,127.412 161.523 C 126.770 161.313,124.717 157.783,125.238 157.783 C 125.433 157.783,126.125 158.664,126.776 159.742 M192.870 159.308 C 195.899 161.202,196.112 160.796,190.769 163.317 C 185.241 165.924,185.766 165.935,183.049 163.156 C 180.604 160.655,180.441 160.346,181.557 160.331 C 181.967 160.326,183.838 159.766,185.714 159.086 C 190.075 157.508,189.988 157.505,192.870 159.308 M144.118 160.124 C 145.571 160.620,146.657 162.918,146.687 165.557 C 146.705 167.200,142.773 165.086,141.737 162.897 C 139.763 158.726,139.821 158.657,144.118 160.124 M132.286 160.902 C 133.089 161.535,134.060 163.737,133.696 164.101 C 133.306 164.491,130.983 161.996,130.532 160.704 C 130.077 159.398,130.429 159.438,132.286 160.902 M150.024 161.678 C 152.570 162.295,152.673 162.400,153.579 165.329 C 154.497 168.295,154.596 168.188,151.489 167.577 C 148.184 166.927,148.225 166.965,147.453 163.859 C 146.698 160.822,146.651 160.862,150.024 161.678 M181.638 163.262 C 182.825 164.400,183.795 165.527,183.795 165.766 C 183.795 166.131,174.545 168.870,173.311 168.870 C 172.917 168.870,170.094 163.241,170.357 162.977 C 170.431 162.903,171.870 162.650,173.555 162.417 C 175.240 162.183,177.034 161.825,177.542 161.620 C 179.091 160.996,179.405 161.122,181.638 163.262 M199.344 162.930 C 200.643 163.416,201.706 163.970,201.706 164.160 C 201.706 164.621,197.067 167.538,193.542 169.293 L 190.710 170.703 188.532 168.867 C 186.024 166.753,185.924 166.477,187.527 166.113 C 188.172 165.967,190.235 164.995,192.111 163.954 C 196.043 161.772,196.192 161.751,199.344 162.930 M236.674 162.259 C 236.674 163.180,233.264 165.982,231.209 166.751 C 229.881 167.248,228.523 167.880,228.191 168.156 C 227.743 168.527,227.772 168.299,228.302 167.273 C 228.742 166.423,229.795 165.486,231.033 164.843 C 232.142 164.267,233.625 163.404,234.328 162.924 C 235.529 162.106,236.674 161.781,236.674 162.259 M157.874 162.745 C 159.229 162.969,159.529 163.229,159.957 164.552 C 160.232 165.402,160.817 166.814,161.257 167.690 L 162.057 169.281 160.026 169.007 C 155.786 168.433,154.953 167.702,154.162 163.859 C 153.845 162.318,154.360 162.164,157.874 162.745 M131.343 165.223 C 131.343 165.480,132.004 166.694,132.811 167.920 C 133.619 169.146,134.121 170.149,133.927 170.149 C 133.334 170.149,130.490 166.778,130.490 166.076 C 130.490 165.713,130.178 164.802,129.796 164.051 L 129.103 162.687 130.223 163.720 C 130.839 164.289,131.343 164.965,131.343 165.223 M136.798 163.568 C 137.323 163.936,138.221 165.135,138.793 166.233 C 139.836 168.237,140.234 168.173,139.456 166.126 C 138.421 163.403,141.015 165.367,142.181 168.189 C 143.119 170.460,142.965 170.471,139.348 168.398 C 136.585 166.814,136.102 166.352,135.523 164.743 C 134.796 162.719,135.137 162.405,136.798 163.568 M170.509 165.833 C 172.245 169.088,172.321 169.005,167.391 169.220 L 163.387 169.395 161.864 166.371 C 161.026 164.708,160.341 163.288,160.341 163.215 C 160.341 163.142,162.308 163.100,164.712 163.121 L 169.083 163.160 170.509 165.833 M238.806 163.503 C 238.806 163.851,234.631 166.738,234.128 166.738 C 233.466 166.738,237.567 163.390,238.273 163.354 C 238.566 163.339,238.806 163.406,238.806 163.503 M246.888 164.843 C 246.131 165.756,245.892 165.282,246.519 164.110 C 246.856 163.481,247.118 163.316,247.233 163.662 C 247.333 163.962,247.178 164.494,246.888 164.843 M136.882 169.095 C 136.885 169.570,137.186 170.386,137.551 170.907 C 138.954 172.911,137.254 171.739,135.678 169.616 C 134.764 168.385,133.606 167.012,133.106 166.565 C 131.330 164.980,132.231 165.005,134.537 166.606 C 136.061 167.664,136.879 168.532,136.882 169.095 M206.924 166.693 C 208.634 167.372,211.709 168.440,213.758 169.065 C 218.034 170.369,218.011 170.333,215.885 172.335 C 211.702 176.272,210.992 176.618,208.049 176.144 C 206.581 175.907,205.307 175.788,205.217 175.878 C 205.016 176.078,206.070 176.380,208.271 176.753 L 209.932 177.034 208.484 177.915 C 206.921 178.867,205.464 178.701,201.785 177.152 C 199.906 176.361,200.850 175.054,202.947 175.542 C 203.988 175.784,204.011 175.756,203.340 175.050 C 202.645 174.319,199.562 175.486,199.578 176.474 C 199.584 176.790,204.813 179.104,205.522 179.104 C 206.673 179.104,205.714 179.986,203.029 181.397 C 199.548 183.226,198.612 183.263,194.670 181.723 C 191.222 180.377,191.051 180.046,193.390 179.249 C 196.125 178.317,196.294 178.242,196.091 178.038 C 195.985 177.932,194.900 178.225,193.680 178.688 C 190.795 179.784,190.004 179.752,187.777 178.447 C 185.558 177.146,185.283 177.357,187.451 178.697 C 189.242 179.804,188.961 180.286,186.337 180.612 C 184.470 180.844,184.384 180.798,181.676 178.176 L 178.916 175.504 180.396 175.150 C 181.210 174.955,183.917 174.209,186.411 173.492 L 190.946 172.188 194.620 174.234 C 198.619 176.461,198.758 176.618,197.335 177.305 C 196.807 177.559,196.594 177.780,196.861 177.796 C 197.128 177.812,197.769 177.484,198.284 177.066 L 199.222 176.307 196.604 174.827 C 195.164 174.013,193.497 172.983,192.900 172.537 L 191.814 171.727 195.587 169.756 C 197.662 168.672,200.128 167.273,201.066 166.647 C 203.216 165.213,203.196 165.212,206.924 166.693 M210.938 166.294 C 212.487 166.882,214.813 167.218,218.827 167.432 C 222.975 167.653,224.173 167.831,223.241 168.086 C 220.158 168.930,208.529 167.006,208.529 165.652 C 208.529 165.377,208.518 165.374,210.938 166.294 M148.123 170.081 C 149.583 172.793,149.451 173.017,146.955 172.063 C 144.772 171.230,143.943 170.434,143.556 168.803 C 143.408 168.180,143.168 167.359,143.022 166.980 C 142.246 164.957,146.883 167.776,148.123 170.081 M227.286 166.631 C 227.266 167.592,226.462 168.210,225.928 167.676 C 225.482 167.231,225.499 167.054,226.016 166.727 C 226.788 166.238,227.294 166.200,227.286 166.631 M187.390 169.086 C 188.865 170.408,189.311 171.037,188.883 171.195 C 185.304 172.513,182.737 173.318,180.615 173.785 L 178.074 174.345 176.450 173.058 C 175.034 171.937,173.987 170.641,173.987 170.009 C 173.987 169.901,174.707 169.712,175.586 169.589 C 176.466 169.466,178.817 168.884,180.810 168.296 C 185.406 166.941,184.933 166.885,187.390 169.086 M243.841 168.383 C 242.735 169.956,237.631 173.922,232.272 177.371 C 226.541 181.061,224.292 181.913,229.295 178.500 C 230.890 177.412,234.787 174.523,237.953 172.082 C 243.725 167.632,244.879 166.907,243.841 168.383 M156.173 171.676 C 157.891 174.774,158.126 174.630,153.151 173.531 C 151.060 173.070,148.827 170.358,148.827 168.280 C 148.827 168.203,150.219 168.464,151.919 168.860 C 154.941 169.563,155.037 169.626,156.173 171.676 M234.968 168.419 C 234.968 170.473,228.394 175.425,225.586 175.486 C 224.531 175.509,222.996 175.682,222.175 175.871 L 220.682 176.214 221.935 174.888 C 223.563 173.163,222.841 173.161,221.062 174.885 C 219.786 176.122,219.452 176.221,216.008 176.376 L 212.321 176.541 215.862 173.149 L 219.403 169.756 223.454 169.733 C 225.957 169.718,228.728 169.399,230.704 168.897 C 234.473 167.940,234.968 167.885,234.968 168.419 M141.315 171.423 C 144.061 173.241,146.092 175.267,145.171 175.267 C 144.256 175.267,139.625 172.327,138.766 171.201 C 136.845 168.683,137.228 168.716,141.315 171.423 M159.724 170.185 C 162.229 170.621,165.906 174.108,164.910 175.104 C 164.201 175.813,159.424 174.668,158.682 173.611 C 157.545 171.994,156.433 169.723,156.777 169.723 C 156.940 169.723,158.266 169.931,159.724 170.185 M142.130 179.146 C 143.489 180.224,146.840 182.239,149.577 183.623 C 152.314 185.008,155.192 186.572,155.973 187.100 C 157.770 188.314,158.138 188.319,157.102 187.117 L 156.290 186.174 157.356 186.823 C 157.942 187.180,159.142 187.908,160.021 188.440 C 160.901 188.973,161.620 189.221,161.620 188.992 C 161.620 188.321,164.130 189.068,167.600 190.771 C 170.790 192.336,169.860 192.593,166.525 191.068 C 164.338 190.068,162.815 189.709,163.166 190.277 C 163.338 190.555,163.071 190.593,162.420 190.384 C 161.863 190.205,161.006 190.013,160.516 189.957 C 159.682 189.862,155.058 187.507,152.665 185.960 C 152.079 185.580,149.695 184.314,147.367 183.147 C 142.992 180.951,136.865 176.023,133.974 172.373 C 131.582 169.353,132.528 169.880,136.141 173.581 C 138.076 175.564,140.771 178.068,142.130 179.146 M173.134 170.574 C 173.134 170.808,173.833 171.773,174.687 172.718 C 176.640 174.880,176.727 174.823,171.201 174.948 L 166.570 175.053 165.595 173.348 C 164.214 170.931,164.316 170.645,166.631 170.463 C 170.913 170.125,173.134 170.163,173.134 170.574 M136.612 172.414 C 136.754 172.273,137.593 172.648,138.477 173.249 C 140.508 174.629,146.109 179.957,145.529 179.957 C 145.053 179.957,137.712 174.157,137.222 173.395 C 137.055 173.134,136.695 172.921,136.422 172.921 C 136.148 172.921,135.640 172.441,135.292 171.855 L 134.659 170.789 135.507 171.730 C 135.973 172.248,136.471 172.556,136.612 172.414 M148.824 174.398 C 150.146 175.212,151.781 177.019,151.799 177.684 C 151.822 178.526,148.380 176.923,146.825 175.368 C 144.224 172.767,145.318 172.237,148.824 174.398 M146.052 176.540 C 146.668 177.536,143.792 176.180,142.830 175.020 C 142.334 174.423,142.547 174.456,144.004 175.199 C 144.983 175.699,145.905 176.302,146.052 176.540 M155.437 175.267 C 158.820 175.993,158.878 176.029,160.288 178.297 L 161.628 180.453 160.239 180.165 C 159.474 180.007,158.177 179.443,157.356 178.913 C 156.535 178.382,154.952 177.433,153.838 176.803 C 151.883 175.697,150.962 174.098,152.559 174.582 C 152.969 174.707,154.264 175.015,155.437 175.267 M231.983 175.251 C 231.983 175.476,230.802 176.463,229.358 177.443 C 227.915 178.424,226.044 179.835,225.201 180.580 C 223.464 182.114,221.143 183.558,219.723 183.989 C 217.916 184.536,218.763 183.569,221.580 181.870 C 224.974 179.823,227.719 177.516,227.719 176.711 C 227.719 176.097,229.945 174.935,231.237 174.875 C 231.647 174.856,231.983 175.025,231.983 175.251 M178.967 176.661 C 179.394 177.194,180.660 178.390,181.779 179.318 C 184.317 181.424,184.020 181.592,177.697 181.633 C 174.390 181.655,172.744 181.483,171.856 181.024 C 169.958 180.042,167.567 176.573,168.763 176.536 C 170.715 176.476,176.374 175.977,176.510 175.854 C 177.019 175.393,178.282 175.807,178.967 176.661 M165.702 176.776 C 166.188 176.872,167.425 177.946,168.451 179.163 L 170.317 181.376 168.634 181.098 C 167.708 180.945,166.152 180.818,165.175 180.815 C 163.586 180.811,163.262 180.623,162.084 179.020 C 159.962 176.135,160.567 175.760,165.702 176.776 M148.511 179.886 L 150.320 181.759 148.827 181.022 C 147.151 180.196,145.134 178.440,144.485 177.244 C 143.785 175.952,146.314 177.612,148.511 179.886 M226.865 177.013 C 226.866 177.419,225.481 178.520,224.079 179.230 C 222.945 179.803,216.205 180.893,216.205 180.503 C 216.205 179.790,219.608 177.188,220.852 176.949 C 222.659 176.602,226.865 176.647,226.865 177.013 M215.738 177.350 L 218.043 177.399 217.235 178.291 C 215.790 179.888,215.084 180.040,211.733 179.477 L 208.577 178.946 209.876 177.988 C 210.654 177.414,211.628 177.085,212.304 177.166 C 212.925 177.240,214.470 177.323,215.738 177.350 M151.148 178.899 C 152.712 179.590,154.110 180.714,155.797 182.635 C 158.124 185.286,158.955 186.651,157.511 185.453 C 157.128 185.135,156.600 184.869,156.339 184.862 C 155.596 184.842,152.456 183.079,151.838 182.334 C 150.972 181.290,151.644 181.530,154.285 183.207 C 156.498 184.613,156.621 184.647,155.650 183.591 C 155.064 182.953,153.529 181.889,152.239 181.227 C 146.932 178.504,146.064 176.650,151.148 178.899 M156.930 179.430 C 157.047 179.552,156.567 179.516,155.864 179.351 C 155.160 179.186,154.200 178.660,153.731 178.181 C 152.917 177.352,152.966 177.356,154.797 178.261 C 155.853 178.782,156.812 179.309,156.930 179.430 M233.028 179.485 C 232.805 179.694,230.320 181.048,227.505 182.494 C 224.691 183.940,221.908 185.569,221.322 186.113 C 220.002 187.338,218.632 188.060,217.626 188.060 C 217.105 188.060,217.369 187.713,218.451 186.978 C 220.688 185.458,220.429 185.291,217.857 186.594 C 216.655 187.203,214.784 187.868,213.700 188.072 C 212.615 188.276,210.912 188.619,209.915 188.834 C 208.918 189.049,208.102 189.088,208.102 188.920 C 208.102 188.419,211.143 187.230,213.565 186.784 C 214.811 186.554,216.245 186.076,216.752 185.720 C 217.259 185.365,218.180 185.075,218.798 185.075 C 219.417 185.075,222.684 183.745,226.060 182.119 C 231.706 179.399,234.070 178.506,233.028 179.485 M212.982 180.805 C 214.750 181.441,208.649 184.223,205.503 184.215 C 201.595 184.206,201.213 183.774,203.702 182.178 C 207.119 179.987,209.662 179.611,212.982 180.805 M159.212 180.998 C 161.900 181.512,169.392 186.780,167.436 186.780 C 165.171 186.780,162.472 185.692,160.807 184.108 L 158.911 182.303 160.476 184.189 C 162.904 187.114,160.688 186.702,157.983 183.725 C 154.539 179.936,154.470 180.091,159.212 180.998 M191.808 181.178 C 192.678 181.615,194.686 182.398,196.269 182.918 C 199.688 184.043,199.633 183.901,197.204 185.324 L 195.262 186.463 193.793 185.672 C 192.985 185.237,192.324 184.732,192.324 184.551 C 192.324 184.370,192.031 184.222,191.672 184.222 C 191.314 184.222,189.827 183.611,188.367 182.865 L 185.714 181.508 187.420 180.979 C 189.745 180.257,189.997 180.269,191.808 181.178 M198.818 181.317 C 198.911 181.595,199.215 181.899,199.494 181.992 C 199.806 182.096,199.901 181.901,199.741 181.486 C 199.444 180.710,198.563 180.549,198.818 181.317 M218.912 182.683 C 217.540 183.712,215.606 184.977,214.614 185.493 C 212.436 186.626,211.110 186.401,213.110 185.239 C 215.047 184.113,214.842 183.795,212.367 184.088 C 211.194 184.227,210.235 184.226,210.235 184.086 C 210.235 183.376,214.110 181.658,215.816 181.613 C 216.851 181.585,218.273 181.416,218.977 181.237 C 221.406 180.619,221.397 180.817,218.912 182.683 M173.376 183.739 C 174.329 184.591,175.480 185.516,175.934 185.796 C 177.023 186.466,173.432 186.550,170.166 185.931 C 167.782 185.479,164.606 183.360,164.606 182.223 C 164.606 180.777,171.369 181.947,173.376 183.739 M186.986 183.133 C 188.329 183.942,190.463 185.033,191.729 185.557 C 194.725 186.799,194.686 186.872,190.299 188.211 C 185.824 189.577,180.431 188.958,180.391 187.075 C 180.387 186.885,180.573 186.847,180.804 186.990 C 181.371 187.340,188.017 186.407,189.107 185.824 C 190.526 185.064,189.232 185.002,186.547 185.702 C 181.944 186.901,179.430 186.620,176.293 184.558 C 172.983 182.382,172.938 182.187,175.800 182.395 C 177.031 182.485,179.190 182.380,180.597 182.163 C 184.442 181.568,184.369 181.557,186.986 183.133 M193.390 183.795 C 192.675 184.102,192.762 184.167,193.923 184.192 C 194.686 184.208,195.309 184.030,195.309 183.795 C 195.309 183.289,194.568 183.289,193.390 183.795 M203.866 185.075 C 206.146 185.075,205.974 185.638,203.348 186.767 C 201.154 187.711,198.539 187.733,197.074 186.820 C 196.066 186.192,199.879 184.197,201.158 184.683 C 201.724 184.898,202.943 185.075,203.866 185.075 M210.761 185.714 C 210.506 186.675,206.367 188.536,204.779 188.404 L 203.198 188.273 205.544 186.694 C 207.813 185.165,211.069 184.554,210.761 185.714 M166.615 187.424 C 167.603 187.577,169.159 188.244,170.072 188.906 C 170.986 189.568,172.480 190.503,173.393 190.985 L 175.053 191.860 173.648 191.879 C 172.222 191.898,163.350 187.762,163.334 187.071 C 163.330 186.880,163.662 186.818,164.072 186.934 C 164.483 187.050,165.627 187.270,166.615 187.424 M179.104 187.777 C 182.800 189.993,182.714 190.302,178.455 190.111 C 174.938 189.953,169.723 188.069,169.723 186.956 C 169.723 186.261,177.746 186.963,179.104 187.777 M199.106 188.313 C 199.731 188.903,194.700 190.334,191.320 190.526 C 186.788 190.785,186.668 190.274,190.942 188.930 C 192.523 188.432,194.281 187.769,194.849 187.455 C 195.793 186.934,198.152 187.410,199.106 188.313 M158.209 188.507 C 159.779 189.573,160.569 189.826,159.548 188.937 C 158.994 188.454,158.322 188.063,158.055 188.066 C 157.788 188.070,157.857 188.268,158.209 188.507 M173.348 188.522 C 174.051 188.736,175.970 189.001,177.612 189.110 L 180.597 189.308 177.186 188.716 C 173.232 188.030,171.430 187.939,173.348 188.522 M216.230 188.669 C 215.677 189.335,210.643 191.169,210.303 190.829 C 210.003 190.529,212.640 189.386,216.577 188.111 C 216.664 188.083,216.508 188.334,216.230 188.669 M204.264 189.272 C 204.264 189.469,203.065 189.971,201.599 190.386 C 200.133 190.802,198.084 191.408,197.046 191.733 C 194.887 192.409,193.230 192.480,192.369 191.934 C 191.953 191.671,192.513 191.404,194.220 191.050 C 195.566 190.770,197.465 190.179,198.440 189.736 C 200.225 188.926,204.264 188.604,204.264 189.272 M208.316 190.416 C 206.742 191.130,202.715 192.021,202.053 191.800 C 201.168 191.505,206.152 189.821,207.889 189.828 L 209.595 189.835 208.316 190.416 M186.640 191.639 C 186.845 191.858,185.308 191.902,182.984 191.744 C 180.778 191.594,178.416 191.471,177.734 191.471 C 177.053 191.471,176.584 191.327,176.692 191.151 C 176.961 190.714,186.198 191.167,186.640 191.639 M208.316 192.324 C 207.041 192.872,205.975 192.872,206.823 192.324 C 207.175 192.097,207.846 191.921,208.316 191.934 L 209.168 191.958 208.316 192.324 M187.455 192.714 C 190.054 192.901,192.549 193.286,192.999 193.568 C 194.146 194.288,183.661 193.774,181.158 192.987 L 179.318 192.408 181.023 192.391 C 181.962 192.381,184.856 192.527,187.455 192.714 M178.678 193.677 C 179.101 193.944,178.530 193.992,176.995 193.817 C 175.717 193.671,174.374 193.364,174.010 193.133 C 173.558 192.848,174.092 192.804,175.693 192.994 C 176.983 193.147,178.326 193.454,178.678 193.677 M202.240 193.240 C 201.740 193.740,194.888 194.360,195.352 193.863 C 195.608 193.588,199.717 192.900,201.684 192.803 C 202.470 192.763,202.608 192.872,202.240 193.240 M182.090 194.883 C 182.929 195.425,181.433 195.425,180.171 194.883 C 179.389 194.547,179.407 194.514,180.384 194.493 C 180.970 194.480,181.738 194.655,182.090 194.883 " stroke="none" fill="#000000" fill-rule="evenodd"></path></g></svg>