<svg id="svg" version="1.1" xmlns="http://www.w3.org/2000/svg" xmlns:xlink="http://www.w3.org/1999/xlink" width="400" height="218.3368869936034" viewBox="0, 0, 400,218.3368869936034"><g id="svgg"><path id="path0" d="M299.397 17.164 C 298.979 18.271,299.533 19.616,300.407 19.616 C 301.617 19.616,302.345 19.070,302.345 18.163 C 302.345 16.216,300.049 15.438,299.397 17.164 M301.706 17.910 C 301.706 18.262,301.274 18.611,300.746 18.686 C 300.008 18.791,299.787 18.613,299.787 17.910 C 299.787 17.208,300.008 17.030,300.746 17.135 C 301.274 17.209,301.706 17.559,301.706 17.910 M287.610 18.800 C 287.238 19.403,288.060 20.225,288.662 19.852 C 288.917 19.695,289.126 19.289,289.126 18.951 C 289.126 18.233,288.028 18.124,287.610 18.800 M238.034 19.620 C 233.781 20.515,230.187 23.772,230.037 26.867 C 229.895 29.789,228.964 30.710,226.452 30.412 C 223.762 30.094,220.601 30.939,219.954 32.150 C 219.690 32.644,218.979 33.538,218.373 34.137 C 217.767 34.735,216.928 35.657,216.508 36.186 C 216.003 36.823,215.464 37.068,214.909 36.911 C 214.449 36.780,213.666 36.558,213.169 36.416 C 212.526 36.232,212.321 36.324,212.456 36.736 C 213.209 39.019,220.469 35.821,220.469 33.206 C 220.469 32.382,224.086 31.149,226.529 31.139 C 229.523 31.128,231.342 29.664,230.944 27.585 C 230.134 23.359,236.286 19.687,243.408 20.144 C 245.621 20.286,246.358 20.220,245.836 19.928 C 244.783 19.339,240.225 19.159,238.034 19.620 M286.567 21.659 C 286.567 21.844,286.039 21.988,285.394 21.978 C 284.496 21.966,284.190 22.186,284.085 22.923 C 283.884 24.337,285.120 24.613,286.376 23.434 C 287.439 22.435,287.765 21.322,286.994 21.322 C 286.759 21.322,286.567 21.473,286.567 21.659 M217.073 23.000 C 216.462 24.140,216.510 24.307,217.448 24.307 C 218.318 24.307,218.765 23.587,218.442 22.708 C 218.156 21.932,217.578 22.055,217.073 23.000 M268.763 25.869 C 267.928 26.206,268.139 26.866,269.083 26.866 C 269.557 26.866,269.936 26.581,269.936 26.226 C 269.936 25.569,269.691 25.494,268.763 25.869 M304.264 28.145 C 303.912 28.715,304.385 29.424,305.117 29.424 C 305.987 29.424,306.384 28.534,305.705 28.104 C 304.934 27.616,304.585 27.626,304.264 28.145 M210.945 28.856 C 210.789 29.012,210.661 29.396,210.661 29.709 C 210.661 30.463,211.787 30.440,212.079 29.679 C 212.423 28.781,211.610 28.191,210.945 28.856 M280.375 29.394 C 278.609 29.818,276.847 31.034,276.524 32.053 C 276.065 33.496,276.753 33.515,277.869 32.089 C 278.714 31.009,279.456 30.620,281.466 30.205 C 283.013 29.886,283.793 29.551,283.471 29.346 C 282.856 28.956,282.157 28.967,280.375 29.394 M246.482 30.250 C 243.698 31.099,240.517 33.253,239.708 34.836 C 238.849 36.514,239.952 36.277,241.105 34.535 C 242.140 32.972,242.656 32.621,243.653 32.802 C 243.856 32.839,244.478 32.570,245.036 32.205 C 248.242 30.104,251.173 31.132,251.173 34.359 C 251.173 35.398,251.341 36.247,251.546 36.247 C 251.751 36.247,251.919 35.753,251.919 35.149 C 251.919 33.107,252.648 33.027,255.304 34.780 C 257.894 36.489,258.911 37.507,258.572 38.055 C 258.462 38.233,258.671 38.380,259.037 38.380 C 259.725 38.380,259.923 37.234,259.375 36.424 C 259.203 36.169,257.952 35.256,256.595 34.394 C 255.238 33.532,254.019 32.545,253.887 32.200 C 253.192 30.389,249.345 29.375,246.482 30.250 M230.671 33.419 C 231.826 34.672,232.053 34.795,231.748 33.999 C 231.634 33.701,231.112 33.196,230.589 32.877 C 229.682 32.324,229.685 32.349,230.671 33.419 M274.911 33.547 C 274.465 33.993,274.579 35.821,275.053 35.821 C 275.288 35.821,275.480 35.618,275.480 35.369 C 275.480 35.121,275.704 35.056,275.979 35.226 C 276.319 35.436,276.387 35.297,276.192 34.790 C 276.035 34.380,275.906 33.869,275.906 33.654 C 275.906 33.198,275.323 33.135,274.911 33.547 M198.119 35.001 C 196.880 36.473,196.383 37.976,196.716 39.247 C 196.927 40.054,196.793 40.086,194.298 39.831 C 192.158 39.611,191.549 39.691,191.086 40.249 C 190.721 40.689,189.848 40.938,188.672 40.938 C 187.659 40.938,186.712 41.130,186.567 41.365 C 186.403 41.629,187.207 41.791,188.688 41.791 C 190.356 41.791,191.141 41.609,191.304 41.184 C 191.696 40.165,192.721 40.053,195.165 40.763 C 197.763 41.519,198.153 41.415,197.476 40.150 C 196.179 37.727,200.084 32.689,201.493 34.968 C 202.008 35.802,202.597 35.410,202.132 34.542 C 201.415 33.202,199.443 33.428,198.119 35.001 M241.444 35.659 C 240.667 36.411,239.887 37.570,239.710 38.235 C 239.431 39.288,239.157 39.463,237.614 39.576 C 235.818 39.709,235.477 39.941,231.443 43.788 C 230.560 44.630,229.731 45.820,229.602 46.433 C 229.401 47.379,229.005 48.409,228.230 50.000 C 228.144 50.176,228.373 50.320,228.738 50.320 C 229.432 50.320,230.704 48.274,230.704 47.158 C 230.704 46.132,232.296 45.550,234.683 45.702 C 235.895 45.779,236.983 45.650,237.100 45.416 C 237.229 45.159,236.041 44.905,234.115 44.776 L 230.917 44.563 232.873 43.390 C 233.949 42.745,235.101 42.211,235.432 42.204 C 235.763 42.196,236.401 41.913,236.849 41.573 C 237.298 41.234,238.087 41.063,238.603 41.192 C 239.455 41.406,241.587 38.651,242.594 36.034 C 243.034 34.891,243.589 34.598,244.592 34.979 C 245.599 35.362,246.910 35.148,246.907 34.603 C 246.902 33.583,242.764 34.384,241.444 35.659 M264.606 35.617 C 263.433 36.194,262.263 36.668,262.006 36.670 C 259.793 36.688,259.927 40.168,262.197 41.619 L 263.326 42.340 262.420 41.319 C 260.173 38.788,260.534 37.527,263.505 37.527 C 263.925 37.527,264.785 37.047,265.418 36.461 C 266.852 35.132,267.281 35.131,269.076 36.455 C 271.392 38.164,275.053 38.408,275.053 36.855 C 275.053 36.364,274.895 36.339,274.265 36.733 C 273.238 37.374,271.597 36.940,270.014 35.608 C 268.437 34.281,267.318 34.283,264.606 35.617 M206.562 35.261 C 205.523 35.465,202.974 37.953,203.803 37.953 C 204.106 37.953,204.925 37.473,205.621 36.887 C 206.636 36.034,207.355 35.821,209.226 35.821 C 210.676 35.821,211.464 35.659,211.301 35.394 C 211.044 34.979,208.376 34.905,206.562 35.261 M236.588 36.667 C 237.516 37.440,239.057 37.425,238.577 36.648 C 238.453 36.448,238.090 36.385,237.769 36.508 C 237.449 36.631,237.060 36.527,236.905 36.276 C 236.750 36.026,236.395 35.827,236.116 35.835 C 235.836 35.843,236.049 36.217,236.588 36.667 M280.429 36.375 C 279.583 36.994,279.608 39.265,280.463 39.546 C 280.851 39.673,280.855 39.408,280.479 38.413 C 280.053 37.283,280.098 37.032,280.826 36.481 C 281.286 36.133,281.556 35.842,281.425 35.834 C 281.294 35.827,280.845 36.070,280.429 36.375 M267.302 39.075 C 266.284 40.093,266.051 40.152,264.791 39.713 C 262.856 39.038,262.643 39.506,264.526 40.293 C 266.617 41.167,266.689 41.149,267.988 39.446 C 269.326 37.691,268.910 37.467,267.302 39.075 M225.800 38.806 C 225.650 39.048,226.008 39.232,226.627 39.232 C 227.227 39.232,227.719 39.041,227.719 38.806 C 227.719 38.571,227.346 38.380,226.891 38.380 C 226.436 38.380,225.945 38.571,225.800 38.806 M253.409 38.913 C 253.505 39.206,254.241 39.506,255.044 39.581 C 256.433 39.709,256.462 39.684,255.650 39.061 C 254.616 38.267,253.165 38.171,253.409 38.913 M294.670 39.395 C 294.670 39.747,294.861 40.154,295.096 40.299 C 295.330 40.443,295.522 40.274,295.522 39.922 C 295.522 39.571,295.330 39.164,295.096 39.019 C 294.861 38.874,294.670 39.043,294.670 39.395 M142.004 42.967 L 120.043 43.076 120.184 46.165 C 120.320 49.146,120.371 49.276,121.654 49.893 C 122.473 50.287,123.137 51.025,123.383 51.812 C 123.944 53.610,124.471 54.158,125.639 54.158 C 126.509 54.158,126.652 54.365,126.652 55.618 C 126.652 56.559,127.037 57.535,127.736 58.365 C 128.332 59.074,129.119 60.530,129.484 61.602 C 129.849 62.673,130.527 63.815,130.991 64.140 C 131.809 64.714,131.836 65.318,131.883 84.636 C 131.938 107.205,132.260 105.432,128.145 105.238 L 125.586 105.117 125.586 107.463 L 125.586 109.808 127.186 109.940 C 128.553 110.054,128.785 110.221,128.785 111.098 C 128.785 111.687,129.148 112.318,129.638 112.580 C 130.107 112.831,130.490 113.254,130.490 113.521 C 130.490 113.787,130.773 114.317,131.117 114.698 C 131.655 115.292,131.743 119.153,131.733 141.811 C 131.727 156.341,131.723 168.597,131.725 169.045 C 131.726 169.493,131.971 170.010,132.269 170.195 C 132.986 170.637,131.630 171.203,130.831 170.795 C 130.526 170.640,130.577 170.767,130.943 171.077 C 133.496 173.241,132.592 186.706,129.733 189.111 C 128.324 190.297,127.505 193.046,127.505 196.595 L 127.505 199.147 135.288 199.153 C 139.568 199.156,147.126 199.280,152.083 199.430 C 160.763 199.692,161.106 199.671,161.359 198.872 C 161.518 198.371,163.520 197.023,166.419 195.467 L 171.215 192.891 171.100 188.450 C 171.008 184.932,170.842 183.920,170.303 183.582 C 167.832 182.035,167.975 182.712,167.685 171.207 C 167.537 165.348,167.407 159.211,167.397 157.569 L 167.377 154.584 168.965 154.723 C 169.896 154.804,170.931 154.597,171.466 154.222 C 171.968 153.870,172.677 153.697,173.040 153.836 C 173.464 153.999,173.594 153.917,173.402 153.606 C 172.722 152.506,170.049 152.214,168.581 153.080 L 167.189 153.901 167.311 152.413 C 167.378 151.595,167.311 149.973,167.162 148.810 C 167.013 147.647,167.048 146.695,167.241 146.695 C 167.433 146.695,167.591 146.961,167.591 147.286 C 167.591 147.611,168.079 148.196,168.676 148.587 C 169.273 148.978,169.950 149.795,170.180 150.401 C 170.678 151.711,171.061 151.437,171.648 149.352 C 172.013 148.056,171.926 147.491,171.095 145.755 C 170.053 143.579,170.130 142.857,171.402 142.857 C 172.614 142.857,173.132 143.819,172.851 145.549 C 172.654 146.764,172.739 147.122,173.223 147.122 C 174.123 147.122,174.160 144.181,173.272 143.200 C 172.539 142.390,170.149 142.128,170.149 142.857 C 170.149 143.511,169.011 143.364,168.261 142.613 C 167.211 141.564,167.389 134.743,168.449 135.398 C 168.637 135.514,169.241 135.429,169.790 135.209 C 170.655 134.862,170.548 134.805,168.989 134.782 L 167.189 134.755 167.411 128.465 C 167.827 116.653,167.766 117.135,169.015 115.885 C 169.639 115.261,170.149 114.454,170.149 114.092 C 170.149 113.729,170.341 113.433,170.576 113.433 C 172.790 113.433,173.536 108.886,171.392 108.457 C 166.487 107.477,172.709 91.102,179.684 86.635 C 183.995 83.874,191.881 81.249,191.904 82.567 C 191.928 83.950,192.714 84.115,194.024 83.012 C 196.491 80.937,197.489 81.474,198.928 85.653 C 199.621 87.666,199.495 88.265,198.376 88.286 C 197.707 88.299,197.709 88.341,198.394 88.862 C 198.801 89.171,199.009 89.548,198.856 89.701 C 198.703 89.854,198.887 89.979,199.264 89.979 C 200.352 89.979,200.386 89.552,199.597 85.821 L 198.854 82.303 200.465 82.303 C 202.679 82.303,204.048 82.895,206.413 84.875 C 207.524 85.806,208.568 86.567,208.733 86.567 C 209.086 86.567,210.626 84.782,210.647 84.350 C 210.655 84.186,211.213 83.226,211.887 82.218 C 212.561 81.209,213.243 79.960,213.402 79.443 C 214.046 77.353,217.484 75.451,217.484 77.186 C 217.484 77.655,217.724 78.043,218.017 78.048 C 218.310 78.053,219.030 78.439,219.616 78.904 L 220.682 79.752 218.883 81.347 C 216.724 83.262,214.499 86.042,214.499 86.824 C 214.499 87.874,216.081 88.358,217.374 87.703 C 219.673 86.539,222.435 86.548,223.538 87.723 L 224.520 88.769 223.310 88.465 C 222.644 88.298,221.396 88.366,220.538 88.617 C 219.679 88.867,218.173 89.228,217.190 89.419 C 215.582 89.731,215.460 89.840,215.959 90.513 C 216.484 91.220,216.675 91.207,219.540 90.273 C 221.385 89.672,222.813 89.424,223.196 89.638 C 223.619 89.875,224.195 89.647,224.954 88.943 L 226.083 87.897 224.711 86.671 C 223.524 85.611,223.405 85.324,223.823 84.542 C 224.089 84.045,224.307 83.172,224.307 82.602 C 224.307 82.031,224.739 81.011,225.266 80.335 L 226.225 79.104 225.053 79.861 C 223.650 80.766,223.654 80.790,224.759 78.294 C 225.329 77.005,225.527 75.978,225.323 75.362 C 225.021 74.449,225.000 74.445,224.753 75.267 C 223.980 77.833,222.175 80.291,222.175 78.777 C 222.175 78.479,221.405 77.304,220.464 76.166 C 218.716 74.051,218.039 72.470,218.535 71.666 C 218.852 71.153,219.651 71.050,219.549 71.535 C 219.511 71.711,219.589 72.143,219.721 72.495 C 219.853 72.846,220.069 73.470,220.202 73.881 C 220.334 74.291,220.640 74.627,220.882 74.627 C 221.566 74.627,221.399 72.663,220.663 72.052 C 220.300 71.751,220.109 71.230,220.238 70.894 C 220.382 70.520,220.142 70.197,219.618 70.060 C 218.057 69.652,218.888 68.512,221.111 68.012 C 223.561 67.461,223.927 67.302,223.777 66.853 C 223.013 64.562,216.542 67.504,215.985 70.395 C 215.876 70.962,215.547 71.506,215.254 71.603 C 214.960 71.701,214.176 72.326,213.511 72.991 C 212.020 74.482,212.599 74.577,208.202 72.121 C 206.153 70.977,203.490 69.721,202.283 69.330 C 200.305 68.688,200.060 68.469,199.808 67.125 C 199.620 66.125,199.212 65.513,198.570 65.269 C 197.039 64.687,196.971 61.407,198.490 61.407 C 199.486 61.407,199.574 61.558,199.574 63.285 C 199.574 65.704,201.569 66.776,203.207 65.237 C 203.715 64.760,204.719 64.294,205.438 64.203 C 207.197 63.981,208.389 63.296,209.217 62.032 C 209.947 60.919,210.906 60.649,211.182 61.478 C 211.304 61.845,211.688 61.856,212.644 61.523 C 213.461 61.238,214.636 61.205,215.819 61.434 C 216.852 61.633,217.841 61.805,218.017 61.815 C 218.668 61.853,218.312 62.687,217.645 62.687 C 217.093 62.687,217.055 62.810,217.460 63.298 C 217.859 63.778,217.812 64.146,217.242 65.017 C 216.157 66.672,216.804 66.796,218.635 65.283 C 219.887 64.248,220.287 64.091,220.394 64.594 C 220.625 65.686,222.826 65.403,223.628 64.179 C 224.012 63.593,224.700 63.113,225.156 63.113 C 225.691 63.113,225.905 62.901,225.758 62.518 C 225.632 62.190,225.947 61.630,226.457 61.272 C 226.967 60.915,227.256 60.414,227.098 60.159 C 226.659 59.449,228.071 59.104,229.238 59.636 C 230.628 60.269,230.548 61.235,228.998 62.539 C 227.527 63.777,227.502 63.936,228.343 66.767 C 228.755 68.152,229.651 69.593,230.969 70.989 L 232.971 73.107 231.304 73.855 C 230.388 74.267,229.446 74.678,229.211 74.770 C 228.977 74.862,228.916 75.078,229.076 75.251 C 229.534 75.745,232.508 74.597,233.337 73.605 L 234.087 72.708 234.101 73.828 C 234.109 74.445,233.827 75.188,233.475 75.480 C 233.054 75.830,232.836 75.852,232.836 75.545 C 232.836 74.757,231.699 75.467,231.197 76.569 C 230.637 77.798,231.259 77.971,232.597 76.959 C 234.391 75.602,234.685 76.363,233.029 78.074 C 230.497 80.689,227.569 82.044,228.596 80.125 C 228.912 79.534,228.933 79.082,228.656 78.805 C 228.089 78.238,226.623 78.594,226.768 79.264 C 226.832 79.558,226.496 80.293,226.022 80.895 C 224.269 83.124,224.945 84.624,226.943 82.942 C 228.441 81.682,228.933 81.615,229.288 82.623 C 229.432 83.033,230.031 84.018,230.618 84.811 L 231.686 86.253 230.707 86.991 C 230.034 87.498,229.844 87.915,230.099 88.321 C 230.302 88.646,230.412 89.260,230.342 89.684 C 230.272 90.109,230.440 90.727,230.714 91.057 C 231.119 91.546,230.905 91.801,229.572 92.418 C 228.057 93.119,226.487 94.500,226.453 95.162 C 226.446 95.315,227.591 95.414,228.998 95.382 C 231.237 95.330,232.662 94.762,230.917 94.616 C 229.719 94.516,229.496 94.456,229.194 94.155 C 229.028 93.989,229.974 93.374,231.296 92.790 C 233.983 91.601,234.500 90.846,233.587 89.442 C 233.245 88.916,232.949 87.874,232.930 87.127 C 232.910 86.379,232.689 85.384,232.439 84.916 C 231.687 83.512,231.919 81.664,233.040 80.127 C 234.052 78.740,234.615 77.723,235.141 76.333 C 235.274 75.981,235.697 75.260,236.082 74.730 C 236.761 73.797,236.741 73.753,235.432 73.297 C 234.689 73.038,233.644 72.183,233.111 71.397 C 232.577 70.612,231.625 69.564,230.995 69.069 C 229.040 67.530,229.668 61.834,231.794 61.834 C 233.422 61.834,231.574 59.316,229.318 58.461 C 227.944 57.941,226.013 58.505,226.013 59.428 C 226.013 59.758,225.677 60.144,225.267 60.284 C 224.856 60.425,224.133 60.713,223.659 60.924 C 222.151 61.595,219.275 58.841,220.161 57.575 C 220.530 57.049,220.741 56.383,220.631 56.096 C 220.360 55.391,221.583 54.430,222.369 54.731 C 222.925 54.944,222.923 55.157,222.355 56.516 C 221.759 57.944,221.764 58.029,222.425 57.660 C 222.818 57.440,223.598 55.853,224.158 54.134 C 225.262 50.747,226.177 49.393,227.119 49.755 C 227.517 49.907,227.719 49.683,227.719 49.086 C 227.719 47.680,225.823 47.902,224.685 49.441 C 224.175 50.131,222.842 51.264,221.723 51.960 C 218.611 53.895,217.035 57.965,218.600 60.027 C 219.415 61.100,219.315 61.649,218.443 60.888 C 216.975 59.607,215.934 59.290,214.526 59.694 C 213.620 59.953,212.811 59.923,212.110 59.604 C 211.257 59.215,210.924 59.256,210.363 59.817 C 209.723 60.456,209.597 60.353,208.726 58.473 C 208.207 57.353,207.279 56.040,206.663 55.555 C 205.292 54.477,205.256 54.158,206.504 54.158 C 207.155 54.158,207.946 54.810,208.961 56.183 C 210.740 58.589,211.934 58.933,212.977 57.340 C 213.383 56.722,213.589 56.090,213.435 55.937 C 213.281 55.783,212.969 55.992,212.740 56.400 C 212.150 57.454,211.290 57.321,210.265 56.019 C 208.798 54.153,210.106 52.990,212.159 54.336 C 213.423 55.164,213.646 55.176,213.646 54.417 C 213.646 53.721,212.735 53.305,211.214 53.305 C 210.336 53.305,210.224 53.192,210.623 52.711 C 211.638 51.488,212.806 51.613,214.477 53.123 C 217.228 55.608,218.090 54.912,215.451 52.336 C 214.030 50.948,213.667 50.797,212.295 51.019 C 210.295 51.344,208.936 49.718,209.738 47.959 C 210.321 46.678,209.876 45.365,208.390 43.983 L 207.308 42.977 185.637 42.917 C 173.718 42.884,154.083 42.906,142.004 42.967 M205.100 44.969 C 206.315 46.432,201.883 49.221,199.650 48.399 C 199.341 48.285,181.822 48.163,160.720 48.128 C 118.532 48.059,121.535 48.248,121.535 45.660 C 121.535 44.784,121.597 44.782,148.934 44.669 C 164.003 44.607,182.690 44.510,190.460 44.453 C 202.378 44.366,204.667 44.446,205.100 44.969 M209.372 47.203 C 209.377 47.482,209.221 47.810,209.025 47.931 C 208.587 48.202,207.197 45.397,207.581 45.014 C 207.905 44.689,209.358 46.464,209.372 47.203 M247.335 45.429 C 247.335 45.774,247.623 46.055,247.974 46.055 C 248.326 46.055,248.614 45.884,248.614 45.675 C 248.614 45.465,248.326 45.183,247.974 45.048 C 247.585 44.899,247.335 45.048,247.335 45.429 M212.580 45.503 C 210.790 45.941,211.220 46.263,213.412 46.125 C 214.668 46.046,216.115 46.205,216.626 46.479 C 217.138 46.753,217.663 46.871,217.793 46.742 C 218.349 46.186,214.004 45.153,212.580 45.503 M251.473 46.229 C 251.894 46.794,252.305 47.075,252.386 46.855 C 252.563 46.371,251.654 45.203,251.101 45.203 C 250.884 45.203,251.051 45.665,251.473 46.229 M269.429 49.467 C 268.275 50.640,266.971 51.599,266.532 51.599 C 265.496 51.599,263.966 53.556,263.966 54.880 C 263.966 55.449,263.787 55.803,263.569 55.669 C 263.351 55.534,263.051 55.618,262.904 55.857 C 262.757 56.095,262.983 56.291,263.408 56.292 C 266.053 56.299,267.222 59.382,265.025 60.558 C 264.370 60.909,263.966 61.498,263.966 62.102 C 263.966 63.101,264.122 63.292,266.264 64.901 L 267.496 65.827 267.231 69.854 C 267.050 72.613,266.729 74.250,266.213 75.053 C 263.065 79.943,261.680 81.311,258.946 82.225 C 257.796 82.609,257.209 82.545,255.606 81.857 C 252.710 80.616,250.100 80.797,251.232 82.161 C 251.504 82.489,251.604 83.387,251.464 84.252 C 251.258 85.521,251.336 85.746,251.941 85.631 C 252.438 85.537,252.707 84.993,252.798 83.898 C 252.945 82.124,253.594 81.889,255.437 82.942 C 257.965 84.387,262.824 82.725,264.385 79.882 C 266.331 76.337,267.821 74.628,269.005 74.584 L 270.149 74.542 269.083 74.247 C 267.762 73.882,267.448 72.315,268.469 71.187 C 269.464 70.088,269.054 66.363,267.790 65.017 L 266.898 64.068 268.345 63.174 C 270.046 62.123,274.745 60.838,275.807 61.134 C 276.213 61.247,277.024 61.478,277.609 61.648 C 278.581 61.931,278.619 61.894,278.055 61.214 C 276.995 59.937,271.645 60.433,268.233 62.124 C 266.728 62.871,265.344 63.387,265.157 63.272 C 264.448 62.834,264.883 62.012,266.317 61.083 C 267.349 60.415,267.804 59.800,267.804 59.075 C 267.804 58.034,267.657 57.844,265.719 56.366 C 264.471 55.414,265.194 53.191,266.828 52.958 C 267.342 52.885,268.344 52.117,269.055 51.252 C 271.839 47.867,271.445 48.064,274.999 48.283 C 277.946 48.464,278.131 48.431,276.972 47.928 C 274.038 46.655,271.734 47.126,269.429 49.467 M220.469 48.142 C 220.469 48.574,221.768 49.163,222.065 48.866 C 222.173 48.759,222.134 48.466,221.979 48.216 C 221.639 47.666,220.469 47.608,220.469 48.142 M310.533 48.273 C 309.920 48.886,309.848 50.746,310.438 50.746 C 311.061 50.746,312.269 48.719,311.952 48.206 C 311.592 47.624,311.162 47.644,310.533 48.273 M208.529 49.454 C 208.529 50.031,208.326 50.215,207.878 50.043 C 207.377 49.851,207.340 49.659,207.717 49.204 C 208.374 48.412,208.529 48.459,208.529 49.454 M216.869 49.267 C 216.414 49.612,216.234 49.893,216.468 49.893 C 216.703 49.893,217.267 49.612,217.722 49.267 C 218.178 48.923,218.358 48.641,218.124 48.641 C 217.889 48.641,217.325 48.923,216.869 49.267 M236.113 48.934 C 236.011 49.110,236.082 49.638,236.271 50.107 C 236.570 50.851,236.618 50.811,236.644 49.787 C 236.673 48.630,236.474 48.310,236.113 48.934 M244.540 49.504 C 244.382 49.759,244.475 50.189,244.746 50.460 C 245.281 50.995,246.199 50.044,245.789 49.381 C 245.491 48.899,244.877 48.959,244.540 49.504 M203.627 50.979 C 204.921 51.591,205.888 52.240,205.776 52.422 C 205.556 52.777,126.009 52.807,125.662 52.452 C 125.548 52.335,125.388 51.855,125.307 51.386 C 125.131 50.367,123.345 50.437,160.554 49.986 C 197.728 49.534,200.719 49.603,203.627 50.979 M209.547 51.133 C 210.361 51.808,210.067 52.452,208.945 52.452 C 208.147 52.452,207.061 51.077,207.507 50.631 C 207.858 50.280,208.798 50.511,209.547 51.133 M252.180 51.812 C 251.837 52.706,252.304 53.731,253.053 53.731 C 253.909 53.731,254.267 53.043,253.943 52.022 C 253.627 51.024,252.532 50.894,252.180 51.812 M218.142 51.996 C 217.827 52.506,218.629 53.012,219.197 52.661 C 219.674 52.366,219.361 51.599,218.763 51.599 C 218.556 51.599,218.277 51.778,218.142 51.996 M226.013 52.026 C 225.675 52.235,225.539 52.547,225.712 52.720 C 225.885 52.893,226.251 52.811,226.525 52.537 C 227.169 51.893,226.809 51.533,226.013 52.026 M234.165 52.311 C 234.137 52.585,233.991 53.160,233.839 53.590 C 233.625 54.196,233.682 54.262,234.092 53.883 C 234.383 53.615,234.530 53.039,234.418 52.604 C 234.306 52.169,234.192 52.037,234.165 52.311 M259.701 54.371 C 259.701 54.723,259.893 55.011,260.128 55.011 C 260.362 55.011,260.554 54.723,260.554 54.371 C 260.554 54.019,260.362 53.731,260.128 53.731 C 259.893 53.731,259.701 54.019,259.701 54.371 M295.716 56.316 C 294.622 57.738,293.807 58.981,293.905 59.079 C 294.003 59.178,295.075 58.014,296.286 56.495 C 297.498 54.975,298.312 53.731,298.097 53.731 C 297.881 53.731,296.809 54.894,295.716 56.316 M317.434 54.431 C 316.758 54.781,315.809 55.438,315.324 55.892 C 314.840 56.345,314.121 56.716,313.725 56.716 C 313.330 56.716,313.006 57.004,313.006 57.356 C 313.006 58.232,313.713 58.158,315.155 57.131 C 317.855 55.209,319.400 54.848,320.729 55.831 C 321.995 56.767,322.814 56.966,322.814 56.339 C 322.814 55.897,321.111 54.726,319.670 54.178 C 318.969 53.912,318.290 53.988,317.434 54.431 M199.468 54.907 C 199.610 55.334,192.524 55.420,164.358 55.333 C 136.496 55.247,129.031 55.111,128.890 54.688 C 128.748 54.261,135.834 54.175,164.001 54.262 C 191.862 54.348,199.327 54.484,199.468 54.907 M234.238 55.544 C 232.299 56.915,231.915 57.980,232.745 59.692 C 233.391 61.026,233.377 61.184,232.491 62.724 C 231.238 64.901,231.302 65.518,233.049 68.113 C 233.870 69.331,234.542 70.506,234.542 70.723 C 234.542 71.446,236.626 72.495,238.045 72.485 L 239.446 72.476 237.676 71.673 C 236.102 70.958,234.299 68.862,232.261 65.377 C 232.094 65.093,232.548 64.204,233.295 63.354 C 234.507 61.974,234.584 61.717,234.158 60.493 C 232.723 56.378,235.033 54.916,240.432 56.519 C 242.746 57.206,244.776 58.947,244.776 60.244 C 244.776 61.055,245.033 61.194,247.228 61.573 C 249.318 61.934,249.035 60.715,246.880 60.069 C 245.769 59.736,244.942 59.155,244.578 58.452 C 242.889 55.185,237.063 53.547,234.238 55.544 M204.245 56.934 C 205.311 56.991,206.312 57.062,206.468 57.091 C 206.783 57.148,208.529 59.855,208.529 60.285 C 208.529 61.367,202.275 59.919,201.630 58.688 C 201.368 58.190,200.891 57.627,200.568 57.436 C 199.695 56.921,200.358 56.211,201.403 56.542 C 201.900 56.700,203.179 56.876,204.245 56.934 M166.133 57.072 L 196.018 57.143 196.588 58.209 C 196.902 58.795,197.462 59.295,197.833 59.319 C 198.204 59.343,197.932 59.487,197.228 59.639 C 193.350 60.476,131.373 59.702,130.896 58.810 C 130.040 57.211,130.634 56.783,133.554 56.896 C 135.035 56.954,149.696 57.033,166.133 57.072 M194.802 62.154 C 194.672 62.827,194.030 62.896,188.267 62.866 C 184.752 62.847,170.506 62.799,156.610 62.759 C 134.467 62.696,131.343 62.607,131.343 62.047 C 131.343 61.484,135.161 61.407,163.144 61.407 C 193.201 61.407,194.937 61.448,194.802 62.154 M207.238 62.707 C 206.952 63.242,206.492 63.498,206.051 63.367 C 205.655 63.250,204.803 63.028,204.158 62.874 C 202.193 62.405,202.846 61.834,205.345 61.834 C 207.592 61.834,207.683 61.876,207.238 62.707 M307.165 62.598 C 306.415 62.998,305.210 64.219,304.487 65.310 C 302.629 68.115,302.130 68.463,300.820 67.867 C 296.714 65.996,286.734 71.105,289.048 73.893 C 289.377 74.290,289.393 74.616,289.097 74.911 C 288.802 75.207,288.903 75.765,289.413 76.654 C 290.060 77.782,290.085 78.108,289.595 79.024 C 288.624 80.840,289.337 81.393,290.386 79.638 C 291.412 77.922,291.677 77.775,292.415 78.513 C 292.676 78.774,293.130 78.907,293.424 78.809 C 294.004 78.616,293.810 78.397,291.578 76.723 C 287.401 73.592,294.654 66.530,299.841 68.679 C 301.525 69.377,303.408 68.553,304.675 66.564 C 306.052 64.403,307.738 62.687,308.483 62.687 C 308.832 62.687,309.237 62.495,309.382 62.260 C 309.780 61.615,308.695 61.781,307.165 62.598 M212.132 62.860 C 210.460 63.588,208.529 65.884,208.529 67.144 C 208.529 67.683,208.409 68.723,208.262 69.456 C 208.028 70.629,208.110 70.789,208.942 70.789 C 209.830 70.789,209.870 70.660,209.600 68.695 C 209.153 65.446,210.209 64.394,215.778 62.540 C 216.130 62.423,215.746 62.320,214.925 62.310 C 214.104 62.301,212.848 62.548,212.132 62.860 M222.840 62.913 C 222.384 63.258,221.820 63.539,221.585 63.539 C 221.351 63.539,221.531 63.258,221.987 62.913 C 222.442 62.569,223.006 62.287,223.241 62.287 C 223.475 62.287,223.295 62.569,222.840 62.913 M246.766 62.971 C 246.249 63.488,246.471 65.150,247.088 65.387 C 247.422 65.515,247.772 66.063,247.866 66.605 C 248.019 67.482,248.075 67.506,248.380 66.823 C 248.619 66.286,248.445 65.760,247.803 65.077 C 247.245 64.482,246.990 63.822,247.155 63.393 C 247.435 62.663,247.262 62.475,246.766 62.971 M288.589 63.366 C 288.450 63.504,287.602 63.896,286.706 64.236 C 285.419 64.723,285.345 64.799,286.354 64.597 C 287.058 64.456,288.163 64.234,288.811 64.104 C 290.205 63.824,290.806 63.113,289.648 63.113 C 289.205 63.113,288.728 63.227,288.589 63.366 M173.881 64.285 C 166.668 64.351,154.867 64.351,147.655 64.285 C 140.442 64.220,146.343 64.166,160.768 64.166 C 175.192 64.166,181.093 64.220,173.881 64.285 M261.834 64.570 C 261.834 64.941,262.138 65.245,262.509 65.245 C 263.262 65.245,263.131 64.327,262.340 64.064 C 262.062 63.971,261.834 64.199,261.834 64.570 M235.406 64.802 C 234.869 65.142,234.884 65.240,235.514 65.481 C 236.428 65.832,238.380 65.375,238.380 64.811 C 238.380 64.281,236.240 64.275,235.406 64.802 M241.253 64.856 C 240.133 65.508,238.210 69.510,238.754 70.055 C 239.392 70.692,240.512 69.641,240.512 68.406 C 240.512 67.857,241.107 66.729,241.835 65.900 C 243.125 64.430,242.845 63.929,241.253 64.856 M191.656 65.626 C 192.038 66.244,192.137 74.956,191.767 75.326 C 191.381 75.712,186.949 76.205,185.820 75.987 C 185.325 75.892,185.075 75.448,185.075 74.663 C 185.075 74.014,184.789 72.541,184.440 71.390 C 183.565 68.508,183.606 66.251,184.542 65.706 C 185.464 65.169,191.333 65.103,191.656 65.626 M197.372 68.015 C 196.905 68.482,194.996 67.429,194.774 66.582 C 194.405 65.169,194.973 65.138,196.332 66.497 C 197.035 67.201,197.503 67.884,197.372 68.015 M204.122 65.529 C 203.676 65.976,203.790 69.003,204.264 69.296 C 204.517 69.453,204.691 68.957,204.691 68.077 C 204.691 67.262,204.807 66.291,204.950 65.920 C 205.208 65.247,204.662 64.990,204.122 65.529 M181.364 66.251 C 183.497 66.991,182.922 67.439,178.252 68.673 C 162.753 72.769,149.307 88.634,149.260 102.878 L 149.254 104.904 141.332 104.904 L 133.410 104.904 133.625 96.482 C 133.912 85.225,133.923 68.198,133.644 67.275 C 133.521 66.866,133.531 66.353,133.666 66.135 C 134.081 65.463,179.408 65.574,181.364 66.251 M223.539 68.316 C 222.823 69.032,222.902 70.484,223.761 72.374 C 224.721 74.485,224.670 74.434,225.252 73.852 C 225.530 73.575,226.246 73.340,226.844 73.330 C 227.442 73.320,228.603 72.944,229.424 72.495 L 230.917 71.678 229.723 71.660 C 229.066 71.650,227.936 71.948,227.212 72.323 C 225.383 73.269,223.662 72.544,224.046 70.990 C 224.190 70.410,224.425 69.456,224.570 68.870 C 224.851 67.732,224.378 67.477,223.539 68.316 M182.942 70.287 C 182.942 70.887,182.185 71.295,179.638 72.069 C 168.609 75.417,159.823 83.149,156.062 92.814 C 155.345 94.655,154.588 96.575,154.380 97.079 C 154.172 97.583,153.764 99.550,153.473 101.450 C 152.955 104.836,152.920 104.904,151.734 104.904 C 150.554 104.904,150.529 104.857,150.773 103.092 C 152.981 87.107,163.031 75.007,177.825 70.524 C 181.837 69.309,182.942 69.258,182.942 70.287 M195.309 69.671 C 195.309 69.759,195.021 70.070,194.670 70.362 C 194.146 70.797,194.030 70.768,194.030 70.201 C 194.030 69.821,194.318 69.510,194.670 69.510 C 195.021 69.510,195.309 69.582,195.309 69.671 M245.203 69.955 C 245.203 70.200,245.487 70.343,245.834 70.275 C 247.387 69.966,249.893 72.650,249.893 74.622 C 249.893 75.066,250.085 75.548,250.320 75.693 C 250.937 76.074,250.843 74.405,250.155 72.758 C 249.238 70.564,245.203 68.280,245.203 69.955 M201.933 70.980 C 202.746 71.320,203.412 71.848,203.413 72.153 C 203.415 72.791,207.016 74.395,207.615 74.025 C 208.399 73.540,209.790 75.273,210.066 77.079 C 210.373 79.081,209.957 79.381,208.742 78.038 C 208.317 77.569,207.719 77.186,207.412 77.186 C 207.104 77.186,206.656 76.816,206.414 76.365 C 205.720 75.068,201.605 72.921,199.813 72.921 C 198.484 72.921,196.925 72.435,196.193 71.793 C 194.961 70.711,199.687 70.042,201.933 70.980 M183.591 73.816 C 183.945 75.428,183.807 75.553,180.597 76.512 C 168.192 80.218,158.857 90.555,157.935 101.604 C 157.686 104.596,157.563 104.943,156.679 105.165 C 154.444 105.726,154.215 103.620,155.880 97.809 C 158.504 88.656,161.816 84.192,170.926 77.531 C 172.771 76.182,180.842 72.847,183.015 72.536 C 183.172 72.513,183.432 73.089,183.591 73.816 M200.640 74.586 C 201.578 75.001,202.609 75.660,202.931 76.050 C 203.253 76.440,203.834 76.759,204.222 76.759 C 205.430 76.759,206.823 78.028,206.823 79.129 C 206.823 79.702,207.063 80.176,207.356 80.184 C 207.658 80.191,207.572 80.381,207.157 80.623 C 206.592 80.953,205.425 80.540,202.040 78.815 C 199.628 77.585,197.017 76.284,196.237 75.923 C 194.512 75.124,193.856 74.400,194.261 73.745 C 194.664 73.092,198.371 73.581,200.640 74.586 M282.648 74.414 C 282.864 74.883,283.147 75.554,283.278 75.906 C 283.482 76.459,283.519 76.455,283.548 75.881 C 283.567 75.515,283.284 74.844,282.919 74.389 C 282.266 73.574,282.262 73.574,282.648 74.414 M216.205 74.555 C 216.205 75.162,212.810 77.673,212.363 77.397 C 211.437 76.824,212.002 75.667,213.542 74.988 C 215.369 74.181,216.205 74.045,216.205 74.555 M261.870 76.013 C 261.670 76.541,261.579 77.051,261.668 77.147 C 261.959 77.464,263.525 75.801,263.291 75.423 C 262.884 74.764,262.241 75.031,261.870 76.013 M255.733 75.752 C 255.392 76.093,255.777 76.759,256.315 76.759 C 256.536 76.759,256.716 76.471,256.716 76.119 C 256.716 75.460,256.213 75.272,255.733 75.752 M252.452 76.333 C 251.434 76.659,251.447 76.676,252.747 76.717 C 253.495 76.740,254.226 76.567,254.371 76.333 C 254.674 75.842,253.983 75.842,252.452 76.333 M190.618 77.732 C 190.970 78.018,191.540 78.635,191.885 79.104 C 192.358 79.748,192.201 79.697,191.245 78.898 C 190.549 78.315,189.796 77.691,189.574 77.512 C 189.318 77.306,189.318 77.190,189.574 77.199 C 189.796 77.207,190.267 77.446,190.618 77.732 M282.642 78.535 C 281.580 79.622,281.461 81.592,282.445 81.793 C 283.124 81.932,283.162 81.831,282.731 81.026 C 282.328 80.274,282.370 79.950,282.952 79.307 C 283.884 78.277,283.595 77.558,282.642 78.535 M252.878 78.875 C 252.878 79.268,257.556 80.326,257.877 80.005 C 258.170 79.712,257.549 79.496,254.904 78.971 C 253.790 78.749,252.878 78.706,252.878 78.875 M287.000 79.851 C 287.005 80.627,287.086 80.688,287.420 80.171 C 287.954 79.344,287.954 78.891,287.420 78.891 C 287.186 78.891,286.997 79.323,287.000 79.851 M248.428 80.140 C 247.986 80.629,247.756 81.160,247.916 81.321 C 248.321 81.725,249.604 80.369,249.399 79.753 C 249.293 79.436,248.937 79.578,248.428 80.140 M300.948 80.175 C 300.003 81.279,299.969 81.231,301.707 81.269 C 303.369 81.304,303.375 81.298,302.757 80.143 C 302.199 79.100,301.864 79.106,300.948 80.175 M290.405 81.184 C 290.405 81.508,290.690 82.008,291.037 82.297 C 293.398 84.256,292.208 91.528,288.879 95.484 C 286.547 98.256,281.008 99.652,277.747 98.289 C 276.138 97.617,275.612 97.686,276.118 98.505 C 277.182 100.227,284.184 100.371,287.088 98.732 C 291.541 96.218,294.566 88.750,293.251 83.514 C 292.787 81.661,290.405 79.713,290.405 81.184 M214.127 82.942 C 213.282 85.079,213.234 85.288,213.587 85.288 C 214.160 85.288,215.021 83.318,214.821 82.465 C 214.667 81.809,214.541 81.895,214.127 82.942 M283.455 82.871 C 283.303 83.268,283.849 83.406,285.501 83.391 C 288.109 83.365,289.544 84.323,289.565 86.100 C 289.577 87.079,289.630 87.118,290.026 86.438 C 290.533 85.566,289.675 83.893,288.380 83.230 C 287.001 82.523,283.681 82.282,283.455 82.871 M236.221 83.172 C 235.532 83.598,235.719 83.870,236.843 84.075 C 237.791 84.247,238.263 83.366,237.399 83.034 C 237.075 82.910,236.545 82.972,236.221 83.172 M244.975 83.267 C 243.276 84.303,241.856 85.825,241.586 86.898 C 241.436 87.497,240.537 88.867,239.588 89.943 C 237.972 91.774,237.879 92.024,238.098 93.895 C 238.284 95.477,238.158 96.115,237.494 96.959 C 234.606 100.630,236.655 106.721,239.878 104.047 C 240.991 103.123,240.676 102.304,239.394 102.792 C 238.285 103.213,237.100 102.741,237.100 101.878 C 237.100 101.083,239.787 100.088,240.586 100.587 C 241.596 101.218,241.791 101.192,241.791 100.426 C 241.791 99.943,241.270 99.787,239.659 99.787 C 237.208 99.787,236.925 99.221,238.593 97.655 C 239.464 96.836,239.659 96.249,239.659 94.446 C 239.659 92.452,239.869 91.961,241.823 89.379 C 243.922 86.607,244.401 86.250,247.122 85.437 C 248.096 85.145,248.401 84.802,248.401 83.998 C 248.401 82.763,246.476 82.352,244.975 83.267 M219.266 84.024 C 219.347 84.267,220.148 84.718,221.047 85.027 L 222.680 85.589 219.980 85.834 C 216.812 86.121,216.723 86.076,217.649 84.661 C 218.392 83.528,219.018 83.281,219.266 84.024 M261.834 84.435 C 261.268 85.001,260.981 85.856,260.981 86.979 C 260.981 89.695,257.315 90.521,255.672 88.175 C 255.319 87.671,254.893 87.395,254.726 87.563 C 253.832 88.457,258.465 90.640,259.772 89.941 C 261.081 89.240,261.834 88.224,261.834 87.155 C 261.834 86.574,262.126 85.532,262.484 84.840 C 263.243 83.373,263.029 83.239,261.834 84.435 M173.590 85.181 C 174.502 85.826,175.252 86.509,175.257 86.698 C 175.269 87.149,172.843 85.713,171.974 84.755 C 170.975 83.655,171.703 83.847,173.590 85.181 M194.506 84.704 C 193.074 85.707,193.441 86.141,195.722 86.141 C 197.337 86.141,197.788 86.002,197.618 85.559 C 197.201 84.472,195.503 84.006,194.506 84.704 M171.925 85.979 C 173.081 86.827,173.941 87.609,173.835 87.715 C 173.585 87.965,169.314 85.175,169.304 84.755 C 169.290 84.179,169.792 84.413,171.925 85.979 M177.688 85.060 C 178.120 84.935,178.031 85.063,177.487 85.348 C 176.669 85.777,176.391 85.736,175.781 85.098 C 175.089 84.373,175.099 84.359,175.982 84.810 C 176.493 85.071,177.260 85.184,177.688 85.060 M270.586 84.948 C 270.869 85.684,272.498 86.706,272.841 86.363 C 272.986 86.218,272.899 85.773,272.649 85.374 C 272.089 84.480,270.262 84.103,270.586 84.948 M200.959 85.144 C 200.666 85.262,200.426 85.548,200.426 85.779 C 200.426 86.380,202.243 86.035,202.454 85.394 C 202.631 84.858,201.950 84.744,200.959 85.144 M210.849 85.933 C 211.448 86.392,211.507 86.571,211.062 86.581 C 210.115 86.603,212.306 88.273,213.282 88.273 C 214.006 88.273,214.040 88.160,213.570 87.313 C 213.278 86.786,213.079 86.210,213.129 86.034 C 213.179 85.858,212.980 85.700,212.687 85.683 C 212.393 85.665,211.674 85.572,211.087 85.475 C 210.064 85.306,210.054 85.324,210.849 85.933 M170.357 86.800 C 172.288 87.931,173.406 88.996,173.044 89.358 C 172.928 89.474,171.716 88.702,170.350 87.642 C 167.575 85.487,167.577 85.171,170.357 86.800 M172.672 90.264 C 172.770 90.342,172.723 90.532,172.568 90.687 C 172.413 90.842,171.950 90.682,171.538 90.333 C 171.126 89.983,169.877 89.176,168.763 88.540 C 167.649 87.904,166.738 87.287,166.738 87.168 C 166.738 86.993,172.030 89.755,172.672 90.264 M189.493 88.060 C 189.091 89.108,189.633 89.934,190.563 89.690 C 191.470 89.453,192.056 88.448,191.661 87.808 C 191.276 87.185,189.761 87.361,189.493 88.060 M289.214 88.355 C 288.622 88.948,288.512 91.258,289.077 91.258 C 289.971 91.258,290.943 89.054,290.322 88.434 C 289.859 87.970,289.616 87.953,289.214 88.355 M168.733 89.974 C 170.957 91.249,171.712 91.970,171.279 92.402 C 171.150 92.532,170.507 92.212,169.851 91.693 C 169.194 91.174,167.889 90.294,166.951 89.737 C 166.013 89.181,165.533 88.722,165.885 88.717 C 166.237 88.712,167.518 89.277,168.733 89.974 M204.936 89.075 C 204.750 89.375,203.995 90.007,203.258 90.479 L 201.919 91.337 203.198 91.056 C 204.718 90.723,205.715 89.852,205.458 89.082 C 205.308 88.633,205.209 88.632,204.936 89.075 M168.538 92.196 C 169.893 92.918,171.002 93.674,171.002 93.876 C 171.002 94.488,170.449 94.286,168.500 92.966 C 167.476 92.271,165.989 91.469,165.195 91.182 C 164.402 90.895,163.753 90.512,163.753 90.330 C 163.753 89.895,165.500 90.576,168.538 92.196 M166.073 92.990 C 169.235 94.587,170.394 95.420,170.002 95.812 C 169.566 96.247,162.900 92.893,162.900 92.239 C 162.900 91.458,163.164 91.521,166.073 92.990 M224.069 92.295 C 223.430 92.767,223.356 93.023,223.745 93.418 C 224.448 94.131,225.586 93.594,225.586 92.551 C 225.586 91.528,225.198 91.462,224.069 92.295 M208.529 93.603 C 208.529 94.424,208.721 95.096,208.955 95.096 C 209.190 95.096,209.382 94.424,209.382 93.603 C 209.382 92.783,209.190 92.111,208.955 92.111 C 208.721 92.111,208.529 92.783,208.529 93.603 M248.777 92.565 C 247.328 92.994,243.923 96.397,243.923 97.415 C 243.923 97.763,243.491 98.456,242.964 98.954 L 242.004 99.861 243.497 99.257 C 244.667 98.784,244.993 98.409,245.008 97.518 C 245.065 94.161,250.175 91.839,253.019 93.879 C 254.230 94.748,254.927 94.717,254.372 93.819 C 253.694 92.722,250.593 92.027,248.777 92.565 M266.451 95.096 C 266.636 97.031,267.033 97.224,267.997 95.847 C 268.621 94.957,268.602 94.844,267.702 94.151 C 266.351 93.112,266.268 93.175,266.451 95.096 M163.113 94.243 C 163.258 94.478,163.089 94.670,162.737 94.670 C 162.385 94.670,161.979 94.478,161.834 94.243 C 161.689 94.009,161.858 93.817,162.210 93.817 C 162.562 93.817,162.968 94.009,163.113 94.243 M232.942 95.132 C 231.889 95.530,231.636 96.375,232.570 96.375 C 233.167 96.375,234.376 95.203,234.069 94.922 C 233.977 94.838,233.470 94.932,232.942 95.132 M167.910 96.605 C 170.624 97.739,169.656 98.428,166.707 97.463 C 165.669 97.122,163.970 96.626,162.933 96.360 C 161.751 96.057,161.245 95.755,161.576 95.550 C 162.204 95.162,165.949 95.786,167.910 96.605 M203.923 96.034 C 203.077 96.880,203.342 97.655,204.478 97.655 C 205.330 97.655,205.544 97.441,205.544 96.588 C 205.544 95.453,204.769 95.188,203.923 96.034 M216.020 96.758 C 215.405 96.999,215.334 97.167,215.741 97.418 C 216.064 97.618,216.568 97.474,216.977 97.065 C 217.708 96.334,217.376 96.227,216.020 96.758 M165.778 98.152 C 167.296 98.637,168.443 99.249,168.443 99.574 C 168.443 100.046,168.168 100.042,166.844 99.550 C 165.965 99.223,164.139 98.649,162.788 98.273 C 161.436 97.898,160.424 97.439,160.539 97.253 C 160.811 96.813,162.483 97.100,165.778 98.152 M223.130 97.749 C 223.302 98.263,226.392 99.124,226.756 98.759 C 227.029 98.487,224.477 97.228,223.653 97.228 C 223.270 97.228,223.035 97.462,223.130 97.749 M268.870 100.429 C 266.959 102.463,266.462 102.752,264.080 103.216 C 260.525 103.907,259.510 104.981,262.754 104.619 C 266.268 104.226,267.491 103.530,269.650 100.690 C 272.077 97.499,271.732 97.383,268.870 100.429 M210.945 98.792 C 210.508 99.229,210.608 100.983,211.087 101.279 C 211.341 101.436,211.514 100.928,211.514 100.025 C 211.514 98.467,211.437 98.300,210.945 98.792 M227.932 99.312 C 226.994 99.754,225.890 100.227,225.480 100.364 C 225.069 100.501,224.733 100.927,224.733 101.311 C 224.733 101.695,224.245 102.590,223.647 103.300 C 222.732 104.388,222.574 104.969,222.647 106.986 C 222.704 108.560,222.483 109.866,222.004 110.793 C 221.588 111.597,221.330 112.883,221.404 113.778 L 221.535 115.352 223.454 115.204 C 225.933 115.013,229.244 111.476,227.857 110.501 C 225.773 109.037,224.363 104.945,225.566 103.856 C 226.159 103.319,226.331 102.764,226.163 101.926 C 225.910 100.657,230.548 99.703,231.876 100.750 C 232.578 101.303,232.556 101.919,231.836 101.919 C 230.835 101.919,229.723 103.568,229.624 105.201 C 229.556 106.320,229.203 107.037,228.410 107.669 C 227.071 108.737,227.020 109.216,228.134 110.225 C 228.950 110.963,228.990 110.952,229.403 109.864 C 229.643 109.232,230.160 108.743,230.586 108.744 C 231.003 108.745,232.239 108.425,233.334 108.033 C 235.206 107.362,235.392 107.363,236.452 108.057 C 238.549 109.432,237.831 110.785,234.009 112.663 C 232.191 113.556,230.704 114.478,230.704 114.712 C 230.704 115.239,230.935 115.247,231.882 114.750 C 232.289 114.536,233.529 114.043,234.636 113.653 C 240.475 111.600,239.547 106.805,233.347 106.991 C 230.402 107.080,230.238 106.935,230.856 104.790 C 231.242 103.455,231.623 102.950,232.320 102.849 C 233.660 102.655,233.523 101.261,232.016 99.754 C 230.549 98.287,230.189 98.248,227.932 99.312 M164.683 99.833 C 166.814 100.409,168.017 100.947,168.017 101.326 C 168.017 102.084,168.156 102.103,164.433 100.853 C 162.686 100.267,160.848 99.787,160.347 99.787 C 159.847 99.787,159.557 99.595,159.701 99.360 C 160.083 98.743,160.946 98.825,164.683 99.833 M271.853 99.363 C 271.501 99.933,272.730 100.383,273.434 99.942 C 273.738 99.751,274.323 99.650,274.733 99.718 C 275.144 99.785,275.480 99.636,275.480 99.387 C 275.480 98.810,272.208 98.789,271.853 99.363 M279.318 100.837 C 278.351 101.376,278.324 101.459,279.033 101.734 C 279.559 101.938,280.114 101.738,280.727 101.125 C 281.804 100.048,281.022 99.888,279.318 100.837 M216.428 101.050 C 216.283 101.284,216.366 101.850,216.611 102.308 C 216.975 102.988,216.901 103.191,216.204 103.412 C 215.346 103.684,214.991 104.904,215.770 104.904 C 215.999 104.904,216.982 104.586,217.954 104.197 L 219.721 103.490 218.602 102.904 C 217.987 102.582,217.484 102.048,217.484 101.717 C 217.484 100.947,216.770 100.496,216.428 101.050 M164.606 102.041 C 166.803 102.789,167.406 103.184,167.514 103.945 C 167.689 105.176,167.461 105.152,164.439 103.619 C 163.057 102.919,161.474 102.345,160.921 102.345 C 160.311 102.345,159.915 102.094,159.915 101.706 C 159.915 100.818,161.310 100.918,164.606 102.041 M250.337 102.513 C 249.774 103.994,250.345 106.114,251.615 107.264 C 252.624 108.177,252.645 108.029,251.794 105.991 C 251.431 105.124,251.251 104.049,251.393 103.602 C 251.874 102.086,250.887 101.068,250.337 102.513 M244.350 103.198 C 244.350 103.976,244.527 104.419,244.776 104.264 C 245.011 104.119,245.203 103.640,245.203 103.198 C 245.203 102.757,245.011 102.277,244.776 102.132 C 244.527 101.978,244.350 102.420,244.350 103.198 M165.352 105.089 C 167.084 105.659,168.555 107.036,167.431 107.036 C 167.252 107.036,164.589 106.088,162.768 105.375 C 161.657 104.940,161.516 103.766,162.623 104.173 C 162.893 104.272,164.120 104.685,165.352 105.089 M290.689 105.188 C 290.211 105.666,290.372 106.183,290.999 106.183 C 291.326 106.183,291.704 105.896,291.839 105.544 C 292.085 104.903,291.237 104.640,290.689 105.188 M240.512 105.751 C 240.512 107.031,243.290 107.366,243.934 106.164 C 244.361 105.366,244.329 105.336,243.554 105.820 C 242.898 106.230,242.460 106.236,241.609 105.849 C 240.991 105.567,240.512 105.524,240.512 105.751 M269.653 106.852 C 269.315 107.731,270.200 108.649,270.803 108.046 C 271.291 107.557,270.923 106.183,270.303 106.183 C 270.087 106.183,269.794 106.484,269.653 106.852 M160.341 107.469 C 160.341 108.390,158.566 108.552,150.107 108.401 C 148.113 108.365,142.212 108.331,136.994 108.326 C 127.808 108.316,127.505 108.288,127.505 107.467 C 127.505 106.634,127.815 106.618,143.923 106.620 C 160.014 106.623,160.341 106.640,160.341 107.469 M164.906 108.303 C 165.862 108.765,167.438 109.270,168.407 109.425 C 170.148 109.704,170.911 110.190,170.248 110.600 C 169.709 110.933,163.182 108.589,162.996 107.996 C 162.778 107.300,162.856 107.313,164.906 108.303 M245.473 109.626 C 244.674 110.254,244.350 110.907,244.350 111.886 C 244.350 113.512,243.700 114.286,242.336 114.286 C 240.632 114.286,237.662 117.439,236.901 120.057 C 236.096 122.826,235.651 123.176,234.727 121.766 C 234.007 120.666,233.262 120.670,233.262 121.774 C 233.262 122.112,233.654 122.779,234.132 123.258 C 234.986 124.112,234.988 124.149,234.205 125.283 C 233.767 125.919,232.700 127.726,231.833 129.299 C 230.032 132.566,229.587 132.968,228.726 132.107 C 228.244 131.625,228.209 131.230,228.566 130.292 C 229.112 128.856,228.849 128.450,227.890 129.246 C 227.310 129.727,227.234 130.334,227.456 132.718 C 227.732 135.686,227.350 136.348,226.090 135.088 C 225.681 134.679,225.625 134.842,225.827 135.850 C 226.012 136.777,225.846 137.423,225.228 138.182 L 224.373 139.232 223.959 138.166 C 223.731 137.580,223.045 136.670,222.434 136.144 C 220.894 134.819,221.689 132.623,223.707 132.623 C 224.081 132.623,224.487 133.006,224.610 133.475 C 225.058 135.189,225.685 134.339,225.395 132.409 C 225.045 130.074,225.485 126.814,226.255 126.045 C 226.647 125.653,226.713 125.103,226.470 124.254 L 226.120 123.028 225.640 124.228 C 225.376 124.888,225.160 125.716,225.160 126.067 C 225.160 127.790,223.762 130.803,222.661 131.453 C 220.271 132.865,219.132 134.374,219.430 135.733 C 219.796 137.399,219.950 144.563,219.620 144.563 C 219.477 144.563,219.136 144.339,218.863 144.065 C 218.483 143.686,218.323 143.711,218.188 144.172 C 218.091 144.504,217.765 145.596,217.463 146.597 C 217.162 147.599,216.934 148.750,216.957 149.156 C 216.979 149.561,217.010 158.137,217.026 168.213 L 217.053 186.532 215.883 188.207 C 213.809 191.174,213.488 192.057,213.375 195.106 C 213.202 199.745,211.623 199.360,230.859 199.360 L 247.676 199.360 250.330 196.466 C 251.790 194.873,253.536 193.285,254.211 192.936 C 256.256 191.879,255.834 183.390,253.681 182.277 L 252.478 181.655 252.353 170.038 C 252.284 163.650,252.127 154.810,252.004 150.396 C 251.880 145.982,251.940 142.270,252.136 142.149 C 252.333 142.028,252.253 141.639,251.960 141.286 C 251.506 140.739,251.583 140.665,252.472 140.791 C 253.185 140.891,253.518 141.210,253.518 141.791 C 253.518 143.128,255.054 143.042,257.054 141.593 C 258.550 140.509,258.843 140.063,258.814 138.910 L 258.779 137.527 258.200 138.847 C 257.303 140.890,255.532 141.903,254.767 140.810 C 254.443 140.348,253.645 139.843,252.995 139.687 C 252.345 139.532,251.477 139.305,251.066 139.183 C 250.490 139.012,250.320 139.214,250.320 140.070 C 250.320 141.524,249.572 141.756,247.576 140.922 C 246.418 140.438,245.811 140.373,245.488 140.696 C 245.237 140.946,244.495 141.151,243.838 141.151 L 242.644 141.151 242.644 145.604 C 242.644 150.215,242.369 151.074,241.348 149.657 C 240.221 148.094,238.137 149.364,239.155 150.994 C 239.577 151.669,239.550 151.812,239.001 151.812 C 237.788 151.812,236.987 149.070,237.701 147.361 C 238.510 145.426,238.158 144.249,236.675 143.923 C 234.227 143.386,232.863 140.265,233.165 135.894 C 233.292 134.051,233.190 132.807,232.888 132.504 C 232.043 131.659,232.372 130.995,233.881 130.497 C 235.520 129.956,237.100 130.476,237.100 131.557 C 237.100 131.892,237.648 132.797,238.317 133.567 C 238.986 134.338,239.761 135.400,240.038 135.928 C 240.315 136.455,240.833 136.887,241.188 136.887 C 241.544 136.887,242.115 137.559,242.458 138.380 C 243.617 141.153,244.461 140.330,244.317 136.567 C 244.074 130.226,244.137 129.950,245.736 130.297 L 247.122 130.598 246.096 129.762 L 245.070 128.926 246.084 128.215 C 246.642 127.825,247.548 127.505,248.097 127.505 C 248.647 127.505,249.496 127.291,249.985 127.030 C 251.170 126.396,250.915 133.024,249.681 134.907 C 248.834 136.199,249.358 137.313,250.812 137.313 C 251.803 137.313,252.294 136.232,251.653 135.459 C 250.658 134.260,251.269 129.686,252.309 130.549 C 252.818 130.971,253.020 130.954,253.331 130.463 C 253.982 129.434,253.826 128.492,253.156 129.408 C 252.185 130.736,251.602 129.761,251.557 126.734 C 251.529 124.874,251.412 124.252,251.219 124.947 C 250.867 126.219,249.583 126.517,248.398 125.602 C 247.595 124.982,247.590 124.921,248.303 124.494 C 248.719 124.245,248.958 123.879,248.836 123.681 C 248.385 122.952,246.935 123.798,245.865 125.415 C 244.574 127.367,243.613 127.548,243.262 125.906 C 243.124 125.261,242.819 124.262,242.583 123.685 C 242.102 122.509,242.961 121.535,244.480 121.535 C 244.931 121.535,245.997 121.168,246.850 120.720 C 247.703 120.271,248.758 119.789,249.195 119.649 C 250.510 119.225,249.239 118.105,247.776 118.398 C 247.111 118.531,246.457 118.429,246.295 118.167 C 245.860 117.463,245.193 117.601,245.475 118.337 C 245.610 118.689,246.004 118.977,246.350 118.977 C 247.415 118.977,246.713 119.976,245.388 120.345 C 244.700 120.537,243.440 120.583,242.590 120.446 C 240.487 120.110,238.770 122.512,239.580 124.658 C 240.199 126.296,239.898 126.632,238.872 125.449 C 238.436 124.947,237.968 124.647,237.832 124.784 C 236.986 125.629,236.813 124.267,237.547 122.553 C 238.005 121.485,238.380 120.258,238.380 119.827 C 238.380 118.594,240.336 116.581,242.297 115.796 C 244.394 114.957,245.170 114.075,245.189 112.511 C 245.198 111.785,245.663 110.989,246.482 110.300 C 248.526 108.580,247.595 107.957,245.473 109.626 M264.030 109.741 C 263.995 110.174,263.568 110.632,263.081 110.759 C 262.395 110.939,262.254 111.218,262.452 112.007 C 262.592 112.566,262.503 113.406,262.252 113.874 C 261.943 114.453,261.935 114.960,262.229 115.464 C 262.635 116.161,262.661 116.160,262.674 115.441 C 262.681 115.022,263.082 113.904,263.565 112.957 C 264.052 112.002,264.365 110.728,264.268 110.096 C 264.172 109.468,264.065 109.309,264.030 109.741 M290.576 109.853 C 291.065 111.127,289.887 113.927,288.508 114.768 C 287.722 115.248,287.480 115.562,287.896 115.563 C 289.147 115.566,290.713 113.918,291.170 112.116 C 291.636 110.280,291.474 109.168,290.740 109.168 C 290.506 109.168,290.432 109.476,290.576 109.853 M226.354 110.107 C 226.635 110.388,226.866 110.868,226.866 111.173 C 226.866 112.065,225.815 111.813,224.733 110.661 L 223.732 109.595 224.787 109.595 C 225.367 109.595,226.072 109.825,226.354 110.107 M159.062 110.661 C 159.062 111.404,130.757 111.650,130.300 110.911 C 129.840 110.167,131.199 110.088,145.096 110.055 C 157.241 110.026,159.062 110.105,159.062 110.661 M248.873 110.801 C 248.752 110.995,249.683 111.069,250.940 110.965 C 253.102 110.785,253.262 110.842,253.888 111.997 C 254.399 112.940,254.554 113.036,254.567 112.414 C 254.600 110.870,249.690 109.479,248.873 110.801 M165.793 111.579 C 168.617 111.830,170.605 112.580,168.444 112.580 C 166.648 112.580,161.397 111.597,160.981 111.182 C 160.698 110.901,160.913 110.850,161.620 111.031 C 162.207 111.181,164.084 111.428,165.793 111.579 M157.250 113.113 C 157.114 113.519,154.189 113.673,144.959 113.759 C 132.781 113.874,131.493 113.799,131.981 113.009 C 132.403 112.326,157.477 112.429,157.250 113.113 M163.458 113.457 C 167.273 114.017,167.845 114.201,167.339 114.708 C 166.877 115.170,159.062 113.893,159.062 113.355 C 159.062 112.899,159.768 112.915,163.458 113.457 M209.062 114.117 C 207.949 115.386,207.893 115.713,208.673 116.360 C 209.401 116.965,211.235 115.151,211.019 114.039 C 210.796 112.887,210.117 112.914,209.062 114.117 M250.365 115.055 C 249.827 116.059,250.408 116.700,251.100 115.866 C 251.357 115.556,251.398 115.076,251.194 114.747 C 250.915 114.295,250.735 114.362,250.365 115.055 M272.068 114.733 C 273.967 116.022,274.465 116.174,273.601 115.201 C 273.154 114.697,272.483 114.289,272.109 114.292 C 271.513 114.298,271.508 114.352,272.068 114.733 M156.290 125.906 L 156.290 136.247 145.271 136.260 L 134.253 136.273 133.682 135.169 C 132.567 133.012,133.051 132.887,142.506 132.880 C 150.079 132.875,150.958 132.807,149.467 132.340 C 148.357 131.993,145.340 131.825,140.833 131.860 C 137.022 131.890,133.856 131.834,133.797 131.735 C 133.737 131.637,133.749 127.958,133.822 123.561 L 133.955 115.565 145.122 115.565 L 156.290 115.565 156.290 125.906 M271.215 115.793 C 271.215 116.408,272.664 118.124,273.183 118.124 C 274.048 118.124,273.907 117.544,272.787 116.492 C 271.833 115.596,271.215 115.321,271.215 115.793 M165.017 117.078 C 165.871 117.926,165.217 117.879,161.407 116.823 L 158.422 115.995 161.407 116.227 C 163.167 116.363,164.649 116.713,165.017 117.078 M266.259 117.164 C 266.127 117.575,265.540 119.028,264.955 120.394 C 264.196 122.164,263.981 123.206,264.206 124.019 C 264.500 125.077,264.549 125.021,264.879 123.246 C 265.075 122.193,265.626 120.803,266.103 120.158 C 267.155 118.735,267.705 116.418,266.991 116.418 C 266.720 116.418,266.390 116.754,266.259 117.164 M269.315 116.815 C 269.023 117.286,269.696 117.795,270.090 117.401 C 270.495 116.996,270.420 116.418,269.961 116.418 C 269.741 116.418,269.450 116.597,269.315 116.815 M283.738 116.744 C 283.472 116.917,283.177 117.441,283.082 117.910 C 282.899 118.817,282.966 118.813,278.768 118.196 C 275.629 117.735,276.190 118.355,279.723 119.251 L 282.413 119.934 284.916 118.737 C 286.293 118.079,287.420 117.404,287.420 117.238 C 287.420 116.509,284.671 116.140,283.738 116.744 M162.514 118.592 C 165.821 119.596,166.581 120.475,163.422 119.642 C 161.470 119.127,158.460 117.750,159.209 117.714 C 159.407 117.705,160.894 118.100,162.514 118.592 M228.571 118.498 C 228.571 119.238,229.650 119.791,230.291 119.379 C 230.839 119.026,230.837 118.924,230.277 118.557 C 229.479 118.033,228.571 118.002,228.571 118.498 M223.525 119.462 C 223.603 120.016,223.859 120.421,224.094 120.362 C 224.723 120.205,224.612 118.865,223.951 118.645 C 223.561 118.515,223.427 118.772,223.525 119.462 M163.006 120.677 C 164.715 121.020,165.458 121.368,165.458 121.825 C 165.458 122.287,165.175 122.415,164.499 122.258 C 163.971 122.135,162.436 121.796,161.087 121.504 C 159.475 121.155,158.635 120.762,158.635 120.355 C 158.635 119.932,158.938 119.808,159.595 119.961 C 160.123 120.084,161.658 120.406,163.006 120.677 M251.052 121.002 C 250.958 121.178,251.023 121.802,251.197 122.388 C 251.493 123.385,251.517 123.364,251.557 122.068 C 251.598 120.731,251.409 120.334,251.052 121.002 M261.039 121.574 L 260.033 122.388 261.122 122.388 C 262.328 122.388,262.783 121.955,262.337 121.234 C 262.138 120.910,261.725 121.019,261.039 121.574 M162.032 122.989 C 167.189 124.634,166.603 125.508,161.172 124.273 C 158.768 123.726,158.209 123.444,158.209 122.780 C 158.209 121.761,158.178 121.759,162.032 122.989 M228.884 122.814 C 229.285 123.284,229.770 123.667,229.961 123.667 C 230.151 123.667,230.102 123.284,229.851 122.814 C 229.600 122.345,229.115 121.962,228.774 121.962 C 228.267 121.962,228.288 122.118,228.884 122.814 M241.905 125.857 C 241.186 126.575,239.868 124.656,240.531 123.857 C 241.035 123.251,241.159 123.300,241.694 124.323 C 242.056 125.013,242.140 125.622,241.905 125.857 M217.910 124.307 C 217.910 124.659,218.102 124.947,218.337 124.947 C 218.571 124.947,218.763 124.659,218.763 124.307 C 218.763 123.955,218.571 123.667,218.337 123.667 C 218.102 123.667,217.910 123.955,217.910 124.307 M161.849 125.425 C 164.690 126.138,165.458 126.493,165.458 127.091 C 165.458 127.656,165.212 127.799,164.499 127.648 C 163.636 127.464,163.667 127.552,164.810 128.528 C 166.635 130.086,165.844 130.629,162.891 129.843 C 161.606 129.501,160.027 129.219,159.382 129.216 C 158.345 129.212,158.208 129.050,158.203 127.825 C 158.200 127.063,158.082 126.007,157.940 125.480 C 157.628 124.315,157.431 124.317,161.849 125.425 M196.375 126.633 C 194.768 126.925,191.061 129.287,191.815 129.539 C 192.119 129.640,193.088 129.224,193.968 128.614 C 194.848 128.004,195.978 127.505,196.480 127.505 C 196.981 127.505,197.518 127.301,197.672 127.051 C 198.057 126.427,197.858 126.363,196.375 126.633 M260.675 127.211 C 262.152 129.465,261.226 131.770,258.843 131.770 C 258.170 131.770,257.501 131.962,257.356 132.196 C 257.211 132.431,256.672 132.626,256.158 132.629 C 254.795 132.639,254.302 133.093,253.964 134.648 C 253.606 136.301,254.108 136.432,255.904 135.152 C 256.586 134.667,257.143 133.879,257.143 133.400 C 257.143 132.692,257.335 132.578,258.179 132.790 C 259.989 133.245,261.278 132.396,262.428 129.994 C 263.018 128.761,263.462 127.735,263.414 127.715 C 263.366 127.695,262.751 127.405,262.047 127.072 C 261.343 126.739,260.582 126.383,260.355 126.280 C 260.128 126.177,260.272 126.596,260.675 127.211 M241.787 128.773 C 242.508 129.229,242.596 132.336,241.955 134.698 L 241.566 136.135 239.759 134.175 C 238.736 133.064,237.953 131.794,237.953 131.242 C 237.953 130.707,237.562 130.025,237.084 129.726 C 236.605 129.428,236.329 128.998,236.469 128.771 C 236.796 128.242,240.950 128.244,241.787 128.773 M162.404 130.529 C 164.757 130.976,166.017 131.780,165.374 132.423 C 164.622 133.175,158.209 131.532,158.209 130.588 C 158.209 129.829,158.394 129.634,158.955 129.798 C 159.366 129.917,160.918 130.246,162.404 130.529 M187.520 132.025 C 187.106 132.440,187.675 133.475,188.319 133.475 C 188.989 133.475,189.017 133.390,188.654 132.444 C 188.385 131.744,187.959 131.586,187.520 132.025 M264.473 132.511 C 264.551 132.919,264.997 133.299,265.463 133.356 C 265.930 133.414,266.071 133.352,265.778 133.219 C 265.485 133.087,265.245 132.706,265.245 132.374 C 265.245 132.042,265.039 131.770,264.787 131.770 C 264.536 131.770,264.394 132.103,264.473 132.511 M152.345 132.928 C 152.990 133.026,154.046 133.026,154.691 132.928 C 155.336 132.830,154.808 132.750,153.518 132.750 C 152.228 132.750,151.700 132.830,152.345 132.928 M162.793 133.291 C 165.375 133.576,165.458 133.624,165.458 134.810 C 165.458 136.028,165.445 136.034,162.793 136.028 C 158.753 136.019,158.209 135.781,158.209 134.019 C 158.209 132.690,158.312 132.555,159.168 132.763 C 159.696 132.892,161.327 133.129,162.793 133.291 M252.239 133.475 C 252.663 133.945,253.173 134.328,253.371 134.328 C 253.569 134.328,253.348 133.945,252.878 133.475 C 252.409 133.006,251.900 132.623,251.746 132.623 C 251.593 132.623,251.814 133.006,252.239 133.475 M229.642 135.075 C 229.477 135.485,229.296 136.098,229.239 136.437 C 229.038 137.643,228.145 137.401,228.145 136.141 C 228.145 134.753,228.422 134.328,229.328 134.328 C 229.743 134.328,229.845 134.570,229.642 135.075 M188.060 136.062 C 188.060 136.312,188.253 136.878,188.490 137.320 C 189.385 138.992,187.761 141.182,185.852 140.877 C 184.188 140.611,183.536 141.243,184.968 141.734 C 185.378 141.875,186.123 142.171,186.623 142.391 C 187.828 142.923,190.436 139.200,189.956 137.635 C 189.449 135.982,188.060 134.830,188.060 136.062 M214.925 136.511 C 214.925 137.024,215.173 137.169,215.778 137.011 C 216.247 136.888,216.631 136.534,216.631 136.224 C 216.631 135.914,216.247 135.690,215.778 135.725 C 215.286 135.762,214.925 136.095,214.925 136.511 M260.783 136.464 L 259.092 137.251 260.267 137.546 C 261.410 137.833,263.113 136.889,263.113 135.968 C 263.113 135.473,262.741 135.552,260.783 136.464 M177.079 136.567 C 177.176 136.860,177.618 137.170,178.060 137.256 C 178.756 137.391,178.787 137.319,178.292 136.723 C 177.616 135.908,176.825 135.806,177.079 136.567 M154.904 138.000 L 156.503 138.278 156.503 146.528 L 156.503 154.778 155.330 155.528 C 154.686 155.941,153.898 156.528,153.580 156.832 C 153.262 157.136,152.655 157.275,152.230 157.140 C 151.081 156.775,149.254 157.357,149.254 158.088 C 149.254 158.526,149.488 158.633,150.000 158.427 C 150.410 158.262,150.938 158.052,151.173 157.959 C 152.529 157.426,153.921 160.731,152.808 161.843 C 150.961 163.690,149.830 163.881,142.089 163.648 C 137.816 163.520,134.495 163.237,134.238 162.980 C 133.772 162.514,133.425 137.950,133.877 137.461 C 134.172 137.143,152.706 137.618,154.904 138.000 M165.352 137.975 C 165.750 138.098,165.822 139.036,165.633 141.668 C 165.333 145.860,165.303 145.926,163.833 145.560 C 162.801 145.303,162.745 145.345,163.272 145.985 C 163.594 146.375,164.217 146.695,164.658 146.695 C 165.558 146.695,165.506 146.276,165.644 154.584 C 165.753 161.163,165.698 161.310,162.706 162.430 C 158.131 164.141,158.209 164.154,158.209 161.667 C 158.209 159.995,158.361 159.488,158.862 159.488 C 159.221 159.488,159.610 159.242,159.725 158.941 C 159.841 158.640,160.450 158.351,161.079 158.299 C 161.708 158.247,162.423 157.985,162.668 157.717 C 162.993 157.362,162.902 157.305,162.332 157.507 C 161.902 157.658,161.100 157.783,160.550 157.783 C 160.000 157.783,159.261 158.070,158.910 158.422 C 158.089 159.243,157.934 159.227,157.881 158.316 C 157.757 156.205,158.176 155.650,159.898 155.650 C 161.822 155.650,162.719 154.830,160.899 154.734 C 160.241 154.700,159.319 154.652,158.851 154.628 C 157.990 154.584,157.528 140.130,158.321 138.062 C 158.574 137.403,163.307 137.345,165.352 137.975 M232.601 141.240 C 233.425 143.709,233.583 143.896,235.341 144.478 L 237.206 145.096 236.961 147.170 C 236.523 150.867,237.682 152.517,241.258 153.287 L 242.644 153.586 242.644 158.409 L 242.644 163.233 241.045 163.434 C 240.165 163.544,234.840 163.537,229.211 163.419 L 218.977 163.202 218.977 156.983 L 218.977 150.764 220.682 149.831 C 223.372 148.361,223.896 148.400,224.457 150.107 C 224.809 151.181,225.403 151.822,226.578 152.396 C 227.475 152.834,228.420 153.654,228.677 154.218 C 228.934 154.783,229.637 155.368,230.239 155.519 C 230.841 155.670,231.685 156.241,232.116 156.788 C 232.546 157.335,233.077 157.783,233.297 157.783 C 233.984 157.783,232.750 156.210,231.469 155.453 C 230.796 155.056,229.779 153.991,229.209 153.088 C 228.479 151.932,227.820 151.405,226.986 151.309 C 225.502 151.139,225.075 148.068,226.226 145.843 C 226.602 145.116,226.794 144.156,226.653 143.711 C 226.386 142.872,228.184 141.578,229.616 141.578 C 230.056 141.578,230.277 141.178,230.277 140.384 C 230.277 137.337,231.441 137.765,232.601 141.240 M179.531 138.876 C 179.531 139.163,180.698 140.299,180.993 140.299 C 181.651 140.299,181.126 139.090,180.384 138.896 C 179.915 138.773,179.531 138.764,179.531 138.876 M227.292 139.872 C 227.292 140.399,225.724 142.004,225.210 142.004 C 225.002 142.004,224.740 142.359,224.627 142.792 C 224.447 143.481,221.489 144.446,221.014 143.971 C 220.273 143.229,223.129 141.051,225.537 140.522 C 226.272 140.361,226.764 140.053,226.631 139.837 C 226.498 139.622,226.592 139.446,226.841 139.446 C 227.089 139.446,227.292 139.638,227.292 139.872 M247.676 142.090 C 248.393 142.807,248.314 144.423,247.548 144.717 C 247.196 144.852,246.908 145.231,246.908 145.558 C 246.908 146.282,245.296 148.401,244.745 148.401 C 244.528 148.401,244.350 147.362,244.350 146.092 C 244.350 142.912,246.233 140.646,247.676 142.090 M178.909 143.691 C 178.461 144.185,177.267 144.799,176.254 145.054 C 175.242 145.308,174.414 145.707,174.414 145.938 C 174.414 146.170,174.718 146.243,175.091 146.100 C 175.463 145.957,176.525 145.719,177.451 145.571 C 178.479 145.407,179.307 144.982,179.574 144.482 C 180.254 143.211,179.815 142.689,178.909 143.691 M249.878 143.682 C 250.939 145.664,250.429 147.695,248.611 148.733 C 246.909 149.705,246.393 150.533,247.490 150.533 C 247.811 150.533,248.553 150.156,249.139 149.694 C 249.726 149.233,250.327 148.977,250.476 149.126 C 250.841 149.491,250.820 151.171,250.445 151.545 C 250.279 151.711,250.198 153.455,250.266 155.421 C 250.383 158.791,250.333 159.024,249.395 159.518 C 248.848 159.807,248.305 160.169,248.188 160.323 C 247.747 160.903,245.845 162.047,245.321 162.047 C 244.662 162.047,244.578 159.661,245.223 159.262 C 245.528 159.074,245.509 158.792,245.164 158.376 C 243.983 156.953,244.411 149.268,245.722 148.334 C 246.371 147.872,247.067 147.596,247.269 147.720 C 247.672 147.970,248.614 145.204,248.614 143.767 C 248.614 142.633,249.292 142.587,249.878 143.682 M169.582 145.659 C 170.678 147.645,170.789 148.401,169.985 148.401 C 169.217 148.401,168.211 146.843,167.815 145.039 C 167.386 143.085,168.347 143.422,169.582 145.659 M221.299 147.652 C 219.087 149.443,218.155 148.429,220.136 146.385 C 221.503 144.976,221.511 144.974,221.867 145.936 C 222.144 146.685,222.016 147.072,221.299 147.652 M185.608 145.960 C 184.701 146.375,184.276 147.137,184.968 147.108 C 185.444 147.088,186.960 145.877,186.749 145.686 C 186.649 145.596,186.135 145.719,185.608 145.960 M159.488 151.173 C 159.192 151.530,159.146 151.812,159.384 151.812 C 159.618 151.812,160.049 151.525,160.341 151.173 C 160.637 150.816,160.683 150.533,160.446 150.533 C 160.211 150.533,159.780 150.821,159.488 151.173 M180.832 152.272 C 179.815 154.512,179.799 154.765,180.600 155.824 C 181.172 156.579,181.212 156.528,181.158 155.107 C 181.127 154.265,181.437 153.063,181.848 152.435 C 182.377 151.629,182.462 151.162,182.141 150.841 C 181.820 150.519,181.437 150.938,180.832 152.272 M176.368 156.063 C 175.684 156.188,175.037 156.550,174.931 156.868 C 174.760 157.382,177.167 157.233,177.763 156.693 C 178.258 156.245,177.427 155.870,176.368 156.063 M156.283 157.889 C 156.381 158.182,156.530 159.513,156.612 160.846 C 156.781 163.567,156.589 163.736,153.309 163.747 L 151.608 163.753 152.806 162.642 C 153.790 161.729,153.982 161.232,153.882 159.846 C 153.735 157.808,155.713 156.196,156.283 157.889 M182.510 159.469 C 183.092 159.916,183.643 160.209,183.733 160.119 C 184.013 159.839,182.608 158.635,182.013 158.645 C 181.703 158.650,181.927 159.021,182.510 159.469 M250.554 162.081 C 250.710 162.334,249.925 163.392,248.808 164.432 C 246.462 166.616,246.477 167.083,248.854 165.871 C 250.871 164.843,251.272 165.390,249.881 167.272 C 249.161 168.247,249.026 168.749,249.349 169.265 C 250.613 171.290,249.914 174.681,247.939 176.099 C 246.903 176.843,246.055 177.742,246.055 178.096 C 246.055 178.835,244.722 178.730,244.469 177.972 C 244.379 177.701,244.939 176.757,245.713 175.875 C 246.792 174.646,246.903 174.387,246.190 174.768 C 244.077 175.898,244.546 174.123,247.043 171.535 C 248.241 170.294,248.573 169.723,248.098 169.723 C 247.716 169.723,246.959 170.442,246.415 171.322 L 245.426 172.921 245.052 170.881 C 244.721 169.073,244.781 168.753,245.580 168.059 C 246.614 167.163,246.830 166.344,245.810 167.191 C 244.889 167.955,244.322 167.017,244.646 165.265 C 245.063 163.009,249.612 160.557,250.554 162.081 M165.857 167.398 C 165.817 170.107,165.903 172.442,166.048 172.586 C 166.193 172.731,166.311 173.850,166.311 175.072 C 166.311 177.852,165.577 178.663,163.847 177.795 C 161.862 176.799,161.800 176.824,163.022 178.129 C 164.210 179.397,165.112 182.516,164.292 182.516 C 164.058 182.516,163.358 181.748,162.737 180.810 C 162.116 179.872,161.419 179.104,161.188 179.104 C 160.363 179.104,160.786 180.943,161.834 181.914 C 163.258 183.234,163.209 183.414,160.981 184.984 C 158.740 186.563,158.365 186.134,160.538 184.477 C 161.463 183.771,161.923 183.116,161.771 182.720 C 161.397 181.744,160.375 181.974,159.837 183.156 C 159.314 184.304,158.635 184.582,158.635 183.648 C 158.635 183.332,158.941 182.461,159.314 181.712 C 160.032 180.275,159.806 178.327,159.062 179.531 C 158.741 180.050,158.637 180.031,158.399 179.411 C 157.958 178.262,158.571 176.542,159.550 176.180 C 160.462 175.843,159.698 174.414,158.605 174.414 C 158.024 174.414,158.121 171.260,158.721 170.661 C 159.119 170.263,159.119 170.149,158.721 170.149 C 158.380 170.149,158.209 169.304,158.209 167.627 L 158.209 165.104 161.514 163.815 C 166.247 161.970,165.941 161.717,165.857 167.398 M149.254 165.401 C 149.254 166.752,147.582 168.408,145.649 168.972 C 143.082 169.720,139.019 173.520,139.019 175.172 C 139.019 175.836,138.539 177.030,137.953 177.825 C 136.430 179.890,136.637 180.241,138.380 178.549 C 139.539 177.423,139.872 176.758,139.872 175.568 C 139.872 173.805,140.668 173.046,141.338 174.171 C 141.587 174.588,142.319 175.608,142.964 176.436 C 143.609 177.265,144.136 178.384,144.136 178.925 C 144.136 179.465,144.328 180.026,144.563 180.171 C 145.612 180.819,144.868 177.865,143.497 175.936 C 141.188 172.689,141.541 171.247,145.014 169.753 C 146.219 169.235,147.447 168.904,147.744 169.018 C 148.328 169.242,150.107 166.437,150.107 165.294 C 150.107 164.722,150.643 164.606,153.265 164.606 L 156.423 164.606 156.570 170.682 C 156.650 174.025,156.653 179.102,156.575 181.965 L 156.433 187.170 145.700 186.959 C 139.798 186.842,134.677 186.660,134.321 186.553 C 133.766 186.387,133.693 185.271,133.813 178.787 L 133.953 171.215 135.314 169.986 C 136.236 169.152,136.399 168.858,135.821 169.074 C 133.640 169.889,133.680 169.927,133.833 167.187 L 133.978 164.606 141.616 164.606 C 148.785 164.606,149.254 164.654,149.254 165.401 M243.006 176.034 L 243.037 187.250 231.220 186.972 C 224.721 186.819,219.325 186.620,219.230 186.529 C 219.135 186.438,219.039 181.454,219.017 175.453 L 218.977 164.543 230.976 164.681 L 242.976 164.819 243.006 176.034 M186.030 165.879 C 185.191 167.222,185.443 167.907,186.368 166.797 C 186.829 166.243,187.207 165.620,187.207 165.411 C 187.207 164.751,186.579 165.001,186.030 165.879 M174.930 166.967 C 174.469 167.490,174.520 167.591,175.250 167.591 C 175.738 167.591,176.119 167.310,176.119 166.951 C 176.119 166.150,175.645 166.156,174.930 166.967 M183.805 169.830 L 182.394 171.642 184.033 170.057 C 184.934 169.185,185.569 168.370,185.444 168.245 C 185.319 168.120,184.582 168.833,183.805 169.830 M137.922 169.772 C 137.550 170.374,138.801 171.614,139.405 171.241 C 140.085 170.820,139.981 170.423,139.039 169.834 C 138.455 169.470,138.121 169.451,137.922 169.772 M122.698 171.321 C 122.293 171.769,121.962 172.648,121.962 173.275 C 121.962 173.901,121.770 174.414,121.535 174.414 C 121.301 174.414,121.109 174.588,121.109 174.800 C 121.109 175.013,121.518 175.080,122.019 174.949 C 122.676 174.777,122.871 174.877,122.722 175.308 C 122.608 175.637,122.103 175.891,121.599 175.872 C 120.495 175.832,120.389 176.759,121.429 177.365 C 121.843 177.606,121.938 177.805,121.642 177.812 C 120.792 177.833,121.025 178.557,121.960 178.801 C 122.680 178.989,122.771 178.866,122.553 177.998 C 122.361 177.233,122.470 176.972,122.981 176.972 C 123.821 176.972,123.873 175.752,123.082 174.615 C 121.965 173.009,123.732 170.670,125.165 171.860 C 125.669 172.277,125.931 172.277,126.438 171.856 C 126.966 171.418,127.370 171.592,128.784 172.870 C 130.695 174.596,131.890 174.999,130.258 173.367 C 129.682 172.791,129.211 171.905,129.211 171.398 C 129.211 170.609,129.042 170.517,128.038 170.756 C 126.638 171.091,126.392 171.091,124.724 170.762 C 123.771 170.574,123.243 170.720,122.698 171.321 M175.586 171.248 C 175.410 171.426,175.267 171.961,175.267 172.438 C 175.267 173.065,175.395 173.176,175.733 172.838 C 175.989 172.582,176.133 172.047,176.053 171.649 C 175.972 171.251,175.762 171.071,175.586 171.248 M161.677 173.404 C 160.888 173.748,160.342 174.130,160.465 174.253 C 160.587 174.375,161.425 174.086,162.326 173.610 C 164.217 172.613,163.796 172.479,161.677 173.404 M247.776 179.209 C 245.219 181.661,245.198 182.537,247.751 180.230 C 249.674 178.493,250.616 178.181,249.901 179.518 C 249.497 180.271,246.191 182.516,245.485 182.516 C 245.330 182.516,245.203 181.949,245.203 181.257 C 245.203 179.648,249.571 174.976,249.828 176.310 C 249.926 176.819,249.203 177.841,247.776 179.209 M116.492 177.959 C 115.158 179.379,115.351 179.714,116.861 178.598 C 117.922 177.814,118.301 177.731,118.955 178.139 C 119.585 178.532,119.801 178.514,119.978 178.054 C 120.497 176.699,117.746 176.625,116.492 177.959 M166.311 180.810 C 166.311 184.056,165.543 183.672,164.817 180.064 C 164.573 178.855,164.651 178.678,165.425 178.678 C 166.204 178.678,166.311 178.935,166.311 180.810 M123.477 179.489 C 122.702 179.793,122.714 179.832,123.658 180.078 C 124.742 180.362,125.373 180.151,125.373 179.506 C 125.373 179.037,124.648 179.031,123.477 179.489 M147.034 180.187 C 146.876 180.345,147.117 180.872,147.569 181.358 C 148.640 182.507,149.079 182.068,148.085 180.841 C 147.666 180.323,147.193 180.028,147.034 180.187 M113.199 182.791 C 112.019 184.065,111.674 186.003,112.793 185.075 C 113.145 184.783,113.433 184.270,113.433 183.936 C 113.433 183.601,114.012 183.084,114.719 182.787 C 115.427 182.489,115.875 182.115,115.714 181.955 C 115.139 181.379,114.227 181.683,113.199 182.791 M126.226 182.044 C 126.226 182.253,126.530 182.541,126.901 182.684 C 127.944 183.084,128.082 182.997,127.505 182.303 C 126.917 181.594,126.226 181.454,126.226 182.044 M129.873 182.491 C 128.599 183.899,129.362 184.343,130.684 182.963 C 131.556 182.053,131.733 181.663,131.276 181.663 C 130.917 181.663,130.285 182.036,129.873 182.491 M135.889 182.867 C 135.090 183.750,134.987 184.222,135.593 184.222 C 136.048 184.222,137.061 182.548,136.777 182.264 C 136.678 182.165,136.279 182.436,135.889 182.867 M124.461 183.332 C 123.907 183.781,123.585 184.280,123.746 184.441 C 124.136 184.833,124.842 184.360,125.386 183.345 C 125.943 182.303,125.734 182.300,124.461 183.332 M247.993 183.338 C 247.840 183.587,247.293 184.015,246.778 184.289 C 245.897 184.758,245.880 184.740,246.482 183.972 C 247.545 182.615,248.753 182.109,247.993 183.338 M251.201 185.164 C 250.439 185.936,249.224 187.383,248.503 188.380 C 247.027 190.417,246.508 190.588,245.705 189.302 C 245.201 188.496,245.229 188.437,246.003 188.683 C 246.606 188.874,246.994 188.697,247.324 188.080 C 247.581 187.600,248.072 187.207,248.416 187.207 C 248.759 187.207,249.041 187.004,249.041 186.755 C 249.041 185.860,251.743 182.915,252.171 183.344 C 252.442 183.615,252.104 184.250,251.201 185.164 M167.377 185.330 C 163.364 188.360,160.266 189.643,159.434 188.620 C 158.926 187.995,158.940 187.934,159.540 188.159 C 159.956 188.314,160.803 187.948,161.672 187.236 C 163.770 185.517,165.498 184.682,166.951 184.684 C 168.184 184.686,168.200 184.709,167.377 185.330 M169.014 188.187 C 170.023 190.313,169.126 192.570,166.739 193.911 C 164.252 195.308,164.114 194.835,166.525 193.177 C 168.469 191.839,168.499 191.783,168.212 190.044 C 167.834 187.757,167.807 187.740,166.323 188.836 C 164.839 189.934,164.606 189.974,164.606 189.136 C 164.606 188.607,167.200 186.860,168.075 186.799 C 168.224 186.789,168.647 187.413,169.014 188.187 M253.223 188.839 C 253.376 190.917,252.571 191.289,252.372 189.232 C 252.197 187.415,251.663 187.516,250.107 189.658 C 248.598 191.735,248.065 191.950,248.660 190.243 C 249.099 188.985,251.890 186.666,252.662 186.919 C 252.898 186.996,253.151 187.861,253.223 188.839 M243.817 188.710 C 244.110 188.807,244.350 189.190,244.350 189.563 C 244.350 190.170,242.920 190.226,230.490 190.109 C 216.713 189.979,215.900 189.900,217.431 188.827 C 218.188 188.297,242.243 188.190,243.817 188.710 M157.767 189.567 C 158.316 190.116,156.747 190.192,144.867 190.192 C 137.429 190.192,131.343 190.038,131.343 189.851 C 131.343 188.485,132.361 188.396,144.776 188.670 C 154.803 188.891,157.260 189.060,157.767 189.567 M111.919 189.306 C 111.696 189.522,110.842 189.888,110.021 190.120 L 108.529 190.541 110.156 190.580 C 111.866 190.620,113.433 190.020,113.433 189.324 C 113.433 188.801,112.451 188.789,111.919 189.306 M163.753 190.618 C 163.753 191.322,163.663 191.898,163.554 191.898 C 163.145 191.898,162.444 190.157,162.692 189.757 C 163.207 188.924,163.753 189.368,163.753 190.618 M162.241 192.644 C 162.401 193.174,162.348 193.603,162.121 193.603 C 161.656 193.603,161.194 192.588,161.194 191.564 C 161.194 190.679,161.852 191.358,162.241 192.644 M158.955 192.422 C 159.267 192.675,159.488 193.850,159.488 195.255 L 159.488 197.655 145.522 197.576 C 137.841 197.532,131.125 197.484,130.597 197.469 C 129.699 197.443,129.638 197.256,129.638 194.554 L 129.638 191.666 144.030 191.827 C 152.893 191.927,158.627 192.155,158.955 192.422 M246.211 194.456 C 246.061 195.981,245.874 197.304,245.794 197.396 C 245.537 197.694,215.574 197.399,215.300 197.095 C 215.154 196.934,215.126 195.650,215.237 194.243 L 215.439 191.684 230.961 191.684 L 246.483 191.684 246.211 194.456 M251.327 193.817 C 251.192 194.168,250.791 194.456,250.435 194.456 C 249.909 194.456,249.888 194.337,250.320 193.817 C 250.612 193.465,251.013 193.177,251.212 193.177 C 251.410 193.177,251.462 193.465,251.327 193.817 " stroke="none" fill="#000000" fill-rule="evenodd"></path></g></svg>