<svg id="svg" version="1.1" xmlns="http://www.w3.org/2000/svg" xmlns:xlink="http://www.w3.org/1999/xlink" width="400" height="218.3368869936034" viewBox="0, 0, 400,218.3368869936034"><g id="svgg"><path id="path0" d="M281.005 41.962 C 275.293 43.237,269.955 47.027,267.073 51.856 C 262.584 59.378,255.582 61.586,247.226 58.115 C 233.407 52.373,222.767 58.828,220.706 74.203 C 218.998 86.936,203.912 90.094,191.258 80.368 C 185.524 75.961,181.868 70.896,173.414 55.651 L 170.922 51.157 138.554 51.203 C 109.027 51.244,106.114 51.310,105.386 51.957 C 104.656 52.604,96.088 66.794,93.371 71.855 C 92.742 73.028,90.124 77.458,87.554 81.699 C 84.984 85.941,82.147 90.738,81.250 92.360 C 78.606 97.141,74.938 103.359,74.334 104.085 C 74.026 104.455,73.774 105.055,73.774 105.418 C 73.774 105.782,73.486 106.318,73.134 106.610 C 72.146 107.430,72.334 108.138,74.592 112.099 C 75.746 114.122,78.211 118.465,80.069 121.748 C 83.625 128.030,92.835 143.726,94.458 146.269 C 94.981 147.090,96.059 148.913,96.852 150.320 C 98.909 153.970,98.883 153.925,101.767 158.739 C 103.208 161.145,104.601 163.535,104.863 164.051 L 105.338 164.989 138.368 165.019 L 171.398 165.048 172.005 164.081 C 172.338 163.548,173.146 161.866,173.800 160.341 C 174.454 158.817,175.325 157.186,175.734 156.716 C 176.144 156.247,177.841 153.657,179.505 150.959 C 187.000 138.813,195.309 132.910,205.692 132.355 C 213.613 131.931,216.775 134.364,218.682 142.351 C 220.815 151.278,224.330 155.097,231.722 156.518 C 234.109 156.977,239.913 155.315,245.519 152.568 C 256.196 147.336,263.654 150.565,268.093 162.343 C 273.102 175.637,284.006 180.502,294.974 174.339 C 303.405 169.601,306.091 160.793,302.328 150.221 C 299.830 143.202,299.824 143.078,301.768 139.161 C 303.494 135.683,308.027 130.490,309.337 130.490 C 309.720 130.490,310.366 130.294,310.773 130.054 C 311.181 129.814,312.761 129.178,314.286 128.639 C 328.088 123.766,331.854 108.626,322.005 97.607 C 319.845 95.190,319.338 94.885,311.269 91.146 C 307.608 89.450,306.909 88.931,304.492 86.123 C 299.286 80.074,298.898 77.584,301.770 68.657 C 306.933 52.610,296.041 38.608,281.005 41.962 M280.810 46.039 C 280.810 46.383,280.205 46.837,279.464 47.049 C 276.991 47.759,272.417 51.612,270.267 54.797 C 269.159 56.439,268.055 57.735,267.815 57.676 C 267.559 57.614,267.373 58.498,267.367 59.808 C 267.329 67.880,263.070 72.318,254.797 72.906 C 251.445 73.144,251.162 73.222,252.561 73.524 C 254.040 73.843,257.095 73.626,259.006 73.065 C 259.549 72.906,259.741 73.014,259.611 73.405 C 258.965 75.344,253.178 75.484,250.419 73.627 C 243.871 69.221,233.549 72.629,231.116 80.001 C 230.336 82.362,230.931 82.164,232.123 79.665 C 233.966 75.801,237.393 73.273,242.130 72.285 C 244.542 71.782,250.902 73.908,252.078 75.611 C 252.679 76.480,260.508 74.913,262.336 73.558 L 263.326 72.824 262.367 73.046 C 261.010 73.360,261.156 73.135,263.241 71.700 C 265.361 70.242,267.424 66.688,268.170 63.211 C 270.464 52.513,280.518 44.667,287.420 48.188 C 288.340 48.657,289.435 49.025,289.855 49.007 C 290.556 48.976,287.674 47.406,285.550 46.662 C 284.798 46.398,284.904 46.318,286.187 46.178 C 289.103 45.862,295.886 48.975,297.552 51.394 C 300.061 55.039,301.450 63.028,299.899 64.897 C 299.609 65.246,299.105 66.283,298.779 67.201 C 298.453 68.119,297.229 70.442,296.060 72.362 C 291.130 80.460,293.231 86.670,302.406 91.119 C 304.333 92.054,304.557 92.276,303.838 92.538 C 302.992 92.846,304.414 93.229,309.382 94.033 C 319.106 95.606,326.789 106.303,323.926 114.282 C 323.583 115.237,323.616 115.286,324.246 114.763 C 325.314 113.877,325.166 115.157,323.892 117.830 C 322.763 120.199,318.337 125.302,317.841 124.806 C 317.677 124.642,318.153 123.878,318.899 123.108 C 319.645 122.338,320.256 121.560,320.256 121.380 C 320.256 121.199,320.713 120.441,321.272 119.694 C 322.334 118.275,323.810 115.565,323.522 115.565 C 323.430 115.565,322.817 116.381,322.161 117.377 C 318.998 122.183,314.683 126.153,311.194 127.468 C 309.423 128.136,309.762 127.786,312.560 126.059 C 315.793 124.064,318.456 121.400,319.888 118.729 C 321.502 115.716,321.840 114.052,320.275 116.818 C 318.339 120.241,315.642 122.727,310.837 125.517 C 307.932 127.203,307.860 126.907,310.584 124.479 C 312.618 122.666,315.565 119.088,315.565 118.432 C 315.565 118.334,314.536 119.232,313.279 120.427 C 310.311 123.251,301.188 130.655,297.696 133.075 C 290.232 138.250,283.972 130.883,289.883 123.881 C 292.548 120.724,294.227 115.632,293.454 113.053 C 292.522 109.939,286.790 104.995,282.261 103.397 C 281.335 103.070,279.317 102.098,277.775 101.236 L 274.973 99.668 270.639 99.890 C 262.913 100.284,258.275 103.425,255.173 110.364 C 253.184 114.812,252.535 116.056,251.679 117.058 C 246.468 123.157,234.843 125.011,228.606 120.737 C 220.205 114.979,205.282 117.238,194.670 125.875 C 189.326 130.223,186.984 132.779,182.062 139.633 C 180.955 141.175,178.252 143.331,178.252 142.672 C 178.252 142.544,179.547 140.886,181.130 138.987 C 186.590 132.437,186.984 131.074,181.649 137.187 C 179.663 139.464,176.880 142.582,175.464 144.117 C 174.048 145.652,172.159 148.115,171.265 149.591 C 169.159 153.068,164.098 156.751,156.048 160.663 L 153.246 162.024 131.031 162.035 C 118.812 162.041,108.535 162.153,108.193 162.285 C 107.502 162.549,106.004 160.274,98.065 146.908 C 95.418 142.452,91.132 135.256,88.539 130.917 C 85.947 126.578,81.866 119.602,79.470 115.415 L 75.114 107.803 76.920 104.967 C 77.914 103.408,79.711 100.405,80.913 98.294 C 82.116 96.183,84.159 92.729,85.453 90.618 C 86.747 88.507,89.206 84.414,90.918 81.522 C 92.629 78.630,97.005 71.255,100.641 65.133 L 107.253 54.002 120.284 53.833 C 131.769 53.685,133.382 53.745,133.874 54.338 C 134.181 54.708,134.841 55.011,135.340 55.012 C 135.839 55.013,137.783 55.603,139.659 56.322 C 141.535 57.042,144.893 58.260,147.122 59.030 C 149.350 59.799,152.282 60.937,153.637 61.558 C 156.354 62.802,156.503 62.843,156.503 62.338 C 156.503 61.898,151.617 59.898,143.923 57.191 C 136.400 54.543,136.461 54.568,136.461 54.112 C 136.461 52.953,146.179 53.725,149.963 55.185 C 154.265 56.844,160.895 59.919,162.473 60.986 C 163.060 61.382,164.627 62.428,165.957 63.310 C 169.268 65.506,169.856 66.195,175.063 73.987 C 177.571 77.740,179.731 80.906,179.864 81.023 C 180.371 81.471,174.549 71.769,173.467 70.362 C 173.015 69.776,172.099 68.402,171.431 67.309 C 169.620 64.345,163.107 59.807,156.886 57.172 C 150.812 54.601,149.624 53.731,152.184 53.731 C 157.343 53.731,170.147 62.668,174.484 69.296 C 176.492 72.365,180.515 78.634,181.795 80.689 C 182.191 81.325,182.948 82.073,183.475 82.350 C 184.387 82.828,184.401 82.813,183.755 82.045 C 183.381 81.600,182.038 79.525,180.770 77.434 C 173.458 65.370,170.324 61.465,165.990 59.020 C 164.877 58.392,162.849 57.234,161.485 56.445 C 160.120 55.657,158.537 54.895,157.966 54.752 C 156.347 54.345,156.749 53.731,158.635 53.731 C 159.574 53.731,160.341 53.920,160.341 54.152 C 160.341 54.383,161.530 55.172,162.984 55.906 C 166.142 57.500,169.273 59.767,171.756 62.256 C 175.480 65.990,187.704 85.583,185.435 84.181 C 185.128 83.991,185.059 84.064,185.251 84.376 C 185.421 84.651,185.730 84.770,185.939 84.641 C 186.147 84.512,186.594 84.941,186.932 85.594 C 187.269 86.246,188.846 88.507,190.435 90.618 C 192.025 92.729,192.956 94.175,192.505 93.831 C 188.211 90.556,184.397 86.973,182.541 84.469 C 181.310 82.808,180.231 81.450,180.144 81.450 C 179.785 81.450,180.569 83.013,181.428 84.009 C 181.934 84.595,182.863 85.849,183.492 86.795 C 186.255 90.948,199.287 100.855,203.732 102.180 C 204.846 102.513,205.987 103.092,206.268 103.469 C 207.676 105.355,216.540 102.747,219.659 99.529 C 220.431 98.733,221.270 98.081,221.523 98.081 C 222.273 98.081,225.501 91.254,226.059 88.486 C 226.346 87.065,226.595 82.231,226.619 77.612 C 226.669 68.161,226.970 67.031,230.340 63.628 C 234.845 59.077,241.570 59.392,248.139 64.460 C 251.173 66.802,260.841 64.461,263.516 60.737 C 265.109 58.518,265.558 58.529,264.819 60.767 C 264.222 62.575,261.610 64.662,259.433 65.070 C 258.637 65.220,257.883 65.509,257.757 65.714 C 257.375 66.331,260.209 65.614,262.325 64.558 C 264.769 63.338,265.902 61.950,266.255 59.747 C 266.403 58.817,266.775 57.803,267.081 57.493 C 267.386 57.183,268.432 55.490,269.404 53.731 C 271.782 49.427,273.093 48.015,276.119 46.499 C 278.788 45.162,280.810 44.964,280.810 46.039 M294.584 47.420 C 295.400 48.235,295.177 48.672,294.243 48.089 C 293.381 47.551,293.103 46.908,293.731 46.908 C 293.919 46.908,294.303 47.139,294.584 47.420 M290.832 49.372 C 290.832 49.542,291.674 50.129,292.704 50.675 C 294.991 51.888,296.517 53.435,297.631 55.666 C 298.094 56.596,298.481 57.081,298.490 56.744 C 298.530 55.310,296.625 52.371,294.873 51.166 C 292.861 49.782,290.832 48.881,290.832 49.372 M280.452 50.506 C 279.316 50.811,277.973 51.489,277.467 52.013 L 276.546 52.965 278.465 51.988 C 282.411 49.979,288.162 50.935,291.907 54.222 C 292.990 55.173,293.380 55.364,293.075 54.793 C 291.333 51.536,284.833 49.328,280.452 50.506 M165.038 54.260 C 165.712 54.681,166.058 54.681,166.732 54.260 C 168.403 53.217,169.444 54.415,173.494 62.047 C 173.618 62.281,172.432 61.277,170.859 59.814 C 169.286 58.351,167.475 57.029,166.835 56.875 C 165.256 56.495,162.473 55.074,162.473 54.647 C 162.473 53.647,163.749 53.455,165.038 54.260 M117.697 55.664 C 118.987 55.976,121.851 56.640,124.060 57.138 C 126.270 57.636,128.381 58.200,128.751 58.390 C 129.616 58.835,132.920 59.436,132.573 59.086 C 131.948 58.455,117.581 54.954,116.022 55.053 C 115.653 55.076,116.407 55.351,117.697 55.664 M295.766 57.996 C 295.935 58.582,296.157 60.251,296.260 61.705 C 296.453 64.440,296.549 64.119,292.881 72.921 C 291.578 76.046,291.209 81.021,292.074 83.795 C 293.112 87.123,294.308 89.814,294.964 90.299 C 296.257 91.254,296.441 90.861,295.365 89.446 C 292.353 85.487,291.366 78.075,293.316 74.067 C 297.068 66.355,298.125 60.214,296.125 57.750 C 295.487 56.964,295.472 56.974,295.766 57.996 M243.797 59.537 C 253.497 63.269,254.624 63.372,259.869 61.008 C 263.481 59.379,263.719 59.522,261.153 61.781 C 257.127 65.324,252.982 65.437,246.269 62.186 C 235.298 56.874,226.717 60.771,225.713 71.522 C 225.410 74.768,224.307 74.339,224.307 70.974 C 224.307 61.986,234.546 55.978,243.797 59.537 M133.689 59.701 C 134.943 60.240,136.868 60.240,136.034 59.701 C 135.682 59.474,134.819 59.299,134.115 59.312 C 133.017 59.332,132.956 59.387,133.689 59.701 M159.360 64.237 C 159.211 64.385,159.914 65.054,160.922 65.721 C 165.293 68.616,171.952 76.070,174.211 80.597 C 178.265 88.719,190.192 100.113,197.548 102.890 C 199.100 103.476,198.170 102.806,194.448 100.658 C 190.908 98.615,185.489 94.025,181.896 90.026 C 180.574 88.554,177.099 83.455,174.426 79.064 C 171.947 74.991,167.258 69.818,162.816 66.256 C 159.781 63.822,159.777 63.820,159.360 64.237 M149.467 66.397 C 150.265 67.248,154.784 70.789,155.072 70.789 C 156.518 70.789,166.564 80.445,171.266 86.354 C 172.476 87.874,170.546 84.807,168.717 82.303 C 165.920 78.473,156.534 69.936,155.121 69.936 C 154.893 69.936,154.008 69.390,153.153 68.722 C 151.346 67.310,148.843 65.731,149.467 66.397 M254.051 66.825 C 254.579 66.927,255.442 66.927,255.970 66.825 C 256.498 66.724,256.066 66.641,255.011 66.641 C 253.955 66.641,253.523 66.724,254.051 66.825 M276.094 70.538 C 270.576 72.941,267.116 82.339,269.920 87.308 C 271.466 90.048,275.211 92.357,276.972 91.657 C 277.757 91.345,277.742 91.316,276.797 91.288 C 266.002 90.973,269.514 70.847,280.392 70.683 C 281.593 70.665,282.133 70.517,281.792 70.301 C 280.940 69.761,277.554 69.902,276.094 70.538 M296.292 76.621 C 295.854 79.626,295.881 80.233,296.511 81.559 C 296.905 82.391,297.228 83.267,297.228 83.507 C 297.228 83.747,297.899 84.821,298.718 85.895 C 300.491 88.218,300.012 88.433,297.706 86.349 C 295.000 83.905,294.143 77.904,295.955 74.092 C 296.782 72.353,296.846 72.827,296.292 76.621 M298.150 76.582 C 297.972 80.025,299.156 83.544,301.354 86.112 C 303.202 88.272,302.604 88.384,300.441 86.284 C 297.901 83.817,296.889 80.391,297.428 76.080 C 297.831 72.853,298.324 73.196,298.150 76.582 M225.618 81.765 C 225.366 82.317,225.153 83.672,225.145 84.775 C 225.032 99.956,209.282 105.502,197.655 94.455 C 196.247 93.118,195.855 92.648,196.782 93.410 C 206.785 101.632,219.881 98.611,223.037 87.355 L 223.438 85.928 221.939 87.714 C 219.729 90.350,215.656 93.241,213.110 93.982 C 210.079 94.863,208.416 96.124,210.792 95.738 C 214.235 95.179,217.165 93.689,219.566 91.275 L 221.916 88.913 220.446 90.992 C 215.124 98.523,205.512 99.463,198.081 93.179 L 196.802 92.097 199.360 93.211 C 203.325 94.936,205.127 95.525,206.344 95.492 C 207.057 95.473,206.536 95.195,204.904 94.725 C 199.472 93.162,190.942 86.759,188.922 82.729 C 188.574 82.035,189.260 82.503,190.889 84.072 C 194.108 87.171,200.758 90.370,206.267 91.470 C 207.733 91.763,211.959 90.676,213.433 89.627 L 214.286 89.021 213.433 89.333 C 208.874 91.000,204.581 90.755,199.500 88.536 C 197.466 87.648,195.469 86.553,195.063 86.104 C 194.127 85.070,194.496 85.073,196.539 86.116 C 200.133 87.949,205.961 89.239,209.168 88.910 C 210.810 88.742,212.645 88.562,213.246 88.510 C 214.655 88.388,218.483 84.578,220.920 80.871 C 223.092 77.567,223.219 77.545,222.336 80.620 C 219.254 91.361,209.757 95.313,199.333 90.192 C 194.563 87.848,194.020 87.664,195.506 88.895 C 206.179 97.735,221.710 92.621,224.305 79.411 C 225.039 75.672,225.263 75.480,225.686 78.226 C 225.948 79.930,225.926 81.089,225.618 81.765 M272.719 77.591 C 272.361 78.283,272.089 79.482,272.115 80.256 C 272.159 81.592,272.180 81.572,272.516 79.871 C 272.711 78.885,273.080 77.685,273.337 77.205 C 273.594 76.725,273.706 76.333,273.587 76.333 C 273.467 76.333,273.077 76.899,272.719 77.591 M286.463 80.810 C 286.575 81.397,286.857 81.876,287.089 81.876 C 287.321 81.876,287.395 81.573,287.252 81.202 C 287.110 80.831,286.994 80.351,286.994 80.136 C 286.994 79.920,286.828 79.744,286.626 79.744 C 286.424 79.744,286.351 80.224,286.463 80.810 M271.671 84.385 C 271.639 85.987,272.968 88.463,274.092 88.894 C 274.616 89.095,274.536 88.871,273.808 88.096 C 273.251 87.503,272.549 86.101,272.247 84.980 C 271.732 83.063,271.698 83.028,271.671 84.385 M169.527 87.424 C 176.180 95.540,180.947 99.667,187.057 102.600 C 192.895 105.402,194.854 105.471,189.339 102.680 C 182.573 99.257,180.418 97.697,174.284 91.785 C 171.189 88.802,169.049 86.839,169.527 87.424 M229.727 89.014 C 227.887 93.911,225.494 98.113,223.949 99.163 C 222.083 100.431,222.450 100.525,224.728 99.363 C 226.659 98.378,228.911 94.729,230.061 90.723 C 230.964 87.575,230.726 86.356,229.727 89.014 M291.492 89.432 C 294.485 92.266,298.275 94.045,303.579 95.104 C 311.705 96.728,317.150 101.690,317.321 107.629 C 317.424 111.202,318.020 112.132,318.073 108.803 C 318.195 101.255,312.606 95.370,304.051 94.036 C 299.269 93.291,297.473 92.593,293.044 89.761 L 289.339 87.393 291.492 89.432 M242.307 90.161 C 239.291 91.596,235.589 94.495,232.553 97.796 C 227.766 103.003,223.408 105.184,216.868 105.649 C 214.145 105.843,213.685 105.968,214.523 106.289 C 219.394 108.155,228.038 104.268,233.902 97.575 C 240.532 90.008,248.259 88.260,252.134 93.450 C 255.049 97.353,253.130 107.466,248.744 111.316 C 244.814 114.767,237.109 116.997,232.602 115.987 C 229.501 115.292,229.884 115.789,233.233 116.806 C 240.447 118.997,249.140 114.954,252.402 107.889 C 254.027 104.370,254.741 96.176,253.612 94.004 C 251.498 89.939,246.408 88.209,242.307 90.161 M242.431 94.221 C 240.208 95.132,239.296 95.754,238.859 96.656 C 238.537 97.323,237.684 98.491,236.963 99.254 C 235.413 100.894,235.804 101.089,237.604 99.574 C 238.301 98.987,239.325 98.507,239.880 98.507 C 240.434 98.507,241.019 98.295,241.180 98.035 C 241.384 97.705,241.039 97.653,240.032 97.863 L 238.593 98.163 239.743 96.982 L 240.893 95.800 243.581 96.580 C 250.606 98.617,250.895 104.570,244.214 109.619 C 240.762 112.229,231.710 114.032,229.094 112.631 C 228.595 112.364,226.691 112.058,224.861 111.951 C 222.221 111.796,221.931 111.830,223.454 112.118 C 224.510 112.317,226.800 112.905,228.543 113.424 C 236.634 115.835,245.931 112.194,250.610 104.782 C 252.641 101.565,251.258 94.903,248.328 93.789 C 246.176 92.971,245.331 93.032,242.431 94.221 M248.996 95.750 C 250.878 97.894,250.838 99.359,248.945 97.631 C 248.190 96.940,247.219 96.375,246.789 96.375 C 244.382 96.375,242.087 95.410,243.125 94.834 C 245.152 93.710,247.531 94.082,248.996 95.750 M277.906 101.767 C 277.695 101.978,275.480 101.174,275.480 100.886 C 275.480 100.775,276.065 100.888,276.781 101.138 C 277.496 101.387,278.003 101.670,277.906 101.767 M211.940 102.345 C 211.940 102.580,211.472 102.772,210.899 102.772 C 210.327 102.772,209.740 102.580,209.595 102.345 C 209.441 102.097,209.875 101.919,210.636 101.919 C 211.353 101.919,211.940 102.111,211.940 102.345 M276.119 102.720 C 288.043 106.422,293.402 111.462,291.873 117.532 C 291.273 119.911,290.401 119.937,290.945 117.560 C 291.620 114.609,289.546 108.742,287.827 108.742 C 287.571 108.742,287.746 109.281,288.215 109.939 C 290.356 112.947,291.280 119.364,289.531 119.084 C 289.106 119.016,288.672 119.549,288.315 120.577 C 288.010 121.456,287.258 122.942,286.645 123.881 C 282.427 130.329,287.012 138.086,294.350 136.918 C 296.052 136.647,296.376 136.704,296.377 137.274 C 296.378 137.659,296.745 137.352,297.223 136.567 C 297.688 135.805,298.400 135.181,298.805 135.181 C 299.210 135.181,299.963 134.654,300.479 134.009 C 300.994 133.364,301.537 132.956,301.685 133.102 C 301.833 133.249,301.471 133.943,300.880 134.645 C 298.300 137.712,297.662 146.370,299.653 151.313 C 303.731 161.441,294.721 173.986,284.716 172.109 C 281.331 171.474,272.943 160.627,272.908 156.840 C 272.897 155.665,272.823 155.560,272.453 156.197 C 271.587 157.685,275.304 164.392,279.465 168.848 C 282.288 171.872,279.845 169.896,276.444 166.405 C 274.469 164.378,272.860 162.227,271.978 160.435 L 270.598 157.633 270.587 150.352 C 270.574 142.067,269.741 139.155,266.595 136.392 L 265.087 135.068 260.582 135.300 C 255.717 135.551,251.599 136.294,251.599 136.922 C 251.599 137.475,253.490 137.384,256.716 136.674 C 262.604 135.379,265.084 135.864,267.207 138.728 C 270.018 142.520,268.866 142.588,265.268 138.843 C 263.879 137.397,263.657 137.317,261.217 137.376 L 258.635 137.439 261.018 137.696 C 264.355 138.056,269.012 142.139,269.702 145.309 C 270.042 146.873,269.745 147.034,268.522 145.949 C 267.836 145.340,267.876 145.518,268.739 146.908 C 269.816 148.643,270.602 151.386,270.022 151.386 C 269.847 151.386,269.363 150.753,268.946 149.979 C 264.882 142.433,255.733 140.740,247.699 146.048 C 241.965 149.835,232.135 149.432,228.463 145.258 C 227.817 144.524,226.140 141.716,224.736 139.019 C 221.018 131.877,218.880 129.921,212.580 127.896 C 209.447 126.888,203.792 127.158,202.313 128.385 C 202.002 128.644,201.402 128.785,200.980 128.699 C 200.545 128.610,201.630 128.021,203.489 127.338 C 211.780 124.289,220.732 128.119,225.810 136.887 C 228.822 142.086,233.264 145.859,236.337 145.828 C 237.560 145.815,237.412 145.702,235.181 144.944 C 232.047 143.878,228.955 141.056,227.421 137.860 C 225.934 134.764,221.970 130.174,219.039 128.154 C 216.487 126.395,216.367 125.636,218.841 126.894 C 219.619 127.289,221.527 128.548,223.080 129.691 C 226.453 132.174,227.856 132.492,224.809 130.083 C 223.636 129.156,222.550 128.194,222.396 127.945 C 221.779 126.946,218.725 125.835,215.323 125.372 C 213.345 125.103,211.663 124.706,211.585 124.489 C 211.507 124.271,210.931 124.080,210.306 124.064 C 208.670 124.021,207.264 123.405,208.102 123.099 C 214.285 120.839,222.848 121.872,228.829 125.600 C 232.493 127.884,235.663 129.344,236.374 129.075 C 236.656 128.968,235.736 128.362,234.328 127.727 C 232.921 127.093,230.850 125.914,229.726 125.108 C 228.601 124.302,226.203 122.881,224.395 121.950 C 222.588 121.019,221.493 120.257,221.962 120.257 C 223.052 120.256,227.241 122.240,230.326 124.217 C 232.694 125.735,232.748 125.747,235.443 125.341 C 243.097 124.189,244.670 124.445,238.484 125.836 C 234.914 126.638,235.521 126.930,239.279 126.217 C 246.332 124.880,253.161 118.738,255.390 111.727 C 255.822 110.369,258.416 106.034,258.420 106.663 C 258.423 107.033,256.507 111.385,254.876 114.712 C 254.129 116.237,252.453 118.587,251.152 119.936 C 248.536 122.646,248.886 123.296,251.628 120.819 C 252.945 119.629,254.251 117.459,257.037 111.833 C 260.930 103.970,261.322 103.515,265.245 102.318 C 267.362 101.671,273.470 101.897,276.119 102.720 M271.773 103.022 C 271.963 103.225,273.293 103.630,274.729 103.923 C 277.288 104.445,280.810 106.434,285.027 109.740 C 286.205 110.663,286.547 110.799,286.207 110.211 C 284.271 106.856,278.763 103.741,273.348 102.938 C 272.274 102.779,271.580 102.816,271.773 103.022 M286.732 103.547 C 286.900 103.818,288.050 104.334,289.288 104.694 C 295.839 106.599,298.546 114.277,295.120 121.235 C 294.318 122.863,294.137 123.471,294.649 122.814 C 299.790 116.226,297.058 106.014,289.632 104.061 C 288.621 103.795,287.486 103.460,287.110 103.315 C 286.660 103.143,286.531 103.221,286.732 103.547 M326.207 108.507 C 326.236 111.035,325.511 109.799,325.220 106.823 C 324.980 104.374,324.996 104.319,325.579 105.544 C 325.913 106.247,326.196 107.581,326.207 108.507 M322.044 108.789 C 321.999 109.636,321.861 111.267,321.737 112.414 C 321.552 114.141,321.591 114.319,321.969 113.453 C 322.219 112.878,322.357 111.247,322.275 109.829 C 322.193 108.410,322.089 107.942,322.044 108.789 M204.478 110.318 C 194.365 111.653,187.999 114.701,181.876 121.141 C 180.251 122.850,180.099 123.105,181.237 122.213 C 190.434 115.006,193.801 113.279,200.853 112.157 C 204.241 111.618,217.882 111.730,219.403 112.309 C 219.872 112.488,219.764 112.347,219.163 111.996 C 216.888 110.666,208.822 109.744,204.478 110.318 M287.009 110.260 C 287.036 110.975,288.243 112.825,288.244 112.154 C 288.245 111.802,287.964 111.141,287.620 110.686 C 287.275 110.231,287.000 110.039,287.009 110.260 M205.757 115.001 C 195.848 116.383,179.138 128.415,173.226 138.425 C 166.906 149.126,160.273 154.435,147.131 159.307 C 142.730 160.939,144.046 161.113,148.784 159.525 C 159.911 155.798,167.886 149.468,173.570 139.851 C 176.343 135.159,180.571 130.491,185.035 127.191 C 186.816 125.875,188.936 124.303,189.747 123.699 C 197.328 118.054,202.783 115.975,211.087 115.569 C 216.651 115.296,216.708 115.284,212.793 115.207 C 210.565 115.163,208.358 115.059,207.889 114.975 C 207.420 114.891,206.461 114.903,205.757 115.001 M204.085 117.928 C 202.697 118.505,201.368 118.977,201.131 118.977 C 197.959 118.977,176.125 137.448,172.948 142.821 C 172.381 143.778,182.191 134.631,188.046 128.743 C 193.572 123.185,196.042 121.552,203.198 118.724 C 205.778 117.704,207.601 116.872,207.249 116.875 C 206.898 116.878,205.474 117.352,204.085 117.928 M216.942 120.513 C 216.801 120.655,215.282 120.929,213.566 121.123 C 211.851 121.316,210.080 121.617,209.632 121.791 C 209.066 122.010,208.909 121.956,209.119 121.614 C 209.287 121.344,210.038 120.945,210.789 120.728 C 212.313 120.287,217.344 120.111,216.942 120.513 M207.889 122.388 C 206.627 122.930,205.131 122.930,205.970 122.388 C 206.322 122.161,207.090 121.985,207.676 121.998 C 208.652 122.020,208.670 122.052,207.889 122.388 M213.433 123.869 L 211.727 124.486 213.646 124.220 C 221.145 123.181,227.201 125.496,232.766 131.530 C 238.376 137.614,239.751 138.643,242.139 138.546 C 242.909 138.515,242.656 138.379,241.365 138.130 C 239.853 137.839,239.051 137.329,237.588 135.725 C 231.525 129.080,228.123 126.040,224.908 124.392 C 222.981 123.404,215.641 123.069,213.433 123.869 M208.740 124.486 C 209.399 124.743,209.108 124.891,207.461 125.137 C 204.771 125.540,198.849 127.910,196.276 129.615 C 195.195 130.331,194.103 130.910,193.850 130.902 C 193.249 130.881,195.801 128.790,196.430 128.787 C 196.694 128.786,197.167 128.476,197.480 128.099 C 199.116 126.128,206.707 123.692,208.740 124.486 M211.372 128.822 C 217.730 129.706,219.729 131.309,223.285 138.377 C 229.557 150.841,236.187 152.971,249.177 146.697 C 258.121 142.377,262.624 142.896,267.058 148.757 C 268.334 150.445,269.078 151.860,269.070 152.583 C 269.058 153.653,269.025 153.673,268.586 152.878 C 265.060 146.501,257.913 143.298,253.203 145.984 C 252.204 146.554,250.875 147.139,250.250 147.283 C 249.626 147.427,247.227 148.440,244.920 149.532 C 234.399 154.515,225.691 150.707,223.317 140.085 C 223.210 139.603,223.106 139.882,223.080 140.725 C 222.876 147.172,228.638 152.092,237.019 152.629 C 237.326 152.649,237.443 152.883,237.279 153.148 C 236.692 154.097,230.041 153.331,228.181 152.100 C 224.651 149.764,222.683 146.428,221.524 140.816 C 219.704 132.009,216.318 129.499,206.554 129.722 C 200.336 129.864,199.787 129.666,204.401 128.946 C 206.085 128.684,207.593 128.444,207.752 128.413 C 207.911 128.383,209.540 128.567,211.372 128.822 M172.689 131.023 C 170.138 134.151,169.778 134.689,170.832 133.793 C 171.685 133.069,174.619 129.211,174.317 129.211 C 174.235 129.211,173.503 130.027,172.689 131.023 M296.162 130.387 C 294.003 131.510,292.343 131.730,290.405 131.149 C 289.753 130.953,289.970 131.183,290.962 131.739 L 292.584 132.649 295.113 131.514 C 296.504 130.890,297.860 130.117,298.127 129.795 C 298.744 129.052,298.711 129.062,296.162 130.387 M198.913 130.462 C 198.690 130.681,197.068 131.606,195.309 132.518 C 193.550 133.429,191.363 134.629,190.450 135.183 C 189.304 135.879,188.847 136.002,188.977 135.580 C 189.080 135.243,191.267 133.872,193.836 132.533 C 198.326 130.192,199.798 129.592,198.913 130.462 M251.636 139.900 C 247.167 142.344,247.029 143.110,251.425 141.073 C 255.128 139.357,258.528 139.189,261.333 140.585 C 262.957 141.393,263.092 141.409,262.467 140.717 C 260.229 138.245,255.338 137.876,251.636 139.900 M297.501 139.535 C 297.357 140.072,297.267 141.759,297.300 143.284 C 297.360 146.055,297.360 146.055,297.652 142.431 C 297.961 138.597,297.927 137.945,297.501 139.535 M165.830 141.857 C 163.456 144.720,148.464 152.997,143.643 154.107 C 142.013 154.482,138.435 156.062,138.674 156.301 C 138.895 156.521,143.749 155.143,146.482 154.084 C 147.420 153.720,148.951 153.142,149.885 152.799 C 156.714 150.290,166.738 143.454,166.738 141.306 C 166.738 140.972,166.389 141.184,165.830 141.857 M294.891 145.172 C 295.030 146.563,295.763 148.508,297.062 150.929 C 299.886 156.192,300.170 156.161,297.670 150.863 C 296.484 148.348,295.327 145.566,295.098 144.680 C 294.698 143.129,294.690 143.146,294.891 145.172 M175.875 145.736 C 175.453 146.381,174.061 148.635,172.783 150.746 C 168.341 158.085,165.512 160.501,160.063 161.611 C 156.881 162.260,155.702 161.992,157.805 161.099 C 163.221 158.797,169.621 153.867,171.724 150.375 C 173.625 147.218,175.688 144.563,176.240 144.563 C 176.462 144.563,176.298 145.091,175.875 145.736 M175.407 150.426 C 171.468 157.995,169.744 160.436,167.683 161.366 C 164.828 162.653,164.051 162.072,166.386 160.395 C 168.699 158.733,172.816 153.408,174.192 150.299 C 174.999 148.474,177.547 144.989,178.075 144.989 C 178.164 144.989,176.963 147.436,175.407 150.426 M245.416 145.673 C 244.478 146.012,243.230 146.668,242.644 147.132 L 241.578 147.976 243.284 147.384 C 245.851 146.493,247.335 145.747,247.335 145.347 C 247.335 145.150,247.287 145.004,247.228 145.023 C 247.170 145.042,246.354 145.334,245.416 145.673 M260.811 146.471 C 264.296 147.506,267.332 151.159,269.683 157.143 C 271.099 160.749,272.789 163.479,275.888 167.164 C 279.181 171.082,279.162 171.066,282.268 172.618 L 285.075 174.020 282.765 173.846 C 280.871 173.704,280.307 173.470,279.637 172.550 C 279.188 171.933,278.615 171.429,278.364 171.429 C 277.640 171.429,273.208 166.661,272.411 165.025 C 272.013 164.208,270.600 161.102,269.271 158.124 C 266.173 151.181,263.221 148.000,259.045 147.104 C 257.647 146.804,256.215 146.404,255.864 146.214 C 254.733 145.603,258.559 145.802,260.811 146.471 M124.947 159.306 C 122.484 159.851,119.701 160.597,118.763 160.965 L 117.058 161.635 119.440 161.419 C 120.751 161.300,122.992 160.829,124.422 160.373 C 125.852 159.916,128.121 159.339,129.465 159.090 C 130.809 158.842,132.005 158.542,132.123 158.424 C 132.597 157.950,129.179 158.370,124.947 159.306 M297.713 159.915 C 295.634 166.782,292.413 169.047,285.539 168.476 L 282.166 168.196 279.389 165.228 C 277.435 163.139,276.855 162.687,277.432 163.703 C 277.883 164.496,279.218 166.175,280.400 167.434 L 282.548 169.723 286.251 169.723 C 293.540 169.723,299.089 164.920,298.431 159.182 C 298.308 158.114,298.236 158.188,297.713 159.915 M295.926 169.980 C 294.366 171.611,290.378 173.765,289.475 173.464 C 289.178 173.365,289.986 172.797,291.269 172.201 C 292.553 171.605,294.349 170.516,295.261 169.781 C 297.461 168.006,297.735 168.088,295.926 169.980 " stroke="none" fill="#000000" fill-rule="evenodd"></path></g></svg>