<svg id="svg" version="1.1" xmlns="http://www.w3.org/2000/svg" xmlns:xlink="http://www.w3.org/1999/xlink" width="400" height="218.3368869936034" viewBox="0, 0, 400,218.3368869936034"><g id="svgg"><path id="path0" d="M76.333 25.048 C 75.746 25.157,75.126 25.466,74.953 25.736 C 74.570 26.336,74.532 38.164,74.903 41.258 L 75.172 43.497 83.607 43.497 C 88.246 43.497,92.345 43.380,92.716 43.238 C 93.975 42.755,93.703 25.343,92.431 25.002 C 91.337 24.709,77.951 24.747,76.333 25.048 M105.011 25.053 L 97.228 25.179 97.228 34.346 L 97.228 43.513 106.503 43.399 L 115.778 43.284 115.893 34.274 L 116.008 25.264 115.040 25.004 C 114.508 24.862,113.785 24.786,113.433 24.836 C 113.081 24.885,109.291 24.983,105.011 25.053 M122.672 25.125 L 120.183 25.373 120.158 34.328 L 120.132 43.284 128.970 43.287 C 133.832 43.289,138.004 43.171,138.241 43.024 C 138.757 42.706,138.563 26.083,138.035 25.267 C 137.672 24.706,127.788 24.615,122.672 25.125 M143.390 25.173 C 142.439 25.555,142.431 25.635,142.431 34.260 L 142.431 42.961 149.574 43.141 C 153.502 43.239,157.628 43.244,158.742 43.152 L 160.768 42.984 160.768 34.133 L 160.768 25.281 158.146 25.007 C 154.353 24.611,144.514 24.721,143.390 25.173 M137.039 27.825 C 137.151 28.822,137.211 32.324,137.171 35.608 L 137.100 41.578 129.318 41.694 L 121.535 41.810 121.535 34.137 L 121.535 26.465 126.972 26.331 C 129.963 26.258,133.405 26.156,134.622 26.105 L 136.835 26.013 137.039 27.825 M156.183 26.357 L 159.488 26.439 159.488 34.115 L 159.488 41.791 151.866 41.791 L 144.243 41.791 143.977 40.458 C 143.559 38.371,143.665 27.747,144.111 26.913 C 144.528 26.135,145.463 26.092,156.183 26.357 M164.284 34.720 C 164.414 39.579,164.645 43.679,164.798 43.831 C 165.028 44.061,174.563 44.707,181.023 44.930 L 182.729 44.989 182.576 36.247 C 182.385 25.328,183.422 26.390,172.682 26.111 L 164.048 25.886 164.284 34.720 M92.111 34.115 L 92.111 41.791 84.284 41.791 L 76.458 41.791 76.182 38.528 C 76.030 36.734,75.906 33.280,75.906 30.853 L 75.906 26.439 84.009 26.439 L 92.111 26.439 92.111 34.115 M114.286 34.115 L 114.286 41.791 106.610 41.791 L 98.934 41.791 98.926 40.405 C 98.921 39.643,98.798 36.189,98.651 32.729 L 98.385 26.439 106.335 26.439 L 114.286 26.439 114.286 34.115 M178.891 27.649 L 181.023 27.932 181.304 35.608 C 181.459 39.829,181.530 43.340,181.463 43.409 C 181.346 43.529,166.187 42.614,166.017 42.477 C 165.753 42.263,165.387 29.340,165.619 28.415 L 165.901 27.292 171.330 27.329 C 174.316 27.350,177.719 27.494,178.891 27.649 M185.370 34.801 C 185.616 46.105,185.356 45.629,191.289 45.629 C 192.061 45.629,194.950 46.211,197.708 46.922 C 204.362 48.638,203.857 49.211,203.620 40.209 C 203.385 31.227,203.167 29.539,202.204 29.234 C 200.775 28.781,192.862 27.698,189.084 27.438 L 185.204 27.172 185.370 34.801 M195.722 29.405 C 202.326 30.451,202.106 30.269,202.161 34.755 C 202.184 36.631,202.289 40.061,202.394 42.376 C 202.586 46.578,202.584 46.586,201.613 46.384 C 201.078 46.273,198.721 45.771,196.375 45.267 C 194.030 44.764,191.027 44.245,189.702 44.113 C 186.707 43.814,186.794 44.084,186.786 35.018 L 186.780 28.033 188.380 28.264 C 189.259 28.391,192.563 28.905,195.722 29.405 M206.161 31.438 C 206.307 31.819,206.524 35.680,206.644 40.018 C 206.901 49.343,206.449 48.281,210.772 49.700 C 212.705 50.335,216.463 51.707,219.123 52.750 C 221.784 53.793,224.012 54.584,224.073 54.508 C 224.135 54.433,224.031 53.028,223.842 51.386 C 223.653 49.744,223.486 46.578,223.471 44.350 C 223.424 37.177,222.903 36.277,217.910 34.759 C 217.324 34.580,215.117 33.713,213.006 32.832 C 208.429 30.920,205.753 30.375,206.161 31.438 M213.943 34.355 C 222.217 37.721,222.349 37.835,222.026 41.289 C 221.884 42.814,221.983 45.954,222.246 48.266 C 222.831 53.416,223.179 53.164,218.233 51.174 C 215.962 50.260,212.754 49.110,211.103 48.619 L 208.102 47.725 208.100 44.651 C 208.099 42.961,207.974 39.419,207.822 36.780 C 207.670 34.142,207.673 31.983,207.830 31.983 C 207.986 31.983,210.737 33.050,213.943 34.355 M225.505 40.309 C 225.382 40.432,225.518 42.015,225.808 43.827 C 226.097 45.639,226.469 48.561,226.635 50.320 C 227.158 55.873,229.755 59.701,233.000 59.701 C 233.222 59.701,235.675 60.788,238.452 62.117 C 244.284 64.907,244.134 64.930,243.308 61.363 C 242.960 59.863,242.468 57.004,242.213 55.011 C 241.115 46.423,242.045 47.667,233.566 43.449 C 227.100 40.232,226.007 39.806,225.505 40.309 M233.593 44.744 C 240.574 48.193,239.909 47.470,240.507 52.261 C 240.769 54.360,241.269 57.396,241.618 59.009 C 242.416 62.699,242.750 62.605,237.273 60.231 C 228.564 56.457,228.541 56.430,227.584 48.614 C 227.224 45.682,226.799 42.948,226.639 42.537 C 226.145 41.271,227.318 41.643,233.593 44.744 M104.904 46.453 L 97.441 46.695 97.326 55.757 L 97.211 64.819 105.927 64.819 C 110.720 64.819,114.946 64.702,115.317 64.560 C 116.262 64.197,116.348 46.482,115.405 46.482 C 115.083 46.482,114.267 46.421,113.593 46.346 C 112.918 46.271,109.009 46.319,104.904 46.453 M74.873 46.856 C 74.746 47.061,74.765 51.187,74.915 56.024 L 75.189 64.819 84.289 64.819 L 93.390 64.819 93.390 56.325 C 93.390 51.653,93.274 47.527,93.131 47.156 C 92.840 46.398,75.334 46.110,74.873 46.856 M119.984 51.919 C 120.113 54.909,120.227 59.035,120.237 61.087 L 120.256 64.819 129.424 64.819 L 138.593 64.819 138.593 55.650 L 138.593 46.482 129.171 46.482 L 119.750 46.482 119.984 51.919 M142.529 55.544 L 142.644 64.606 151.569 64.721 C 156.478 64.785,160.653 64.677,160.848 64.483 C 161.042 64.288,161.073 60.158,160.917 55.305 L 160.632 46.482 151.523 46.482 L 142.414 46.482 142.529 55.544 M164.770 56.329 C 164.935 61.332,165.160 65.515,165.270 65.625 C 165.491 65.846,183.934 67.359,184.134 67.172 C 184.204 67.107,184.068 66.216,183.834 65.190 C 183.414 63.353,182.970 56.680,182.952 51.949 C 182.937 48.100,183.558 48.302,169.335 47.505 L 164.470 47.233 164.770 56.329 M92.111 55.437 L 92.111 63.113 84.222 63.113 L 76.333 63.113 76.294 56.930 C 76.273 53.529,76.255 50.171,76.255 49.467 C 76.255 48.763,76.273 48.092,76.294 47.974 C 76.315 47.857,79.883 47.761,84.222 47.761 L 92.111 47.761 92.111 55.437 M114.712 55.437 C 114.712 62.452,114.648 63.115,113.966 63.142 C 113.392 63.164,102.033 63.146,99.041 63.118 C 98.477 63.113,98.229 49.836,98.766 48.436 C 98.989 47.854,100.110 47.761,106.869 47.761 L 114.712 47.761 114.712 55.437 M137.313 55.395 L 137.313 63.029 132.516 63.298 C 129.877 63.446,126.951 63.484,126.013 63.383 C 125.075 63.282,123.683 63.180,122.921 63.156 L 121.535 63.113 121.535 55.437 L 121.535 47.761 129.424 47.761 L 137.313 47.761 137.313 55.395 M159.488 55.704 L 159.488 63.646 158.156 63.380 C 157.423 63.233,153.969 63.113,150.480 63.113 L 144.136 63.113 144.136 55.437 L 144.136 47.761 151.812 47.761 L 159.488 47.761 159.488 55.704 M174.414 49.492 C 178.049 49.765,181.111 50.071,181.219 50.172 C 181.327 50.273,181.559 53.262,181.736 56.815 C 181.913 60.367,182.182 63.841,182.334 64.533 L 182.610 65.792 180.111 65.534 C 178.737 65.392,175.149 65.146,172.139 64.987 C 168.732 64.808,166.612 64.520,166.524 64.226 C 166.446 63.966,166.275 60.327,166.143 56.139 L 165.903 48.526 166.853 48.761 C 167.376 48.890,170.778 49.219,174.414 49.492 M185.928 51.005 C 185.928 52.320,186.212 55.055,186.559 57.082 C 186.906 59.109,187.435 62.383,187.735 64.357 C 188.201 67.431,188.401 67.957,189.129 68.018 C 191.116 68.183,195.468 68.752,200.772 69.539 C 207.330 70.511,207.291 70.520,206.748 68.126 C 206.521 67.128,205.782 63.170,205.107 59.330 C 204.431 55.491,203.788 52.260,203.679 52.151 C 203.035 51.507,189.340 48.614,186.938 48.614 C 185.995 48.614,185.928 48.774,185.928 51.005 M244.538 51.919 C 245.412 58.113,247.032 64.455,247.985 65.408 C 248.748 66.171,260.981 67.415,263.626 66.998 C 263.792 66.972,263.171 65.368,262.247 63.433 C 261.183 61.204,260.360 58.665,259.999 56.503 L 259.431 53.092 257.327 52.739 C 253.567 52.108,247.472 50.777,246.296 50.330 C 244.379 49.601,244.231 49.735,244.538 51.919 M195.481 51.371 C 203.362 52.779,202.830 52.518,203.159 55.129 C 203.491 57.755,204.984 65.714,205.518 67.697 C 205.723 68.459,205.860 69.082,205.824 69.082 C 205.787 69.081,203.358 68.619,200.426 68.056 C 197.495 67.494,193.813 66.905,192.245 66.748 C 189.049 66.428,189.240 66.692,188.695 61.834 C 188.550 60.544,188.261 58.433,188.052 57.143 C 186.784 49.313,186.256 49.723,195.481 51.371 M255.172 53.737 C 257.976 53.749,258.172 53.953,258.992 57.700 C 259.412 59.622,260.243 62.213,260.839 63.459 C 262.162 66.227,262.622 66.000,256.429 65.634 C 247.813 65.125,248.618 65.810,246.700 57.353 C 245.182 50.659,244.919 51.079,249.735 52.511 C 251.993 53.182,254.439 53.734,255.172 53.737 M207.249 53.453 C 207.249 55.438,208.681 62.390,210.160 67.591 L 211.373 71.855 219.866 74.005 C 224.537 75.187,229.011 76.386,229.808 76.670 C 232.809 77.737,232.806 77.463,229.745 70.789 C 228.576 68.238,226.440 62.294,225.331 58.504 C 225.014 57.421,213.629 53.115,208.849 52.270 C 207.256 51.988,207.249 51.993,207.249 53.453 M215.619 55.623 C 218.638 56.664,221.708 57.730,222.440 57.992 C 223.923 58.522,224.389 59.410,226.244 65.245 C 226.878 67.239,228.057 70.185,228.864 71.792 C 230.699 75.446,230.948 75.326,224.681 73.807 C 221.778 73.103,217.798 72.172,215.836 71.739 L 212.269 70.950 211.233 66.950 C 210.315 63.406,208.534 54.904,208.530 54.051 C 208.527 53.394,210.279 53.783,215.619 55.623 M229.233 61.676 C 230.087 65.452,230.529 66.698,232.408 70.628 C 235.708 77.529,236.982 78.637,242.431 79.339 C 244.072 79.550,247.431 80.011,249.893 80.361 C 257.113 81.390,257.330 80.988,252.257 75.987 C 250.280 74.038,247.986 71.447,247.159 70.230 C 244.567 66.415,244.308 66.230,237.740 63.523 C 229.640 60.183,228.857 60.013,229.233 61.676 M237.645 64.784 C 243.646 67.010,243.484 66.899,245.954 70.448 C 247.146 72.160,249.384 74.803,250.926 76.320 C 254.763 80.094,254.454 80.269,246.824 78.646 C 245.253 78.312,243.087 78.038,242.010 78.038 C 240.080 78.038,237.282 76.944,236.365 75.831 C 234.776 73.901,230.277 63.474,230.277 61.722 C 230.277 61.510,230.926 61.739,231.719 62.229 C 232.513 62.719,235.179 63.869,237.645 64.784 M144.835 67.720 L 142.761 67.854 142.959 76.793 C 143.069 81.709,143.270 85.843,143.407 85.980 C 143.545 86.118,147.747 86.258,152.745 86.292 L 161.834 86.354 161.794 83.582 C 161.739 79.820,161.185 70.370,160.951 69.208 C 160.814 68.532,160.372 68.208,159.378 68.056 C 157.577 67.779,147.502 67.547,144.835 67.720 M75.053 76.964 L 75.053 86.141 84.230 86.141 L 93.407 86.141 93.292 77.079 L 93.177 68.017 84.115 67.902 L 75.053 67.787 75.053 76.964 M97.228 76.772 C 97.228 83.574,97.357 85.782,97.761 85.909 C 98.675 86.196,114.706 86.543,115.366 86.290 C 115.888 86.089,115.991 84.585,115.991 77.201 L 115.991 68.352 113.370 68.078 C 111.929 67.927,107.707 67.804,103.989 67.804 L 97.228 67.804 97.228 76.772 M120.120 76.840 C 119.971 81.810,119.945 85.972,120.063 86.090 C 120.360 86.387,137.701 86.215,138.194 85.911 C 138.421 85.770,138.593 81.818,138.593 76.734 L 138.593 67.804 129.492 67.804 L 120.391 67.804 120.120 76.840 M248.916 69.020 C 249.269 70.046,254.319 75.161,257.859 78.079 L 260.920 80.602 264.255 79.565 C 266.090 78.994,269.893 78.216,272.708 77.836 C 277.965 77.125,280.524 76.415,279.318 76.001 C 278.075 75.574,271.424 71.467,271.088 70.918 C 270.900 70.613,270.474 70.362,270.141 70.362 C 269.808 70.362,268.714 69.931,267.710 69.403 C 265.248 68.109,248.485 67.767,248.916 69.020 M165.707 69.025 C 165.451 69.440,165.860 74.851,166.740 82.697 C 167.232 87.085,166.534 86.691,175.381 87.576 C 179.423 87.980,183.641 88.423,184.755 88.560 C 187.207 88.862,187.242 88.676,185.941 82.244 C 185.484 79.984,184.900 76.439,184.642 74.366 C 184.073 69.782,184.694 70.154,176.613 69.551 C 172.940 69.277,169.045 68.949,167.956 68.821 C 166.809 68.687,165.864 68.773,165.707 69.025 M91.578 69.511 C 91.985 69.510,92.111 71.328,92.111 77.186 L 92.111 84.861 84.222 84.861 L 76.333 84.861 76.332 77.079 L 76.332 69.296 83.689 69.404 C 87.734 69.463,91.285 69.511,91.578 69.511 M114.670 77.133 C 114.622 81.266,114.413 84.760,114.205 84.897 C 113.811 85.156,99.948 84.928,99.077 84.649 C 98.726 84.536,98.564 82.288,98.528 77.009 L 98.476 69.529 106.061 69.413 C 110.233 69.349,113.896 69.369,114.202 69.457 C 114.636 69.583,114.739 71.264,114.670 77.133 M159.468 69.790 C 159.574 69.887,159.797 72.406,159.964 75.388 C 160.131 78.370,160.405 81.818,160.573 83.049 L 160.877 85.288 155.599 85.235 C 152.695 85.206,149.026 85.062,147.444 84.915 L 144.568 84.648 144.362 76.827 L 144.156 69.006 151.715 69.311 C 155.873 69.478,159.362 69.694,159.468 69.790 M259.701 69.717 C 265.866 69.830,268.989 70.752,272.328 73.442 C 273.006 73.988,274.082 74.699,274.719 75.022 C 276.397 75.872,275.956 76.127,271.767 76.726 C 269.705 77.021,266.514 77.727,264.678 78.294 C 262.841 78.861,261.114 79.189,260.840 79.022 C 259.680 78.318,254.753 73.959,252.414 71.568 L 249.886 68.985 251.915 69.298 C 253.031 69.470,256.535 69.659,259.701 69.717 M137.017 70.087 C 137.650 71.737,137.335 84.336,136.654 84.597 C 136.275 84.742,132.718 84.861,128.750 84.861 L 121.535 84.861 121.535 77.186 L 121.535 69.510 129.165 69.510 C 135.186 69.510,136.842 69.631,137.017 70.087 M175.544 70.787 C 182.983 71.308,182.836 71.252,183.180 73.705 C 183.333 74.798,183.844 77.900,184.315 80.597 C 185.459 87.157,185.461 87.237,184.461 87.063 C 184.006 86.984,180.168 86.597,175.932 86.204 L 168.230 85.488 167.936 81.870 C 167.775 79.880,167.478 76.469,167.278 74.291 C 166.872 69.883,166.891 69.812,168.423 70.135 C 169.021 70.262,172.225 70.555,175.544 70.787 M188.489 71.748 C 188.491 72.276,188.877 73.955,189.347 75.480 C 189.817 77.004,190.682 80.545,191.269 83.347 C 191.856 86.150,192.529 88.562,192.763 88.707 C 194.317 89.668,213.049 91.836,212.957 91.045 C 212.906 90.615,207.598 74.100,207.432 73.856 C 207.130 73.414,191.831 70.789,189.555 70.789 C 188.730 70.789,188.487 71.008,188.489 71.748 M195.205 72.720 C 197.491 73.078,200.991 73.709,202.985 74.123 L 206.610 74.874 207.173 76.563 C 207.483 77.492,208.566 80.915,209.580 84.170 L 211.424 90.089 209.230 89.846 C 205.246 89.405,196.401 88.206,194.931 87.908 L 193.486 87.615 192.541 82.933 C 191.691 78.724,190.613 74.514,189.926 72.724 C 189.610 71.900,189.973 71.899,195.205 72.720 M212.947 77.663 C 217.807 88.316,220.000 92.111,221.299 92.111 C 221.986 92.111,223.856 92.418,225.453 92.794 C 239.251 96.037,243.610 96.557,242.223 94.793 C 241.751 94.193,241.365 93.554,241.365 93.374 C 241.365 92.568,234.506 81.506,233.154 80.132 C 231.518 78.469,227.254 77.187,218.337 75.677 C 216.109 75.300,213.661 74.884,212.899 74.753 L 211.511 74.515 212.947 77.663 M220.256 77.327 C 228.436 79.060,230.716 79.647,231.593 80.247 C 232.370 80.778,240.650 94.247,240.371 94.526 C 240.299 94.597,238.815 94.358,237.071 93.993 C 235.328 93.629,232.559 93.069,230.917 92.749 C 229.275 92.429,226.312 91.818,224.333 91.393 L 220.735 90.618 217.014 83.220 C 213.803 76.833,213.420 75.850,214.216 76.032 C 214.724 76.148,217.441 76.731,220.256 77.327 M278.465 78.759 C 275.506 79.253,266.942 81.076,265.351 81.550 L 263.537 82.090 266.825 85.714 C 272.722 92.215,275.029 94.345,275.822 94.022 C 276.738 93.649,284.516 91.330,286.780 90.754 C 287.726 90.514,290.346 90.427,292.658 90.559 L 296.830 90.798 296.070 89.495 C 295.651 88.779,293.678 86.511,291.684 84.454 C 286.961 79.582,283.211 77.966,278.465 78.759 M285.046 81.168 C 287.317 82.208,293.825 88.056,293.813 89.046 C 293.811 89.207,292.132 89.366,290.082 89.399 C 287.008 89.449,285.422 89.758,281.042 91.164 C 278.121 92.102,275.530 92.792,275.285 92.698 C 274.696 92.470,265.525 82.729,265.728 82.546 C 265.814 82.468,266.844 82.188,268.017 81.925 C 269.190 81.661,271.397 81.072,272.921 80.616 C 276.936 79.416,281.695 79.632,285.046 81.168 M238.028 80.961 C 236.130 81.495,244.390 92.070,248.326 94.146 L 250.533 95.309 259.915 95.183 C 265.075 95.113,269.658 94.948,270.099 94.816 C 272.283 94.163,268.957 93.829,260.220 93.823 C 247.870 93.815,247.075 93.426,240.350 84.115 C 238.421 81.443,238.082 81.525,246.124 82.726 C 249.252 83.194,253.518 83.578,255.604 83.579 C 260.654 83.583,262.128 84.339,266.171 88.997 C 269.036 92.297,271.021 93.403,268.477 90.281 C 267.863 89.528,266.741 88.124,265.984 87.160 C 263.182 83.596,261.542 82.910,254.452 82.338 C 250.993 82.059,246.713 81.553,244.940 81.214 C 241.553 80.566,239.676 80.497,238.028 80.961 M126.119 89.445 L 120.256 89.576 120.256 98.464 L 120.256 107.351 121.855 107.615 C 123.353 107.863,138.149 108.015,138.181 107.783 C 138.189 107.724,138.310 103.758,138.451 98.970 C 138.749 88.794,138.856 89.064,134.567 89.219 C 133.146 89.271,129.344 89.372,126.119 89.445 M75.053 98.234 C 75.053 108.955,74.026 107.938,84.703 107.792 L 93.177 107.676 93.177 98.721 L 93.177 89.765 84.115 89.650 L 75.053 89.535 75.053 98.234 M97.521 89.828 C 97.058 90.291,97.172 106.951,97.640 107.240 C 98.722 107.909,114.923 108.023,115.469 107.365 C 115.875 106.876,115.981 104.600,115.894 98.239 L 115.778 89.765 106.796 89.651 C 101.855 89.587,97.682 89.667,97.521 89.828 M143.710 98.507 L 143.710 107.463 152.863 107.463 C 164.227 107.463,162.980 109.002,162.279 95.842 L 161.944 89.552 152.827 89.552 L 143.710 89.552 143.710 98.507 M167.741 90.627 C 167.606 90.980,167.668 94.645,167.878 98.772 C 168.339 107.799,168.107 107.454,173.749 107.481 C 175.874 107.491,179.586 107.663,182.000 107.863 C 188.953 108.439,188.727 108.717,187.615 100.994 C 187.165 97.867,186.793 94.494,186.788 93.497 C 186.784 92.500,186.668 91.684,186.530 91.684 C 186.392 91.684,183.946 91.413,181.093 91.081 C 172.021 90.025,168.025 89.889,167.741 90.627 M92.111 98.731 L 92.111 106.630 84.222 106.590 L 76.333 106.550 76.333 98.691 L 76.333 90.832 84.222 90.832 L 92.111 90.832 92.111 98.731 M114.405 91.578 C 114.502 91.988,114.563 95.486,114.540 99.350 L 114.499 106.377 110.448 106.412 C 108.220 106.431,104.717 106.360,102.665 106.254 L 98.934 106.061 98.934 98.446 L 98.934 90.832 106.581 90.832 C 113.513 90.832,114.245 90.901,114.405 91.578 M136.887 98.774 L 136.887 106.716 135.554 106.450 C 134.821 106.303,131.367 106.183,127.878 106.183 L 121.535 106.183 121.535 98.507 L 121.535 90.832 129.211 90.832 L 136.887 90.832 136.887 98.774 M160.522 91.223 C 160.601 91.359,160.803 94.781,160.972 98.827 L 161.278 106.183 153.134 106.183 L 144.989 106.183 144.989 98.488 L 144.989 90.793 152.684 90.884 C 156.916 90.933,160.443 91.086,160.522 91.223 M177.399 92.097 C 186.094 92.824,185.345 92.465,185.678 96.065 C 185.835 97.760,186.271 100.735,186.646 102.676 C 187.490 107.044,188.475 106.621,178.180 106.314 L 169.404 106.052 169.196 98.975 C 168.961 90.945,168.930 91.100,170.731 91.416 C 171.467 91.546,174.467 91.852,177.399 92.097 M299.822 92.232 C 301.055 94.937,306.315 96.823,311.761 96.514 C 316.823 96.226,317.765 96.789,322.765 103.092 C 324.672 105.496,326.380 107.463,326.561 107.463 C 327.079 107.463,329.638 109.924,329.638 110.424 C 329.638 111.032,328.623 111.003,322.388 110.218 C 314.178 109.184,310.729 107.121,306.374 100.640 C 303.613 96.531,302.901 95.678,302.537 96.041 C 301.468 97.110,309.564 107.033,313.272 109.199 C 314.304 109.802,315.047 110.398,314.922 110.523 C 314.796 110.648,316.035 110.875,317.674 111.027 C 319.313 111.179,321.860 111.588,323.333 111.936 C 327.955 113.025,331.288 112.612,333.749 110.646 C 335.304 109.403,334.849 108.925,332.813 109.661 C 331.329 110.198,331.194 110.174,330.596 109.274 C 330.246 108.747,329.781 108.316,329.563 108.316 C 328.571 108.316,325.878 105.588,322.591 101.254 C 318.114 95.353,316.273 94.238,312.317 95.033 C 307.922 95.915,305.969 95.459,301.643 92.540 C 299.364 91.002,299.253 90.983,299.822 92.232 M193.361 94.709 C 193.522 96.138,193.835 97.781,194.055 98.361 C 194.275 98.940,194.579 101.017,194.729 102.977 C 194.880 104.938,195.147 106.774,195.322 107.057 C 195.931 108.042,217.484 109.337,217.484 108.389 C 217.484 106.701,212.853 95.096,212.179 95.096 C 212.083 95.096,207.912 94.426,202.910 93.607 C 197.909 92.788,193.648 92.117,193.442 92.115 C 193.235 92.113,193.199 93.276,193.361 94.709 M281.876 94.087 C 278.945 94.662,276.274 95.226,275.942 95.341 C 275.008 95.664,277.663 98.200,282.025 101.151 C 285.694 103.633,289.465 106.952,290.238 108.379 C 290.447 108.766,291.962 109.558,293.603 110.138 C 295.245 110.719,297.829 111.722,299.346 112.368 C 304.016 114.355,309.915 113.856,309.915 111.472 C 309.915 110.664,309.742 110.479,309.160 110.664 C 308.001 111.031,304.699 106.523,303.176 102.493 C 301.688 98.556,298.649 95.594,294.883 94.410 C 293.457 93.962,293.352 93.859,294.243 93.785 C 295.622 93.671,291.146 93.049,288.913 93.045 C 287.974 93.043,284.808 93.512,281.876 94.087 M202.772 94.822 C 211.825 96.222,211.811 96.213,213.988 102.345 C 214.695 104.339,215.420 106.337,215.598 106.785 C 215.910 107.570,215.743 107.587,211.053 107.262 C 208.375 107.076,203.977 106.806,201.279 106.661 L 196.375 106.397 196.087 102.559 C 195.928 100.448,195.498 97.761,195.132 96.588 C 194.229 93.699,194.264 93.328,195.416 93.603 C 195.943 93.729,199.254 94.278,202.772 94.822 M293.346 94.831 C 297.532 96.532,302.345 101.010,302.345 103.203 C 302.345 105.065,307.089 111.708,308.460 111.766 C 309.090 111.792,308.910 111.941,307.889 112.237 C 305.406 112.957,301.903 112.387,298.020 110.631 C 296.060 109.745,293.755 108.812,292.899 108.558 C 291.730 108.211,290.853 107.433,289.388 105.443 C 288.247 103.893,286.855 102.536,286.041 102.181 C 284.148 101.354,277.933 97.130,277.736 96.537 C 277.582 96.073,287.041 93.948,289.667 93.858 C 290.317 93.835,291.972 94.273,293.346 94.831 M220.471 95.366 C 220.472 95.804,221.113 97.409,221.895 98.934 C 223.235 101.548,224.351 104.569,224.902 107.082 L 225.146 108.194 232.082 108.528 C 250.591 109.418,251.044 109.310,247.525 104.831 C 242.973 99.036,242.052 98.495,234.968 97.444 C 230.778 96.822,224.929 95.684,221.429 94.810 C 220.690 94.625,220.470 94.754,220.471 95.366 M227.364 97.629 C 229.397 98.099,233.109 98.678,235.612 98.915 C 240.699 99.397,241.801 100.025,246.253 104.977 C 249.114 108.159,248.584 108.603,242.830 107.848 C 240.969 107.604,236.434 107.298,232.752 107.170 L 226.058 106.936 225.777 105.656 C 225.623 104.953,224.925 103.008,224.226 101.336 C 222.016 96.042,222.084 96.290,222.921 96.546 C 223.331 96.672,225.331 97.160,227.364 97.629 M252.878 97.517 C 247.278 97.927,247.250 98.155,252.200 102.896 C 257.022 107.513,257.627 107.758,261.919 106.831 C 266.820 105.772,270.201 105.883,275.267 107.270 C 277.612 107.912,280.394 108.675,281.450 108.965 C 287.503 110.629,278.969 101.917,271.057 98.355 C 268.561 97.231,261.342 96.899,252.878 97.517 M270.682 99.567 C 274.617 101.369,281.450 106.394,281.450 107.486 C 281.450 107.638,279.579 107.196,277.292 106.503 C 272.333 105.001,266.032 104.757,261.451 105.889 C 257.940 106.757,256.804 106.233,252.652 101.830 L 249.680 98.678 259.000 98.582 C 268.169 98.487,268.357 98.503,270.682 99.567 M263.113 109.398 C 258.302 110.929,257.548 111.366,255.900 113.581 C 255.002 114.790,252.682 117.465,250.746 119.526 C 246.597 123.945,246.602 123.964,251.698 123.202 C 255.834 122.584,261.816 122.514,267.591 123.015 C 271.825 123.383,272.490 122.996,279.527 116.069 L 284.333 111.338 282.358 111.083 C 281.272 110.943,278.177 110.469,275.480 110.029 C 268.172 108.838,265.329 108.693,263.113 109.398 M270.551 110.647 C 272.676 110.991,275.901 111.498,277.719 111.773 C 281.735 112.382,281.753 111.994,277.505 116.311 C 272.637 121.259,271.121 122.107,267.701 121.793 C 259.952 121.083,256.026 121.057,253.323 121.699 C 249.726 122.554,249.723 122.519,253.094 118.886 C 254.680 117.177,256.443 115.044,257.013 114.147 C 258.103 112.428,259.667 111.561,263.326 110.648 C 266.190 109.933,266.144 109.933,270.551 110.647 M122.003 110.792 C 120.051 111.189,120.025 111.331,120.167 120.884 L 120.291 129.228 129.335 129.113 L 138.380 128.998 138.386 120.332 C 138.389 115.565,138.281 111.486,138.145 111.266 C 137.846 110.782,124.044 110.376,122.003 110.792 M148.188 110.829 L 143.923 111.087 143.923 119.829 L 143.923 128.571 152.736 128.687 L 161.549 128.802 161.833 127.510 C 161.989 126.799,162.068 124.252,162.008 121.851 C 161.948 119.449,162.049 116.230,162.233 114.697 C 162.491 112.546,162.435 111.801,161.987 111.436 C 161.243 110.827,153.684 110.495,148.188 110.829 M75.053 120.034 L 75.053 129.211 80.064 129.297 C 82.820 129.345,86.898 129.378,89.126 129.371 L 93.177 129.358 93.177 120.223 L 93.177 111.087 84.115 110.972 L 75.053 110.857 75.053 120.034 M97.521 111.150 C 97.107 111.564,97.168 128.029,97.585 128.687 C 97.849 129.103,99.999 129.202,106.854 129.113 L 115.778 128.998 115.778 120.043 L 115.778 111.087 106.796 110.973 C 101.855 110.909,97.682 110.989,97.521 111.150 M168.677 111.407 C 168.586 111.700,168.382 115.011,168.224 118.763 C 168.066 122.516,167.907 126.066,167.870 126.652 L 167.804 127.719 174.627 127.705 C 187.389 127.679,186.860 127.992,187.589 120.043 C 187.847 117.228,188.177 114.221,188.322 113.360 C 188.580 111.834,188.545 111.783,186.937 111.337 C 184.503 110.661,168.891 110.721,168.677 111.407 M196.132 111.394 C 195.508 111.626,195.309 112.110,195.309 113.397 C 195.309 114.813,194.224 121.449,193.360 125.320 L 193.134 126.332 196.887 126.098 C 211.827 125.166,212.874 124.766,215.015 119.186 C 215.914 116.843,217.023 114.117,217.479 113.130 C 218.528 110.861,218.630 110.902,212.793 111.280 C 210.096 111.455,205.429 111.483,202.422 111.343 C 199.415 111.202,196.585 111.225,196.132 111.394 M227.719 111.155 C 225.905 111.526,224.300 113.474,222.156 117.910 C 219.225 123.974,218.893 123.412,225.586 123.711 C 228.753 123.852,232.634 124.119,234.211 124.304 C 240.183 125.007,242.592 123.820,247.561 117.727 C 251.699 112.652,251.510 111.574,246.546 111.948 C 244.450 112.105,241.384 112.019,239.446 111.747 C 235.306 111.166,229.176 110.857,227.719 111.155 M92.111 120.043 L 92.111 127.932 88.380 127.930 C 86.327 127.928,82.777 127.803,80.490 127.652 L 76.333 127.377 76.333 119.765 L 76.333 112.154 84.222 112.154 L 92.111 112.154 92.111 120.043 M114.411 112.473 C 114.507 112.649,114.494 116.204,114.382 120.372 L 114.178 127.951 106.662 127.835 L 99.147 127.719 99.031 119.936 L 98.915 112.154 106.575 112.154 C 110.788 112.154,114.314 112.297,114.411 112.473 M136.983 119.723 C 137.095 123.886,137.108 127.436,137.012 127.612 C 136.915 127.788,133.394 127.932,129.186 127.932 L 121.535 127.932 121.535 120.043 L 121.535 112.154 129.157 112.154 L 136.780 112.154 136.983 119.723 M160.761 119.296 C 160.753 128.361,161.566 127.550,152.634 127.409 L 145.203 127.292 145.186 119.723 L 145.169 112.154 152.968 112.154 L 160.768 112.154 160.761 119.296 M187.078 112.735 C 187.161 112.819,187.014 114.593,186.752 116.678 C 186.489 118.763,186.172 121.578,186.048 122.934 C 185.757 126.123,185.921 126.062,176.804 126.360 L 169.173 126.610 169.445 123.113 C 169.595 121.190,169.719 117.960,169.720 115.935 L 169.723 112.254 178.324 112.418 C 183.055 112.509,186.994 112.651,187.078 112.735 M216.631 112.490 C 216.631 112.558,216.274 113.326,215.837 114.196 C 215.400 115.066,214.610 117.122,214.081 118.763 C 212.671 123.137,211.882 123.465,200.260 124.513 C 194.150 125.064,194.650 125.562,195.709 119.981 C 196.192 117.435,196.587 114.760,196.588 114.037 C 196.588 113.314,196.668 112.642,196.766 112.544 C 196.963 112.347,216.630 112.294,216.631 112.490 M237.425 112.836 C 240.254 113.301,242.841 113.441,245.541 113.273 C 250.121 112.988,250.089 112.618,245.914 117.638 C 241.815 122.567,239.555 123.466,233.098 122.740 C 230.960 122.499,227.532 122.322,225.480 122.347 C 223.140 122.375,221.748 122.225,221.748 121.946 C 221.748 121.365,224.087 116.762,225.694 114.179 L 226.955 112.154 230.113 112.154 C 231.850 112.154,235.140 112.461,237.425 112.836 M288.060 113.238 C 286.419 114.058,277.230 123.242,278.056 123.237 C 278.906 123.231,281.577 121.012,284.648 117.760 C 288.979 113.174,290.509 112.898,296.532 115.618 C 299.261 116.851,301.224 117.442,303.092 117.596 C 306.249 117.854,306.227 117.784,304.012 120.464 C 303.052 121.626,301.906 123.283,301.466 124.147 C 298.879 129.217,292.589 129.758,284.953 125.565 C 281.815 123.842,280.701 123.675,282.516 125.199 C 285.715 127.885,290.636 129.638,294.978 129.638 C 298.931 129.638,299.997 128.918,303.152 124.124 C 306.009 119.783,308.045 117.971,312.326 115.958 C 316.873 113.819,314.340 113.518,309.025 115.565 C 304.721 117.222,303.574 117.180,298.791 115.190 C 292.773 112.685,290.130 112.204,288.060 113.238 M258.422 124.406 C 255.943 124.696,246.939 127.442,245.904 128.223 C 244.436 129.330,238.820 138.689,238.811 140.043 C 238.806 140.798,239.062 140.835,242.582 140.585 C 244.658 140.437,249.120 140.194,252.496 140.044 C 256.950 139.847,258.928 139.588,259.701 139.104 C 262.921 137.087,270.362 128.599,270.362 126.944 C 270.362 126.036,268.657 127.768,266.055 131.321 C 264.532 133.400,260.394 137.233,259.172 137.698 C 256.996 138.525,240.509 139.537,240.511 138.843 C 240.513 138.139,243.650 133.114,246.760 128.835 C 247.500 127.816,258.798 125.721,263.890 125.657 L 269.571 125.586 267.941 124.851 C 266.360 124.138,262.315 123.949,258.422 124.406 M274.196 126.992 C 273.143 127.660,271.715 128.960,271.022 129.882 C 268.408 133.357,264.947 136.968,262.562 138.709 L 260.092 140.512 263.841 140.822 C 265.903 140.993,268.056 141.340,268.624 141.593 C 270.364 142.368,278.156 144.135,279.835 144.136 C 283.454 144.137,289.409 140.285,292.602 135.878 C 294.772 132.882,293.895 133.278,289.960 137.071 C 283.443 143.354,280.814 143.957,272.068 141.176 C 269.840 140.467,267.117 139.884,266.017 139.880 C 263.453 139.870,263.179 139.373,265.042 138.110 C 265.861 137.555,268.376 135.024,270.631 132.486 C 276.277 126.131,276.492 126.090,283.582 130.064 C 288.294 132.705,295.058 134.443,294.545 132.881 C 294.459 132.622,293.253 132.299,291.864 132.164 C 289.490 131.933,287.033 130.887,284.021 128.822 C 282.684 127.906,279.110 126.410,277.394 126.048 C 276.409 125.840,275.664 126.060,274.196 126.992 M223.241 126.725 C 219.155 127.190,219.411 126.936,216.848 133.049 C 215.718 135.746,214.247 139.051,213.580 140.393 C 212.008 143.555,212.000 144.277,213.539 143.972 C 214.993 143.685,224.662 142.578,229.077 142.194 C 232.435 141.902,234.052 140.851,236.025 137.679 C 236.265 137.294,237.052 136.143,237.776 135.121 C 239.021 133.362,242.644 126.901,242.644 126.441 C 242.644 126.081,226.880 126.312,223.241 126.725 M207.309 127.977 C 205.114 128.173,202.249 128.530,200.941 128.772 C 199.634 129.013,197.251 129.211,195.647 129.211 C 192.236 129.211,192.290 129.142,191.467 134.567 C 191.185 136.429,190.495 139.981,189.933 142.461 C 189.372 144.940,188.913 147.099,188.913 147.258 C 188.913 147.674,191.177 147.615,194.421 147.115 C 195.965 146.877,198.571 146.488,200.213 146.251 C 201.855 146.014,204.289 145.609,205.622 145.352 L 208.045 144.885 209.761 137.794 C 211.813 129.312,212.154 127.486,211.668 127.564 C 211.466 127.596,209.505 127.782,207.309 127.977 M240.512 127.732 C 240.512 128.296,236.799 134.432,234.650 137.420 L 232.272 140.725 230.249 140.725 C 228.042 140.725,217.073 141.877,215.485 142.276 C 214.943 142.412,214.499 142.405,214.499 142.260 C 214.499 141.945,217.468 134.857,219.291 130.819 L 220.587 127.950 228.524 127.824 C 232.889 127.755,237.372 127.655,238.486 127.602 C 239.600 127.549,240.512 127.607,240.512 127.732 M210.431 130.171 C 210.093 131.167,209.174 134.574,208.390 137.740 C 207.115 142.888,206.855 143.528,205.934 143.792 C 204.897 144.089,202.455 144.475,194.737 145.559 L 190.539 146.148 190.743 145.036 C 190.855 144.424,191.351 142.004,191.845 139.659 C 192.340 137.313,192.964 134.291,193.232 132.942 L 193.720 130.490 196.059 130.490 C 198.725 130.490,206.810 129.361,208.226 128.792 C 210.572 127.847,211.107 128.181,210.431 130.171 M173.737 130.962 C 166.151 131.476,166.312 131.369,166.308 135.917 C 166.306 137.975,166.110 141.852,165.873 144.533 C 165.635 147.214,165.597 149.563,165.788 149.754 C 166.140 150.106,178.662 149.430,181.849 148.887 L 183.582 148.592 183.877 145.405 C 184.039 143.652,184.489 140.490,184.877 138.380 C 185.266 136.269,185.685 133.630,185.810 132.516 L 186.036 130.490 182.464 130.552 C 180.499 130.585,176.572 130.770,173.737 130.962 M184.482 132.729 C 183.932 134.719,182.909 141.055,182.652 144.069 C 182.336 147.768,183.128 147.375,174.414 148.152 C 166.189 148.885,166.729 149.153,167.180 144.563 C 167.376 142.569,167.549 139.174,167.564 137.019 C 167.597 132.184,167.058 132.505,175.689 132.179 C 179.561 132.033,183.183 131.881,183.738 131.842 C 184.591 131.781,184.706 131.919,184.482 132.729 M75.523 132.784 C 75.183 133.193,75.070 136.011,75.151 142.059 L 75.267 150.746 83.978 150.862 C 88.770 150.926,92.847 150.820,93.040 150.628 C 93.374 150.294,93.527 144.646,93.434 136.141 L 93.390 132.196 84.700 132.196 C 77.839 132.196,75.908 132.320,75.523 132.784 M97.521 132.472 C 96.776 133.217,97.203 150.123,97.974 150.440 C 98.385 150.608,102.559 150.746,107.249 150.746 L 115.778 150.746 115.778 141.578 L 115.778 132.409 106.796 132.295 C 101.855 132.231,97.682 132.311,97.521 132.472 M120.050 133.156 C 119.868 133.944,119.935 140.988,120.204 149.360 L 120.256 150.959 129.426 150.959 L 138.596 150.959 138.551 141.578 L 138.505 132.196 129.389 132.196 C 120.285 132.196,120.272 132.197,120.050 133.156 M143.162 133.351 C 143.041 133.987,142.970 138.161,143.006 142.627 L 143.070 150.746 151.355 150.862 C 155.912 150.926,159.804 150.814,160.005 150.613 C 160.329 150.289,162.047 135.606,162.047 133.158 L 162.047 132.196 152.715 132.196 L 143.383 132.196 143.162 133.351 M85.110 133.902 L 92.111 133.902 92.111 141.791 L 92.111 149.680 84.222 149.680 L 76.333 149.680 76.333 141.862 C 76.333 133.991,76.438 133.261,77.518 133.675 C 77.843 133.800,81.259 133.902,85.110 133.902 M114.421 141.578 L 114.499 149.467 106.716 149.467 L 98.934 149.467 98.934 141.462 L 98.934 133.456 106.639 133.572 L 114.344 133.689 114.421 141.578 M137.016 141.212 C 136.970 145.454,136.874 148.979,136.803 149.045 C 136.732 149.111,133.316 149.233,129.211 149.316 L 121.748 149.467 121.633 141.578 L 121.517 133.689 129.309 133.594 L 137.100 133.500 137.016 141.212 M160.333 135.501 C 160.328 136.615,160.042 140.021,159.697 143.070 C 159.353 146.119,159.068 148.758,159.066 148.934 C 159.064 149.110,155.674 149.254,151.533 149.254 L 144.005 149.254 144.282 143.817 C 144.435 140.826,144.560 137.276,144.561 135.928 L 144.563 133.475 152.452 133.475 L 160.341 133.475 160.333 135.501 M239.623 143.213 C 238.079 143.616,236.330 144.264,235.736 144.653 C 234.096 145.728,228.998 157.710,228.998 160.491 L 228.998 161.419 236.780 159.889 C 241.061 159.048,245.073 158.230,245.697 158.073 C 246.701 157.819,256.716 143.871,256.716 142.727 C 256.716 142.062,242.482 142.466,239.623 143.213 M254.496 144.456 C 253.216 145.820,248.798 152.111,247.174 154.882 C 246.088 156.735,245.962 156.810,242.751 157.490 C 237.756 158.549,230.922 159.915,230.621 159.915 C 229.861 159.915,234.745 147.188,235.963 145.994 C 237.350 144.634,244.345 143.445,251.572 143.341 L 255.597 143.284 254.496 144.456 M258.758 143.984 C 257.888 144.346,257.054 145.025,256.905 145.495 C 256.755 145.964,256.079 147.170,255.402 148.174 C 254.016 150.228,250.539 157.294,250.794 157.540 C 250.885 157.628,254.582 157.767,259.010 157.848 L 267.060 157.996 267.718 156.930 C 268.761 155.242,274.671 149.759,276.324 148.947 C 277.638 148.301,277.709 148.191,276.895 148.066 C 275.322 147.824,273.292 149.198,269.450 153.106 L 265.765 156.853 259.641 156.644 C 256.274 156.529,253.273 156.359,252.974 156.265 C 251.836 155.909,258.233 144.828,259.824 144.401 C 262.086 143.795,269.732 144.870,274.385 146.450 C 276.496 147.167,278.465 147.332,278.465 146.793 C 278.465 146.612,277.074 146.044,275.373 145.529 C 268.006 143.301,261.796 142.724,258.758 143.984 M221.535 145.196 C 218.721 145.740,214.945 146.532,213.144 146.955 L 209.871 147.726 209.235 150.089 C 208.885 151.389,208.279 153.987,207.889 155.864 C 207.499 157.740,207.012 159.947,206.807 160.768 C 206.254 162.985,205.806 168.017,206.162 168.017 C 207.017 168.017,218.498 165.317,221.006 164.526 C 224.417 163.450,224.316 163.558,225.713 159.488 C 227.050 155.595,229.931 147.921,230.876 145.736 L 231.568 144.136 229.110 144.171 C 227.758 144.190,224.350 144.651,221.535 145.196 M229.300 146.162 C 228.879 147.564,224.009 160.170,223.411 161.404 C 222.770 162.728,221.463 163.235,215.565 164.450 C 213.923 164.789,211.477 165.324,210.128 165.641 L 207.676 166.216 207.676 164.877 C 207.676 163.002,209.204 155.142,210.228 151.754 L 211.083 148.924 214.816 148.005 C 223.857 145.781,229.635 145.046,229.300 146.162 M201.066 149.122 C 197.819 149.411,187.845 151.036,187.539 151.326 C 186.756 152.068,184.952 168.834,185.551 169.804 C 186.034 170.586,202.100 169.073,203.013 168.160 C 203.343 167.830,204.591 160.935,206.223 150.426 L 206.472 148.827 204.622 148.899 C 203.604 148.938,202.004 149.039,201.066 149.122 M204.691 151.570 C 204.691 152.736,202.333 165.346,201.919 166.392 C 201.719 166.899,200.921 167.189,199.218 167.373 C 197.889 167.516,194.741 167.877,192.222 168.173 C 189.703 168.470,187.422 168.576,187.153 168.410 C 186.451 167.976,187.821 153.188,188.639 152.370 C 188.845 152.164,204.076 150.283,204.371 150.427 C 204.547 150.513,204.691 151.027,204.691 151.570 M173.774 152.299 C 163.390 153.268,164.194 152.564,164.132 160.742 C 164.105 164.157,164.058 168.006,164.025 169.296 L 163.966 171.642 165.885 171.531 C 166.940 171.469,170.888 171.262,174.657 171.070 C 178.426 170.878,181.707 170.599,181.949 170.449 C 182.207 170.290,182.520 166.785,182.707 161.955 C 182.882 157.432,183.055 153.271,183.090 152.708 C 183.176 151.367,183.574 151.384,173.774 152.299 M181.380 157.249 C 181.290 159.536,181.108 163.157,180.977 165.296 L 180.739 169.185 175.764 169.461 C 173.028 169.613,169.590 169.853,168.124 169.993 L 165.458 170.249 165.463 163.909 C 165.466 160.422,165.584 156.864,165.727 156.002 L 165.986 154.434 169.027 154.187 C 170.700 154.052,173.891 153.776,176.119 153.575 C 178.348 153.374,180.480 153.183,180.857 153.151 C 181.456 153.099,181.523 153.625,181.380 157.249 M145.736 153.815 L 142.431 153.980 142.437 162.385 C 142.441 167.007,142.626 171.077,142.848 171.429 C 143.304 172.151,154.267 172.606,158.491 172.078 L 160.768 171.794 160.768 162.869 C 160.768 157.961,160.720 153.935,160.661 153.924 C 159.889 153.777,148.207 153.692,145.736 153.815 M75.151 163.006 L 75.267 172.068 84.328 172.183 L 93.390 172.298 93.390 163.121 L 93.390 153.945 84.213 153.945 L 75.036 153.945 75.151 163.006 M97.326 163.006 L 97.441 172.068 106.716 172.183 L 115.991 172.298 115.991 163.121 L 115.991 153.945 106.601 153.945 L 97.211 153.945 97.326 163.006 M119.968 154.626 C 119.702 155.319,120.034 171.349,120.320 171.635 C 120.651 171.966,137.555 172.050,138.060 171.723 C 138.458 171.466,138.593 169.167,138.593 162.661 L 138.593 153.945 129.411 153.945 C 121.392 153.945,120.196 154.031,119.968 154.626 M92.111 163.115 L 92.111 171.007 84.222 170.981 L 76.333 170.956 76.333 163.090 L 76.333 155.224 84.222 155.224 L 92.111 155.224 92.111 163.115 M114.325 158.121 C 114.388 162.699,114.389 163.764,114.336 167.484 L 114.286 171.002 106.628 171.002 L 98.971 171.002 98.846 163.290 C 98.777 159.048,98.799 155.499,98.895 155.404 C 98.991 155.308,102.493 155.237,106.678 155.246 L 114.286 155.261 114.325 158.121 M137.108 162.753 C 137.276 166.776,137.284 170.278,137.125 170.535 C 136.807 171.051,127.575 171.182,123.774 170.726 L 121.535 170.457 121.535 162.897 L 121.535 155.337 129.168 155.387 L 136.802 155.437 137.108 162.753 M159.441 158.955 C 159.414 161.007,159.270 164.472,159.121 166.655 L 158.849 170.623 151.599 170.668 L 144.350 170.712 144.233 162.968 L 144.117 155.224 151.803 155.224 L 159.488 155.224 159.441 158.955 M252.878 159.777 C 250.885 160.127,249.120 160.541,248.957 160.697 C 248.470 161.164,246.055 171.050,246.055 172.581 C 246.055 173.361,245.823 174.371,245.539 174.826 C 244.763 176.069,245.125 176.109,248.614 175.174 C 250.535 174.659,253.813 174.230,256.823 174.099 C 261.078 173.915,261.833 173.777,261.832 173.188 C 261.831 172.453,263.097 167.776,264.438 163.563 C 264.882 162.169,265.245 160.787,265.245 160.492 C 265.245 159.053,259.045 158.695,252.878 159.777 M263.728 160.728 C 263.860 160.941,263.596 162.140,263.142 163.393 C 262.064 166.369,260.554 171.435,260.554 172.076 C 260.554 172.410,259.155 172.671,256.397 172.851 C 254.110 173.000,251.132 173.389,249.779 173.714 C 248.425 174.039,247.235 174.171,247.133 174.006 C 246.952 173.713,249.655 161.685,249.955 161.450 C 250.971 160.653,263.283 160.007,263.728 160.728 M241.365 161.835 C 232.606 163.607,227.634 165.404,227.208 166.951 C 226.724 168.709,225.698 176.073,225.390 179.994 L 225.137 183.228 231.865 180.916 C 235.565 179.645,239.216 178.420,239.979 178.195 C 241.031 177.884,241.365 177.545,241.365 176.786 C 241.365 172.997,244.298 163.202,245.807 161.950 C 246.944 161.007,245.627 160.973,241.365 161.835 M242.458 165.565 C 241.908 167.031,241.134 170.149,240.739 172.495 C 239.903 177.455,240.205 177.045,236.674 178.019 C 235.149 178.440,232.651 179.240,231.121 179.797 C 226.535 181.468,226.691 181.835,227.719 171.764 C 228.222 166.834,228.399 166.573,231.862 165.655 C 244.950 162.184,243.723 162.195,242.458 165.565 M219.190 168.046 C 218.134 168.244,214.735 169.023,211.636 169.775 L 206.001 171.144 205.788 172.885 C 205.671 173.843,205.489 177.937,205.384 181.983 C 205.164 190.497,204.735 189.913,210.053 188.337 C 211.912 187.786,215.167 186.911,217.286 186.393 C 219.406 185.875,221.338 185.318,221.579 185.156 C 221.820 184.994,222.350 181.503,222.756 177.399 C 223.162 173.294,223.604 169.408,223.737 168.763 C 224.011 167.440,223.136 167.302,219.190 168.046 M222.154 169.190 C 222.143 169.366,221.800 172.772,221.392 176.759 L 220.650 184.009 218.673 184.435 C 217.586 184.670,216.554 185.005,216.380 185.181 C 216.205 185.357,215.567 185.504,214.961 185.507 C 214.355 185.511,212.324 185.991,210.448 186.574 C 208.571 187.156,206.988 187.633,206.930 187.633 C 206.703 187.633,206.837 177.387,207.097 174.903 L 207.371 172.282 209.123 171.807 C 215.873 169.980,222.185 168.712,222.154 169.190 M197.228 172.086 C 195.352 172.398,191.950 172.899,189.669 173.199 C 184.663 173.859,185.133 172.833,184.790 183.855 L 184.512 192.782 186.179 192.555 C 187.096 192.431,189.765 192.131,192.111 191.889 C 194.456 191.647,197.656 191.234,199.221 190.971 L 202.066 190.494 202.339 187.038 C 202.872 180.296,203.289 172.064,203.113 171.748 C 202.873 171.318,201.304 171.408,197.228 172.086 M201.958 174.094 C 201.807 174.622,201.562 178.189,201.415 182.022 C 201.243 186.462,200.977 189.046,200.679 189.143 C 200.251 189.282,186.804 191.045,186.167 191.045 C 185.875 191.045,186.262 177.465,186.601 175.800 C 186.773 174.956,187.067 174.837,189.027 174.814 C 190.254 174.799,193.177 174.436,195.522 174.008 C 201.622 172.893,202.298 172.902,201.958 174.094 M169.517 174.893 C 166.941 175.090,164.590 175.345,164.293 175.459 C 163.138 175.902,163.560 192.681,164.739 193.218 C 165.649 193.633,181.435 193.121,181.894 192.662 C 182.405 192.151,182.116 175.119,181.590 174.786 C 180.912 174.356,175.947 174.400,169.517 174.893 M126.039 175.162 C 119.504 175.333,120.034 174.476,119.923 185.049 L 119.828 194.030 129.175 194.030 C 136.265 194.030,138.568 193.901,138.714 193.497 C 138.997 192.712,138.535 175.957,138.221 175.615 C 137.852 175.215,132.146 175.002,126.039 175.162 M150.684 175.150 C 145.540 175.246,143.242 175.443,142.934 175.814 C 142.676 176.125,142.439 179.981,142.357 185.194 L 142.217 194.047 151.386 193.932 L 160.554 193.817 160.554 184.435 L 160.554 175.053 159.275 175.033 C 158.571 175.022,154.705 175.075,150.684 175.150 M76.013 175.563 C 75.055 175.752,75.053 175.763,75.053 184.641 L 75.053 193.531 78.145 193.806 C 79.845 193.958,84.019 194.022,87.420 193.949 L 93.603 193.817 93.603 184.648 L 93.603 175.480 85.288 175.427 C 80.714 175.398,76.541 175.459,76.013 175.563 M98.721 175.624 L 97.441 175.920 97.535 184.868 L 97.628 193.817 106.863 193.817 L 116.098 193.817 116.024 185.075 C 115.981 179.916,115.776 176.159,115.524 175.907 C 115.031 175.414,100.672 175.172,98.721 175.624 M180.810 183.316 C 180.810 192.421,181.673 191.502,172.847 191.794 C 164.049 192.084,164.590 192.850,165.307 181.138 L 165.582 176.643 170.531 176.274 C 173.253 176.072,176.679 175.846,178.145 175.772 L 180.810 175.638 180.810 183.316 M92.111 184.435 L 92.111 192.324 87.207 192.348 C 84.510 192.361,81.007 192.382,79.424 192.395 L 76.546 192.419 76.430 184.483 L 76.314 176.546 84.212 176.546 L 92.111 176.546 92.111 184.435 M136.802 177.058 C 137.160 177.416,137.313 179.777,137.313 184.947 L 137.313 192.324 129.424 192.324 L 121.535 192.324 121.535 184.719 C 121.535 180.537,121.663 176.986,121.819 176.830 C 122.355 176.295,136.250 176.506,136.802 177.058 M159.391 184.542 L 159.275 192.537 154.797 192.582 C 152.335 192.606,148.869 192.541,147.096 192.438 L 143.873 192.250 143.761 184.833 C 143.700 180.753,143.770 177.220,143.918 176.981 C 144.085 176.711,147.100 176.546,151.847 176.546 L 159.507 176.546 159.391 184.542 M114.499 184.755 C 114.499 188.918,114.355 192.324,114.179 192.324 C 114.003 192.324,110.501 192.324,106.397 192.324 L 98.934 192.324 98.934 184.639 L 98.934 176.953 106.716 177.069 L 114.499 177.186 114.499 184.755 " stroke="none" fill="#000000" fill-rule="evenodd"></path></g></svg>