<svg id="svg" version="1.1" xmlns="http://www.w3.org/2000/svg" xmlns:xlink="http://www.w3.org/1999/xlink" width="400" height="218.3368869936034" viewBox="0, 0, 400,218.3368869936034"><g id="svgg"><path id="path0" d="M263.919 16.308 C 262.932 18.010,261.069 21.130,259.779 23.241 C 258.489 25.352,256.408 28.767,255.154 30.830 C 252.753 34.782,248.234 41.838,245.822 45.400 C 245.035 46.565,244.484 47.612,244.600 47.727 C 245.074 48.202,247.816 46.246,248.644 44.843 C 249.574 43.266,251.236 41.140,256.946 34.219 C 263.926 25.760,267.009 22.191,268.033 21.386 C 269.306 20.384,269.359 19.794,268.230 19.190 C 267.290 18.687,267.131 17.463,267.833 16.149 C 268.331 15.219,267.874 14.368,266.474 13.619 C 265.828 13.273,265.444 13.677,263.919 16.308 M266.529 15.885 C 266.532 16.647,266.648 17.958,266.787 18.798 C 267.016 20.187,266.847 20.536,264.918 22.636 C 263.751 23.907,260.633 27.633,257.990 30.917 C 250.580 40.120,250.311 40.758,261.132 23.454 C 262.232 21.695,263.751 18.962,264.508 17.380 C 266.038 14.183,266.522 13.825,266.529 15.885 M292.615 22.387 C 292.348 22.973,291.358 24.290,290.415 25.313 C 287.343 28.646,288.461 28.637,292.596 25.296 L 295.595 22.873 294.599 22.107 C 293.303 21.110,293.190 21.126,292.615 22.387 M229.716 26.716 C 229.555 26.877,229.424 27.549,229.424 28.210 C 229.424 28.871,229.195 30.270,228.915 31.318 C 228.462 33.009,228.494 33.322,229.194 34.096 C 229.628 34.576,229.773 34.968,229.516 34.968 C 229.259 34.968,228.919 34.759,228.762 34.504 C 228.184 33.569,227.793 34.811,228.028 36.838 C 228.262 38.865,228.282 38.889,228.750 37.743 C 229.063 36.978,229.750 36.395,230.714 36.078 C 232.142 35.607,232.194 35.516,232.128 33.586 C 232.024 30.513,230.437 25.995,229.716 26.716 M213.616 30.171 C 213.583 30.520,213.738 46.641,213.830 52.452 C 213.926 58.553,214.580 64.863,215.097 64.693 C 215.600 64.528,216.534 57.634,216.594 53.646 C 216.615 52.309,216.821 50.294,217.053 49.168 C 217.284 48.042,217.668 45.107,217.905 42.644 C 218.142 40.181,218.450 37.476,218.589 36.632 C 218.992 34.184,216.647 29.851,214.919 29.851 C 214.219 29.851,213.632 29.995,213.616 30.171 M230.939 31.330 C 232.024 33.927,231.469 36.342,230.292 34.143 C 229.836 33.290,229.670 29.851,230.086 29.851 C 230.215 29.851,230.599 30.516,230.939 31.330 M216.525 32.815 C 218.090 34.700,218.149 35.078,217.312 37.873 C 216.983 38.972,216.389 42.751,215.993 46.269 C 215.597 49.787,215.195 52.745,215.099 52.843 C 215.004 52.941,214.925 48.399,214.925 42.750 C 214.925 37.101,214.809 32.176,214.667 31.805 C 214.210 30.614,215.098 31.097,216.525 32.815 M315.458 39.420 C 311.282 43.905,311.270 43.926,312.900 43.916 C 313.733 43.911,314.350 43.511,315.032 42.536 C 315.728 41.540,315.991 41.373,315.991 41.928 C 315.991 42.749,317.983 41.908,319.046 40.637 C 319.943 39.565,318.926 39.211,317.561 40.119 L 316.205 41.020 317.611 39.688 C 318.385 38.954,319.205 38.470,319.434 38.612 C 319.663 38.754,319.805 38.711,319.749 38.518 C 319.694 38.324,319.890 37.731,320.185 37.198 C 320.754 36.172,320.541 35.389,319.698 35.403 C 319.418 35.408,317.511 37.216,315.458 39.420 M271.322 40.252 C 268.042 43.576,269.419 44.020,274.651 41.326 C 276.514 40.367,278.038 39.492,278.038 39.382 C 278.038 39.272,277.843 39.303,277.604 39.451 C 277.365 39.598,276.214 39.790,275.045 39.877 C 272.823 40.043,272.214 39.489,273.881 38.819 C 274.755 38.468,274.764 38.433,273.987 38.424 C 273.518 38.419,272.319 39.242,271.322 40.252 M164.794 43.794 C 163.748 45.580,157.940 54.001,154.263 59.062 C 152.379 61.655,145.171 71.891,141.587 77.062 C 139.834 79.593,137.339 83.137,136.044 84.940 C 134.748 86.742,131.098 91.980,127.932 96.580 C 124.765 101.181,121.204 106.327,120.017 108.016 C 118.830 109.705,113.540 117.228,108.263 124.733 C 102.985 132.239,96.491 141.627,93.831 145.596 L 88.996 152.812 90.146 153.729 C 91.203 154.572,100.593 160.130,117.910 170.161 C 121.663 172.335,126.365 175.112,128.359 176.333 C 130.353 177.554,132.752 178.964,133.689 179.466 C 134.627 179.968,136.162 180.856,137.100 181.438 C 138.038 182.020,139.670 182.987,140.725 183.586 C 141.780 184.185,145.043 186.113,147.974 187.871 C 150.906 189.630,154.360 191.641,155.650 192.342 C 156.940 193.042,159.531 194.570,161.407 195.737 C 165.861 198.506,164.428 198.871,180.654 190.832 C 188.465 186.962,194.968 183.795,195.106 183.795 C 195.244 183.795,197.409 182.768,199.917 181.511 C 207.128 177.900,206.594 177.508,206.507 186.354 C 206.476 189.545,206.516 189.749,206.844 188.060 C 207.049 187.004,207.227 184.272,207.239 181.989 L 207.261 177.837 208.961 176.969 C 210.969 175.945,210.974 175.957,209.570 178.727 C 208.963 179.924,208.543 181.386,208.622 182.018 C 208.743 182.975,209.023 182.614,210.386 179.744 C 211.277 177.868,212.135 176.081,212.293 175.774 C 212.596 175.185,224.960 169.296,225.894 169.296 C 226.194 169.296,226.439 169.109,226.439 168.881 C 226.439 168.528,228.584 167.164,229.138 167.164 C 229.239 167.164,230.448 169.459,231.825 172.264 C 235.398 179.543,236.063 179.000,233.243 171.104 L 231.832 167.155 232.974 165.963 C 233.602 165.307,237.091 163.279,240.726 161.455 C 247.789 157.911,248.089 157.597,246.228 155.708 C 245.620 155.090,244.367 153.433,243.445 152.026 C 242.523 150.618,240.441 147.649,238.819 145.427 C 235.179 140.439,235.195 140.425,240.716 143.761 C 243.191 145.258,246.043 146.962,247.053 147.548 C 248.064 148.134,249.452 149.063,250.138 149.613 C 252.287 151.333,258.378 155.125,259.773 155.612 C 262.726 156.641,262.884 156.503,264.527 151.493 C 266.009 146.973,266.999 142.546,266.125 144.350 C 265.320 146.010,263.539 150.821,263.539 151.334 C 263.539 151.620,263.245 152.424,262.885 153.121 L 262.230 154.387 260.646 153.174 C 255.671 149.365,253.822 147.990,251.253 146.189 C 249.684 145.089,248.227 144.178,248.015 144.163 C 247.195 144.107,249.466 146.088,254.877 150.151 C 257.975 152.477,260.639 154.590,260.798 154.847 C 261.373 155.777,259.206 154.717,256.477 152.733 C 254.974 151.640,252.237 149.654,250.395 148.320 C 248.553 146.985,246.529 145.763,245.898 145.605 C 245.008 145.382,244.809 145.132,245.010 144.497 C 245.233 143.794,245.115 143.716,244.185 143.949 C 243.340 144.161,242.446 143.787,240.149 142.260 C 238.526 141.181,236.996 140.299,236.748 140.299 C 234.910 140.299,237.244 138.155,240.279 137.056 C 241.509 136.611,241.705 136.703,243.970 138.791 C 245.285 140.003,247.717 141.888,249.374 142.980 C 251.031 144.071,252.508 145.162,252.657 145.403 C 253.044 146.028,254.158 145.948,254.158 145.295 C 254.158 144.993,253.578 144.404,252.869 143.985 C 250.462 142.563,243.070 136.893,243.070 136.468 C 243.070 135.601,246.308 134.651,249.476 134.588 C 252.426 134.530,252.826 134.411,254.447 133.108 C 256.167 131.726,256.244 131.707,257.636 132.334 C 258.420 132.687,259.829 133.210,260.768 133.497 C 261.706 133.784,263.337 134.451,264.393 134.980 C 266.459 136.014,272.932 136.658,272.855 135.821 C 272.806 135.286,267.804 133.854,266.990 134.142 C 266.386 134.355,258.937 131.975,258.290 131.363 C 258.100 131.183,258.532 130.542,259.249 129.938 C 260.503 128.883,260.951 127.932,260.194 127.932 C 259.996 127.932,259.470 128.333,259.026 128.824 C 257.534 130.473,256.994 130.524,253.462 129.352 C 251.617 128.739,250.025 128.166,249.924 128.080 C 249.603 127.803,252.144 125.393,253.060 125.106 C 253.547 124.954,254.349 124.514,254.843 124.128 L 255.742 123.427 254.752 121.308 C 254.207 120.143,253.755 118.976,253.747 118.714 C 253.738 118.453,253.362 117.769,252.911 117.195 C 252.459 116.622,251.129 114.309,249.954 112.056 L 247.817 107.959 249.815 109.154 C 250.913 109.811,254.243 111.811,257.213 113.597 C 260.184 115.383,262.793 116.844,263.011 116.844 C 263.229 116.844,263.744 117.217,264.157 117.672 C 265.449 119.100,262.466 124.473,260.748 123.814 C 260.157 123.587,260.041 123.679,260.245 124.211 C 260.410 124.641,260.317 124.845,260.000 124.749 C 258.540 124.307,256.716 124.160,256.716 124.483 C 256.716 125.103,261.707 126.964,268.870 129.015 C 278.042 131.642,279.225 132.100,280.478 133.506 C 281.364 134.500,281.789 134.669,282.888 134.464 C 284.421 134.178,285.421 133.475,284.295 133.475 C 283.890 133.475,282.172 132.823,280.478 132.025 C 278.785 131.228,276.151 130.234,274.627 129.816 C 267.910 127.978,267.365 127.010,273.784 128.319 C 278.146 129.209,278.891 129.191,278.891 128.198 C 278.891 127.572,274.796 126.775,271.018 126.667 C 269.620 126.627,268.181 126.415,267.820 126.197 C 267.406 125.946,269.284 125.884,272.921 126.030 C 278.008 126.234,278.754 126.360,279.329 127.109 C 280.696 128.890,283.110 127.719,284.699 124.505 C 289.280 115.238,292.271 109.354,292.494 109.168 C 293.216 108.568,292.729 107.532,291.125 106.251 C 287.968 103.732,283.156 98.912,283.156 98.270 C 283.156 97.928,284.641 96.210,286.456 94.453 C 290.620 90.421,290.113 90.278,285.714 94.243 C 283.893 95.885,282.170 97.228,281.885 97.228 C 281.290 97.228,271.739 88.789,269.383 86.181 C 268.516 85.221,267.609 84.435,267.368 84.435 C 266.704 84.435,262.599 87.356,261.939 88.298 C 261.620 88.753,261.023 89.126,260.612 89.126 C 258.865 89.126,258.388 90.033,259.041 92.111 C 259.373 93.166,259.657 93.682,259.673 93.256 C 259.720 91.975,264.187 87.318,265.184 87.510 C 266.664 87.795,268.912 92.549,267.936 93.331 C 267.457 93.715,266.430 95.241,265.654 96.722 C 264.879 98.203,263.831 99.740,263.325 100.138 C 262.819 100.536,262.474 101.069,262.559 101.324 C 262.894 102.327,258.966 105.333,257.662 105.072 C 256.895 104.918,255.252 105.238,253.242 105.932 C 248.591 107.537,244.973 106.930,245.393 104.614 C 245.541 103.796,245.389 103.625,244.509 103.625 C 242.838 103.625,243.589 103.041,248.070 100.859 C 252.647 98.629,256.071 98.043,257.867 99.183 C 259.330 100.111,260.128 99.531,260.128 97.538 C 260.128 96.586,260.003 95.932,259.850 96.084 C 259.698 96.237,259.313 96.029,258.995 95.622 C 258.491 94.977,258.472 95.036,258.846 96.083 C 259.625 98.262,258.724 98.301,257.017 96.161 C 256.362 95.340,255.067 94.280,254.139 93.807 C 252.088 92.761,252.092 92.883,254.051 91.062 C 255.952 89.294,256.028 89.278,256.622 90.512 L 257.085 91.471 257.114 90.532 C 257.146 89.492,257.770 88.976,261.834 86.631 C 263.358 85.752,266.237 84.089,268.230 82.937 L 271.855 80.842 280.597 80.583 C 285.405 80.440,287.756 80.289,285.821 80.247 C 282.906 80.184,282.153 80.021,281.428 79.296 C 280.947 78.815,280.131 78.261,279.616 78.065 C 278.711 77.722,278.723 77.692,279.957 77.206 C 280.661 76.929,282.676 75.969,284.435 75.074 C 286.194 74.178,288.244 73.315,288.990 73.156 C 292.419 72.424,291.839 71.334,285.438 66.478 C 280.482 62.719,280.226 62.419,281.280 61.621 C 282.262 60.877,280.904 60.665,279.768 61.384 C 279.157 61.770,275.906 59.649,275.906 58.865 C 275.906 58.590,281.497 54.666,283.443 53.576 C 284.177 53.164,287.088 55.002,286.818 55.707 C 286.501 56.533,286.855 56.436,288.408 55.274 C 289.905 54.154,293.002 52.525,292.324 53.215 C 292.090 53.453,290.578 54.722,288.965 56.035 C 287.352 57.348,286.239 58.422,286.491 58.422 C 286.981 58.422,291.508 54.770,292.483 53.588 C 292.805 53.198,293.294 52.878,293.571 52.878 C 293.847 52.878,295.119 51.947,296.397 50.808 C 297.675 49.670,299.104 48.615,299.574 48.465 C 301.331 47.902,305.119 44.928,305.254 44.004 C 305.468 42.534,304.671 42.866,300.493 45.990 C 294.865 50.198,292.636 51.649,289.590 53.088 L 286.890 54.364 285.513 52.771 L 284.135 51.177 279.498 54.424 C 276.947 56.209,274.664 57.738,274.424 57.821 C 274.184 57.905,270.437 55.312,266.098 52.059 C 256.811 45.097,257.922 44.554,256.999 56.503 C 256.218 66.605,255.197 69.686,252.781 69.227 L 251.386 68.962 252.519 69.875 C 253.143 70.378,253.902 70.789,254.207 70.789 C 254.512 70.789,253.915 71.652,252.880 72.707 L 250.998 74.624 249.555 73.240 C 245.980 69.809,241.840 63.432,242.341 62.127 C 242.603 61.443,249.467 55.695,249.467 56.159 C 249.467 56.335,248.375 57.582,247.039 58.932 C 244.557 61.441,244.088 62.571,246.238 60.865 C 247.606 59.779,253.329 52.775,254.157 51.173 L 254.708 50.107 253.687 50.955 C 253.125 51.422,251.757 52.691,250.647 53.776 C 249.538 54.860,247.523 56.578,246.170 57.594 C 244.817 58.609,243.126 59.978,242.412 60.635 L 241.115 61.830 238.078 57.802 C 236.407 55.586,234.425 52.618,233.672 51.206 C 231.556 47.236,230.502 47.209,229.372 51.095 C 228.984 52.428,227.667 55.821,226.444 58.635 C 222.407 67.930,217.065 81.717,217.052 82.875 C 217.049 83.147,216.584 84.328,216.020 85.501 L 214.993 87.633 214.959 84.587 C 214.920 81.094,215.930 75.401,216.899 73.645 C 217.727 72.145,217.395 71.215,216.030 71.215 C 215.450 71.215,214.847 71.008,214.691 70.754 C 214.534 70.501,213.803 69.926,213.066 69.477 L 211.727 68.660 212.931 68.658 C 213.838 68.657,214.100 68.476,213.994 67.925 C 213.771 66.767,211.150 65.242,209.425 65.267 L 207.889 65.290 210.128 66.150 C 211.500 66.677,212.367 67.267,212.367 67.674 C 212.367 69.195,208.416 67.331,205.534 64.449 C 202.916 61.831,202.555 62.888,203.585 70.149 C 203.760 71.384,203.953 76.953,203.850 77.825 C 203.775 78.466,202.330 75.575,200.837 71.798 C 200.108 69.953,198.837 67.230,198.011 65.746 C 196.539 63.099,196.384 62.059,197.616 63.081 C 197.959 63.365,198.875 63.527,199.652 63.440 L 201.066 63.282 199.463 62.550 C 195.967 60.955,194.683 62.523,196.848 65.741 L 198.350 67.972 197.362 68.731 C 196.819 69.149,196.255 69.495,196.108 69.500 C 195.961 69.505,195.135 70.853,194.273 72.495 C 192.625 75.631,192.046 76.108,191.821 74.520 C 191.735 73.920,191.342 73.512,190.769 73.430 C 189.063 73.187,188.256 71.844,189.070 70.602 C 189.816 69.462,189.992 68.230,189.407 68.230 C 189.211 68.230,188.831 68.710,188.564 69.296 C 188.297 69.883,187.930 70.353,187.749 70.342 C 187.282 70.312,178.674 58.207,171.237 47.122 C 167.164 41.050,166.577 40.747,164.794 43.794 M165.531 63.844 C 165.509 73.175,165.484 80.881,165.475 80.967 C 165.466 81.054,164.800 80.622,163.994 80.008 C 161.606 78.186,161.906 79.506,164.537 82.396 L 165.593 83.556 165.304 90.906 C 164.993 98.802,164.792 99.536,162.638 100.635 C 161.961 100.981,160.703 101.714,159.843 102.264 C 158.592 103.065,158.107 103.174,157.419 102.805 C 156.036 102.065,155.422 102.239,156.237 103.139 C 156.917 103.891,156.886 104.008,155.670 105.309 C 154.357 106.715,153.205 106.867,153.430 105.606 C 153.629 104.492,152.786 104.792,152.498 105.937 C 152.356 106.506,151.742 107.561,151.135 108.283 L 150.031 109.595 151.028 109.604 C 152.578 109.619,155.032 110.967,160.128 114.605 L 164.819 117.953 164.689 126.023 C 164.608 131.074,164.391 134.197,164.110 134.371 C 163.863 134.524,162.866 134.887,161.895 135.178 C 158.859 136.089,158.753 136.143,159.611 136.348 C 160.031 136.448,161.265 136.226,162.353 135.855 C 163.441 135.485,164.393 135.181,164.468 135.181 C 164.544 135.181,164.606 139.115,164.606 143.923 C 164.606 148.963,164.439 152.665,164.213 152.665 C 163.997 152.665,162.510 152.006,160.908 151.200 C 159.306 150.395,156.892 149.254,155.544 148.665 C 152.264 147.234,152.339 147.100,157.996 144.286 C 160.693 142.944,162.900 141.607,162.900 141.316 C 162.900 141.011,160.507 141.992,157.249 143.634 C 149.873 147.352,149.693 147.975,155.437 149.902 C 157.548 150.610,159.755 151.500,160.341 151.880 C 160.928 152.259,162.143 152.804,163.041 153.089 C 164.402 153.521,164.638 153.760,164.448 154.522 C 164.323 155.025,164.189 164.216,164.152 174.947 C 164.114 185.677,163.933 194.456,163.748 194.456 C 163.564 194.456,161.715 193.429,159.639 192.173 C 153.997 188.760,134.055 176.944,123.881 170.985 C 97.812 155.717,91.652 151.812,93.629 151.812 C 94.902 151.812,95.949 151.173,95.949 150.394 C 95.949 150.178,95.373 150.115,94.670 150.256 C 93.024 150.585,93.042 150.499,95.231 147.622 C 96.243 146.291,98.959 142.420,101.267 139.019 C 103.575 135.618,107.688 129.706,110.407 125.881 C 113.127 122.055,115.832 118.187,116.418 117.284 C 117.518 115.590,120.231 111.666,125.420 104.264 C 127.064 101.919,129.385 98.561,130.577 96.802 C 134.019 91.722,133.723 91.925,135.857 93.176 C 138.401 94.666,138.759 94.513,136.331 92.973 C 133.863 91.408,133.842 91.687,136.707 87.879 C 138.015 86.140,140.133 83.167,141.413 81.271 C 142.693 79.376,145.545 75.235,147.750 72.068 C 156.264 59.844,161.726 51.809,163.798 48.461 C 164.504 47.321,165.191 46.499,165.326 46.633 C 165.460 46.768,165.552 54.513,165.531 63.844 M206.383 47.583 C 206.124 48.265,205.445 49.435,204.875 50.183 C 204.305 50.931,203.838 51.642,203.838 51.765 C 203.838 51.887,203.358 52.695,202.772 53.559 C 201.710 55.123,201.320 57.569,202.132 57.569 C 202.367 57.569,202.565 57.138,202.572 56.610 C 202.591 55.280,203.540 54.158,204.646 54.158 C 205.438 54.158,205.508 54.034,205.122 53.314 C 204.766 52.648,204.875 52.155,205.640 50.974 C 206.812 49.166,207.073 49.117,207.439 50.640 C 207.780 52.056,210.736 58.489,210.948 58.277 C 211.031 58.194,210.822 57.466,210.485 56.658 C 210.147 55.850,209.363 53.374,208.742 51.155 C 207.428 46.458,207.036 45.865,206.383 47.583 M171.002 51.493 C 172.165 53.310,173.375 55.085,173.691 55.437 C 174.007 55.789,175.738 58.188,177.538 60.768 C 179.338 63.348,181.312 66.079,181.925 66.837 C 182.538 67.594,182.923 68.458,182.780 68.756 C 182.244 69.868,177.144 76.546,176.830 76.546 C 176.480 76.546,174.983 73.182,173.319 68.657 C 171.888 64.766,171.890 67.379,173.322 71.700 C 173.894 73.427,174.643 76.229,174.987 77.926 C 175.564 80.778,178.294 87.954,179.158 88.891 C 179.363 89.114,179.531 89.810,179.531 90.438 C 179.531 91.066,179.821 92.275,180.176 93.125 C 180.904 94.865,180.652 95.027,179.104 93.817 C 178.518 93.358,177.484 92.978,176.806 92.973 C 175.924 92.966,175.196 92.524,174.247 91.418 C 173.518 90.568,172.010 88.839,170.896 87.575 C 168.744 85.136,167.901 82.775,169.812 84.542 C 172.002 86.566,172.424 86.762,171.187 85.181 C 170.499 84.302,169.811 83.582,169.658 83.582 C 169.506 83.582,169.410 82.633,169.445 81.472 C 169.482 80.270,169.280 79.132,168.977 78.828 C 168.550 78.401,168.443 78.737,168.443 80.512 C 168.443 81.731,168.252 82.729,168.017 82.729 C 167.478 82.729,167.523 83.343,167.439 74.733 C 167.368 67.331,167.669 65.378,168.212 69.723 C 168.373 71.013,168.695 72.068,168.927 72.068 C 169.174 72.068,169.256 71.317,169.125 70.256 C 169.003 69.259,168.783 65.976,168.637 62.959 C 168.355 57.107,168.803 56.065,169.762 60.348 C 170.318 62.834,171.148 63.642,170.739 61.301 C 170.304 58.809,169.666 57.143,169.149 57.143 C 168.804 57.143,168.638 56.153,168.630 54.051 C 168.624 52.351,168.498 50.336,168.349 49.574 C 167.917 47.354,168.730 47.942,171.002 51.493 M235.306 48.721 C 233.412 50.210,234.302 52.420,236.465 51.597 C 237.603 51.165,237.616 51.125,236.877 50.309 C 236.142 49.497,236.146 49.467,236.982 49.467 C 237.459 49.467,238.078 49.743,238.358 50.081 C 238.639 50.419,239.172 50.579,239.544 50.436 C 240.101 50.223,240.017 50.004,239.062 49.183 C 237.783 48.082,236.343 47.905,235.306 48.721 M190.863 49.751 C 190.713 50.143,190.776 50.648,191.002 50.874 C 191.630 51.502,192.751 50.882,192.751 49.907 C 192.751 48.837,191.261 48.715,190.863 49.751 M266.194 53.977 C 269.308 56.242,272.047 58.278,272.281 58.502 C 272.776 58.973,271.970 59.699,267.156 63.113 C 265.338 64.403,262.787 66.274,261.488 67.271 C 258.730 69.387,258.533 69.429,257.996 68.017 C 257.440 66.555,256.716 66.676,256.716 68.230 C 256.716 69.225,256.527 69.510,255.864 69.510 C 254.819 69.510,254.819 69.499,255.826 67.266 C 256.275 66.272,256.873 64.716,257.155 63.808 C 257.486 62.746,257.785 62.346,257.995 62.686 C 258.174 62.976,258.453 60.456,258.615 57.086 C 259.056 47.910,258.288 48.225,266.194 53.977 M223.239 51.683 C 221.667 52.452,221.476 52.738,220.846 55.257 C 220.134 58.106,220.434 58.846,221.480 56.823 C 221.814 56.178,222.874 55.018,223.837 54.244 C 226.599 52.024,226.183 50.242,223.239 51.683 M234.545 55.607 C 235.498 57.342,237.038 59.627,237.968 60.683 C 239.938 62.922,239.947 62.964,238.732 64.258 C 237.324 65.757,236.800 65.473,236.025 62.793 C 235.635 61.445,234.662 58.643,233.863 56.567 C 233.063 54.491,232.409 52.716,232.409 52.622 C 232.409 51.983,233.040 52.864,234.545 55.607 M231.561 55.117 C 231.815 56.114,232.377 57.793,232.808 58.849 C 233.239 59.904,233.918 61.910,234.317 63.306 C 234.716 64.703,235.356 66.074,235.739 66.355 C 236.359 66.808,236.248 67.069,234.733 68.720 C 233.797 69.741,232.459 71.387,231.761 72.379 C 230.272 74.492,230.095 74.544,229.176 73.140 C 228.477 72.074,228.478 70.944,229.181 63.326 C 229.340 61.606,229.313 61.482,229.043 62.687 C 228.859 63.507,228.390 64.922,228.000 65.830 C 227.060 68.022,227.036 73.748,227.960 75.533 C 228.796 77.151,228.651 77.393,223.904 82.303 C 221.976 84.296,219.908 86.556,219.309 87.325 C 217.719 89.362,217.584 88.644,219.108 86.264 C 220.551 84.010,223.587 77.176,223.281 76.870 C 223.045 76.634,221.551 79.427,219.924 83.147 C 218.641 86.080,215.275 90.816,215.019 90.047 C 214.936 89.796,215.343 88.766,215.925 87.759 C 216.507 86.752,217.556 84.296,218.256 82.303 C 218.956 80.309,220.773 75.800,222.294 72.281 C 223.815 68.763,225.176 65.597,225.318 65.245 C 225.459 64.893,225.486 65.757,225.377 67.164 C 225.113 70.554,225.029 73.603,225.142 75.693 C 225.300 78.635,225.891 75.728,226.199 70.490 C 226.642 62.971,227.893 57.143,229.063 57.143 C 229.262 57.143,229.424 56.768,229.424 56.310 C 229.424 53.489,230.929 52.649,231.561 55.117 M302.996 59.500 C 298.225 63.953,298.231 63.669,302.885 64.766 C 305.627 65.413,307.036 65.375,307.036 64.655 C 307.036 63.905,305.715 63.553,302.878 63.545 C 301.186 63.541,299.348 62.712,300.959 62.680 C 301.931 62.661,307.926 56.162,307.414 55.683 C 307.323 55.599,305.335 57.316,302.996 59.500 M282.619 58.902 C 282.211 59.130,281.876 59.500,281.876 59.723 C 281.876 60.389,283.162 60.181,283.435 59.470 C 283.775 58.584,283.513 58.402,282.619 58.902 M276.525 61.543 C 277.880 62.652,277.307 64.819,275.658 64.819 C 275.298 64.819,275.127 65.019,275.278 65.264 C 275.453 65.546,276.217 65.320,277.368 64.646 L 279.182 63.583 282.201 66.013 C 283.862 67.350,285.859 68.977,286.640 69.630 L 288.060 70.816 286.354 70.609 C 279.654 69.795,273.001 69.450,267.031 69.605 L 260.076 69.785 261.443 68.688 C 262.195 68.084,265.322 65.833,268.392 63.684 C 274.333 59.526,274.128 59.580,276.525 61.543 M257.387 65.062 C 257.230 65.687,257.197 66.295,257.315 66.412 C 257.432 66.529,257.656 66.114,257.813 65.489 C 257.970 64.864,258.002 64.257,257.885 64.139 C 257.768 64.022,257.543 64.437,257.387 65.062 M242.711 67.271 C 243.701 68.619,245.530 70.991,246.775 72.542 C 249.542 75.985,249.483 76.297,245.100 81.288 L 243.813 82.754 243.206 81.584 C 242.872 80.940,241.843 78.104,240.919 75.281 C 239.995 72.459,238.962 69.341,238.623 68.353 C 238.016 66.586,238.025 66.543,239.152 65.701 C 240.723 64.529,240.686 64.512,242.711 67.271 M207.550 67.591 C 208.625 68.412,209.669 69.083,209.869 69.083 C 210.838 69.083,210.166 72.428,208.753 74.647 C 207.938 75.926,207.266 77.104,207.260 77.264 C 207.084 81.972,205.643 79.435,205.374 73.945 C 205.235 71.108,205.001 68.181,204.853 67.442 C 204.500 65.676,205.085 65.709,207.550 67.591 M233.931 73.117 C 231.254 76.109,229.919 77.320,231.212 75.585 C 231.519 75.174,232.718 73.541,233.876 71.956 C 235.237 70.094,236.129 69.220,236.396 69.488 C 236.663 69.755,235.791 71.040,233.931 73.117 M213.590 70.860 C 216.806 73.663,215.284 80.597,211.453 80.597 C 211.153 80.597,211.091 79.223,211.266 76.439 C 211.410 74.152,211.538 71.658,211.551 70.896 C 211.580 69.187,211.669 69.185,213.590 70.860 M184.827 71.500 C 186.005 73.233,186.019 73.178,183.672 75.986 C 182.753 77.086,182.073 78.201,182.161 78.465 C 182.318 78.938,183.612 77.757,185.624 75.303 L 186.643 74.061 187.963 75.979 L 189.283 77.897 187.162 80.487 C 183.848 84.534,181.298 84.461,183.282 80.377 C 184.485 77.901,184.464 77.662,183.156 78.891 C 182.569 79.442,182.090 80.328,182.090 80.859 C 182.090 82.579,181.191 82.459,179.206 80.474 L 177.269 78.537 179.040 76.313 C 180.013 75.090,180.810 73.918,180.810 73.709 C 180.810 73.127,183.009 69.936,183.410 69.936 C 183.605 69.936,184.243 70.640,184.827 71.500 M199.884 73.590 C 201.540 77.659,201.635 78.994,200.320 79.685 C 199.792 79.962,198.708 80.664,197.911 81.246 C 195.993 82.645,195.640 82.411,192.636 77.742 C 192.441 77.440,192.797 76.661,193.511 75.823 C 194.172 75.048,195.352 73.399,196.133 72.158 C 197.913 69.328,198.193 69.435,199.884 73.590 M283.438 71.642 C 285.808 71.642,287.420 71.814,287.420 72.068 C 287.420 72.303,287.114 72.495,286.740 72.495 C 286.367 72.495,282.864 74.126,278.958 76.121 C 271.016 80.175,271.529 79.997,270.571 79.039 C 269.938 78.406,266.126 79.656,263.575 81.333 C 262.442 82.078,264.551 81.730,266.517 80.848 C 270.828 78.913,270.230 80.080,265.368 83.087 C 260.891 85.857,257.248 87.731,257.023 87.380 C 256.222 86.126,255.059 82.996,255.269 82.657 C 255.934 81.580,258.916 80.684,260.439 81.105 C 262.445 81.659,263.277 80.886,261.385 80.227 C 259.513 79.574,260.228 78.770,264.392 76.847 C 266.151 76.034,267.346 75.281,267.046 75.172 C 266.746 75.063,264.923 75.755,262.995 76.708 C 259.664 78.356,253.703 80.736,253.510 80.496 C 252.708 79.495,252.451 78.341,252.908 77.790 C 253.317 77.297,253.276 77.007,252.707 76.379 C 252.028 75.628,252.078 75.516,253.677 74.193 C 254.763 73.295,255.275 72.569,255.115 72.153 C 254.917 71.636,255.117 71.556,256.112 71.755 C 256.796 71.892,258.028 71.831,258.849 71.620 C 259.670 71.409,264.642 71.328,269.898 71.439 C 275.155 71.551,281.248 71.642,283.438 71.642 M238.103 73.780 C 238.357 75.047,239.948 79.420,241.157 82.173 C 241.736 83.492,241.711 83.573,240.388 84.687 C 239.111 85.762,237.527 87.921,237.527 88.587 C 237.527 88.748,238.482 87.940,239.649 86.790 C 241.814 84.658,242.894 84.406,241.636 86.326 C 240.757 87.666,240.761 87.701,241.791 87.970 C 243.022 88.292,242.840 88.941,241.345 89.560 C 239.620 90.275,235.108 89.843,232.569 88.720 L 230.619 87.857 231.727 86.540 C 232.337 85.815,232.836 84.949,232.836 84.615 C 232.836 84.282,233.068 84.009,233.351 84.009 C 233.634 84.009,233.035 83.161,232.019 82.126 C 230.203 80.276,230.187 80.234,231.077 79.678 C 231.575 79.367,231.983 78.873,231.983 78.580 C 231.983 77.941,237.199 72.113,237.578 72.328 C 237.724 72.410,237.960 73.063,238.103 73.780 M168.252 74.591 C 167.998 75.002,168.688 77.186,169.073 77.186 C 169.196 77.186,169.296 76.514,169.296 75.693 C 169.296 74.280,168.781 73.736,168.252 74.591 M159.164 76.740 C 158.924 77.685,158.884 78.361,159.075 78.243 C 159.489 77.988,160.082 75.505,159.798 75.221 C 159.689 75.112,159.404 75.796,159.164 76.740 M209.938 80.384 C 209.799 85.984,208.947 87.299,207.748 83.763 C 206.794 80.947,207.785 76.545,209.304 76.854 C 209.912 76.978,210.009 77.513,209.938 80.384 M249.800 78.169 C 248.427 80.640,245.389 85.281,245.142 85.284 C 243.722 85.303,245.491 81.714,248.556 78.358 C 249.860 76.930,250.547 76.826,249.800 78.169 M282.303 78.645 C 283.491 79.361,284.425 79.548,283.774 78.939 C 283.551 78.731,282.889 78.435,282.303 78.282 L 281.237 78.003 282.303 78.645 M252.876 81.557 C 252.878 81.732,252.711 81.876,252.507 81.876 C 252.303 81.876,250.820 82.836,249.212 84.009 C 247.603 85.181,246.145 86.141,245.971 86.141 C 245.653 86.141,247.917 82.761,249.893 80.287 L 250.959 78.952 251.917 80.094 C 252.443 80.723,252.875 81.381,252.876 81.557 M291.258 79.757 C 289.843 80.067,289.877 80.085,291.898 80.105 C 298.474 80.167,298.876 80.699,295.234 84.525 C 293.179 86.683,292.720 87.338,293.673 86.754 C 295.287 85.766,301.066 80.254,301.066 79.704 C 301.066 79.246,293.402 79.287,291.258 79.757 M157.826 82.196 C 157.541 83.545,156.648 87.527,155.840 91.045 C 155.033 94.563,154.269 97.921,154.143 98.507 C 154.017 99.094,154.401 98.541,154.996 97.278 C 155.591 96.016,156.267 93.809,156.497 92.374 C 156.728 90.939,157.214 88.628,157.577 87.237 C 158.274 84.572,158.901 79.744,158.551 79.744 C 158.437 79.744,158.111 80.848,157.826 82.196 M191.895 81.659 C 192.619 82.712,193.699 83.828,194.294 84.140 C 195.277 84.655,195.128 84.691,192.678 84.533 C 187.144 84.176,186.594 83.725,188.667 81.240 C 190.244 79.348,190.310 79.356,191.895 81.659 M211.822 84.335 C 211.689 85.922,211.207 88.177,210.752 89.346 C 210.296 90.515,209.794 92.814,209.635 94.456 C 209.127 99.727,208.934 100.822,208.355 101.705 C 208.043 102.182,207.651 103.192,207.485 103.951 C 206.973 106.281,206.397 105.485,206.397 102.448 C 206.397 100.027,206.533 99.480,207.249 99.033 C 208.388 98.322,208.324 97.731,206.985 96.581 C 205.876 95.627,205.868 95.576,205.793 88.962 C 205.711 81.624,205.801 81.301,207.039 84.496 C 208.620 88.576,210.151 88.384,210.543 84.058 C 210.718 82.124,210.945 81.450,211.422 81.450 C 211.954 81.450,212.023 81.942,211.822 84.335 M201.115 82.927 C 200.736 83.506,200.426 84.465,200.426 85.060 C 200.426 86.322,199.795 86.423,197.610 85.510 C 195.816 84.760,195.987 84.339,198.643 82.956 C 201.327 81.558,202.018 81.550,201.115 82.927 M180.482 84.007 C 181.718 84.944,182.938 85.711,183.193 85.712 C 183.724 85.715,188.060 92.139,188.060 92.923 C 188.060 93.208,189.067 94.518,190.299 95.834 C 191.530 97.150,192.239 98.118,191.875 97.986 C 191.053 97.688,186.533 96.504,185.015 96.189 C 183.681 95.913,181.205 92.344,181.085 90.524 C 181.042 89.872,180.291 87.953,179.416 86.258 C 177.073 81.719,177.176 81.501,180.482 84.007 M230.304 82.975 C 231.009 83.825,230.033 85.810,227.886 87.891 C 225.956 89.762,226.058 88.940,228.145 85.816 C 229.083 84.411,229.846 83.094,229.841 82.889 C 229.826 82.297,228.268 84.400,226.421 87.505 C 224.839 90.164,223.128 92.181,224.279 90.030 C 225.152 88.401,224.344 89.083,223.205 90.938 C 222.593 91.935,221.200 93.588,220.108 94.612 C 219.017 95.636,218.464 96.233,218.880 95.938 C 220.601 94.717,218.335 99.120,215.511 102.485 C 214.359 103.857,214.198 104.904,215.139 104.904 C 215.490 104.904,215.778 104.702,215.778 104.454 C 215.778 102.876,221.304 96.195,226.122 91.948 L 229.855 88.656 230.316 89.851 C 231.695 93.430,232.409 95.317,232.409 95.384 C 232.410 95.640,226.930 98.549,223.881 99.912 C 221.476 100.987,219.734 102.100,218.706 103.218 C 216.185 105.960,217.442 105.492,222.923 101.646 C 224.307 100.675,226.960 99.150,228.818 98.257 C 230.676 97.363,232.355 96.554,232.549 96.458 C 232.743 96.361,232.839 96.822,232.762 97.483 C 232.641 98.522,232.280 98.808,230.064 99.618 C 226.688 100.853,220.594 104.201,218.981 105.707 C 218.275 106.367,215.394 108.112,212.580 109.585 C 206.142 112.954,205.598 113.317,206.486 113.658 C 206.867 113.804,208.153 113.271,209.505 112.406 C 212.555 110.454,214.407 109.744,218.406 108.988 C 220.203 108.649,222.465 107.967,223.432 107.474 C 225.206 106.569,226.013 106.622,226.013 107.644 C 226.013 108.493,223.030 110.285,220.140 111.172 C 217.861 111.872,217.609 112.056,217.992 112.740 C 218.651 113.919,217.795 114.565,216.409 113.933 C 215.008 113.295,214.925 113.302,214.925 114.072 C 214.925 114.575,214.333 114.712,212.154 114.712 C 209.429 114.712,207.676 115.543,207.676 116.835 C 207.676 117.253,209.617 116.601,210.426 115.910 C 211.853 114.694,214.373 116.079,213.832 117.783 C 213.661 118.322,213.542 118.859,213.569 118.977 C 213.693 119.532,209.470 121.205,207.995 121.184 C 206.900 121.169,206.401 121.332,206.514 121.668 C 206.702 122.226,211.403 122.356,213.220 121.854 C 214.773 121.424,217.771 125.107,218.133 127.891 C 218.274 128.969,218.664 130.622,219.000 131.565 C 219.635 133.345,220.371 141.151,219.904 141.151 C 219.062 141.151,217.734 136.994,217.044 132.196 C 215.959 124.643,215.347 122.930,214.515 125.118 C 214.272 125.758,214.078 126.509,214.085 126.787 C 214.097 127.231,211.919 134.257,211.626 134.719 C 211.199 135.395,208.543 127.886,208.534 125.977 C 208.528 124.389,208.162 123.940,207.395 124.576 C 206.956 124.941,206.823 124.888,206.823 124.346 C 206.823 122.123,205.027 123.258,203.336 126.550 C 201.519 130.087,200.853 130.198,200.853 126.963 C 200.853 124.241,200.901 124.116,202.443 122.846 L 204.032 121.535 202.849 121.535 C 202.134 121.535,201.274 121.957,200.678 122.600 C 199.513 123.858,196.717 123.391,197.173 122.014 C 197.299 121.633,197.804 120.196,198.296 118.821 C 198.788 117.445,199.097 116.226,198.983 116.111 C 198.526 115.655,194.746 119.309,193.813 121.109 C 191.894 124.812,191.632 124.983,190.823 123.061 C 189.363 119.591,189.390 119.553,195.257 116.847 C 200.130 114.599,201.557 113.578,201.203 112.594 C 201.128 112.384,200.011 112.867,198.721 113.667 C 195.090 115.917,194.507 115.833,193.353 112.889 L 192.386 110.427 193.418 109.751 C 194.588 108.984,195.947 109.281,195.585 110.224 C 195.224 111.167,196.150 111.495,196.941 110.705 C 197.496 110.150,197.537 109.846,197.145 109.218 C 196.428 108.070,198.082 105.774,199.635 105.764 C 201.006 105.755,201.135 105.444,201.718 100.753 C 202.243 96.533,202.366 96.240,202.963 97.809 C 203.456 99.108,204.088 99.226,205.193 98.226 C 206.218 97.298,206.665 97.793,206.039 99.165 C 205.519 100.307,205.358 105.204,205.803 106.362 C 206.304 107.669,207.308 107.011,208.328 104.705 C 209.139 102.870,211.143 100.530,217.733 93.724 C 229.951 81.105,229.250 81.704,230.304 82.975 M213.860 86.674 C 213.388 91.552,212.869 93.799,211.945 94.974 L 211.087 96.064 211.087 94.345 C 211.087 93.400,211.457 91.408,211.910 89.917 C 212.362 88.426,212.945 86.391,213.205 85.394 C 213.918 82.667,214.195 83.209,213.860 86.674 M254.589 86.581 C 255.119 87.996,255.478 89.213,255.388 89.286 C 255.298 89.359,254.372 89.917,253.331 90.527 L 251.438 91.634 249.435 89.648 L 247.431 87.663 250.048 85.885 C 253.454 83.571,253.464 83.573,254.589 86.581 M320.738 85.518 C 318.992 86.277,310.295 88.783,305.330 89.958 C 303.337 90.430,299.883 91.409,297.655 92.134 C 295.426 92.858,292.692 93.560,291.578 93.693 C 290.004 93.881,289.552 94.106,289.552 94.700 C 289.552 95.656,290.157 95.832,294.670 96.194 C 296.663 96.354,299.829 96.920,301.706 97.452 C 305.425 98.506,309.559 99.212,308.102 98.544 C 307.633 98.329,306.386 97.968,305.330 97.742 L 303.412 97.331 305.204 97.279 C 307.028 97.227,309.168 97.927,309.168 98.576 C 309.168 99.393,310.420 98.847,311.152 97.710 C 312.185 96.106,319.377 89.492,322.476 87.297 C 325.704 85.010,324.574 83.853,320.738 85.518 M168.252 86.767 C 168.592 87.580,168.870 89.392,168.870 90.793 C 168.870 92.194,169.062 93.458,169.296 93.603 C 169.563 93.768,169.723 92.897,169.723 91.283 C 169.723 88.291,170.002 88.147,171.811 90.207 C 173.462 92.087,173.466 92.645,171.839 93.891 C 171.127 94.436,169.902 95.410,169.118 96.055 C 168.333 96.700,167.573 97.228,167.428 97.228 C 167.283 97.228,167.164 94.542,167.164 91.258 C 167.164 84.907,167.278 84.436,168.252 86.767 M277.922 101.808 C 274.672 105.106,275.028 105.417,271.963 96.588 C 271.474 95.181,270.609 93.322,270.040 92.458 C 269.471 91.593,268.844 90.250,268.647 89.473 C 268.449 88.695,268.149 87.601,267.980 87.040 C 267.795 86.424,270.226 88.623,274.108 92.583 L 280.544 99.147 277.922 101.808 M197.798 87.208 C 198.869 88.279,196.256 89.073,193.657 88.466 C 190.247 87.670,189.682 87.336,191.049 86.921 C 192.167 86.583,197.395 86.805,197.798 87.208 M319.098 88.350 C 318.210 89.096,315.853 91.280,313.859 93.205 L 310.235 96.703 304.051 95.707 C 300.650 95.159,297.340 94.701,296.695 94.690 C 296.050 94.679,295.522 94.508,295.522 94.311 C 295.522 93.939,295.866 93.828,302.985 91.903 C 305.330 91.269,308.689 90.313,310.448 89.779 C 312.207 89.245,314.701 88.567,315.991 88.273 C 317.281 87.978,318.625 87.575,318.977 87.378 C 320.505 86.521,320.578 87.106,319.098 88.350 M190.396 91.223 C 192.277 93.080,194.540 94.895,195.424 95.256 L 197.031 95.912 198.586 93.570 C 200.369 90.884,200.641 90.971,201.015 94.350 C 201.280 96.739,201.260 96.802,200.246 96.802 C 199.576 96.802,198.880 97.258,198.294 98.081 C 197.293 99.488,195.854 99.888,196.378 98.614 C 197.314 96.340,197.261 96.227,195.393 96.526 C 193.258 96.867,191.689 95.681,188.795 91.538 C 185.362 86.624,185.675 86.562,190.396 91.223 M194.350 89.960 C 195.436 89.981,195.520 90.328,194.814 91.878 C 194.150 93.335,194.009 93.286,191.988 90.890 L 190.240 88.816 191.815 89.379 C 192.681 89.688,193.822 89.950,194.350 89.960 M247.974 90.405 C 248.291 90.917,247.032 90.917,245.842 90.405 C 245.123 90.096,245.203 90.034,246.350 90.009 C 247.099 89.992,247.829 90.171,247.974 90.405 M236.452 91.203 L 238.149 91.471 235.988 92.857 C 233.258 94.608,233.076 94.595,232.477 92.594 C 231.791 90.305,231.812 90.259,233.369 90.617 C 234.131 90.792,235.518 91.056,236.452 91.203 M246.908 92.280 L 248.827 92.863 243.967 95.259 C 239.037 97.689,237.953 98.035,237.953 97.178 C 237.953 96.917,237.584 96.799,237.132 96.917 C 236.038 97.203,236.399 96.390,237.833 95.339 C 238.886 94.568,238.937 94.565,238.658 95.293 C 238.295 96.239,238.917 95.785,241.410 93.284 C 243.159 91.529,243.955 91.383,246.908 92.280 M204.691 93.202 C 204.691 93.540,204.499 93.817,204.264 93.817 C 204.030 93.817,203.838 93.422,203.838 92.939 C 203.838 92.456,204.030 92.179,204.264 92.324 C 204.499 92.469,204.691 92.864,204.691 93.202 M141.151 94.444 C 141.753 95.191,141.716 95.221,140.512 94.954 C 139.264 94.678,139.270 94.691,140.755 95.494 C 142.819 96.610,143.180 97.061,145.583 101.540 C 146.261 102.804,147.309 104.510,147.911 105.330 C 148.513 106.151,149.062 106.903,149.130 107.001 C 149.198 107.098,149.374 107.059,149.520 106.912 C 149.666 106.766,149.271 106.033,148.641 105.285 C 148.011 104.536,146.936 102.815,146.252 101.460 C 145.568 100.105,144.812 98.875,144.572 98.727 C 143.698 98.186,144.167 97.645,145.309 97.875 C 146.372 98.090,146.406 98.060,145.679 97.563 C 145.237 97.262,143.894 96.258,142.694 95.333 C 141.494 94.408,140.800 94.008,141.151 94.444 M251.381 95.514 C 252.720 97.635,252.768 97.436,250.717 98.256 C 249.763 98.638,247.991 99.618,246.779 100.435 C 245.566 101.251,244.126 101.919,243.579 101.919 C 243.031 101.919,242.295 102.207,241.943 102.559 C 241.592 102.910,240.982 103.193,240.588 103.187 C 240.094 103.179,240.241 102.948,241.062 102.441 C 241.717 102.036,242.367 101.226,242.507 100.640 C 242.647 100.053,242.954 99.329,243.190 99.030 C 244.090 97.889,243.074 98.089,240.878 99.486 C 237.897 101.382,231.057 104.973,230.840 104.756 C 230.202 104.118,235.532 100.483,240.175 98.389 C 243.058 97.089,246.279 95.531,247.335 94.926 C 249.860 93.480,250.120 93.518,251.381 95.514 M270.186 96.700 C 270.594 97.811,271.578 100.395,272.372 102.442 C 274.048 106.768,273.860 108.163,271.664 107.681 C 270.625 107.453,270.428 107.569,270.180 108.557 C 269.791 110.107,269.980 110.185,272.256 109.412 C 274.638 108.604,274.627 108.604,274.627 109.291 C 274.627 109.594,275.015 110.601,275.490 111.530 C 275.964 112.459,276.847 114.659,277.452 116.418 C 278.057 118.177,278.691 119.808,278.860 120.043 C 279.281 120.625,280.171 123.807,280.171 124.728 C 280.171 125.422,279.697 125.455,273.667 125.178 C 270.043 125.012,266.409 125.053,265.458 125.270 C 262.795 125.878,262.642 125.648,263.780 122.746 C 264.337 121.325,265.005 119.906,265.265 119.593 C 266.470 118.140,265.560 117.154,259.808 113.683 C 253.279 109.743,253.597 110.233,256.304 108.272 C 258.217 106.886,258.780 106.708,262.059 106.456 C 265.925 106.159,267.377 105.591,267.377 104.375 C 267.377 103.523,266.068 103.404,263.433 104.016 C 261.385 104.492,261.421 104.176,263.708 101.633 C 264.738 100.486,265.886 98.882,266.258 98.068 C 268.254 93.699,268.988 93.443,270.186 96.700 M176.013 95.511 C 177.010 95.963,177.825 96.526,177.825 96.760 C 177.825 97.499,181.486 99.743,183.390 100.170 C 184.529 100.426,185.764 101.130,186.677 102.043 L 188.139 103.505 186.776 105.057 C 186.026 105.911,185.140 106.610,184.807 106.610 C 184.473 106.610,184.033 107.049,183.829 107.587 C 183.198 109.248,182.496 109.561,180.384 109.122 C 176.388 108.293,175.267 108.196,175.267 108.677 C 175.267 109.532,178.361 110.785,179.899 110.553 L 181.333 110.337 179.353 114.120 C 177.529 117.605,177.431 117.946,178.107 118.440 C 178.511 118.735,178.660 118.997,178.440 119.022 C 178.219 119.047,177.655 119.095,177.186 119.128 C 176.622 119.169,176.316 119.513,176.285 120.142 C 176.199 121.846,175.436 122.335,173.534 121.908 C 170.601 121.249,170.277 120.869,170.487 118.337 C 170.601 116.962,170.489 115.989,170.197 115.808 C 169.875 115.609,169.723 116.140,169.723 117.459 C 169.723 119.567,169.082 119.997,167.939 118.657 C 167.482 118.120,167.293 116.804,167.266 113.978 C 167.246 111.815,167.107 109.848,166.958 109.607 C 166.130 108.267,168.117 108.055,172.658 108.998 C 174.909 109.466,174.138 108.208,171.823 107.637 L 169.936 107.171 170.079 105.398 C 170.167 104.319,170.041 103.625,169.759 103.625 C 169.505 103.625,169.296 104.041,169.296 104.551 C 169.296 105.522,168.182 107.036,167.468 107.036 C 166.797 107.036,167.343 98.498,168.040 98.067 C 168.976 97.488,169.296 98.011,169.303 100.132 C 169.308 101.593,169.422 101.960,169.729 101.493 C 169.959 101.141,170.033 100.053,169.892 99.075 C 169.444 95.961,172.756 94.033,176.013 95.511 M180.442 96.831 C 181.394 97.317,182.076 97.810,181.959 97.927 C 181.729 98.157,178.252 96.493,178.252 96.153 C 178.252 95.797,178.666 95.926,180.442 96.831 M190.153 99.208 L 191.607 99.800 190.612 100.860 C 189.307 102.249,189.031 102.208,187.118 100.340 C 184.659 97.939,185.901 97.476,190.153 99.208 M201.279 98.631 C 201.279 98.933,200.896 99.933,200.426 100.853 C 199.957 101.773,199.574 102.750,199.574 103.023 C 199.574 103.297,199.250 103.784,198.854 104.106 C 198.230 104.613,198.169 104.599,198.393 103.999 C 198.536 103.619,198.778 102.371,198.931 101.227 C 199.085 100.083,199.286 98.907,199.379 98.614 C 199.601 97.910,201.279 97.924,201.279 98.631 M288.393 105.957 C 289.858 106.906,289.580 107.328,287.938 106.648 C 286.943 106.236,286.188 106.290,283.791 106.947 L 280.860 107.750 285.923 108.039 C 288.708 108.198,291.057 108.398,291.142 108.484 C 291.395 108.737,283.090 124.947,282.708 124.947 C 282.517 124.947,282.232 124.515,282.075 123.987 C 281.132 120.820,276.928 109.115,276.235 107.730 L 275.409 106.079 276.863 104.532 C 277.663 103.681,278.950 102.160,279.723 101.152 L 281.129 99.318 284.168 102.253 C 285.839 103.868,287.741 105.534,288.393 105.957 M153.335 100.883 C 153.179 101.508,153.132 102.102,153.233 102.202 C 153.333 102.303,153.544 101.874,153.701 101.249 C 153.858 100.624,153.904 100.030,153.803 99.930 C 153.703 99.829,153.492 100.258,153.335 100.883 M197.603 101.332 C 196.707 104.902,194.895 106.859,193.265 106.016 C 190.230 104.446,190.873 102.163,194.222 102.622 C 195.984 102.863,196.123 102.804,196.774 101.545 C 197.615 99.920,197.981 99.826,197.603 101.332 M165.002 102.452 C 164.950 105.612,164.743 105.782,162.154 104.792 C 159.415 103.746,159.415 103.736,162.167 102.039 C 165.006 100.289,165.038 100.294,165.002 102.452 M228.785 102.191 C 227.080 103.705,222.257 106.408,221.899 106.049 C 221.415 105.566,228.888 100.637,230.064 100.665 C 230.299 100.671,229.723 101.357,228.785 102.191 M160.343 105.408 C 161.397 105.802,162.774 106.234,163.402 106.367 C 164.726 106.649,166.182 109.042,165.465 109.759 C 165.227 109.997,165.032 111.497,165.032 113.092 C 165.032 116.640,165.033 116.640,160.542 113.448 C 158.573 112.049,155.874 110.354,154.543 109.681 L 152.122 108.457 153.617 107.533 C 154.439 107.025,155.295 106.610,155.520 106.610 C 155.744 106.610,156.382 106.126,156.937 105.536 C 157.492 104.945,158.054 104.513,158.186 104.576 C 158.318 104.639,159.289 105.013,160.343 105.408 M238.336 106.612 C 236.420 108.885,235.685 109.182,236.933 107.180 C 238.118 105.278,238.889 104.478,239.537 104.478 C 239.891 104.478,239.401 105.349,238.336 106.612 M299.360 104.868 C 295.992 105.180,293.775 106.178,296.690 106.070 C 297.684 106.033,298.739 106.249,299.035 106.550 C 299.472 106.994,299.092 107.084,297.015 107.031 C 293.425 106.940,293.066 106.979,293.705 107.385 C 294.439 107.851,306.183 108.013,306.183 107.557 C 306.183 107.354,304.999 106.967,303.552 106.697 C 299.452 105.935,299.285 105.164,303.288 105.482 C 306.638 105.748,308.071 105.543,307.648 104.859 C 307.395 104.449,303.843 104.453,299.360 104.868 M236.663 105.650 C 236.616 107.073,233.583 109.985,231.882 110.240 C 226.892 110.988,226.773 110.430,231.361 107.800 C 235.434 105.464,236.686 104.957,236.663 105.650 M242.857 106.183 C 243.282 106.652,243.981 107.036,244.410 107.036 C 245.243 107.036,246.467 108.745,248.388 112.586 C 249.032 113.873,250.054 115.453,250.659 116.098 C 251.662 117.168,251.686 117.271,250.929 117.271 C 249.829 117.271,248.751 118.892,249.627 119.228 C 249.960 119.356,250.492 119.425,250.809 119.381 C 252.233 119.186,252.816 119.495,253.435 120.772 C 254.356 122.673,253.996 122.959,251.006 122.705 C 249.573 122.583,248.161 122.574,247.868 122.684 C 246.838 123.073,247.350 123.667,248.721 123.674 C 251.120 123.685,251.358 124.214,249.661 125.759 C 248.045 127.229,245.383 127.174,243.268 125.628 C 242.137 124.800,243.490 122.552,245.764 121.481 L 247.548 120.641 245.732 120.780 C 243.720 120.934,243.408 120.136,245.389 119.903 C 246.467 119.776,246.551 119.644,246.314 118.456 C 246.164 117.708,246.262 116.897,246.541 116.560 C 247.356 115.578,246.688 115.500,245.594 116.448 C 244.523 117.377,239.191 117.325,238.188 116.375 C 237.965 116.164,236.861 115.991,235.736 115.991 C 233.374 115.991,233.202 115.680,234.925 114.525 C 235.604 114.071,236.078 113.489,235.980 113.232 C 235.882 112.976,236.477 112.111,237.304 111.310 C 238.130 110.509,238.806 109.633,238.806 109.362 C 238.806 108.721,241.263 105.330,241.728 105.330 C 241.924 105.330,242.433 105.714,242.857 106.183 M255.330 107.092 C 254.451 107.810,253.731 108.668,253.731 108.997 C 253.731 109.667,252.961 109.769,252.087 109.215 C 250.467 108.189,253.192 106.094,256.503 105.821 C 256.738 105.801,256.210 106.373,255.330 107.092 M191.177 106.817 C 194.080 108.030,193.610 108.466,186.171 111.466 C 181.543 113.332,181.639 113.423,184.515 109.880 C 187.553 106.140,188.507 105.701,191.177 106.817 M168.817 111.926 C 169.634 113.670,170.149 113.846,170.149 112.382 C 170.149 111.779,169.797 111.142,169.324 110.889 C 168.100 110.234,168.062 110.313,168.817 111.926 M233.608 111.194 C 233.524 111.370,232.981 112.445,232.400 113.583 L 231.344 115.653 229.211 115.390 C 228.038 115.245,225.784 115.007,224.200 114.862 C 222.617 114.716,221.322 114.441,221.322 114.250 C 221.322 113.784,223.858 111.873,225.173 111.349 C 226.402 110.858,233.832 110.722,233.608 111.194 M190.618 111.661 C 190.618 112.792,186.599 114.701,185.832 113.934 C 185.484 113.586,185.972 113.174,187.668 112.385 C 190.172 111.219,190.618 111.109,190.618 111.661 M192.465 114.102 C 193.476 116.222,191.696 117.590,190.227 115.821 C 189.896 115.422,189.137 115.283,187.936 115.401 C 186.584 115.535,186.351 115.479,186.994 115.175 C 187.463 114.954,188.269 114.759,188.786 114.742 C 189.303 114.726,190.070 114.238,190.492 113.659 C 191.495 112.281,191.610 112.307,192.465 114.102 M148.073 114.179 C 146.926 115.833,144.563 120.836,144.563 121.609 C 144.563 121.965,144.068 122.813,143.463 123.494 C 141.544 125.654,138.166 130.176,138.166 130.583 C 138.166 131.406,140.771 129.074,141.320 127.759 C 141.638 126.999,142.501 125.690,143.238 124.850 C 143.976 124.010,144.832 122.489,145.140 121.470 C 145.449 120.450,146.597 118.223,147.691 116.520 C 148.785 114.817,149.680 113.330,149.680 113.215 C 149.680 112.614,148.786 113.150,148.073 114.179 M185.160 114.758 C 186.225 115.328,185.508 115.973,183.795 115.987 C 183.209 115.991,182.101 116.378,181.333 116.846 C 179.526 117.948,179.533 117.951,180.062 116.226 C 180.510 114.767,181.006 114.478,183.290 114.344 C 183.833 114.312,184.675 114.498,185.160 114.758 M218.173 117.121 C 218.324 118.498,217.193 119.403,215.323 119.403 C 214.487 119.403,214.487 119.393,215.332 117.737 C 216.615 115.221,217.934 114.935,218.173 117.121 M224.947 116.251 C 230.190 117.305,230.277 117.333,230.277 117.936 C 230.277 118.687,228.605 119.829,227.506 119.829 C 226.779 119.829,223.073 117.416,221.557 115.955 C 221.037 115.454,220.945 115.446,224.947 116.251 M186.780 116.770 C 186.780 117.642,184.396 119.212,181.766 120.071 C 177.326 121.521,177.674 120.540,182.526 117.925 C 185.211 116.479,186.780 116.052,186.780 116.770 M221.981 118.510 C 222.757 119.191,223.278 119.863,223.139 120.002 C 222.649 120.493,221.322 120.249,221.322 119.668 C 221.322 119.345,221.034 118.842,220.682 118.550 C 220.037 118.015,219.819 117.271,220.306 117.271 C 220.451 117.271,221.205 117.828,221.981 118.510 M240.085 118.413 L 241.578 118.668 239.446 119.264 C 235.246 120.438,230.332 120.042,231.108 118.591 C 231.522 117.817,236.064 117.727,240.085 118.413 M218.149 120.056 C 217.693 120.401,216.926 120.667,216.443 120.648 C 215.729 120.619,215.804 120.504,216.844 120.027 C 218.527 119.257,219.187 119.271,218.149 120.056 M169.129 121.528 C 169.747 122.463,170.433 123.116,170.653 122.980 C 171.114 122.695,173.637 123.631,174.052 124.241 C 175.306 126.081,169.906 133.902,167.383 133.902 C 167.253 133.902,167.175 130.736,167.210 126.866 C 167.277 119.302,167.411 118.931,169.129 121.528 M188.470 121.189 C 189.035 121.796,189.339 122.701,189.339 123.776 C 189.339 124.685,189.546 125.815,189.798 126.287 C 190.457 127.518,188.657 130.168,187.420 129.787 C 186.951 129.643,186.500 129.348,186.417 129.131 C 186.335 128.915,184.703 128.010,182.792 127.121 C 180.881 126.232,178.954 125.092,178.509 124.589 L 177.699 123.674 181.280 121.977 C 185.394 120.027,187.202 119.829,188.470 121.189 M225.702 123.168 L 226.623 124.088 224.751 125.995 C 223.447 127.323,223.064 127.957,223.487 128.083 C 228.460 129.568,228.535 129.873,225.341 135.591 C 222.626 140.451,222.553 140.461,221.596 136.123 C 220.822 132.607,221.078 131.724,223.123 130.878 C 224.666 130.238,224.617 129.943,222.826 129.089 C 222.012 128.701,220.795 127.623,220.122 126.694 C 219.449 125.765,218.292 124.495,217.552 123.872 C 215.450 122.103,215.796 121.892,220.493 122.078 C 224.186 122.224,224.910 122.375,225.702 123.168 M241.365 122.416 C 241.365 123.283,240.478 124.520,239.857 124.520 C 239.514 124.520,239.232 124.712,239.232 124.947 C 239.232 125.181,239.437 125.373,239.688 125.373 C 240.186 125.373,239.954 126.383,238.904 128.785 C 238.213 130.367,238.121 130.688,238.018 131.881 C 237.949 132.676,238.135 132.674,232.623 131.939 L 230.490 131.655 231.770 131.092 C 232.473 130.782,233.529 130.517,234.115 130.503 C 236.262 130.451,236.494 129.781,234.684 128.857 C 233.753 128.383,232.725 127.672,232.398 127.278 C 232.071 126.885,230.678 125.798,229.302 124.864 C 226.233 122.780,226.237 122.776,231.292 122.776 C 233.612 122.776,235.394 122.599,235.394 122.369 C 235.394 122.145,236.738 121.962,238.380 121.962 C 240.208 121.962,241.365 122.138,241.365 122.416 M160.956 124.699 C 159.717 125.605,160.496 125.962,162.007 125.180 C 162.733 124.805,163.326 124.407,163.326 124.296 C 163.326 123.858,161.737 124.127,160.956 124.699 M199.823 124.627 C 200.668 125.473,198.534 135.608,197.511 135.608 C 196.840 135.608,195.282 133.012,194.256 130.186 L 193.205 127.292 194.247 125.717 C 195.223 124.242,198.749 123.553,199.823 124.627 M228.720 125.825 C 230.561 127.273,229.262 128.863,226.742 128.245 C 224.380 127.665,224.393 127.694,225.804 126.222 C 227.256 124.706,227.292 124.701,228.720 125.825 M181.398 127.703 C 187.106 130.570,187.804 131.512,185.692 133.497 C 184.026 135.062,183.382 133.601,184.479 130.743 C 184.867 129.733,183.545 129.888,182.452 130.981 L 181.534 131.899 179.040 129.318 C 175.081 125.222,175.663 124.823,181.398 127.703 M156.361 126.510 C 155.393 127.478,156.403 127.780,157.594 126.879 C 158.408 126.264,158.407 126.253,157.534 126.240 C 157.045 126.232,156.517 126.354,156.361 126.510 M178.358 129.885 C 181.745 133.437,181.674 133.209,179.583 133.836 C 176.815 134.665,170.878 137.613,171.368 137.915 C 171.885 138.235,178.770 135.411,180.335 134.238 C 181.717 133.202,181.871 133.248,182.916 135.019 L 183.826 136.562 181.212 139.723 C 179.570 141.708,178.690 143.126,178.847 143.534 C 179.262 144.618,168.618 152.561,167.384 152.087 C 166.673 151.814,166.438 149.328,166.743 145.293 C 166.864 143.697,166.779 142.216,166.554 141.991 C 166.295 141.732,166.564 141.147,167.295 140.385 C 168.600 139.023,168.722 138.593,167.804 138.593 C 166.052 138.593,167.085 135.788,169.231 134.719 C 171.051 133.812,171.522 133.269,173.175 130.173 C 174.208 128.240,175.149 126.705,175.267 126.762 C 175.384 126.819,176.775 128.224,178.358 129.885 M246.714 128.258 C 247.366 128.623,244.636 131.117,240.621 133.827 C 238.726 135.106,238.579 134.883,239.802 132.582 C 240.353 131.547,241.051 129.933,241.353 128.996 C 241.656 128.059,241.974 127.167,242.060 127.014 C 242.223 126.724,245.575 127.620,246.714 128.258 M152.210 128.082 C 151.608 128.396,150.573 128.789,149.910 128.956 C 149.053 129.171,148.836 129.390,149.161 129.715 C 149.652 130.206,154.371 128.520,154.371 127.853 C 154.371 127.338,153.450 127.435,152.210 128.082 M231.913 128.496 C 232.875 129.521,232.763 130.069,231.592 130.057 C 230.428 130.046,229.872 129.435,230.130 128.450 C 230.442 127.255,230.754 127.263,231.913 128.496 M192.062 132.294 C 190.725 134.536,185.987 139.019,184.956 139.019 C 183.958 139.019,185.535 135.667,188.193 132.136 L 190.325 129.304 191.355 130.528 C 191.969 131.258,192.255 131.971,192.062 132.294 M251.812 130.027 C 254.536 130.985,254.415 131.376,251.096 132.335 C 243.462 134.541,242.644 134.376,245.979 131.302 C 248.478 128.998,248.730 128.943,251.812 130.027 M213.843 134.042 C 213.067 137.283,212.362 138.637,212.373 136.866 C 212.381 135.626,213.530 130.592,213.963 129.905 C 214.613 128.873,214.548 131.094,213.843 134.042 M145.416 130.917 C 145.064 131.144,144.392 131.337,143.923 131.346 C 142.487 131.373,139.249 133.023,139.717 133.491 C 140.193 133.967,146.084 132.045,147.106 131.080 C 147.874 130.356,146.491 130.222,145.416 130.917 M205.687 134.755 C 205.826 136.514,205.835 137.712,205.706 137.417 C 205.355 136.618,204.691 137.223,204.691 138.341 C 204.691 138.879,204.222 140.201,203.648 141.280 C 203.075 142.358,202.474 143.943,202.313 144.800 C 202.073 146.077,201.568 146.678,199.516 148.126 C 198.138 149.098,195.923 150.709,194.593 151.706 C 191.690 153.881,190.722 154.091,191.639 152.345 C 195.610 144.788,199.664 138.402,200.859 137.823 C 201.816 137.360,202.607 136.349,203.680 134.218 C 204.501 132.589,205.231 131.324,205.302 131.406 C 205.374 131.489,205.547 132.996,205.687 134.755 M209.668 138.008 C 209.987 140.329,209.414 140.408,208.181 138.215 C 207.500 137.003,207.259 135.886,207.284 134.057 L 207.319 131.557 208.366 133.850 C 208.942 135.111,209.528 136.982,209.668 138.008 M233.509 132.864 C 236.402 133.705,236.463 133.825,235.072 135.971 C 233.659 138.150,233.637 138.149,232.020 135.950 C 230.521 133.911,230.383 133.385,231.450 133.774 C 232.120 134.019,232.113 133.952,231.384 133.121 C 230.414 132.017,230.543 132.002,233.509 132.864 M135.502 133.856 C 134.897 134.535,133.714 135.318,132.873 135.595 C 131.602 136.015,130.731 136.887,131.583 136.887 C 133.252 136.887,135.925 135.402,136.368 134.229 C 137.036 132.457,136.829 132.368,135.502 133.856 M194.108 134.543 C 194.708 135.859,194.717 135.852,192.130 136.191 L 190.017 136.468 191.468 134.972 C 193.194 133.190,193.471 133.145,194.108 134.543 M254.437 134.255 C 253.625 135.153,253.506 136.698,254.216 137.136 C 254.850 137.528,256.268 135.671,256.280 134.435 C 256.292 133.275,255.402 133.189,254.437 134.255 M298.827 133.991 C 296.767 134.535,296.798 135.371,298.917 136.452 C 301.310 137.673,301.561 137.580,301.410 135.534 C 301.262 133.522,301.060 133.401,298.827 133.991 M215.964 137.633 C 216.349 139.451,216.734 141.274,216.820 141.684 C 217.039 142.722,216.492 142.617,214.958 141.327 C 213.513 140.111,213.430 139.640,214.108 136.482 C 214.743 133.522,215.149 133.774,215.964 137.633 M228.975 136.438 C 229.432 136.894,230.128 137.892,230.523 138.655 C 230.917 139.418,232.703 141.919,234.490 144.212 C 237.681 148.306,241.184 153.841,240.817 154.208 C 240.523 154.501,238.251 153.534,237.373 152.742 C 236.937 152.348,235.809 150.490,234.867 148.614 C 233.925 146.738,232.319 143.907,231.297 142.323 C 230.276 140.739,229.319 138.962,229.172 138.374 C 229.024 137.786,228.733 137.200,228.524 137.071 C 227.915 136.694,228.087 138.097,228.826 139.526 C 229.357 140.553,229.404 141.069,229.041 141.867 C 228.784 142.430,228.450 144.227,228.298 145.859 C 227.977 149.316,228.028 149.291,225.443 147.278 C 223.120 145.468,223.176 145.748,224.461 142.334 C 226.991 135.613,227.494 134.956,228.975 136.438 M125.480 138.251 C 123.711 138.948,122.372 140.299,123.450 140.299 C 124.144 140.299,129.211 138.008,129.211 137.695 C 129.211 137.098,127.916 137.291,125.480 138.251 M195.390 138.388 C 195.817 139.325,195.738 139.610,194.767 140.626 C 194.155 141.267,192.999 143.038,192.197 144.563 C 191.396 146.087,190.261 148.222,189.677 149.307 C 189.092 150.391,188.497 151.726,188.354 152.273 C 188.211 152.820,187.981 153.155,187.844 153.018 C 187.549 152.723,185.939 142.702,185.937 141.151 C 185.934 138.138,194.178 135.727,195.390 138.388 M182.951 140.501 C 182.654 140.859,182.213 141.151,181.971 141.151 C 181.729 141.151,181.879 140.766,182.305 140.296 C 183.187 139.321,183.775 139.509,182.951 140.501 M206.823 140.904 C 206.823 141.236,206.531 142.052,206.175 142.716 C 205.818 143.380,205.343 144.451,205.119 145.096 C 204.895 145.741,204.419 146.269,204.062 146.269 C 203.229 146.269,203.241 146.143,204.264 144.136 C 204.733 143.217,205.117 142.105,205.117 141.666 C 205.117 141.227,205.245 140.739,205.402 140.583 C 205.909 140.076,206.823 140.282,206.823 140.904 M117.377 141.484 C 116.381 141.867,115.565 142.449,115.565 142.778 C 115.565 143.178,115.811 143.275,116.311 143.071 C 116.722 142.904,117.873 142.481,118.869 142.132 C 119.866 141.784,120.789 141.324,120.920 141.111 C 121.290 140.512,119.385 140.713,117.377 141.484 M196.162 140.975 C 196.162 141.875,190.690 150.747,190.347 150.404 C 190.174 150.231,193.438 143.986,194.903 141.684 C 195.473 140.791,196.162 140.402,196.162 140.975 M183.795 143.695 C 183.795 145.637,184.996 156.897,185.289 157.699 C 185.523 158.340,183.535 162.473,182.994 162.473 C 182.655 162.473,180.039 159.763,177.973 157.272 C 177.468 156.664,176.714 155.975,176.297 155.741 C 175.590 155.345,175.586 155.269,176.249 154.607 C 177.026 153.830,179.328 146.776,178.933 146.381 C 178.798 146.247,178.285 147.078,177.792 148.228 C 177.298 149.379,176.334 151.547,175.648 153.047 L 174.401 155.774 175.367 156.435 C 177.390 157.820,182.125 162.680,182.359 163.613 C 182.618 164.644,180.225 169.524,178.593 171.290 C 178.122 171.801,177.868 172.431,178.028 172.692 C 178.189 172.952,177.468 174.454,176.426 176.028 C 174.763 178.540,171.277 184.658,168.112 190.618 C 167.552 191.674,166.965 192.672,166.809 192.836 C 166.652 193.000,166.576 184.294,166.638 173.489 L 166.752 153.843 167.772 153.041 C 168.332 152.600,168.898 152.239,169.029 152.239 C 169.581 152.239,177.866 146.568,178.565 145.712 C 181.739 141.823,183.795 141.030,183.795 143.695 M214.804 148.552 C 214.885 148.307,214.562 147.198,214.086 146.087 C 213.609 144.975,213.220 143.504,213.220 142.818 L 213.220 141.571 215.245 142.996 C 217.355 144.479,217.735 145.210,217.300 146.942 C 216.895 148.556,216.332 148.165,215.741 145.859 C 215.443 144.695,214.932 143.640,214.605 143.515 C 213.943 143.261,213.949 143.299,215.120 146.813 C 215.995 149.437,215.783 150.946,214.183 153.483 L 213.532 154.515 212.997 153.483 C 211.609 150.808,211.089 146.819,211.500 142.004 C 211.530 141.652,212.252 143.082,213.105 145.180 C 213.958 147.279,214.723 148.796,214.804 148.552 M185.964 148.208 C 187.100 155.035,187.119 155.307,186.461 155.536 C 186.113 155.657,185.928 155.287,185.928 154.476 C 185.928 153.791,185.641 151.328,185.290 149.003 C 184.654 144.781,184.472 142.113,184.846 142.487 C 184.956 142.596,185.458 145.171,185.964 148.208 M231.448 144.456 C 234.653 149.611,235.931 152.905,234.590 152.554 C 233.897 152.373,233.689 152.513,233.689 153.160 C 233.689 153.821,233.881 153.941,234.582 153.718 C 235.415 153.454,243.472 156.763,243.490 157.377 C 243.495 157.551,233.836 162.146,230.490 163.560 C 229.854 163.829,226.331 158.227,226.341 156.960 C 226.345 156.357,226.048 155.524,225.680 155.108 C 225.063 154.411,225.124 154.234,226.471 152.834 C 228.676 150.543,229.242 150.345,230.674 151.365 C 232.012 152.317,232.655 152.450,233.025 151.851 C 233.540 151.017,232.694 150.172,230.888 149.717 C 228.795 149.190,228.829 149.288,229.272 145.052 C 229.601 141.899,229.820 141.839,231.448 144.456 M111.032 143.898 C 110.298 144.217,109.567 144.690,109.408 144.947 C 109.248 145.205,108.565 145.416,107.889 145.416 C 107.213 145.416,106.523 145.638,106.355 145.909 C 105.905 146.638,108.283 146.077,111.095 144.791 C 114.215 143.364,114.157 142.538,111.032 143.898 M275.053 143.384 C 275.053 143.742,285.594 151.366,288.555 153.150 C 290.159 154.116,292.288 155.567,293.286 156.375 C 295.544 158.202,297.334 158.751,299.337 158.228 C 300.171 158.010,302.241 157.700,303.937 157.540 C 308.712 157.087,309.129 155.658,304.904 154.227 C 303.849 153.869,300.874 152.777,298.294 151.798 C 295.714 150.820,291.684 149.292,289.339 148.402 C 286.994 147.513,283.539 146.106,281.663 145.276 C 278.554 143.901,275.053 142.899,275.053 143.384 M207.068 147.445 C 206.635 147.878,205.851 146.807,206.194 146.251 C 206.429 145.871,206.623 145.926,206.921 146.459 C 207.145 146.859,207.211 147.302,207.068 147.445 M222.028 146.720 C 222.681 146.969,224.032 147.999,225.029 149.011 L 226.841 150.849 225.960 151.647 C 225.096 152.429,225.063 152.426,224.305 151.489 C 223.355 150.316,223.028 150.283,223.028 151.361 C 223.028 152.455,222.821 152.550,219.660 152.907 L 216.962 153.213 217.273 151.340 C 217.965 147.161,219.434 145.734,222.028 146.720 M102.663 147.192 C 102.016 147.428,101.585 147.778,101.704 147.971 C 101.966 148.396,104.904 147.550,104.904 147.050 C 104.904 146.599,104.156 146.646,102.663 147.192 M286.780 148.614 C 288.891 149.455,291.962 150.689,293.603 151.356 C 295.245 152.023,298.076 153.114,299.893 153.781 C 303.637 155.155,303.854 155.443,301.599 156.043 C 297.218 157.209,296.757 157.152,294.018 155.105 C 292.617 154.057,290.628 152.774,289.597 152.253 C 286.632 150.754,279.983 145.751,282.409 146.844 C 282.703 146.976,284.670 147.773,286.780 148.614 M142.644 147.824 C 139.829 148.118,131.866 148.755,124.947 149.238 C 106.940 150.496,101.817 150.919,101.569 151.167 C 101.223 151.514,105.955 151.410,111.301 150.954 C 113.998 150.723,120.139 150.251,124.947 149.904 C 129.755 149.557,135.512 149.080,137.740 148.844 C 139.968 148.609,142.942 148.409,144.350 148.402 C 146.605 148.389,148.533 147.877,147.962 147.441 C 147.852 147.357,145.458 147.529,142.644 147.824 M206.043 147.827 C 206.472 148.215,206.823 148.917,206.823 149.386 C 206.823 150.364,205.468 149.427,204.636 147.873 C 204.110 146.890,204.977 146.862,206.043 147.827 M203.868 149.198 C 204.278 149.963,205.119 151.319,205.737 152.211 C 207.310 154.480,206.396 157.169,203.903 157.606 C 200.752 158.158,197.128 158.994,193.177 160.079 C 187.888 161.532,187.956 161.539,188.245 159.595 C 188.533 157.654,190.015 156.250,195.736 152.496 C 197.964 151.034,200.348 149.318,201.033 148.682 C 202.520 147.303,202.887 147.370,203.868 149.198 M97.460 149.224 C 97.325 149.443,97.361 149.708,97.541 149.814 C 97.913 150.033,99.787 149.400,99.787 149.054 C 99.787 148.658,97.716 148.810,97.460 149.224 M149.510 150.640 C 150.124 154.255,150.993 158.385,151.179 158.571 C 151.771 159.163,151.798 158.051,151.238 156.164 C 150.890 154.992,150.471 152.959,150.307 151.644 C 150.143 150.329,149.843 149.254,149.642 149.254 C 149.440 149.254,149.381 149.877,149.510 150.640 M212.725 157.949 C 214.333 160.948,214.653 164.859,213.326 165.315 C 212.916 165.456,211.438 166.019,210.042 166.566 C 206.966 167.772,207.349 168.255,206.847 162.529 L 206.426 157.735 207.690 155.989 C 208.386 155.029,208.956 154.032,208.958 153.774 C 208.959 153.516,209.180 152.537,209.449 151.599 L 209.937 149.893 210.657 152.665 C 211.053 154.190,211.984 156.568,212.725 157.949 M220.171 155.330 C 219.446 156.093,218.249 157.868,217.511 159.275 L 216.170 161.834 216.364 158.257 C 216.584 154.217,216.776 153.961,219.593 153.951 L 221.489 153.945 220.171 155.330 M224.070 156.661 C 224.552 156.511,225.109 156.174,225.307 155.913 C 225.525 155.624,225.568 155.741,225.416 156.210 C 225.279 156.636,225.452 157.538,225.803 158.215 C 226.153 158.892,226.439 160.037,226.439 160.760 C 226.439 161.483,226.727 162.763,227.079 163.605 C 227.431 164.447,227.719 165.185,227.719 165.245 C 227.719 165.305,226.711 165.783,225.480 166.308 C 224.248 166.832,220.765 168.493,217.740 169.999 C 211.275 173.215,211.400 173.217,212.440 169.936 C 213.740 165.834,214.052 165.386,215.405 165.683 C 216.822 165.995,217.547 165.036,218.316 161.834 C 218.851 159.602,219.992 157.408,221.498 155.714 L 222.388 154.712 222.791 155.823 C 223.104 156.688,223.389 156.874,224.070 156.661 M187.488 160.629 C 186.658 161.458,185.953 160.485,186.662 159.488 L 187.420 158.422 187.561 159.418 C 187.639 159.966,187.606 160.511,187.488 160.629 M206.119 163.179 C 206.271 165.679,206.397 169.431,206.397 171.519 L 206.397 175.315 203.305 176.735 C 201.604 177.516,192.873 181.793,183.902 186.240 C 174.931 190.687,167.591 194.226,167.591 194.105 C 167.591 193.983,167.863 193.581,168.195 193.211 C 168.527 192.840,169.975 190.253,171.411 187.461 C 172.848 184.668,174.375 181.886,174.805 181.277 C 175.235 180.669,176.476 178.396,177.563 176.227 C 178.649 174.059,179.920 172.046,180.387 171.754 C 180.854 171.462,181.237 171.099,181.237 170.947 C 181.237 170.796,181.839 169.385,182.574 167.813 L 183.912 164.955 184.979 166.021 C 185.748 166.791,186.104 167.695,186.255 169.267 C 186.477 171.583,187.220 172.728,187.188 170.707 C 187.151 168.304,186.438 165.816,185.500 164.818 C 183.853 163.065,186.107 160.888,188.334 162.080 C 189.353 162.625,203.969 159.954,204.865 159.059 C 205.700 158.224,205.844 158.699,206.119 163.179 M194.456 167.175 C 194.456 167.748,197.183 173.104,198.033 174.200 C 199.171 175.670,198.786 174.352,196.944 170.476 C 195.350 167.122,194.456 165.936,194.456 167.175 M211.251 169.952 C 209.682 174.284,206.826 176.894,207.482 173.396 C 207.645 172.527,207.568 171.839,207.288 171.665 C 205.703 170.686,206.932 168.891,210.025 167.669 C 212.645 166.633,212.531 166.420,211.251 169.952 M234.968 166.864 C 234.968 166.985,236.224 167.671,237.759 168.390 L 240.549 169.696 239.832 170.790 C 239.437 171.393,239.093 172.310,239.067 172.830 C 239.035 173.466,238.706 173.818,238.060 173.910 C 236.963 174.066,236.837 174.517,237.690 175.225 C 238.657 176.027,244.085 169.714,243.195 168.824 C 242.499 168.128,234.968 166.334,234.968 166.864 M153.152 168.017 C 153.152 168.603,153.317 169.467,153.518 169.936 C 153.852 170.713,153.885 170.695,153.885 169.723 C 153.885 169.136,153.720 168.273,153.518 167.804 C 153.184 167.026,153.152 167.045,153.152 168.017 M263.113 176.244 C 263.113 177.309,266.722 180.442,267.292 179.872 C 267.697 179.467,267.420 178.958,266.012 177.524 C 264.215 175.693,263.113 175.207,263.113 176.244 M155.694 178.678 C 155.732 180.040,157.273 186.507,157.313 185.473 C 157.370 184.034,156.525 179.492,156.050 178.678 C 155.718 178.109,155.678 178.109,155.694 178.678 M208.306 184.237 C 208.061 184.633,207.748 186.364,206.959 191.684 C 206.812 192.670,206.865 193.241,207.084 193.036 C 207.410 192.732,208.952 183.795,208.679 183.795 C 208.624 183.795,208.456 183.994,208.306 184.237 " stroke="none" fill="#000000" fill-rule="evenodd"></path></g></svg>