<svg id="svg" version="1.1" xmlns="http://www.w3.org/2000/svg" xmlns:xlink="http://www.w3.org/1999/xlink" width="400" height="218.3368869936034" viewBox="0, 0, 400,218.3368869936034"><g id="svgg"><path id="path0" d="M298.725 17.050 C 298.445 17.504,298.746 19.671,299.467 22.388 C 299.893 23.995,299.938 24.032,300.237 23.028 C 300.861 20.932,300.695 17.170,299.965 16.890 C 299.082 16.551,299.030 16.558,298.725 17.050 M242.328 22.661 C 242.022 22.967,241.971 23.421,242.194 23.839 C 242.810 24.994,244.776 31.275,244.776 32.088 C 244.776 32.511,245.146 33.909,245.597 35.194 C 246.547 37.895,246.721 37.674,242.380 39.274 C 241.001 39.783,239.660 40.366,239.400 40.570 C 239.140 40.774,238.342 40.824,237.625 40.681 C 236.743 40.504,235.895 40.672,235.005 41.197 C 233.612 42.020,233.168 42.964,234.435 42.407 C 236.343 41.569,238.517 41.700,240.890 42.794 C 242.207 43.402,244.015 44.187,244.910 44.540 C 246.830 45.298,246.724 45.666,243.923 47.953 C 238.937 52.024,238.275 52.475,237.566 52.284 C 237.193 52.183,236.148 51.975,235.246 51.822 C 233.309 51.495,233.440 52.236,235.394 52.665 C 236.093 52.819,236.764 53.105,236.886 53.303 C 237.095 53.642,232.597 56.716,231.890 56.716 C 231.414 56.716,231.475 51.273,231.953 51.102 C 232.631 50.859,231.407 49.729,229.223 48.582 C 226.042 46.911,226.028 46.816,228.105 41.210 C 230.446 34.894,231.176 34.162,231.097 38.211 C 230.990 43.748,230.729 45.095,229.710 45.378 C 228.786 45.634,228.786 45.636,229.851 46.475 C 231.246 47.575,231.557 47.546,231.557 46.317 C 231.557 45.439,231.818 45.260,233.466 45.013 C 234.516 44.856,235.499 44.525,235.651 44.279 C 235.822 44.003,235.621 43.919,235.128 44.059 C 234.688 44.184,233.705 44.412,232.942 44.565 L 231.557 44.844 231.557 40.095 C 231.557 37.483,231.770 34.497,232.032 33.459 C 233.116 29.153,231.417 29.517,229.962 33.902 C 229.495 35.309,228.204 38.619,227.093 41.258 L 225.073 46.055 222.451 46.062 C 221.009 46.065,218.678 46.338,217.271 46.668 C 213.760 47.492,208.108 47.971,208.955 47.373 C 209.307 47.124,210.267 46.896,211.087 46.865 C 211.908 46.835,212.226 46.718,211.793 46.606 C 211.359 46.495,208.753 46.725,205.999 47.117 L 200.994 47.831 198.471 46.767 C 195.838 45.655,189.522 42.435,185.501 40.153 C 183.104 38.792,181.663 38.455,181.663 39.254 C 181.663 39.501,180.943 40.000,180.064 40.364 C 178.270 41.105,158.601 50.929,149.970 55.393 C 146.879 56.992,139.936 60.564,134.542 63.331 C 129.147 66.099,123.286 69.178,121.516 70.174 C 119.746 71.171,117.845 72.053,117.291 72.134 L 116.284 72.281 116.103 85.075 C 116.003 92.111,116.056 111.113,116.220 127.301 L 116.519 156.734 119.347 158.391 C 120.902 159.303,122.652 160.340,123.235 160.697 C 123.817 161.053,125.257 161.860,126.433 162.491 C 127.609 163.121,130.490 164.685,132.836 165.967 C 135.181 167.249,138.635 169.128,140.512 170.141 C 142.388 171.154,145.267 172.754,146.908 173.695 C 148.550 174.636,151.812 176.496,154.158 177.828 C 156.503 179.160,159.190 180.690,160.128 181.228 C 161.066 181.766,162.985 182.836,164.392 183.606 C 167.848 185.499,173.626 188.802,174.414 189.337 C 176.116 190.492,182.582 194.030,182.990 194.030 C 183.245 194.030,185.209 193.004,187.356 191.749 C 189.502 190.495,193.945 188.023,197.228 186.257 C 200.512 184.490,205.789 181.652,208.955 179.949 C 212.122 178.247,217.015 175.469,219.829 173.777 C 222.644 172.085,225.762 170.284,226.759 169.776 C 228.524 168.877,229.647 165.032,228.145 165.032 C 227.910 165.032,227.719 165.608,227.719 166.311 C 227.719 167.397,227.555 167.591,226.635 167.591 C 225.916 167.591,224.973 168.199,223.827 169.403 L 222.103 171.215 222.393 169.083 C 222.552 167.910,222.947 166.316,223.270 165.540 C 223.593 164.764,223.984 163.181,224.137 162.022 C 224.470 159.518,224.635 159.462,225.961 161.410 C 227.069 163.037,227.727 163.318,227.704 162.154 C 227.681 161.048,226.621 156.289,226.270 155.722 C 225.838 155.022,228.433 151.424,229.783 150.851 C 230.407 150.587,231.347 149.991,231.872 149.528 C 232.673 148.823,233.000 148.765,233.898 149.174 C 235.203 149.769,235.264 149.410,234.072 148.141 L 233.175 147.187 234.925 146.083 C 236.712 144.955,237.178 144.136,236.034 144.136 C 234.807 144.136,235.359 142.212,237.062 140.549 C 238.857 138.796,239.643 138.824,239.686 140.644 C 239.712 141.763,239.722 141.767,240.102 140.822 C 240.566 139.666,241.668 139.152,242.308 139.792 C 242.561 140.045,243.268 140.162,243.879 140.051 C 246.144 139.639,246.355 140.432,244.704 143.145 C 240.650 149.803,238.110 154.609,237.708 156.379 C 237.534 157.143,237.862 156.768,238.625 155.330 C 239.909 152.909,240.130 152.757,240.943 153.737 C 241.365 154.245,241.608 154.274,242.094 153.870 C 242.620 153.433,242.567 153.250,241.730 152.619 L 240.749 151.879 241.945 149.394 C 243.586 145.980,246.676 142.457,247.397 143.177 C 247.981 143.759,249.221 143.920,248.881 143.370 C 248.067 142.054,249.531 141.957,251.466 143.198 C 252.609 143.931,254.881 145.136,256.516 145.875 C 258.151 146.613,260.769 147.964,262.335 148.876 C 263.900 149.787,265.263 150.533,265.363 150.533 C 265.464 150.533,265.669 148.950,265.820 147.015 C 265.970 145.080,266.577 141.505,267.169 139.071 C 267.884 136.124,268.105 134.478,267.828 134.144 C 267.526 133.781,267.964 133.499,269.420 133.117 C 272.070 132.423,280.591 129.074,280.594 128.725 C 280.598 128.353,278.400 125.315,274.982 120.966 C 270.043 114.682,270.053 115.317,274.805 110.128 C 275.502 109.366,275.935 108.742,275.766 108.742 C 275.596 108.742,275.757 108.163,276.123 107.456 C 276.904 105.946,277.286 106.061,280.387 108.745 C 281.469 109.681,282.550 110.448,282.789 110.448 C 283.035 110.448,283.122 110.956,282.990 111.620 C 282.862 112.265,282.649 114.136,282.516 115.778 C 282.384 117.420,282.171 119.435,282.043 120.256 C 281.858 121.437,281.920 121.641,282.337 121.233 C 282.628 120.949,283.002 119.126,283.169 117.182 C 283.614 112.017,283.918 111.518,285.763 112.934 C 286.323 113.363,287.097 113.829,287.485 113.970 C 288.479 114.332,292.537 117.289,292.537 117.652 C 292.537 117.818,292.310 118.180,292.033 118.458 C 291.252 119.239,291.834 119.455,293.321 118.937 C 294.838 118.408,295.146 117.271,293.772 117.271 C 293.279 117.271,291.773 116.359,290.426 115.245 C 289.080 114.131,287.064 112.585,285.947 111.810 L 283.916 110.400 284.207 107.972 C 284.367 106.636,284.803 104.104,285.175 102.345 C 286.014 98.386,286.071 97.148,285.423 96.924 C 284.534 96.617,283.847 98.637,283.797 101.706 C 283.653 110.540,283.626 110.607,281.101 108.422 C 280.356 107.777,279.254 106.896,278.654 106.464 C 277.752 105.816,277.605 105.444,277.810 104.332 L 278.059 102.985 277.302 104.042 C 276.886 104.623,276.210 105.439,275.800 105.854 C 275.389 106.270,275.053 106.962,275.053 107.393 C 275.053 107.823,274.142 109.331,273.028 110.742 C 271.914 112.154,270.810 113.628,270.576 114.019 C 270.203 114.640,269.717 114.404,266.738 112.163 C 264.861 110.751,263.182 109.596,263.006 109.596 C 262.122 109.594,262.983 110.497,265.873 112.603 C 269.560 115.290,269.526 115.220,267.658 116.322 C 266.333 117.104,266.170 117.114,265.338 116.470 C 264.533 115.847,261.407 110.771,261.407 110.086 C 261.407 109.740,265.708 107.738,268.017 107.009 L 269.723 106.470 268.579 106.088 C 267.755 105.812,267.070 105.894,266.130 106.380 C 263.457 107.762,262.757 107.899,262.038 107.179 C 261.071 106.213,262.744 104.369,264.245 104.746 C 264.844 104.896,265.245 104.807,265.245 104.524 C 265.245 104.264,264.957 104.051,264.606 104.051 C 263.405 104.051,263.965 103.301,266.794 101.117 C 270.254 98.446,270.367 98.443,272.013 100.959 L 273.337 102.985 271.957 103.528 C 271.197 103.826,270.000 104.342,269.296 104.673 L 268.017 105.276 270.012 105.303 C 271.249 105.320,272.251 105.087,272.647 104.691 C 272.999 104.339,273.472 104.051,273.698 104.051 C 273.924 104.051,274.220 104.339,274.355 104.691 C 274.757 105.739,275.483 105.419,275.752 104.077 C 275.932 103.173,276.436 102.618,277.553 102.087 C 279.337 101.240,278.679 100.759,276.686 101.454 C 274.661 102.160,274.434 102.072,272.765 99.930 C 270.809 97.419,270.650 97.969,274.597 93.557 C 276.457 91.478,277.923 89.721,277.854 89.653 C 277.569 89.367,275.480 90.423,275.480 90.852 C 275.480 91.475,270.716 96.850,270.294 96.703 C 269.650 96.479,263.966 89.855,263.966 89.328 C 263.966 89.033,264.446 88.671,265.032 88.524 C 265.618 88.377,266.098 88.084,266.098 87.873 C 266.098 87.653,265.438 87.671,264.554 87.915 C 263.705 88.149,262.867 88.182,262.691 87.987 C 257.887 82.664,256.872 80.597,259.060 80.597 C 259.354 80.597,261.105 79.571,262.953 78.317 C 268.413 74.611,267.813 74.705,271.466 76.982 L 274.651 78.967 274.366 80.528 C 274.209 81.387,273.916 82.534,273.714 83.077 C 273.108 84.708,273.324 85.137,274.215 84.068 C 274.679 83.510,275.053 82.428,275.053 81.641 C 275.053 79.466,276.517 79.771,279.774 82.624 C 280.109 82.918,281.439 83.860,282.729 84.718 C 284.019 85.576,286.381 87.398,287.977 88.768 C 292.137 92.336,293.040 92.052,291.654 87.611 C 291.218 86.216,290.649 83.969,290.389 82.617 C 290.129 81.265,289.761 80.255,289.572 80.372 C 289.382 80.489,289.498 81.877,289.829 83.457 C 290.717 87.692,290.401 87.906,288.348 84.463 C 287.334 82.762,286.566 81.315,286.642 81.248 C 288.645 79.470,292.111 78.111,292.111 79.104 C 292.111 79.456,292.264 79.744,292.452 79.744 C 292.639 79.744,292.714 79.076,292.619 78.259 C 292.454 76.842,292.405 76.803,291.544 77.407 C 289.669 78.719,289.357 77.721,288.270 66.951 C 287.599 60.297,286.950 61.591,294.424 54.671 C 298.287 51.093,298.301 51.149,293.222 49.916 C 291.136 49.409,288.737 48.645,287.891 48.217 C 287.046 47.789,285.741 47.307,284.993 47.145 C 284.244 46.984,282.846 46.282,281.885 45.586 C 279.960 44.192,279.104 44.456,279.104 46.444 C 279.104 47.681,279.841 48.033,280.575 47.148 C 281.047 46.580,281.281 46.578,282.610 47.133 C 283.437 47.479,284.479 47.761,284.928 47.761 C 285.376 47.761,286.648 48.218,287.754 48.776 C 288.860 49.334,290.584 49.927,291.583 50.093 C 292.684 50.277,293.567 50.706,293.821 51.181 C 294.052 51.613,294.605 52.027,295.050 52.102 C 295.668 52.207,294.954 53.044,292.023 55.650 C 287.267 59.880,287.540 59.812,287.223 56.847 C 286.728 52.199,286.199 51.598,286.452 55.970 C 286.585 58.257,286.544 60.128,286.363 60.128 C 285.212 60.128,278.891 53.977,278.891 52.857 C 278.891 51.401,278.156 50.784,277.962 52.078 C 277.813 53.079,275.820 51.683,270.362 46.755 C 269.072 45.590,266.712 43.686,265.117 42.524 C 263.522 41.363,262.309 40.321,262.420 40.209 C 262.666 39.963,267.417 41.305,268.017 41.790 C 268.252 41.979,269.271 42.355,270.283 42.626 C 271.294 42.896,272.445 43.235,272.841 43.380 C 273.459 43.604,273.446 43.511,272.748 42.716 C 272.227 42.122,271.438 41.791,270.545 41.791 C 269.779 41.791,268.198 41.311,267.031 40.725 C 265.863 40.139,264.600 39.659,264.224 39.659 C 262.667 39.659,263.803 38.754,268.946 35.899 C 269.503 35.590,270.673 35.238,271.546 35.117 C 273.869 34.795,275.480 34.096,275.480 33.410 C 275.480 32.446,274.240 32.241,273.339 33.057 C 272.550 33.771,272.363 33.772,269.482 33.072 C 265.852 32.189,265.051 32.471,268.412 33.448 C 271.147 34.243,271.518 34.968,269.190 34.968 C 267.892 34.968,267.379 35.233,266.469 36.373 C 263.595 39.976,256.716 37.947,256.716 33.497 C 256.716 32.658,256.124 32.648,255.437 33.475 C 255.145 33.827,254.642 34.115,254.319 34.115 C 253.996 34.115,253.731 34.418,253.731 34.789 C 253.731 35.315,254.011 35.401,255.011 35.181 C 255.885 34.989,256.290 35.064,256.290 35.419 C 256.290 36.061,262.020 49.148,263.165 51.120 C 263.624 51.912,263.917 52.643,263.815 52.745 C 263.621 52.939,257.554 49.898,252.026 46.836 C 250.267 45.862,247.004 44.317,244.776 43.402 C 239.032 41.044,239.055 40.650,245.024 39.196 C 246.178 38.916,247.450 38.402,247.851 38.056 C 248.352 37.623,249.037 37.511,250.040 37.699 C 251.147 37.907,251.562 37.812,251.756 37.307 C 252.140 36.306,251.138 36.147,249.062 36.880 C 246.754 37.694,247.161 38.336,245.149 30.709 C 243.182 23.255,243.133 23.667,245.868 24.686 C 247.970 25.470,255.193 26.326,253.518 25.593 C 253.049 25.388,251.927 25.206,251.024 25.190 C 250.121 25.173,248.778 24.884,248.039 24.547 C 247.300 24.210,245.928 23.596,244.989 23.183 C 244.051 22.771,243.180 22.373,243.054 22.299 C 242.928 22.225,242.601 22.388,242.328 22.661 M319.342 24.166 C 318.917 24.279,318.719 24.648,318.839 25.106 C 318.976 25.631,318.509 26.209,317.301 27.009 C 316.346 27.640,315.565 28.449,315.565 28.806 C 315.565 29.557,316.743 29.081,317.681 27.951 C 317.985 27.584,318.977 26.867,319.885 26.357 C 322.407 24.939,322.038 23.449,319.342 24.166 M253.092 27.668 C 256.024 29.082,263.150 31.661,263.409 31.403 C 263.682 31.130,253.253 26.826,251.819 26.619 C 250.867 26.482,251.197 26.754,253.092 27.668 M256.716 26.870 C 257.068 27.095,257.986 27.282,258.756 27.286 C 259.525 27.289,260.844 27.580,261.686 27.932 C 262.528 28.284,263.530 28.561,263.911 28.548 C 264.293 28.535,263.742 28.179,262.687 27.757 C 260.575 26.911,255.633 26.177,256.716 26.870 M286.704 28.605 C 286.392 28.918,282.875 29.020,275.767 28.925 C 268.603 28.829,265.587 28.918,266.227 29.208 C 266.743 29.440,270.762 29.632,275.160 29.634 C 283.890 29.638,284.554 29.804,280.367 30.937 C 278.833 31.352,277.479 31.854,277.357 32.051 C 277.027 32.585,277.498 32.498,281.237 31.337 C 283.113 30.754,285.233 30.277,285.949 30.277 C 287.318 30.277,288.273 29.629,288.273 28.699 C 288.273 28.027,287.338 27.971,286.704 28.605 M309.182 33.236 C 308.939 33.691,308.901 34.163,309.098 34.285 C 309.534 34.554,311.301 33.373,311.301 32.812 C 311.301 32.066,309.629 32.402,309.182 33.236 M263.966 42.478 C 265.256 43.548,268.403 46.182,270.959 48.331 C 273.515 50.480,276.153 52.572,276.822 52.979 C 278.835 54.204,278.375 55.112,276.333 53.945 C 275.044 53.208,274.627 53.161,274.627 53.752 C 274.627 53.998,275.367 54.531,276.271 54.936 C 277.608 55.534,277.860 55.829,277.621 56.514 C 277.460 56.977,277.461 57.836,277.625 58.422 C 277.873 59.307,277.979 59.107,278.249 57.249 C 278.629 54.635,278.751 54.583,280.411 56.326 C 281.099 57.049,282.581 58.318,283.702 59.144 C 286.068 60.888,286.141 60.690,281.826 64.220 C 278.507 66.936,278.595 66.938,277.858 64.109 L 277.321 62.047 277.012 63.405 C 276.795 64.359,276.907 65.074,277.386 65.806 C 278.058 66.832,278.034 66.875,275.853 68.499 C 269.051 73.563,267.966 73.985,265.933 72.358 C 264.496 71.209,264.681 70.100,267.062 65.565 C 268.560 62.712,268.707 62.656,269.887 64.499 C 270.958 66.171,271.155 65.058,270.137 63.089 C 269.528 61.912,269.556 61.649,270.563 59.132 C 271.928 55.722,271.956 55.864,269.911 55.864 C 268.866 55.864,268.284 56.032,268.443 56.290 C 268.588 56.525,269.166 56.716,269.727 56.716 L 270.747 56.716 269.981 58.427 C 268.900 60.842,268.863 60.845,267.551 58.607 L 266.371 56.593 267.348 55.802 C 267.885 55.367,268.568 55.011,268.865 55.011 C 269.162 55.011,269.666 54.697,269.985 54.313 C 270.585 53.589,269.093 53.600,266.738 54.335 C 265.893 54.599,263.183 49.659,259.067 40.351 L 257.985 37.905 259.803 39.218 C 260.803 39.941,262.676 41.407,263.966 42.478 M293.592 38.764 C 291.144 39.173,289.834 40.156,290.519 41.070 C 291.001 41.713,291.287 41.676,293.931 40.630 C 297.752 39.119,297.567 38.101,293.592 38.764 M183.198 43.177 C 182.921 41.058,186.081 42.405,190.629 46.343 C 192.576 48.030,196.600 50.568,197.902 50.930 L 198.934 51.218 198.028 50.449 C 197.529 50.026,195.476 48.535,193.465 47.135 C 189.541 44.404,188.998 43.723,191.941 45.225 C 197.429 48.024,198.214 48.840,200.942 54.573 C 202.340 57.511,203.755 60.424,204.087 61.047 C 204.419 61.669,204.691 62.518,204.691 62.932 C 204.691 63.346,205.008 64.036,205.396 64.465 C 206.061 65.199,206.030 65.269,204.863 65.677 C 204.182 65.915,201.418 67.085,198.721 68.275 C 196.023 69.466,191.418 71.408,188.486 72.591 C 185.554 73.774,182.868 74.909,182.516 75.113 C 182.164 75.318,181.588 75.598,181.237 75.736 C 178.330 76.878,175.893 77.941,173.384 79.162 C 169.711 80.949,169.562 80.947,169.908 79.104 C 170.290 77.067,169.862 77.216,169.296 79.318 C 168.788 81.207,167.780 81.484,164.606 80.606 C 163.785 80.379,160.522 79.806,157.356 79.332 C 154.190 78.858,149.488 78.084,146.908 77.611 C 144.328 77.138,140.107 76.466,137.527 76.118 C 134.947 75.769,131.972 75.304,130.917 75.084 C 129.861 74.863,127.846 74.567,126.439 74.426 C 123.709 74.152,120.671 73.376,120.699 72.960 C 120.709 72.821,122.004 72.092,123.578 71.339 C 125.152 70.586,129.701 68.264,133.689 66.179 C 153.897 55.612,177.826 43.419,179.957 42.603 L 181.876 41.868 182.628 43.216 L 183.380 44.563 183.198 43.177 M274.887 44.148 C 275.617 44.468,276.768 44.854,277.446 45.006 L 278.678 45.281 277.282 44.389 C 276.514 43.898,275.362 43.512,274.723 43.532 L 273.561 43.566 274.887 44.148 M313.243 45.591 C 312.940 46.082,313.404 47.335,313.890 47.335 C 314.392 47.335,315.172 45.805,314.839 45.472 C 314.443 45.076,313.519 45.144,313.243 45.591 M253.642 48.664 C 256.388 50.098,259.691 51.808,260.981 52.463 C 265.418 54.717,265.857 55.897,262.493 56.528 C 261.730 56.671,260.585 57.130,259.947 57.548 C 258.235 58.671,259.716 59.080,261.739 58.043 C 263.691 57.041,266.410 58.094,267.606 60.314 C 268.390 61.770,267.904 62.914,261.960 73.594 C 260.775 75.723,259.677 77.833,259.519 78.284 C 259.361 78.735,258.681 79.539,258.007 80.069 L 256.782 81.034 255.253 80.131 C 254.412 79.635,253.438 79.339,253.088 79.473 C 252.385 79.743,252.199 81.876,252.878 81.876 C 253.113 81.876,253.305 81.493,253.305 81.023 C 253.305 80.107,253.982 79.935,255.011 80.592 C 255.552 80.937,255.497 81.107,254.655 81.700 C 253.381 82.597,254.045 83.474,255.435 82.730 C 256.970 81.909,259.821 85.052,260.190 87.974 C 260.328 89.065,260.139 89.250,257.996 90.125 C 256.706 90.651,254.320 91.790,252.693 92.655 C 250.161 94.002,248.052 94.546,249.906 93.374 C 250.251 93.155,250.321 92.974,250.062 92.970 C 249.803 92.967,249.082 93.436,248.459 94.014 C 247.836 94.591,245.457 96.044,243.172 97.243 C 240.888 98.442,238.443 99.860,237.740 100.396 C 234.906 102.553,230.668 104.143,231.986 102.555 C 232.280 102.201,233.263 101.494,234.171 100.984 C 235.946 99.986,236.286 99.360,235.052 99.360 C 234.629 99.360,233.631 100.032,232.835 100.854 C 232.039 101.675,231.251 102.203,231.083 102.026 C 230.679 101.601,229.320 87.979,229.498 86.137 C 229.745 83.584,235.379 80.889,235.398 83.314 C 235.401 83.579,236.423 85.906,237.670 88.487 L 239.937 93.178 239.175 94.438 C 238.326 95.842,238.446 96.352,239.433 95.533 C 239.789 95.237,240.481 95.100,240.970 95.228 C 241.671 95.411,241.800 95.309,241.580 94.745 C 241.427 94.352,241.268 93.839,241.226 93.605 C 241.185 93.371,240.939 92.987,240.680 92.752 C 240.100 92.225,235.707 82.300,234.473 78.731 L 233.570 76.119 235.792 71.215 C 237.015 68.518,238.288 66.008,238.623 65.638 C 238.958 65.268,239.232 64.535,239.232 64.009 C 239.232 63.036,241.699 56.716,242.079 56.716 C 242.501 56.716,249.029 60.349,249.035 60.587 C 249.038 60.722,247.553 61.352,245.736 61.986 C 242.004 63.287,241.045 63.788,241.471 64.214 C 241.633 64.376,242.682 64.131,243.804 63.669 C 244.925 63.207,247.042 62.461,248.507 62.011 C 251.279 61.162,251.529 60.951,250.640 60.222 C 250.010 59.706,243.994 56.522,243.074 56.218 C 242.304 55.964,245.117 48.613,246.595 47.015 C 247.828 45.683,248.024 45.729,253.642 48.664 M182.800 47.193 C 182.354 47.639,182.468 49.467,182.942 49.467 C 183.177 49.467,183.369 48.891,183.369 48.188 C 183.369 46.863,183.282 46.711,182.800 47.193 M224.262 48.367 C 224.040 49.170,223.314 50.410,222.648 51.123 C 221.799 52.031,221.352 53.056,221.155 54.542 C 220.890 56.539,220.794 56.672,219.531 56.797 C 217.759 56.972,217.506 57.899,219.080 58.448 L 220.327 58.882 218.485 63.450 C 217.472 65.962,216.571 68.209,216.484 68.443 C 216.396 68.678,215.770 68.439,215.092 67.913 C 214.414 67.387,213.284 66.645,212.580 66.264 C 209.296 64.487,208.882 63.576,210.874 62.503 C 211.695 62.061,212.367 61.532,212.367 61.327 C 212.367 61.123,211.612 61.390,210.690 61.921 C 209.767 62.452,208.927 62.793,208.824 62.680 C 208.382 62.196,204.396 52.452,204.641 52.452 C 204.789 52.452,205.529 52.630,206.287 52.847 C 208.005 53.340,208.506 52.724,206.924 52.064 C 206.282 51.796,204.992 50.932,204.058 50.144 L 202.358 48.712 207.896 48.424 C 210.941 48.266,214.680 47.886,216.205 47.579 C 217.729 47.273,220.256 46.997,221.821 46.965 L 224.665 46.908 224.262 48.367 M228.649 49.032 C 231.579 50.872,232.096 55.402,229.671 57.980 C 229.112 58.575,228.586 59.446,228.503 59.915 C 228.384 60.583,227.959 60.796,226.542 60.899 C 224.705 61.032,224.187 61.533,225.404 62.000 C 225.773 62.141,226.457 62.053,226.924 61.803 C 227.873 61.294,228.998 61.918,228.998 62.952 C 228.998 63.275,229.178 63.539,229.399 63.539 C 230.222 63.539,230.240 62.754,229.439 61.736 L 228.612 60.685 230.404 58.994 C 234.211 55.402,237.472 54.093,239.719 55.255 C 241.288 56.066,241.247 56.341,238.632 62.473 C 237.632 64.819,236.080 68.521,235.185 70.701 C 233.408 75.026,233.249 75.072,232.024 71.630 C 231.567 70.346,230.810 68.244,230.341 66.958 L 229.488 64.619 229.349 66.318 C 229.216 67.957,229.152 68.022,227.552 68.153 C 226.640 68.228,225.410 68.612,224.820 69.006 C 224.229 69.400,222.483 70.014,220.939 70.371 C 216.870 71.310,217.197 73.150,221.855 75.532 C 224.144 76.703,223.070 78.038,219.838 78.038 C 219.326 78.038,218.012 78.492,216.917 79.046 L 214.925 80.055 214.925 78.440 C 214.925 77.365,214.588 76.421,213.916 75.619 C 213.360 74.956,212.281 73.166,211.516 71.642 C 210.752 70.117,209.746 68.331,209.281 67.673 C 208.237 66.194,208.361 66.054,210.326 66.497 C 211.875 66.846,215.778 69.670,215.778 70.442 C 215.778 70.994,214.883 72.652,214.421 72.955 C 213.937 73.272,214.472 74.707,215.007 74.529 C 215.676 74.306,217.342 70.724,217.906 68.298 C 218.198 67.045,219.196 64.262,220.126 62.114 C 221.055 59.966,222.062 57.417,222.364 56.449 C 223.369 53.226,225.794 47.783,226.226 47.780 C 226.461 47.779,227.551 48.342,228.649 49.032 M243.727 50.698 C 243.055 52.604,241.857 55.011,241.581 55.011 C 241.145 55.011,238.381 53.553,238.401 53.333 C 238.428 53.022,243.614 49.064,244.011 49.050 C 244.176 49.045,244.049 49.786,243.727 50.698 M204.884 56.404 C 206.185 58.930,207.249 61.366,207.249 61.816 C 207.249 62.267,207.441 62.755,207.676 62.900 C 208.502 63.411,208.124 64.008,207.265 63.548 C 206.805 63.302,206.524 62.850,206.642 62.544 C 206.841 62.023,205.005 58.144,202.471 53.731 C 201.864 52.676,201.240 51.333,201.084 50.746 L 200.799 49.680 201.659 50.746 C 202.131 51.333,203.583 53.879,204.884 56.404 M204.264 50.959 C 204.561 51.316,204.607 51.599,204.369 51.599 C 204.134 51.599,203.703 51.311,203.412 50.959 C 203.115 50.603,203.069 50.320,203.307 50.320 C 203.542 50.320,203.972 50.608,204.264 50.959 M253.049 51.406 C 252.747 52.607,253.007 53.113,253.703 52.683 C 254.274 52.330,254.305 50.320,253.739 50.320 C 253.509 50.320,253.199 50.809,253.049 51.406 M182.516 52.878 C 182.516 53.582,182.708 54.158,182.942 54.158 C 183.177 54.158,183.369 53.582,183.369 52.878 C 183.369 52.175,183.177 51.599,182.942 51.599 C 182.708 51.599,182.516 52.175,182.516 52.878 M210.768 52.921 C 209.443 53.413,209.564 54.438,210.978 54.709 C 212.401 54.981,212.793 54.774,212.793 53.752 C 212.793 52.775,212.017 52.456,210.768 52.921 M182.244 56.077 C 181.916 56.931,182.400 58.118,182.939 57.784 C 183.505 57.435,183.496 55.437,182.929 55.437 C 182.687 55.437,182.379 55.725,182.244 56.077 M266.276 57.960 C 266.024 58.212,263.966 57.068,263.966 56.676 C 263.966 55.922,265.495 56.102,265.957 56.910 C 266.231 57.389,266.374 57.862,266.276 57.960 M252.216 56.754 C 251.776 57.465,252.765 58.280,253.353 57.692 C 253.845 57.200,253.537 56.290,252.878 56.290 C 252.672 56.290,252.373 56.499,252.216 56.754 M302.026 57.852 C 301.252 58.164,301.372 59.682,302.194 59.997 C 302.928 60.279,304.051 59.148,304.051 58.127 C 304.051 57.574,303.051 57.438,302.026 57.852 M190.818 61.514 L 188.273 64.179 190.938 61.634 C 193.414 59.269,193.799 58.849,193.483 58.849 C 193.417 58.849,192.218 60.048,190.818 61.514 M182.516 61.407 C 182.516 62.185,182.693 62.628,182.942 62.473 C 183.177 62.328,183.369 61.849,183.369 61.407 C 183.369 60.966,183.177 60.486,182.942 60.341 C 182.693 60.187,182.516 60.629,182.516 61.407 M287.152 63.646 C 287.293 64.643,287.616 67.665,287.872 70.362 C 288.127 73.060,288.505 76.034,288.710 76.972 C 289.082 78.668,287.862 80.528,286.344 80.582 C 285.894 80.598,285.789 80.413,282.592 73.987 C 281.542 71.876,280.385 69.587,280.022 68.901 C 279.210 67.366,279.147 67.466,282.875 64.377 C 286.521 61.355,286.822 61.303,287.152 63.646 M233.120 65.103 C 232.660 65.564,232.795 67.377,233.290 67.377 C 234.131 67.377,235.394 66.500,235.394 65.915 C 235.394 65.083,233.733 64.490,233.120 65.103 M253.974 65.624 C 253.845 65.832,254.788 66.428,256.069 66.948 C 257.349 67.467,259.088 68.544,259.933 69.341 C 261.234 70.568,263.113 71.297,263.113 70.574 C 263.113 69.160,254.629 64.565,253.974 65.624 M182.523 66.844 C 182.526 67.255,182.715 67.878,182.942 68.230 C 183.256 68.716,183.357 68.536,183.362 67.484 C 183.366 66.722,183.177 66.098,182.942 66.098 C 182.708 66.098,182.519 66.434,182.523 66.844 M207.704 68.864 C 208.394 70.386,209.635 72.688,210.463 73.982 C 211.290 75.275,211.913 76.347,211.847 76.364 C 211.781 76.382,211.311 76.474,210.803 76.569 C 207.251 77.236,205.331 78.253,205.411 79.424 C 205.505 80.804,205.644 80.764,203.570 79.944 C 202.063 79.348,201.993 79.349,202.772 79.962 C 203.241 80.332,204.067 80.745,204.607 80.881 C 205.404 81.081,205.546 81.338,205.362 82.248 C 204.988 84.097,203.495 93.439,203.190 95.842 C 202.813 98.803,203.019 98.847,193.434 93.747 C 188.953 91.363,181.971 87.731,177.916 85.675 C 173.862 83.620,170.543 81.810,170.540 81.652 C 170.535 81.299,175.158 79.067,178.038 78.032 C 179.211 77.611,182.165 76.384,184.603 75.307 C 189.411 73.182,189.976 73.050,190.491 73.931 C 190.678 74.252,191.311 74.660,191.898 74.837 L 192.964 75.159 191.791 74.222 C 190.215 72.963,190.289 72.744,192.644 71.713 C 193.758 71.225,197.068 69.768,200.000 68.476 C 206.603 65.566,206.200 65.545,207.704 68.864 M326.759 66.538 C 326.231 66.750,325.800 67.268,325.800 67.689 C 325.800 68.110,323.048 71.201,319.686 74.557 L 313.572 80.660 310.837 79.535 C 309.333 78.916,306.567 77.921,304.691 77.323 C 302.814 76.725,300.053 75.682,298.555 75.005 C 295.632 73.684,294.054 73.356,296.162 74.507 C 298.107 75.569,303.859 77.967,307.676 79.308 C 312.435 80.979,312.580 81.049,312.580 81.657 C 312.580 82.222,308.502 86.141,307.914 86.141 C 307.729 86.141,306.352 84.875,304.855 83.328 C 302.038 80.417,293.847 73.355,293.284 73.350 C 292.415 73.343,293.231 74.320,295.884 76.464 C 305.719 84.410,307.961 87.629,304.942 89.468 C 303.334 90.448,296.802 97.714,296.802 98.522 C 296.802 99.379,297.807 98.870,299.723 97.045 C 302.091 94.788,302.941 94.142,306.741 91.707 L 309.644 89.846 311.784 91.938 C 312.961 93.089,314.798 95.213,315.867 96.660 C 318.336 100.002,319.889 99.611,319.178 95.825 C 318.855 94.101,320.459 84.685,321.274 83.521 C 322.060 82.399,321.679 80.237,320.887 81.320 C 320.391 81.999,320.104 82.016,317.634 81.507 C 314.205 80.800,314.280 80.989,316.470 78.555 C 319.974 74.659,325.940 69.249,325.620 70.257 C 325.453 70.784,325.423 71.215,325.555 71.215 C 326.046 71.215,328.358 67.646,328.358 66.887 C 328.358 66.015,328.165 65.973,326.759 66.538 M172.749 68.547 C 172.461 69.428,172.119 70.437,171.987 70.789 C 171.828 71.216,171.891 71.287,172.177 71.002 C 172.697 70.484,173.720 67.395,173.458 67.133 C 173.355 67.030,173.036 67.666,172.749 68.547 M282.410 75.480 C 284.384 79.350,286.902 83.835,288.006 85.448 C 289.111 87.060,289.922 88.471,289.809 88.584 C 289.645 88.749,285.480 85.823,283.844 84.393 C 283.634 84.209,283.775 83.755,284.164 83.366 C 285.137 82.393,285.060 81.740,284.037 82.288 C 282.623 83.044,281.512 82.778,280.528 81.447 C 279.872 80.561,279.342 80.241,278.809 80.410 C 276.021 81.295,274.631 76.544,276.134 71.268 C 277.552 66.291,277.814 66.467,282.410 75.480 M239.659 69.296 C 239.659 70.017,239.854 70.368,240.192 70.256 C 240.485 70.158,240.725 69.726,240.725 69.296 C 240.725 68.866,240.485 68.435,240.192 68.337 C 239.854 68.224,239.659 68.576,239.659 69.296 M230.531 69.829 C 230.679 70.474,231.450 72.938,232.245 75.304 C 234.059 80.709,234.062 80.661,231.832 82.487 C 229.758 84.187,229.400 84.268,227.784 83.402 C 227.162 83.068,224.983 82.297,222.942 81.689 C 220.901 81.080,219.107 80.381,218.955 80.135 C 218.777 79.847,218.399 79.941,217.893 80.400 C 217.461 80.791,216.870 81.032,216.580 80.935 C 215.775 80.667,218.756 79.004,220.682 78.647 C 225.658 77.725,225.966 77.039,222.387 74.854 C 218.629 72.558,218.941 71.913,224.528 70.419 C 225.471 70.167,226.622 69.673,227.087 69.322 C 228.540 68.224,230.218 68.471,230.531 69.829 M275.272 71.907 C 274.917 72.757,274.627 74.388,274.627 75.532 C 274.627 77.941,274.726 77.884,272.626 76.686 C 268.816 74.512,268.800 74.352,272.175 72.127 C 275.567 69.891,276.132 69.851,275.272 71.907 M182.163 71.496 C 182.246 71.928,182.600 72.281,182.948 72.281 C 183.862 72.281,183.730 71.042,182.797 70.863 C 182.227 70.753,182.054 70.927,182.163 71.496 M244.776 72.281 C 244.776 72.633,244.968 72.921,245.203 72.921 C 245.437 72.921,245.629 72.633,245.629 72.281 C 245.629 71.930,245.437 71.642,245.203 71.642 C 244.968 71.642,244.776 71.930,244.776 72.281 M265.536 73.028 C 267.389 74.290,267.445 74.174,263.678 76.904 C 259.566 79.884,259.329 79.712,261.722 75.482 C 263.916 71.602,263.673 71.759,265.536 73.028 M171.087 74.072 C 170.456 76.129,170.762 76.434,171.429 74.414 C 171.710 73.561,171.857 72.781,171.756 72.680 C 171.654 72.578,171.354 73.205,171.087 74.072 M247.166 73.172 C 246.826 74.058,246.835 75.906,247.179 75.906 C 247.901 75.906,249.366 73.796,248.895 73.434 C 247.796 72.589,247.412 72.531,247.166 73.172 M127.932 75.446 C 129.691 75.651,134.009 76.307,137.527 76.904 C 141.045 77.500,149.009 78.794,155.224 79.779 C 161.439 80.764,166.811 81.651,167.161 81.749 C 167.602 81.874,167.011 82.678,165.242 84.361 C 161.635 87.794,155.640 93.154,155.243 93.300 C 155.059 93.368,150.902 91.185,146.005 88.448 C 141.107 85.711,135.469 82.562,133.475 81.451 C 128.524 78.690,125.567 76.927,123.726 75.640 L 122.175 74.556 123.454 74.814 C 124.158 74.956,126.173 75.241,127.932 75.446 M118.977 76.119 C 119.269 76.471,119.733 76.759,120.009 76.759 C 120.286 76.759,124.648 79.110,129.704 81.983 C 134.760 84.856,142.346 89.123,146.562 91.465 L 154.226 95.723 154.329 108.987 L 154.431 122.250 153.236 123.034 C 152.578 123.465,149.638 126.051,146.702 128.781 C 143.767 131.511,139.542 135.343,137.313 137.296 C 133.614 140.540,128.582 145.184,121.304 152.073 L 118.550 154.680 118.539 152.713 C 118.532 151.631,118.437 135.011,118.327 115.778 C 118.216 96.546,118.024 79.611,117.900 78.145 C 117.673 75.480,117.975 74.913,118.977 76.119 M211.949 77.958 C 210.423 80.571,208.602 81.161,207.215 79.489 C 206.812 79.004,207.030 78.768,208.370 78.235 C 209.278 77.874,210.405 77.418,210.874 77.222 C 212.004 76.749,212.468 77.067,211.949 77.958 M240.796 77.043 C 240.277 77.563,240.502 78.465,241.151 78.465 C 241.507 78.465,241.791 78.086,241.791 77.612 C 241.791 76.762,241.337 76.503,240.796 77.043 M182.410 78.147 C 182.157 78.837,182.479 79.744,182.978 79.744 C 183.481 79.744,183.489 78.163,182.987 77.853 C 182.777 77.723,182.518 77.856,182.410 78.147 M199.147 78.252 C 199.733 78.587,200.405 78.861,200.640 78.861 C 200.874 78.861,200.586 78.587,200.000 78.252 C 199.414 77.916,198.742 77.642,198.507 77.642 C 198.273 77.642,198.561 77.916,199.147 78.252 M236.923 79.592 C 236.566 80.522,237.040 80.955,237.543 80.158 C 238.048 79.361,238.058 78.891,237.572 78.891 C 237.363 78.891,237.070 79.207,236.923 79.592 M248.188 80.597 C 248.188 81.066,248.380 81.450,248.614 81.450 C 248.849 81.450,249.041 81.066,249.041 80.597 C 249.041 80.128,248.849 79.744,248.614 79.744 C 248.380 79.744,248.188 80.128,248.188 80.597 M213.443 81.056 C 213.801 82.184,213.661 82.290,212.425 81.822 C 211.590 81.507,211.507 81.332,211.944 80.806 C 212.667 79.935,213.111 80.009,213.443 81.056 M209.648 82.154 C 212.216 83.313,213.938 83.747,218.736 84.447 C 225.277 85.401,225.373 85.764,219.829 88.580 C 218.188 89.414,214.015 91.701,210.557 93.662 C 207.100 95.624,204.148 97.228,203.999 97.228 C 203.551 97.228,204.259 91.478,205.358 86.195 C 205.926 83.468,206.391 81.189,206.393 81.130 C 206.403 80.824,207.391 81.135,209.648 82.154 M222.559 83.191 C 226.956 84.870,226.691 85.480,222.139 84.161 C 220.229 83.608,218.449 83.153,218.182 83.149 C 217.298 83.137,216.517 82.406,216.836 81.889 C 217.215 81.277,218.034 81.463,222.559 83.191 M270.455 81.942 C 270.560 82.258,270.988 82.582,271.406 82.663 C 271.893 82.758,272.098 82.604,271.975 82.237 C 271.870 81.921,271.442 81.597,271.024 81.516 C 270.538 81.422,270.333 81.575,270.455 81.942 M317.055 82.354 L 318.758 82.827 317.268 84.071 C 316.449 84.755,314.915 85.722,313.859 86.219 C 312.804 86.716,311.498 87.520,310.958 88.006 C 310.120 88.761,309.918 88.798,309.579 88.262 C 308.817 87.056,309.184 86.250,311.488 84.070 C 313.952 81.741,314.375 81.610,317.055 82.354 M173.561 84.573 C 176.023 85.820,179.177 87.451,180.568 88.196 C 181.960 88.942,183.285 89.552,183.513 89.552 C 183.741 89.552,184.522 90.004,185.248 90.557 C 185.973 91.110,187.047 91.707,187.633 91.885 C 188.220 92.063,189.275 92.552,189.979 92.971 C 190.682 93.391,193.551 94.898,196.355 96.320 L 201.451 98.906 199.979 99.521 C 199.170 99.860,197.260 100.848,195.736 101.716 C 185.190 107.724,185.313 107.673,183.318 106.847 C 182.833 106.646,182.556 106.838,182.385 107.491 C 182.148 108.397,182.056 108.374,178.811 106.590 C 176.979 105.582,173.657 103.764,171.429 102.549 C 169.200 101.335,165.310 99.155,162.784 97.704 C 160.257 96.254,157.667 94.863,157.027 94.613 C 155.864 94.158,155.865 94.157,162.021 88.231 C 169.186 81.333,167.941 81.728,173.561 84.573 M182.516 83.582 C 182.516 84.286,182.708 84.861,182.942 84.861 C 183.177 84.861,183.369 84.286,183.369 83.582 C 183.369 82.878,183.177 82.303,182.942 82.303 C 182.708 82.303,182.516 82.878,182.516 83.582 M319.588 85.608 C 319.433 86.487,319.041 88.515,318.715 90.113 C 318.390 91.712,318.124 93.763,318.124 94.672 C 318.124 97.163,317.770 97.024,314.117 93.106 C 310.219 88.924,310.121 89.404,315.526 86.161 C 319.819 83.585,319.945 83.567,319.588 85.608 M247.505 85.521 C 247.355 86.118,247.357 86.731,247.509 86.883 C 247.934 87.308,249.609 85.437,249.280 84.904 C 248.763 84.067,247.784 84.407,247.505 85.521 M216.205 85.095 C 216.205 85.399,219.667 86.972,220.362 86.984 C 221.481 87.004,220.824 86.205,219.181 85.547 C 217.450 84.855,216.205 84.666,216.205 85.095 M308.403 88.593 C 308.499 89.069,307.932 89.807,306.835 90.633 C 301.942 94.319,300.680 94.241,304.659 90.499 C 307.666 87.671,308.166 87.416,308.403 88.593 M226.439 88.830 C 226.439 89.601,223.889 101.200,223.672 101.417 C 223.470 101.618,223.304 100.817,222.645 96.474 C 221.820 91.038,221.938 90.284,223.774 89.219 C 225.610 88.155,226.439 88.034,226.439 88.830 M242.962 89.788 L 242.753 90.877 243.765 89.927 C 244.985 88.781,244.999 88.699,243.973 88.699 C 243.450 88.699,243.097 89.080,242.962 89.788 M228.596 97.228 L 229.111 103.412 227.775 105.873 C 226.065 109.024,226.026 110.543,227.731 107.569 C 229.255 104.912,229.714 104.788,230.102 106.930 C 230.452 108.856,231.838 111.727,232.418 111.727 C 233.016 111.727,232.935 111.024,232.165 109.534 C 231.216 107.700,231.279 107.705,236.570 109.933 C 241.492 112.006,242.261 112.580,240.118 112.580 C 239.432 112.580,236.924 113.242,234.546 114.051 C 229.598 115.733,229.049 115.254,233.388 113.041 C 234.960 112.239,236.169 111.506,236.075 111.412 C 235.981 111.318,235.111 111.646,234.142 112.140 C 233.173 112.634,232.202 112.928,231.983 112.793 C 231.765 112.659,230.668 113.046,229.546 113.654 C 228.424 114.262,227.868 114.649,228.312 114.513 C 228.994 114.304,229.035 114.366,228.580 114.916 C 228.283 115.273,227.769 115.565,227.436 115.565 C 227.104 115.565,226.065 115.956,225.128 116.434 L 223.424 117.303 223.645 113.769 C 224.127 106.062,224.432 103.988,226.143 96.802 C 227.120 92.697,227.956 89.723,228.000 90.192 C 228.045 90.661,228.313 93.827,228.596 97.228 M263.515 90.359 C 263.752 90.803,264.814 92.182,265.875 93.425 C 266.936 94.668,267.804 95.876,267.804 96.109 C 267.804 96.343,268.221 96.978,268.731 97.520 C 269.241 98.063,269.458 98.507,269.213 98.507 C 268.968 98.507,267.775 99.298,266.561 100.265 C 265.347 101.232,264.295 101.951,264.223 101.864 C 263.792 101.340,261.372 90.686,261.568 90.175 C 261.905 89.297,263.002 89.401,263.515 90.359 M261.230 93.603 C 261.507 95.011,262.208 97.726,262.787 99.637 L 263.841 103.111 262.120 104.434 C 260.025 106.045,260.243 106.043,257.144 104.478 C 255.331 103.563,254.680 103.017,254.856 102.559 C 255.227 101.593,253.476 101.748,252.452 102.772 C 251.233 103.991,251.962 105.521,253.353 104.661 C 253.923 104.309,257.828 105.681,258.475 106.460 C 259.214 107.350,257.874 108.362,253.945 109.879 C 252.303 110.513,250.659 111.281,250.293 111.587 C 249.778 112.015,249.510 112.026,249.120 111.636 C 248.729 111.245,248.266 111.255,247.089 111.681 C 245.156 112.380,244.699 112.031,246.575 111.288 C 247.345 110.983,248.322 110.437,248.747 110.075 C 249.365 109.547,249.587 109.526,249.860 109.967 C 250.124 110.394,250.263 110.358,250.475 109.805 C 250.626 109.413,250.641 108.917,250.509 108.704 C 250.189 108.185,249.041 108.206,249.041 108.731 C 249.041 109.334,246.706 110.448,245.441 110.448 C 244.819 110.448,244.130 110.811,243.824 111.301 C 243.145 112.389,242.881 112.373,241.230 111.141 C 240.483 110.585,238.760 109.720,237.400 109.221 C 229.821 106.436,229.707 105.471,236.687 103.171 C 238.879 102.449,241.237 101.566,241.928 101.209 C 242.903 100.704,243.256 100.677,243.508 101.085 C 243.749 101.474,244.083 101.377,244.799 100.710 C 245.330 100.215,246.695 99.501,247.832 99.124 C 248.970 98.746,249.791 98.261,249.658 98.046 C 249.276 97.427,248.294 97.583,246.358 98.571 C 244.240 99.651,237.460 101.994,237.200 101.735 C 236.847 101.382,241.592 98.921,242.297 99.092 C 242.692 99.188,243.107 99.026,243.220 98.732 C 243.429 98.189,248.743 95.096,249.467 95.096 C 249.686 95.096,251.934 94.136,254.463 92.962 C 260.268 90.269,260.581 90.299,261.230 93.603 M182.516 92.111 C 182.516 92.580,182.708 92.964,182.942 92.964 C 183.177 92.964,183.369 92.580,183.369 92.111 C 183.369 91.642,183.177 91.258,182.942 91.258 C 182.708 91.258,182.516 91.642,182.516 92.111 M221.227 93.497 C 222.159 97.958,222.695 103.323,222.417 105.416 C 222.187 107.152,219.088 117.088,218.636 117.540 C 218.428 117.749,211.061 115.284,210.682 114.879 C 210.486 114.670,209.331 112.196,208.116 109.382 C 206.901 106.567,205.537 103.567,205.085 102.714 C 203.612 99.931,203.017 100.508,213.006 95.015 C 221.053 90.589,220.636 90.666,221.227 93.497 M182.531 96.774 C 181.914 97.926,181.981 98.507,182.729 98.507 C 183.156 98.507,183.369 98.081,183.369 97.228 C 183.369 95.742,183.147 95.622,182.531 96.774 M254.797 96.587 C 254.563 96.667,253.624 96.857,252.711 97.011 C 251.215 97.262,251.116 97.354,251.710 97.948 C 252.455 98.694,255.858 97.884,256.192 96.882 C 256.352 96.401,255.732 96.270,254.797 96.587 M158.328 98.132 C 159.787 98.863,164.564 101.454,168.943 103.888 C 173.322 106.323,177.008 108.316,177.133 108.316 C 177.258 108.316,178.047 108.781,178.886 109.351 C 179.725 109.920,180.600 110.449,180.831 110.526 C 181.071 110.606,181.292 113.161,181.350 116.527 L 181.450 122.389 180.277 122.388 C 179.484 122.388,179.104 122.610,179.104 123.073 C 179.104 123.552,179.329 123.671,179.851 123.468 C 181.730 122.737,181.737 122.771,181.370 130.810 C 181.069 137.423,181.205 137.309,176.918 134.536 C 175.281 133.477,172.609 131.939,170.980 131.119 C 169.350 130.298,168.017 129.461,168.017 129.257 C 168.017 129.054,167.393 128.631,166.631 128.316 C 165.447 127.828,163.435 126.750,156.355 122.814 L 155.205 122.175 155.015 109.488 C 154.892 101.226,154.974 96.802,155.250 96.802 C 155.484 96.802,156.869 97.400,158.328 98.132 M182.663 100.445 C 182.524 100.807,182.518 101.210,182.648 101.340 C 183.022 101.714,183.795 101.080,183.795 100.401 C 183.795 99.583,182.982 99.614,182.663 100.445 M203.469 101.919 C 203.666 102.271,204.982 105.341,206.393 108.742 C 207.804 112.143,209.910 116.844,211.072 119.190 C 214.043 125.187,215.593 128.772,215.910 130.384 L 216.183 131.770 213.823 131.770 C 212.359 131.770,211.564 131.931,211.727 132.196 C 211.872 132.431,212.671 132.623,213.504 132.623 C 214.776 132.623,214.968 132.742,214.714 133.369 C 214.548 133.779,214.215 134.660,213.974 135.327 C 213.614 136.321,213.354 136.494,212.525 136.286 C 208.971 135.399,209.023 135.386,210.638 136.772 L 212.107 138.034 208.871 143.750 C 207.091 146.894,203.427 153.401,200.728 158.209 C 198.029 163.017,195.053 168.294,194.114 169.936 C 193.176 171.578,190.774 176.032,188.777 179.834 C 186.780 183.636,184.843 187.181,184.471 187.711 C 183.851 188.596,183.795 186.628,183.795 163.872 L 183.795 139.068 184.743 138.404 C 185.290 138.021,186.580 137.740,187.792 137.740 C 188.947 137.740,193.392 136.961,197.670 136.008 C 205.131 134.346,205.511 134.303,207.040 134.942 C 208.908 135.723,208.955 135.729,208.955 135.210 C 208.955 134.209,206.349 132.934,205.289 133.417 C 203.005 134.458,185.501 137.764,185.501 137.155 C 185.501 137.064,186.528 136.214,187.783 135.267 C 189.038 134.319,191.242 132.377,192.682 130.951 C 194.121 129.525,195.589 128.358,195.944 128.358 C 196.298 128.358,196.588 128.174,196.588 127.949 C 196.588 127.724,199.275 125.092,202.559 122.099 C 205.842 119.107,208.529 116.508,208.529 116.325 C 208.529 115.566,207.470 116.083,206.229 117.448 C 203.451 120.503,195.678 127.079,194.844 127.079 C 194.369 127.079,194.080 127.241,194.202 127.439 C 194.676 128.207,185.705 136.450,184.387 136.458 C 183.885 136.461,183.516 124.038,183.995 123.263 C 184.145 123.020,184.913 123.096,185.928 123.454 C 188.375 124.318,188.467 123.451,186.050 122.297 L 184.009 121.322 183.866 116.505 C 183.692 110.669,183.285 111.242,190.354 107.399 C 193.431 105.726,196.675 103.898,197.563 103.336 C 198.451 102.773,199.410 102.447,199.695 102.611 C 199.980 102.775,200.063 102.744,199.880 102.543 C 199.447 102.067,201.254 101.050,202.302 101.179 C 202.747 101.234,203.272 101.567,203.469 101.919 M248.034 101.788 C 247.381 102.441,247.736 105.455,248.401 104.904 C 248.753 104.612,249.041 103.832,249.041 103.171 C 249.041 101.964,248.542 101.280,248.034 101.788 M182.516 103.838 C 182.516 104.190,182.708 104.478,182.942 104.478 C 183.177 104.478,183.369 104.190,183.369 103.838 C 183.369 103.486,183.177 103.198,182.942 103.198 C 182.708 103.198,182.516 103.486,182.516 103.838 M314.132 105.970 C 313.988 106.344,313.349 106.610,312.593 106.610 C 311.882 106.610,311.301 106.802,311.301 107.036 C 311.301 107.569,315.001 107.604,315.328 107.075 C 315.622 106.599,315.174 105.330,314.712 105.330 C 314.528 105.330,314.267 105.618,314.132 105.970 M243.503 106.265 C 243.516 107.336,244.336 108.217,244.343 107.168 C 244.347 106.654,244.158 106.115,243.923 105.970 C 243.689 105.825,243.500 105.958,243.503 106.265 M258.422 109.619 C 258.422 109.866,257.020 111.450,255.305 113.137 C 251.426 116.955,249.670 119.177,253.049 115.991 C 254.417 114.701,255.341 114.030,255.102 114.499 C 254.438 115.802,251.342 119.197,249.454 120.693 L 247.766 122.029 248.034 118.691 C 248.181 116.854,248.541 115.064,248.834 114.712 C 249.127 114.360,249.484 113.689,249.627 113.220 C 249.778 112.726,250.653 112.073,251.703 111.670 C 252.701 111.287,254.478 110.583,255.650 110.105 C 258.187 109.073,258.422 109.032,258.422 109.619 M261.649 112.663 C 262.337 114.116,263.326 115.939,263.846 116.714 L 264.793 118.123 263.230 118.776 C 262.370 119.135,261.059 119.892,260.317 120.458 C 257.329 122.737,248.383 126.591,247.689 125.898 C 247.270 125.479,248.545 123.645,252.148 119.482 C 253.505 117.914,255.129 115.864,255.758 114.925 C 259.595 109.200,259.945 109.065,261.649 112.663 M222.526 113.195 C 222.360 115.795,221.463 117.697,220.403 117.697 C 219.833 117.697,219.966 116.981,221.164 113.607 C 222.537 109.738,222.750 109.674,222.526 113.195 M243.070 113.408 C 243.070 113.628,242.899 113.915,242.689 114.045 C 242.479 114.174,241.335 116.297,240.146 118.761 C 238.957 121.225,237.765 123.241,237.496 123.241 C 237.227 123.241,235.021 122.569,232.594 121.748 C 230.166 120.928,227.932 120.253,227.629 120.249 C 226.113 120.231,225.801 119.470,226.851 118.353 C 228.411 116.692,243.070 112.222,243.070 113.408 M245.006 113.581 C 244.379 114.040,244.336 114.227,244.793 114.509 C 245.139 114.723,245.432 114.665,245.533 114.361 C 245.625 114.085,245.887 113.859,246.116 113.859 C 246.345 113.859,246.408 114.060,246.257 114.304 C 246.106 114.549,246.174 114.981,246.408 115.264 C 246.642 115.547,247.010 117.296,247.225 119.151 L 247.617 122.523 246.320 124.055 C 245.607 124.897,244.967 125.667,244.899 125.765 C 244.831 125.863,244.343 125.740,243.816 125.492 C 243.289 125.244,242.050 124.822,241.063 124.555 C 238.640 123.900,238.645 123.984,240.740 119.509 C 242.926 114.839,244.155 113.006,245.100 113.006 C 245.692 113.006,245.679 113.089,245.006 113.581 M272.730 119.770 C 275.536 122.982,278.991 127.505,278.638 127.505 C 278.458 127.505,276.954 126.477,275.296 125.220 C 273.638 123.963,271.199 122.252,269.876 121.418 C 266.691 119.408,266.597 119.170,268.289 117.420 L 269.723 115.936 270.362 116.864 C 270.714 117.374,271.780 118.682,272.730 119.770 M217.360 118.484 C 218.207 118.937,218.207 118.949,217.314 122.794 C 216.257 127.344,216.107 127.428,214.910 124.145 C 214.407 122.766,213.341 120.717,212.541 119.592 C 210.421 116.610,210.571 116.330,213.799 117.253 C 215.290 117.680,216.892 118.233,217.360 118.484 M225.160 118.525 C 225.160 119.028,224.328 119.566,224.023 119.261 C 223.717 118.955,224.256 118.124,224.759 118.124 C 224.979 118.124,225.160 118.304,225.160 118.525 M221.764 119.672 C 223.039 120.182,223.434 120.547,223.244 121.041 C 222.830 122.120,218.213 128.785,217.880 128.785 C 217.141 128.785,217.142 126.595,217.883 124.481 C 218.327 123.212,218.824 121.455,218.987 120.576 C 219.326 118.752,219.402 118.727,221.764 119.672 M266.521 120.038 C 266.811 120.388,268.514 121.665,270.304 122.878 C 272.095 124.090,274.171 125.579,274.916 126.187 C 275.662 126.795,276.717 127.611,277.262 128.002 C 278.225 128.692,278.228 128.720,277.399 129.021 C 276.930 129.191,275.299 129.858,273.774 130.502 C 268.541 132.715,268.382 132.563,269.761 126.652 C 269.905 126.038,269.859 125.789,269.653 126.064 C 269.209 126.660,264.993 129.253,257.783 133.368 C 254.733 135.108,251.855 136.877,251.386 137.300 C 250.917 137.722,250.053 138.193,249.467 138.345 C 248.881 138.498,247.682 138.838,246.803 139.102 C 245.439 139.511,241.117 138.799,239.759 137.941 C 239.507 137.781,241.850 133.981,242.643 133.263 C 243.113 132.838,243.497 132.242,243.497 131.938 C 243.497 130.034,251.092 124.947,253.934 124.947 C 254.306 124.947,255.996 124.145,257.689 123.165 C 264.550 119.193,265.531 118.846,266.521 120.038 M287.420 120.469 C 286.834 120.804,285.943 121.085,285.440 121.094 C 284.653 121.107,283.710 122.232,284.133 122.654 C 284.265 122.786,289.110 120.401,289.517 120.003 C 289.960 119.570,288.377 119.922,287.420 120.469 M255.656 121.182 C 254.486 121.644,253.431 122.120,253.311 122.239 C 252.869 122.682,255.699 121.816,257.143 121.068 C 259.081 120.062,258.351 120.119,255.656 121.182 M228.785 121.711 C 231.804 122.606,236.680 124.385,237.006 124.711 C 237.072 124.777,236.065 126.704,234.768 128.994 C 232.268 133.409,232.040 134.017,233.029 133.637 C 233.370 133.507,234.633 131.483,235.836 129.141 C 237.572 125.762,238.170 124.939,238.735 125.156 C 239.126 125.306,240.645 125.847,242.111 126.359 C 245.358 127.492,245.369 127.202,241.878 132.409 C 238.734 137.100,238.731 137.101,234.413 136.291 C 233.059 136.037,232.836 135.852,233.056 135.158 C 233.346 134.246,232.266 133.953,231.741 134.801 C 231.109 135.824,223.325 133.254,220.098 130.956 C 218.543 129.849,218.609 129.599,221.440 125.821 C 222.591 124.285,223.808 122.500,224.144 121.855 C 224.875 120.452,224.568 120.461,228.785 121.711 M314.286 122.549 C 314.286 123.781,315.207 124.631,316.151 124.269 C 317.512 123.746,317.039 121.535,315.565 121.535 C 314.502 121.535,314.286 121.707,314.286 122.549 M157.168 124.348 C 158.561 125.192,161.222 126.650,163.080 127.588 L 166.458 129.295 164.892 130.189 C 163.356 131.067,162.868 131.770,163.793 131.770 C 164.050 131.770,164.838 131.359,165.544 130.856 L 166.827 129.942 169.774 131.368 C 171.395 132.152,174.644 133.955,176.995 135.373 L 181.270 137.953 181.246 161.166 C 181.233 173.932,181.161 184.440,181.086 184.515 C 181.010 184.590,180.519 182.575,179.993 180.036 C 179.467 177.497,178.847 175.146,178.616 174.810 C 178.292 174.340,178.246 174.395,178.414 175.053 C 178.534 175.522,178.761 176.674,178.919 177.612 C 179.076 178.550,179.662 181.237,180.220 183.582 C 182.067 191.339,182.019 191.407,176.796 188.351 C 167.944 183.172,157.906 177.518,138.593 166.833 C 132.846 163.654,127.665 160.780,127.079 160.446 C 126.493 160.112,124.677 159.110,123.044 158.219 C 119.421 156.243,119.320 155.999,121.516 154.546 C 123.497 153.235,123.548 152.690,121.596 153.700 C 119.417 154.827,118.966 154.031,121.061 152.756 C 121.739 152.344,124.761 149.682,127.778 146.840 C 130.794 143.998,134.243 140.835,135.441 139.813 C 136.639 138.790,139.518 136.194,141.838 134.044 C 148.787 127.603,154.142 122.814,154.396 122.814 C 154.527 122.814,155.774 123.505,157.168 124.348 M176.333 124.520 C 175.908 124.989,175.207 125.373,174.774 125.373 C 174.341 125.373,173.987 125.578,173.987 125.828 C 173.987 126.101,174.372 126.169,174.947 125.997 C 176.296 125.594,177.825 124.578,177.825 124.084 C 177.825 123.410,177.162 123.604,176.333 124.520 M188.486 124.531 C 188.486 124.771,189.062 125.083,189.765 125.224 C 190.469 125.365,191.045 125.723,191.045 126.020 C 191.045 126.518,193.077 127.321,193.434 126.964 C 193.520 126.878,192.724 126.197,191.666 125.451 C 189.725 124.083,188.486 123.725,188.486 124.531 M170.043 127.391 C 168.640 127.967,167.881 128.785,168.749 128.785 C 169.495 128.785,172.708 127.353,172.708 127.021 C 172.708 126.512,171.921 126.621,170.043 127.391 M248.507 128.176 C 247.297 128.832,247.034 129.402,247.741 129.838 C 247.964 129.976,248.779 129.513,249.553 128.810 C 251.074 127.426,250.515 127.087,248.507 128.176 M268.001 130.384 C 267.841 131.732,267.492 133.056,267.224 133.326 C 266.634 133.920,260.803 136.034,259.753 136.034 C 258.678 136.034,254.459 137.331,254.712 137.584 C 254.829 137.700,255.731 137.579,256.716 137.313 C 259.839 136.473,259.029 137.168,255.353 138.484 C 252.089 139.652,248.614 140.475,248.614 140.079 C 248.614 139.750,254.556 136.079,258.683 133.858 C 261.002 132.610,264.051 130.772,265.458 129.774 C 266.866 128.777,268.079 127.954,268.154 127.946 C 268.230 127.938,268.161 129.035,268.001 130.384 M197.618 129.578 C 198.086 130.335,200.398 131.412,201.201 131.248 C 201.788 131.127,201.725 130.973,200.853 130.398 C 199.448 129.472,197.200 128.903,197.618 129.578 M160.163 132.671 C 159.533 133.167,159.122 133.678,159.250 133.806 C 159.543 134.098,162.473 132.547,162.473 132.099 C 162.473 131.481,161.311 131.768,160.163 132.671 M228.020 135.573 C 231.411 136.580,231.370 136.475,229.612 139.642 C 229.096 140.571,228.461 141.401,228.201 141.488 C 227.648 141.672,222.688 136.633,220.864 134.034 L 219.610 132.247 222.278 133.454 C 223.746 134.118,226.330 135.071,228.020 135.573 M209.888 133.076 C 209.991 133.384,210.326 133.719,210.634 133.822 C 210.954 133.929,211.114 133.769,211.007 133.449 C 210.905 133.141,210.569 132.805,210.261 132.703 C 209.941 132.596,209.781 132.756,209.888 133.076 M219.571 134.397 C 220.417 135.373,222.596 137.794,224.414 139.778 C 228.101 143.801,228.745 145.272,226.119 143.674 C 223.279 141.944,221.293 141.038,220.997 141.334 C 220.629 141.703,221.646 142.383,223.028 142.693 C 223.614 142.825,224.745 143.480,225.541 144.150 L 226.988 145.367 226.008 148.057 C 225.469 149.536,224.585 151.229,224.044 151.818 C 222.691 153.294,221.838 155.924,221.299 160.279 C 221.049 162.307,220.407 165.691,219.873 167.799 L 218.903 171.632 209.345 176.984 C 204.088 179.928,197.388 183.653,194.456 185.263 C 191.525 186.872,187.926 188.848,186.461 189.654 C 183.353 191.361,183.223 191.125,185.424 187.770 C 186.319 186.405,189.036 181.546,191.462 176.972 C 193.887 172.399,196.288 167.985,196.796 167.164 C 197.305 166.343,198.648 163.945,199.781 161.834 C 200.914 159.723,202.843 156.365,204.068 154.371 C 205.293 152.377,206.919 149.499,207.681 147.974 C 210.017 143.298,212.878 138.533,213.491 138.298 C 213.811 138.176,214.072 137.772,214.072 137.402 C 214.072 137.033,214.468 135.914,214.951 134.916 C 215.729 133.308,216.280 132.850,217.652 132.672 C 217.861 132.645,218.725 133.421,219.571 134.397 M247.628 133.324 C 247.024 133.928,247.366 134.755,248.219 134.755 C 248.815 134.755,249.058 134.523,248.965 134.044 C 248.813 133.259,248.085 132.867,247.628 133.324 M281.200 133.535 C 280.924 133.981,281.476 134.236,283.833 134.752 C 284.985 135.004,286.503 135.478,287.207 135.804 C 289.245 136.749,290.988 136.804,291.167 135.929 C 291.411 134.739,281.872 132.448,281.200 133.535 M155.001 135.624 C 153.364 136.543,151.834 137.369,151.599 137.459 C 151.365 137.549,151.330 137.791,151.523 137.996 C 151.887 138.384,157.075 135.820,157.875 134.856 C 158.789 133.756,157.912 133.990,155.001 135.624 M243.284 135.830 C 242.111 136.383,241.404 136.846,241.712 136.861 C 242.021 136.875,242.645 136.688,243.098 136.446 C 243.667 136.141,243.923 136.141,243.923 136.446 C 243.923 137.153,245.009 136.955,245.776 136.107 C 247.267 134.460,246.397 134.364,243.284 135.830 M267.216 135.501 C 267.095 135.912,266.380 139.066,265.626 142.511 L 264.256 148.775 261.233 147.152 C 259.570 146.259,256.519 144.624,254.454 143.518 C 250.061 141.166,250.034 140.953,253.960 139.648 C 255.593 139.105,259.136 137.800,261.834 136.748 C 267.553 134.518,267.501 134.530,267.216 135.501 M235.243 137.996 C 235.571 138.424,236.093 138.541,236.842 138.353 C 238.419 137.957,238.237 138.702,236.348 140.372 C 235.465 141.152,234.494 142.271,234.189 142.857 C 231.851 147.364,227.915 146.970,229.499 142.388 C 231.121 137.695,233.573 135.820,235.243 137.996 M148.352 138.943 C 147.792 139.370,146.039 140.362,144.456 141.148 C 142.873 141.934,141.578 142.842,141.578 143.168 C 141.578 143.591,142.183 143.419,143.710 142.562 C 144.882 141.903,145.842 141.209,145.842 141.020 C 145.842 140.830,146.043 140.798,146.287 140.950 C 146.532 141.101,147.032 140.976,147.399 140.672 C 147.765 140.367,148.462 139.919,148.946 139.675 C 149.882 139.204,150.451 138.166,149.773 138.166 C 149.551 138.166,148.911 138.516,148.352 138.943 M214.925 138.786 C 214.925 139.021,218.721 140.725,219.244 140.725 C 220.283 140.725,219.377 139.987,217.533 139.333 C 215.349 138.557,214.925 138.468,214.925 138.786 M237.820 141.068 C 237.189 141.726,236.681 142.637,236.691 143.094 C 236.704 143.737,236.860 143.636,237.384 142.644 C 237.756 141.940,238.353 141.029,238.712 140.618 C 239.766 139.412,239.069 139.764,237.820 141.068 M138.913 143.954 C 137.689 144.618,137.346 145.416,138.285 145.416 C 139.005 145.416,140.725 144.196,140.725 143.686 C 140.725 143.139,140.298 143.203,138.913 143.954 M246.908 144.921 C 246.908 145.118,247.381 145.494,247.959 145.758 C 249.231 146.337,249.863 145.658,248.654 145.011 C 247.646 144.471,246.908 144.433,246.908 144.921 M133.902 146.741 C 131.300 148.162,130.639 148.692,131.009 149.061 C 131.437 149.490,136.461 146.715,136.461 146.049 C 136.461 145.276,136.709 145.209,133.902 146.741 M230.399 147.800 C 230.337 148.615,229.473 149.829,227.640 151.679 C 224.838 154.506,223.693 155.179,225.056 153.198 C 225.500 152.553,226.304 150.778,226.842 149.254 C 228.139 145.584,228.444 145.223,229.592 146.003 C 230.197 146.414,230.461 147.001,230.399 147.800 M128.085 149.697 C 127.842 149.941,126.998 150.486,126.210 150.908 C 123.854 152.172,124.272 152.741,126.725 151.607 C 127.975 151.030,129.060 150.264,129.136 149.905 C 129.294 149.157,128.736 149.046,128.085 149.697 M235.821 149.640 C 235.821 150.185,238.359 151.548,238.714 151.194 C 238.854 151.054,238.692 150.676,238.354 150.355 C 237.518 149.561,235.821 149.082,235.821 149.640 M247.335 150.054 C 247.335 150.260,247.606 150.653,247.936 150.928 C 248.605 151.483,249.288 150.852,248.827 150.107 C 248.503 149.581,247.335 149.540,247.335 150.054 M244.776 154.458 C 244.776 154.822,245.084 155.375,245.460 155.687 C 245.836 155.999,246.311 156.695,246.516 157.232 C 246.886 158.206,247.761 158.593,247.761 157.783 C 247.761 157.548,248.149 157.356,248.622 157.356 C 249.345 157.356,249.438 157.168,249.202 156.183 C 248.833 154.646,248.839 154.650,247.821 155.286 C 247.060 155.761,246.801 155.699,245.860 154.814 C 245.034 154.038,244.776 153.953,244.776 154.458 M223.454 158.021 C 223.454 158.924,223.282 159.432,223.028 159.275 C 222.321 158.838,222.560 156.503,223.312 156.503 C 223.390 156.503,223.454 157.186,223.454 158.021 M226.398 159.275 L 226.370 160.554 225.754 159.145 C 225.415 158.370,225.263 157.534,225.416 157.287 C 225.841 156.599,226.431 157.793,226.398 159.275 M235.698 161.057 C 233.918 164.851,233.873 165.032,234.726 165.032 C 235.232 165.032,235.985 163.700,235.932 162.900 C 235.924 162.783,236.287 161.749,236.738 160.604 C 238.103 157.142,237.389 157.453,235.698 161.057 M175.442 159.062 C 175.549 159.648,175.964 162.287,176.363 164.925 C 176.763 167.564,177.278 169.723,177.508 169.723 C 177.740 169.723,177.812 169.202,177.672 168.550 C 177.533 167.905,177.113 165.678,176.739 163.601 C 176.364 161.523,175.876 159.413,175.653 158.910 C 175.276 158.062,175.261 158.073,175.442 159.062 M241.365 159.915 C 241.365 160.384,241.557 160.768,241.791 160.768 C 242.026 160.768,242.217 160.384,242.217 159.915 C 242.217 159.446,242.026 159.062,241.791 159.062 C 241.557 159.062,241.365 159.446,241.365 159.915 M237.612 161.706 C 237.330 161.987,237.100 162.371,237.100 162.559 C 237.100 163.067,238.285 162.971,238.616 162.436 C 239.055 161.726,238.208 161.110,237.612 161.706 M232.084 163.396 C 231.794 163.686,231.557 164.311,231.557 164.786 C 231.557 165.611,231.586 165.606,232.228 164.689 C 233.004 163.581,232.893 162.586,232.084 163.396 M222.388 165.458 C 222.228 165.963,222.001 166.280,221.884 166.162 C 221.766 166.045,221.802 165.536,221.962 165.032 C 222.122 164.528,222.349 164.211,222.466 164.328 C 222.583 164.445,222.548 164.954,222.388 165.458 " stroke="none" fill="#000000" fill-rule="evenodd"></path></g></svg>