<svg id="svg" version="1.1" xmlns="http://www.w3.org/2000/svg" xmlns:xlink="http://www.w3.org/1999/xlink" width="400" height="218.3368869936034" viewBox="0, 0, 400,218.3368869936034"><g id="svgg"><path id="path0" d="M236.171 15.758 C 227.949 18.814,224.724 23.652,226.657 30.025 C 228.174 35.024,227.457 36.536,222.522 38.748 L 219.671 40.025 219.403 38.805 C 218.744 35.803,213.854 32.985,210.448 33.642 C 207.030 34.302,205.802 35.238,205.349 37.527 L 205.054 39.019 206.958 36.994 C 209.046 34.773,209.213 34.707,210.423 35.621 C 210.878 35.966,211.970 36.247,212.851 36.247 C 214.783 36.247,215.781 37.409,215.772 39.647 C 215.760 42.429,215.689 42.453,209.090 41.870 C 198.059 40.897,177.511 41.468,173.090 42.871 C 171.124 43.495,173.288 39.775,176.481 37.042 C 179.892 34.122,181.899 24.373,179.569 22.042 C 178.825 21.298,178.718 21.803,178.646 26.409 C 178.571 31.165,177.665 33.347,174.840 35.574 C 173.347 36.751,170.191 40.028,168.578 42.076 C 167.477 43.473,166.871 43.849,165.380 44.060 C 162.258 44.502,155.557 46.806,153.106 48.279 C 149.300 50.567,148.827 51.617,148.827 57.779 C 148.827 62.525,148.749 63.052,147.930 63.793 C 146.706 64.900,144.929 68.008,144.581 69.651 C 144.304 70.956,144.275 70.923,143.740 68.657 C 143.435 67.367,142.641 65.445,141.976 64.387 C 137.656 57.515,137.967 50.613,142.762 46.912 C 145.852 44.526,147.855 41.476,149.345 36.887 C 149.802 35.480,150.448 33.903,150.781 33.384 C 151.461 32.323,151.581 31.130,151.007 31.130 C 150.634 31.130,148.712 35.458,148.167 37.527 C 147.457 40.221,144.869 43.749,141.969 45.975 L 139.019 48.240 138.989 45.762 C 138.951 42.620,138.248 40.649,138.181 43.497 C 138.156 44.552,137.860 46.567,137.523 47.974 C 136.410 52.625,137.863 61.422,140.235 64.381 C 141.847 66.394,142.470 67.625,142.222 68.306 C 142.108 68.616,143.254 71.361,144.769 74.405 C 147.313 79.519,147.474 80.005,146.883 80.801 C 145.433 82.755,144.581 85.156,144.572 87.313 C 144.567 88.545,144.400 89.552,144.200 89.552 C 143.543 89.552,140.299 86.999,140.299 86.481 C 140.299 86.202,139.830 85.291,139.258 84.458 C 138.169 82.871,137.991 82.022,138.100 78.942 C 138.155 77.399,138.429 76.825,139.675 75.650 C 141.278 74.139,142.927 70.979,141.942 71.307 C 141.647 71.405,141.039 72.145,140.591 72.950 C 139.104 75.620,138.108 75.696,135.394 73.348 C 134.256 72.362,132.984 71.642,132.383 71.642 C 130.993 71.642,131.057 72.330,132.481 72.688 C 134.967 73.312,136.850 76.214,136.870 79.451 C 136.882 81.574,137.159 82.951,137.899 84.568 C 138.456 85.785,139.014 87.086,139.139 87.459 C 139.265 87.833,140.047 88.461,140.879 88.856 C 143.842 90.262,147.548 94.927,147.548 97.250 C 147.548 97.779,145.183 100.725,142.751 103.226 C 141.871 104.130,141.151 105.080,141.151 105.336 C 141.151 105.593,140.672 106.508,140.085 107.371 C 138.154 110.214,140.393 116.904,144.237 119.774 C 146.979 121.821,147.133 121.335,141.993 126.876 C 139.481 129.584,138.060 133.162,138.125 136.609 L 138.172 139.103 136.541 137.036 C 131.850 131.091,131.334 129.542,132.841 125.934 C 133.632 124.042,134.042 124.250,133.468 126.251 C 132.885 128.285,132.976 130.474,133.707 131.983 C 134.323 133.254,134.325 133.249,134.084 131.210 C 133.849 129.218,134.496 125.065,135.879 119.703 C 136.593 116.931,136.332 111.431,135.353 108.635 C 134.848 107.193,135.164 106.400,135.821 107.463 C 136.150 107.995,137.313 108.026,137.313 107.502 C 137.313 107.289,136.450 106.569,135.395 105.903 C 134.340 105.236,133.453 104.547,133.423 104.371 C 133.393 104.195,133.345 103.811,133.316 103.518 C 133.286 103.225,132.495 102.788,131.557 102.547 C 129.140 101.926,126.792 100.588,124.185 98.346 C 122.866 97.212,121.309 96.292,120.434 96.127 C 118.569 95.777,118.035 96.201,119.594 96.793 C 120.644 97.192,124.924 100.263,126.730 101.913 C 127.125 102.274,128.324 102.828,129.395 103.144 C 135.223 104.864,136.801 113.225,133.069 122.605 C 130.538 128.963,131.161 134.328,134.725 136.866 C 135.383 137.334,136.170 138.346,136.474 139.115 C 136.779 139.883,137.264 140.800,137.552 141.151 C 137.841 141.503,138.370 142.655,138.727 143.710 C 139.084 144.765,139.492 145.922,139.634 146.281 C 139.808 146.723,139.219 147.444,137.800 148.527 L 135.708 150.122 132.566 148.642 C 130.838 147.829,128.136 146.434,126.561 145.543 L 123.698 143.923 122.403 140.383 C 121.691 138.436,121.109 136.288,121.109 135.611 C 121.109 134.139,120.445 133.561,120.131 134.760 C 119.883 135.710,118.574 135.878,117.191 135.139 C 115.673 134.326,116.745 135.534,118.558 136.679 C 119.950 137.558,120.244 138.009,120.489 139.645 C 121.137 143.964,124.778 148.338,129.159 150.061 C 133.219 151.658,133.608 152.025,132.832 153.525 C 128.581 161.746,133.187 172.905,141.791 175.232 C 144.311 175.913,144.554 176.183,144.814 178.590 L 145.051 180.789 142.994 179.875 C 141.212 179.082,140.115 178.956,134.755 178.932 C 127.542 178.898,126.387 179.199,123.430 181.881 C 120.337 184.686,113.226 186.188,109.062 184.914 C 107.204 184.346,107.650 185.310,109.701 186.298 C 113.688 188.217,118.187 187.723,125.052 184.612 C 133.117 180.957,138.863 181.467,145.629 186.438 C 151.088 190.449,153.445 191.841,156.246 192.706 C 159.270 193.640,162.440 193.867,163.674 193.237 C 165.897 192.103,167.200 192.280,168.589 193.906 C 173.695 199.883,176.011 201.593,180.015 202.344 C 183.455 202.990,194.707 197.281,195.975 194.246 L 196.545 192.883 201.111 192.603 C 208.795 192.133,209.999 192.209,210.915 193.223 C 212.910 195.431,215.670 196.295,219.819 196.011 C 224.196 195.711,224.302 195.750,225.498 198.110 C 227.056 201.183,231.598 203.127,235.821 202.528 C 240.313 201.890,241.978 202.035,243.033 203.158 C 244.044 204.234,245.629 204.885,245.629 204.224 C 245.629 203.815,245.000 203.206,242.738 201.429 C 241.460 200.424,240.966 200.324,236.981 200.263 C 229.612 200.149,226.010 196.913,229.381 193.435 C 230.396 192.388,230.830 191.422,231.180 189.433 L 231.642 186.812 234.473 185.255 C 239.664 182.402,241.357 180.465,241.362 177.372 C 241.365 174.931,245.851 170.827,247.768 171.510 C 248.437 171.748,252.557 177.146,252.966 178.319 C 253.213 179.027,253.863 179.642,254.657 179.919 C 255.893 180.350,255.941 180.458,255.799 182.509 C 255.652 184.620,255.953 185.289,256.458 183.974 C 257.361 181.619,254.052 174.391,250.453 170.857 C 249.673 170.091,249.684 170.012,250.916 167.446 C 252.887 163.342,252.510 158.151,249.725 151.065 L 248.677 148.398 250.344 146.289 C 255.104 140.267,261.810 137.012,267.483 137.971 C 269.481 138.309,269.678 137.422,267.845 136.339 C 266.200 135.368,262.852 135.402,259.795 136.420 C 253.771 138.427,252.951 138.315,252.812 135.471 C 252.691 132.998,252.900 132.214,253.960 131.153 C 255.833 129.280,254.771 126.010,251.122 122.419 C 249.436 120.759,249.041 120.093,249.041 118.910 C 249.041 118.108,248.657 116.698,248.188 115.778 C 247.108 113.661,247.092 113.760,248.653 112.838 C 251.295 111.277,253.020 109.345,254.481 106.311 C 256.566 101.978,256.709 101.905,259.412 103.767 C 264.378 107.187,265.223 109.808,263.349 115.991 C 262.959 117.281,262.588 118.688,262.526 119.117 C 262.464 119.546,262.224 120.026,261.993 120.183 C 261.024 120.842,258.422 124.709,258.422 125.490 C 258.422 126.062,259.128 125.387,260.602 123.403 C 262.720 120.551,263.227 120.683,262.031 123.774 C 261.872 124.184,261.924 124.520,262.146 124.520 C 262.690 124.520,263.539 122.586,263.539 121.350 C 263.539 120.801,264.019 118.696,264.606 116.672 C 266.693 109.470,264.788 104.229,258.955 101.121 C 257.288 100.233,258.872 97.998,263.626 94.529 C 271.144 89.044,276.431 92.486,273.341 100.853 C 270.794 107.750,273.215 109.296,279.531 104.805 C 282.678 102.567,281.564 101.907,278.219 104.028 C 274.448 106.420,273.555 105.437,275.300 100.815 C 277.022 96.252,276.446 91.105,274.300 91.892 C 274.003 92.000,273.139 91.711,272.381 91.249 C 271.183 90.519,271.125 90.408,271.936 90.407 C 272.450 90.406,272.989 90.597,273.134 90.832 C 273.279 91.066,273.585 91.258,273.814 91.258 C 274.649 91.258,273.310 89.559,272.269 89.298 C 270.528 88.861,271.295 87.846,273.368 87.846 C 273.809 87.846,274.993 87.575,275.998 87.243 C 277.003 86.911,278.897 86.425,280.207 86.162 C 285.206 85.157,290.219 81.044,288.483 79.371 C 287.817 78.730,287.726 78.742,287.272 79.531 C 287.002 80.000,285.991 81.171,285.026 82.133 C 283.232 83.923,282.903 84.049,275.267 85.885 C 272.376 86.580,270.030 87.595,266.311 89.759 C 262.309 92.088,261.942 90.676,265.328 85.970 C 270.063 79.389,260.726 74.004,253.336 79.053 C 249.024 81.999,248.409 83.948,250.533 87.937 C 251.672 90.077,251.940 92.879,251.087 93.731 C 250.174 94.645,249.893 94.281,249.893 92.181 C 249.893 90.541,249.451 89.259,247.731 85.910 C 244.049 78.744,244.298 77.496,250.107 73.995 L 252.665 72.453 256.930 72.628 C 259.275 72.724,262.874 73.042,264.927 73.334 C 269.433 73.976,270.160 73.822,272.417 71.756 C 274.230 70.097,275.052 67.781,274.257 66.576 C 273.684 65.708,272.921 66.398,272.921 67.785 C 272.921 71.248,267.946 72.611,263.531 70.358 C 262.027 69.591,261.008 69.432,257.719 69.452 C 253.092 69.481,253.237 69.688,255.478 66.249 C 257.805 62.676,258.906 55.864,257.156 55.864 C 256.914 55.864,256.714 56.391,256.711 57.036 C 256.702 59.204,255.492 62.796,254.249 64.346 C 253.570 65.193,252.679 66.595,252.269 67.463 C 251.381 69.339,249.631 70.754,246.570 72.071 C 244.608 72.915,244.209 73.303,243.421 75.134 C 242.344 77.639,241.826 77.343,241.683 74.141 C 241.581 71.850,241.640 71.714,243.710 69.441 C 249.888 62.658,251.822 54.596,249.415 45.664 C 247.837 39.809,248.007 37.798,250.525 32.496 C 253.342 26.564,261.343 17.622,264.746 16.602 C 266.270 16.146,267.197 15.351,266.205 15.352 C 263.263 15.354,256.721 19.888,252.715 24.701 C 245.444 33.438,244.205 37.896,246.482 47.122 C 247.434 50.974,247.573 54.449,246.840 56.057 C 246.184 57.497,245.733 57.437,245.953 55.940 C 246.267 53.799,245.313 51.483,243.241 49.360 C 241.031 47.097,240.481 46.942,236.554 47.473 C 234.669 47.728,234.486 47.670,234.121 46.712 C 233.831 45.948,233.301 45.607,232.109 45.416 C 223.247 43.999,220.912 42.756,224.524 41.375 C 230.383 39.136,232.001 35.478,229.841 29.353 C 229.152 27.399,228.584 25.310,228.580 24.711 C 228.559 22.008,234.034 17.323,238.912 15.869 C 240.260 15.467,241.364 14.995,241.364 14.819 C 241.365 14.200,239.412 14.553,236.171 15.758 M227.921 26.744 C 228.084 27.616,228.471 28.818,228.780 29.415 C 230.709 33.145,228.825 40.076,226.161 39.053 C 225.549 38.819,225.642 38.576,226.795 37.386 C 228.372 35.759,228.666 32.288,227.505 28.998 C 226.791 26.974,226.668 25.160,227.245 25.160 C 227.453 25.160,227.757 25.873,227.921 26.744 M249.674 31.450 C 249.281 32.394,247.236 38.395,247.037 39.187 C 246.955 39.514,246.780 39.673,246.648 39.540 C 245.924 38.816,248.632 30.704,249.598 30.704 C 249.810 30.704,249.845 31.039,249.674 31.450 M215.187 35.425 C 218.026 37.179,219.042 39.742,217.673 41.696 C 216.600 43.228,216.271 42.804,216.504 40.192 C 216.770 37.203,215.690 35.394,213.640 35.394 C 212.968 35.394,212.298 35.203,212.154 34.968 C 211.685 34.210,213.717 34.516,215.187 35.425 M173.257 38.913 C 172.773 39.440,171.968 40.688,171.468 41.684 C 170.968 42.681,170.261 43.497,169.898 43.497 C 169.373 43.497,169.441 43.227,170.227 42.179 C 170.771 41.455,171.415 40.516,171.658 40.093 C 172.393 38.817,173.213 37.953,173.687 37.953 C 173.934 37.953,173.740 38.385,173.257 38.913 M224.733 40.085 C 224.382 40.313,223.759 40.502,223.349 40.505 C 222.939 40.509,221.843 41.199,220.913 42.039 C 218.536 44.186,217.044 43.863,219.295 41.688 C 220.892 40.146,221.687 39.820,224.094 39.723 C 225.065 39.684,225.219 39.771,224.733 40.085 M213.006 44.985 C 218.518 45.657,229.363 47.558,229.721 47.915 C 229.805 48.000,229.672 48.603,229.423 49.256 C 228.814 50.860,229.540 52.968,231.179 54.347 L 232.450 55.416 231.504 56.696 C 230.480 58.081,230.750 58.072,225.951 56.885 C 222.270 55.975,221.194 56.112,219.027 57.766 L 217.093 59.243 216.238 58.043 C 215.737 57.339,214.460 56.492,213.152 55.995 C 210.190 54.869,210.182 54.596,213.037 51.603 C 214.382 50.194,215.284 49.041,215.041 49.041 C 214.598 49.041,211.094 52.487,208.320 55.650 C 206.812 57.371,205.123 61.712,205.111 63.904 C 205.107 64.524,204.917 65.320,204.689 65.672 C 203.931 66.839,204.771 59.579,205.602 57.783 C 206.574 55.682,209.855 51.626,211.177 50.892 C 212.071 50.396,212.082 50.349,211.312 50.335 C 209.292 50.299,203.838 57.563,203.838 60.291 C 203.838 63.360,202.566 63.791,201.065 61.231 C 199.742 58.974,196.479 55.865,195.425 55.859 C 195.010 55.856,193.902 55.731,192.964 55.581 L 191.258 55.309 192.100 56.259 C 192.564 56.782,194.066 57.902,195.438 58.749 C 197.107 59.780,198.207 60.827,198.762 61.914 L 199.591 63.539 191.160 63.526 C 173.042 63.498,155.397 59.631,151.397 54.811 C 148.327 51.112,163.735 45.474,179.960 44.359 C 188.090 43.800,206.078 44.141,213.006 44.985 M248.863 48.134 C 250.442 54.736,246.932 65.567,241.993 69.334 C 241.178 69.955,240.512 70.703,240.512 70.994 C 240.512 71.614,237.826 74.102,232.793 78.144 C 221.227 87.435,219.848 88.884,216.664 95.096 C 213.667 100.945,211.183 109.897,211.880 112.340 C 212.644 115.020,212.596 115.085,209.486 115.597 C 209.311 115.626,208.833 115.829,208.422 116.049 C 207.380 116.606,207.414 115.373,208.461 114.630 C 209.015 114.236,209.327 113.284,209.523 111.378 C 209.855 108.157,211.191 103.554,212.858 99.883 C 213.526 98.411,214.072 97.111,214.072 96.993 C 214.072 96.876,214.918 95.010,215.950 92.846 C 218.089 88.366,219.081 87.298,227.505 80.411 C 239.082 70.947,240.512 69.740,240.512 69.431 C 240.512 69.256,241.062 68.482,241.734 67.712 C 242.406 66.942,243.351 65.531,243.835 64.577 C 244.318 63.623,245.016 62.592,245.385 62.286 C 245.754 61.980,246.055 61.276,246.055 60.722 C 246.055 60.167,246.661 58.559,247.401 57.148 L 248.746 54.582 248.242 50.425 C 247.964 48.139,247.634 45.789,247.507 45.203 C 247.023 42.966,248.274 45.671,248.863 48.134 M233.063 48.806 C 234.787 49.526,234.828 49.723,233.567 51.248 C 231.861 53.311,229.027 51.376,230.292 49.012 C 230.821 48.024,231.137 48.001,233.063 48.806 M241.151 49.467 C 241.491 50.017,239.231 50.017,238.380 49.467 C 237.903 49.159,238.141 49.052,239.314 49.047 C 240.180 49.043,241.006 49.232,241.151 49.467 M241.360 51.170 C 242.227 51.634,244.780 55.826,244.770 56.768 C 244.741 59.337,242.508 58.166,241.172 54.881 C 240.771 53.897,240.180 52.564,239.858 51.919 C 239.204 50.609,239.778 50.323,241.360 51.170 M237.835 51.706 C 238.997 53.208,238.829 53.831,236.676 55.983 C 234.200 58.459,233.667 58.413,234.983 55.835 C 235.622 54.582,235.838 53.576,235.679 52.595 C 235.432 51.071,236.881 50.473,237.835 51.706 M212.154 58.757 C 212.857 58.994,213.817 59.339,214.286 59.524 C 215.716 60.089,214.201 58.513,212.397 57.559 C 211.424 57.045,211.151 56.747,211.642 56.735 C 213.685 56.685,216.475 59.602,215.406 60.671 C 215.178 60.899,215.084 61.324,215.196 61.617 C 215.491 62.386,214.441 62.670,210.177 62.972 C 206.957 63.201,206.397 63.144,206.397 62.591 C 206.397 61.655,207.594 58.397,208.378 57.201 L 209.048 56.179 209.961 57.253 C 210.463 57.843,211.450 58.520,212.154 58.757 M197.655 58.492 C 198.468 59.322,198.420 59.318,196.588 58.413 C 194.172 57.218,193.902 56.943,195.522 57.323 C 196.226 57.488,197.186 58.014,197.655 58.492 M228.081 58.890 C 230.139 59.608,229.742 59.902,225.656 60.685 C 220.181 61.735,219.497 61.483,222.495 59.520 C 224.250 58.370,226.018 58.171,228.081 58.890 M152.732 60.021 C 153.448 61.802,153.317 81.023,152.588 81.023 C 152.063 81.023,152.021 79.188,152.391 72.319 C 152.637 67.750,152.609 65.034,152.305 64.004 C 151.212 60.293,151.554 57.095,152.732 60.021 M236.933 59.950 C 236.790 60.321,236.651 61.616,236.624 62.828 L 236.574 65.032 236.188 62.700 C 235.777 60.220,235.920 59.275,236.706 59.275 C 236.973 59.275,237.075 59.578,236.933 59.950 M243.070 61.387 C 243.070 63.509,242.390 65.672,241.723 65.672 C 241.210 65.672,241.279 61.084,241.806 60.100 C 242.566 58.680,243.070 59.193,243.070 61.387 M155.753 60.904 C 156.243 62.783,155.540 74.492,154.765 77.367 L 153.951 80.384 154.181 75.480 C 154.307 72.783,154.415 68.140,154.421 65.164 C 154.431 60.035,155.029 58.124,155.753 60.904 M235.070 60.661 C 235.177 60.954,235.306 62.537,235.358 64.179 C 235.410 65.821,235.632 67.346,235.850 67.569 C 236.368 68.097,236.366 71.518,235.848 71.838 C 235.628 71.974,235.265 71.266,235.040 70.264 L 234.633 68.443 234.587 70.469 C 234.554 71.965,234.374 72.495,233.902 72.495 C 233.131 72.495,233.055 70.189,233.695 66.241 C 233.985 64.459,233.981 63.241,233.683 62.458 C 233.370 61.635,233.384 61.135,233.732 60.716 C 234.338 59.985,234.818 59.966,235.070 60.661 M161.093 76.282 C 161.157 84.344,161.371 90.405,161.592 90.405 C 161.813 90.405,161.997 84.551,162.024 76.676 C 162.050 69.125,162.160 62.858,162.268 62.750 C 162.376 62.642,163.954 62.888,165.774 63.298 C 172.210 64.746,177.734 65.293,188.426 65.540 L 199.240 65.790 199.888 67.330 C 202.188 72.797,200.160 77.612,195.557 77.612 C 193.570 77.612,189.770 80.849,190.455 81.957 C 190.654 82.279,191.072 82.074,191.699 81.345 C 193.018 79.812,195.192 78.769,196.425 79.079 C 198.726 79.656,201.466 77.229,201.932 74.200 L 202.227 72.281 203.240 74.562 C 203.797 75.816,204.894 77.735,205.677 78.826 C 211.038 86.297,212.122 92.595,209.027 98.294 C 206.243 103.422,204.784 103.259,198.081 97.071 C 194.473 93.739,194.013 93.155,194.225 92.167 C 194.379 91.445,194.164 90.554,193.620 89.669 L 192.776 88.294 189.729 89.754 C 186.577 91.265,185.906 91.684,186.642 91.684 C 187.105 91.684,190.357 90.705,191.578 90.198 C 192.967 89.620,192.392 91.193,190.567 92.964 C 188.509 94.962,186.354 95.360,186.354 93.742 L 186.354 92.815 185.394 93.693 C 184.867 94.176,184.051 94.696,183.582 94.848 C 182.620 95.160,180.525 97.856,179.151 100.549 C 177.992 102.820,177.967 102.816,175.524 99.986 C 173.969 98.185,172.603 97.182,169.755 95.752 L 166.023 93.878 165.958 82.906 C 165.922 76.872,165.795 71.836,165.676 71.717 C 165.556 71.597,165.458 76.425,165.458 82.445 C 165.458 88.465,165.353 93.390,165.225 93.390 C 164.850 93.390,158.484 89.892,157.783 89.301 C 157.249 88.851,157.190 87.921,157.425 83.720 C 157.716 78.498,157.773 69.175,157.499 71.429 C 156.763 77.495,155.848 76.553,156.481 70.380 C 156.728 67.975,156.930 64.784,156.930 63.288 L 156.930 60.569 158.955 61.364 L 160.981 62.160 161.093 76.282 M200.844 63.096 C 201.318 64.025,201.692 65.320,201.676 65.974 C 201.647 67.097,201.603 67.068,200.891 65.458 C 199.321 61.909,199.284 60.038,200.844 63.096 M230.858 62.793 C 230.677 63.321,230.553 66.243,230.583 69.287 C 230.626 73.693,230.496 75.060,229.947 75.990 C 228.294 78.788,228.098 77.934,227.604 65.783 C 227.483 62.818,227.521 62.680,228.558 62.298 C 230.536 61.570,231.227 61.719,230.858 62.793 M232.903 68.126 C 232.830 71.102,232.677 73.686,232.564 73.868 C 231.591 75.444,231.239 71.014,231.836 64.691 C 232.317 59.601,233.054 61.977,232.903 68.126 M226.965 70.789 L 227.278 78.252 225.341 80.111 C 223.072 82.289,222.790 82.230,223.663 79.757 C 224.428 77.589,224.580 66.125,223.861 64.782 C 223.231 63.604,223.741 63.044,225.307 63.196 L 226.652 63.326 226.965 70.789 M222.833 64.855 C 223.389 65.930,223.488 67.366,223.377 72.724 C 223.229 79.848,222.412 82.800,222.355 76.418 C 222.328 73.433,222.099 72.160,221.182 69.903 C 219.801 66.503,219.774 65.800,220.970 64.526 C 222.122 63.300,222.020 63.282,222.833 64.855 M255.564 64.378 C 255.353 65.185,254.158 66.497,254.158 65.922 C 254.158 65.611,255.463 63.539,255.659 63.539 C 255.728 63.539,255.685 63.917,255.564 64.378 M218.058 65.885 C 218.202 66.941,218.899 69.291,219.606 71.109 C 221.354 75.604,221.510 82.288,219.906 84.018 C 218.153 85.909,215.728 89.697,215.481 90.930 C 215.134 92.669,214.505 92.821,214.464 91.177 C 214.409 88.979,214.080 87.392,213.409 86.095 C 213.070 85.440,212.793 84.682,212.793 84.411 C 212.793 83.617,210.768 79.779,208.531 76.333 C 206.191 72.728,205.057 68.718,205.790 66.637 C 206.177 65.534,215.034 63.881,215.548 64.815 C 215.614 64.935,215.882 65.991,216.144 67.164 C 217.565 73.515,218.046 76.501,218.223 80.064 C 218.340 82.424,218.600 84.009,218.869 84.009 C 219.713 84.009,218.932 73.954,217.715 69.154 C 217.105 66.747,216.719 64.595,216.857 64.372 C 217.387 63.514,217.805 64.039,218.058 65.885 M169.753 70.753 C 169.736 73.900,169.801 76.395,169.897 76.297 C 170.245 75.941,170.439 66.713,170.116 65.885 C 169.928 65.405,169.770 67.532,169.753 70.753 M147.422 69.484 C 147.011 71.937,146.793 72.485,146.411 72.021 C 145.446 70.848,145.546 69.361,146.720 67.436 C 147.912 65.480,148.033 65.833,147.422 69.484 M203.945 67.574 C 203.587 69.451,205.430 74.361,207.890 78.078 C 212.175 84.554,214.211 91.992,212.664 95.522 C 212.016 97.002,212.010 96.979,211.975 92.947 C 211.931 87.798,210.443 83.554,206.823 78.252 C 203.983 74.093,202.353 69.212,203.129 67.192 C 203.537 66.127,204.166 66.421,203.945 67.574 M263.113 71.345 L 264.606 72.057 262.687 71.743 C 261.631 71.570,258.705 71.429,256.183 71.429 C 251.778 71.429,251.216 71.320,251.919 70.606 C 252.524 69.992,261.522 70.586,263.113 71.345 M146.903 73.895 C 147.838 75.353,149.127 77.958,149.768 79.684 C 152.473 86.971,155.510 89.969,165.065 94.787 C 171.545 98.055,174.453 100.146,175.982 102.637 C 178.588 106.884,179.957 107.496,179.957 104.414 C 179.957 100.790,183.186 95.522,185.407 95.522 C 185.899 95.522,185.656 95.987,184.572 97.122 C 182.108 99.699,181.377 101.664,180.168 108.955 C 179.390 113.647,178.783 114.782,175.268 118.124 C 171.181 122.009,171.123 125.660,175.062 131.032 C 177.020 133.703,178.243 137.066,177.518 137.791 C 177.228 138.081,176.873 137.686,176.430 136.581 C 176.069 135.678,174.825 133.507,173.666 131.755 C 170.903 127.581,170.149 126.076,170.149 124.738 C 170.149 124.130,169.741 122.832,169.241 121.854 C 167.406 118.257,166.404 113.192,166.076 105.864 C 165.735 98.243,165.829 97.974,168.173 99.818 L 169.296 100.702 169.328 107.600 C 169.345 111.395,169.518 115.362,169.712 116.418 C 169.917 117.539,169.965 114.834,169.828 109.915 C 169.573 100.828,169.576 100.816,171.583 102.878 C 177.560 109.024,177.549 114.934,171.555 117.882 C 169.848 118.721,169.112 119.829,170.261 119.829 C 172.846 119.829,177.825 114.339,177.825 111.489 C 177.825 106.337,171.617 98.770,165.653 96.654 C 157.959 93.924,150.525 86.006,147.975 77.825 C 147.682 76.887,147.092 75.733,146.663 75.261 C 145.751 74.257,144.401 71.209,144.877 71.229 C 145.056 71.237,145.968 72.436,146.903 73.895 M248.825 73.351 C 248.444 73.968,246.055 75.144,246.055 74.715 C 246.055 74.517,246.679 74.045,247.441 73.665 C 249.136 72.822,249.155 72.818,248.825 73.351 M179.630 75.906 C 179.630 76.727,179.718 77.063,179.825 76.652 C 179.932 76.242,179.932 75.570,179.825 75.160 C 179.718 74.749,179.630 75.085,179.630 75.906 M156.777 79.380 C 156.626 80.822,156.503 83.346,156.503 84.990 L 156.503 87.979 155.597 87.166 C 154.186 85.901,154.892 76.759,156.400 76.759 C 156.943 76.759,157.006 77.195,156.777 79.380 M237.953 78.297 C 237.953 79.472,237.806 79.779,237.329 79.596 C 236.874 79.421,236.634 79.784,236.441 80.936 C 236.009 83.523,235.890 83.504,235.855 80.844 C 235.831 79.056,236.027 78.091,236.527 77.539 C 237.574 76.381,237.953 76.582,237.953 78.297 M262.496 78.479 C 263.969 79.389,265.672 81.850,265.672 83.070 C 265.672 83.975,262.562 88.539,262.359 87.931 C 262.277 87.684,262.797 86.672,263.514 85.681 C 265.582 82.827,265.096 80.580,262.104 79.160 C 258.007 77.216,251.173 80.766,251.173 84.837 C 251.173 85.916,251.005 86.514,250.746 86.354 C 250.512 86.209,250.320 85.227,250.320 84.173 C 250.320 79.751,258.423 75.962,262.496 78.479 M179.674 81.450 C 179.674 83.209,179.750 83.929,179.842 83.049 C 179.934 82.170,179.934 80.730,179.842 79.851 C 179.750 78.971,179.674 79.691,179.674 81.450 M235.201 83.902 C 235.111 87.652,235.158 88.413,235.354 86.354 L 235.637 83.369 235.997 85.608 C 236.321 87.619,237.263 88.921,237.078 87.100 C 236.879 85.147,237.145 82.303,237.527 82.303 C 238.004 82.303,238.094 84.904,237.687 86.940 C 237.540 87.673,237.156 88.273,236.834 88.273 C 236.511 88.273,236.247 88.650,236.247 89.111 C 236.247 90.014,234.790 91.036,234.106 90.613 C 233.480 90.226,233.566 79.611,234.200 78.977 C 235.213 77.964,235.330 78.545,235.201 83.902 M242.058 79.971 C 241.761 80.746,240.938 80.798,240.938 80.043 C 240.938 79.266,241.949 78.300,242.146 78.889 C 242.229 79.140,242.190 79.627,242.058 79.971 M262.469 80.727 C 264.345 82.349,264.339 83.419,262.443 85.673 C 261.840 86.390,261.469 87.176,261.620 87.420 C 262.190 88.341,260.086 93.099,258.162 95.238 C 256.075 97.560,253.556 101.641,251.900 105.387 C 250.514 108.520,245.377 112.015,242.853 111.541 C 240.462 111.093,240.825 109.746,244.116 106.857 C 246.967 104.354,249.551 100.129,250.135 97.013 C 250.283 96.224,250.802 95.230,251.287 94.804 C 252.146 94.051,252.161 94.053,251.844 94.883 C 251.081 96.877,251.167 96.936,252.625 95.422 C 254.559 93.413,254.683 91.228,253.063 87.690 C 251.470 84.211,251.715 83.354,254.931 81.157 C 258.392 78.793,260.118 78.695,262.469 80.727 M154.257 82.740 C 154.185 84.547,153.742 84.961,153.316 83.618 C 152.995 82.606,153.480 80.523,153.967 80.824 C 154.164 80.946,154.295 81.808,154.257 82.740 M232.955 85.714 C 233.058 88.177,233.279 90.587,233.445 91.070 C 233.704 91.827,232.461 92.964,231.373 92.964 C 231.167 92.964,231.584 81.783,231.817 81.059 C 232.292 79.579,232.780 81.574,232.955 85.714 M244.200 83.049 C 244.563 83.929,245.321 85.259,245.884 86.006 C 246.447 86.752,246.908 87.496,246.908 87.658 C 246.908 87.820,247.416 89.084,248.037 90.467 C 249.472 93.665,249.214 93.878,246.815 91.479 C 245.671 90.335,244.333 89.442,243.517 89.279 C 241.787 88.933,241.051 87.541,241.699 85.840 C 241.949 85.185,242.272 83.929,242.418 83.049 C 242.563 82.170,242.876 81.450,243.111 81.450 C 243.347 81.450,243.837 82.170,244.200 83.049 M146.814 85.394 C 146.431 90.271,149.571 97.050,154.584 102.166 C 161.286 109.004,164.339 113.162,166.092 117.841 C 166.693 119.445,167.596 121.556,168.098 122.532 C 168.946 124.180,169.836 127.505,169.430 127.505 C 169.128 127.505,163.577 122.993,162.954 122.241 C 162.083 121.190,161.585 121.388,162.047 122.601 C 162.544 123.909,162.297 123.919,160.128 122.676 C 158.955 122.004,158.452 121.439,158.516 120.870 C 158.568 120.415,158.504 120.283,158.374 120.576 C 157.969 121.489,156.508 121.176,156.093 120.086 C 155.258 117.890,155.711 106.895,156.582 108.217 C 157.151 109.080,157.359 110.266,157.385 112.793 C 157.404 114.670,157.577 117.068,157.770 118.124 C 158.054 119.677,158.120 119.206,158.115 115.651 C 158.107 110.363,158.249 110.136,159.725 113.071 C 160.356 114.325,161.497 116.215,162.259 117.271 C 163.022 118.326,164.035 119.957,164.510 120.896 C 165.278 122.410,167.591 125.058,167.591 124.424 C 167.591 123.983,164.211 117.133,162.361 113.825 C 160.451 110.409,157.743 106.936,155.157 104.587 C 148.587 98.620,143.915 87.736,146.187 83.689 C 146.978 82.278,147.045 82.459,146.814 85.394 M229.997 83.349 C 230.560 84.816,230.804 92.405,230.318 93.314 C 229.405 95.021,229.097 94.274,229.076 90.294 C 229.064 88.122,228.846 85.796,228.590 85.125 C 228.250 84.230,228.257 83.748,228.614 83.317 C 229.242 82.561,229.699 82.571,229.997 83.349 M149.108 87.924 C 149.261 90.352,149.191 90.932,148.793 90.537 C 148.196 89.945,147.742 86.083,148.145 85.032 C 148.614 83.809,148.902 84.675,149.108 87.924 M228.300 90.092 L 228.250 94.861 226.691 96.208 C 225.349 97.368,216.882 101.919,216.065 101.919 C 215.310 101.919,216.041 100.201,219.606 93.603 C 221.281 90.504,227.257 84.229,227.911 84.883 C 228.167 85.139,228.329 87.316,228.300 90.092 M253.083 90.236 C 253.479 91.185,253.585 92.022,253.360 92.425 C 253.087 92.911,252.920 92.677,252.698 91.497 C 252.535 90.629,252.297 89.644,252.168 89.309 C 251.651 87.960,252.485 88.806,253.083 90.236 M269.563 89.879 C 269.341 90.294,268.423 90.896,267.522 91.219 C 265.581 91.914,262.894 93.682,259.798 96.300 C 256.879 98.768,256.559 98.410,259.285 95.726 C 260.570 94.460,261.407 93.261,261.407 92.685 C 261.407 92.162,261.627 91.599,261.896 91.433 C 262.231 91.226,262.318 91.474,262.175 92.225 C 261.990 93.193,262.068 93.278,262.859 92.964 C 265.123 92.065,269.083 89.873,269.083 89.519 C 269.083 89.303,269.282 89.126,269.525 89.126 C 269.814 89.126,269.828 89.384,269.563 89.879 M237.702 90.886 C 236.734 91.971,232.108 95.659,229.469 97.449 C 228.438 98.148,226.998 99.124,226.270 99.617 C 222.972 101.851,214.925 104.727,214.925 103.672 C 214.925 103.412,215.315 103.198,215.792 103.198 C 218.143 103.198,229.303 96.586,236.227 91.090 C 238.249 89.485,239.051 89.374,237.702 90.886 M153.401 91.080 C 154.141 91.820,154.720 95.949,154.084 95.949 C 153.867 95.949,153.766 96.607,153.860 97.411 C 154.176 100.117,155.224 98.793,155.224 95.687 L 155.224 92.958 158.705 95.139 C 160.619 96.339,162.870 97.558,163.706 97.847 L 165.227 98.374 165.348 105.584 L 165.468 112.793 164.504 111.548 C 163.973 110.863,162.762 109.413,161.813 108.325 C 159.063 105.176,158.087 103.312,157.929 100.906 C 157.705 97.514,157.336 95.134,157.003 94.928 C 156.629 94.697,157.137 101.646,157.542 102.301 C 158.153 103.290,157.038 102.711,155.726 101.358 C 154.973 100.580,154.503 99.782,154.683 99.584 C 154.863 99.386,154.779 99.356,154.496 99.519 C 153.495 100.093,152.743 97.962,152.596 94.136 C 152.439 90.061,152.427 90.106,153.401 91.080 M245.517 92.236 C 252.235 98.615,245.480 106.514,227.079 113.795 C 222.157 115.743,215.750 117.820,212.367 118.566 C 190.717 123.337,176.930 138.396,181.286 152.514 C 183.252 158.887,184.051 159.917,188.657 162.006 C 192.785 163.878,193.308 164.301,192.076 164.773 C 182.043 168.623,173.676 147.154,180.861 135.997 C 186.210 127.692,201.999 118.313,215.565 115.383 C 221.386 114.126,226.303 112.119,237.250 106.534 C 243.587 103.300,247.034 95.989,243.764 92.719 C 241.081 90.036,242.724 89.585,245.517 92.236 M222.738 94.670 C 222.738 96.194,222.815 96.818,222.910 96.055 C 223.004 95.293,223.004 94.046,222.910 93.284 C 222.815 92.521,222.738 93.145,222.738 94.670 M179.144 94.456 C 179.134 95.757,179.229 95.994,179.544 95.453 C 179.805 95.007,179.810 94.376,179.558 93.748 C 179.209 92.876,179.157 92.964,179.144 94.456 M237.681 95.949 C 237.807 97.239,237.768 99.446,237.595 100.853 C 237.287 103.348,237.273 103.295,237.017 98.721 C 236.786 94.584,236.876 93.020,237.319 93.468 C 237.392 93.543,237.555 94.659,237.681 95.949 M243.495 96.316 C 243.494 97.285,242.104 100.213,241.645 100.213 C 241.516 100.213,241.586 96.889,241.779 93.817 C 241.850 92.687,243.497 95.085,243.495 96.316 M195.758 99.652 C 196.721 100.929,198.646 102.855,200.034 103.933 C 203.084 106.302,203.127 105.798,199.672 108.096 C 197.928 109.256,196.467 110.607,195.980 111.511 C 195.537 112.333,195.039 113.006,194.874 113.006 C 194.307 113.006,192.392 117.909,191.876 120.682 C 191.136 124.659,190.631 125.017,188.963 122.749 C 186.018 118.745,186.366 116.698,190.642 112.853 C 193.116 110.628,193.176 110.448,191.434 110.448 C 187.993 110.448,184.112 116.490,184.030 121.975 C 183.915 129.598,178.665 133.375,175.864 127.849 C 173.701 123.580,173.891 122.662,177.757 118.690 C 181.670 114.669,181.916 114.076,182.301 107.701 C 182.696 101.182,185.474 96.375,188.847 96.375 C 189.407 96.375,190.559 95.767,191.406 95.023 L 192.946 93.671 193.476 95.502 C 193.767 96.508,194.794 98.376,195.758 99.652 M234.542 98.319 C 234.542 99.623,234.712 100.585,234.920 100.456 C 235.397 100.162,235.808 101.658,235.815 103.716 C 235.819 104.850,235.586 105.426,234.996 105.742 C 233.470 106.558,233.262 106.267,233.256 103.305 C 233.252 101.722,233.064 100.139,232.838 99.787 C 232.566 99.364,232.508 100.473,232.667 103.057 C 232.905 106.902,232.577 107.883,231.051 107.890 C 230.148 107.893,231.337 97.753,232.337 96.924 C 234.155 95.416,234.542 95.660,234.542 98.319 M200.427 100.984 C 201.676 101.994,203.242 102.930,203.907 103.063 C 205.222 103.326,205.382 103.616,204.629 104.369 C 203.649 105.349,199.000 101.796,196.137 97.879 C 195.487 96.989,195.527 97.018,200.427 100.984 M210.510 100.569 C 209.134 103.955,207.615 105.888,204.718 107.941 C 198.710 112.198,197.252 113.904,195.288 118.977 C 194.087 122.081,193.848 122.520,193.253 122.718 C 191.855 123.184,194.276 115.849,196.324 113.415 C 196.939 112.685,197.441 111.812,197.441 111.475 C 197.441 111.138,197.970 110.529,198.616 110.122 C 205.298 105.914,208.296 103.115,210.303 99.212 C 211.571 96.748,211.705 97.628,210.510 100.569 M161.955 101.853 C 162.141 107.471,162.339 108.161,162.403 103.412 C 162.434 101.066,162.319 98.925,162.147 98.654 C 161.975 98.383,161.888 99.823,161.955 101.853 M230.547 102.878 C 230.175 108.070,229.979 108.696,228.627 109.019 C 228.010 109.166,227.313 109.416,227.079 109.574 C 226.408 110.028,221.369 111.995,218.510 112.919 L 215.911 113.758 214.779 112.339 C 212.082 108.959,214.233 105.815,220.469 104.022 C 221.525 103.718,222.897 103.121,223.520 102.694 C 224.143 102.268,224.935 101.919,225.280 101.919 C 225.626 101.919,226.147 101.631,226.439 101.279 C 226.731 100.928,227.205 100.640,227.491 100.640 C 227.778 100.640,228.360 100.256,228.785 99.787 C 230.464 97.931,230.853 98.612,230.547 102.878 M148.326 99.975 C 148.119 100.895,143.579 106.130,142.964 106.159 C 142.152 106.196,142.296 105.857,144.008 103.697 C 147.205 99.661,148.681 98.389,148.326 99.975 M256.716 100.004 C 256.716 100.358,256.140 101.443,255.436 102.415 C 254.732 103.387,253.956 104.923,253.712 105.828 C 252.940 108.697,248.379 112.555,245.736 112.576 C 244.559 112.585,245.317 111.793,247.255 110.988 C 250.539 109.623,252.042 107.980,254.141 103.458 C 255.939 99.585,256.716 98.543,256.716 100.004 M227.868 104.904 C 227.868 106.898,227.941 107.713,228.031 106.716 C 228.121 105.720,228.121 104.088,228.031 103.092 C 227.941 102.095,227.868 102.910,227.868 104.904 M149.179 105.791 C 149.386 110.531,148.846 116.919,148.253 116.737 C 147.347 116.458,144.270 111.438,144.006 109.808 C 143.704 107.948,144.041 107.174,146.385 104.354 C 148.589 101.702,149.010 101.918,149.179 105.791 M222.657 107.228 C 222.622 109.357,222.751 110.468,223.004 110.213 C 223.247 109.969,223.269 108.625,223.060 106.823 L 222.713 103.838 222.657 107.228 M153.092 107.939 C 153.092 109.609,153.262 110.820,153.477 110.686 C 153.689 110.555,153.762 109.393,153.640 108.103 C 153.494 106.566,153.577 105.757,153.879 105.757 C 154.774 105.757,155.160 107.324,155.040 110.468 C 154.974 112.216,154.892 115.163,154.858 117.017 L 154.797 120.388 153.900 119.576 C 153.406 119.129,152.878 118.812,152.727 118.871 C 152.576 118.930,152.399 115.701,152.335 111.696 C 152.257 106.809,152.362 104.503,152.655 104.685 C 152.895 104.833,153.092 106.298,153.092 107.939 M142.195 109.384 C 141.612 113.268,144.272 116.893,149.714 119.633 C 153.621 121.601,154.148 122.383,151.009 121.555 C 150.161 121.331,148.962 121.045,148.346 120.920 C 144.363 120.110,139.102 110.081,141.436 107.747 C 142.171 107.011,142.458 107.630,142.195 109.384 M208.069 109.701 C 207.361 115.130,203.337 119.439,197.972 120.512 C 195.424 121.022,197.506 115.835,201.070 112.793 C 208.202 106.707,208.475 106.587,208.069 109.701 M235.821 114.925 C 235.821 116.450,235.739 117.697,235.638 117.697 C 235.294 117.697,234.483 113.020,234.751 112.586 C 235.421 111.503,235.821 112.378,235.821 114.925 M244.572 114.055 C 248.289 116.234,248.856 119.520,246.349 124.365 C 245.617 125.780,239.420 131.141,236.034 133.287 C 235.330 133.733,232.800 135.480,230.410 137.169 C 228.020 138.858,225.655 140.460,225.154 140.728 C 221.312 142.784,232.130 133.410,236.328 131.045 C 243.869 126.797,247.926 116.175,242.649 114.500 C 241.739 114.212,241.447 113.006,242.287 113.006 C 242.559 113.006,243.587 113.478,244.572 114.055 M233.898 113.852 C 235.223 115.997,233.726 125.373,232.058 125.373 C 230.619 125.373,229.967 114.612,231.390 114.351 C 231.834 114.270,232.378 114.030,232.601 113.818 C 233.127 113.318,233.575 113.330,233.898 113.852 M229.939 120.149 C 230.153 126.075,230.325 125.603,228.298 124.651 C 226.712 123.907,226.643 123.786,226.404 121.321 L 226.156 118.763 226.084 121.002 C 225.989 123.977,225.168 123.944,220.105 120.757 C 217.446 119.083,217.573 118.736,221.177 117.830 C 225.863 116.652,225.586 116.664,225.586 117.648 C 225.586 118.144,225.752 118.550,225.954 118.550 C 226.156 118.550,226.231 118.079,226.121 117.504 C 225.956 116.641,226.172 116.348,227.353 115.833 C 229.764 114.781,229.745 114.749,229.939 120.149 M232.668 117.519 C 232.265 118.570,232.377 122.104,232.836 122.814 C 233.122 123.258,233.251 122.441,233.256 120.149 C 233.262 116.818,233.143 116.282,232.668 117.519 M242.559 117.783 C 243.346 118.570,243.166 120.900,242.232 122.021 L 241.393 123.028 241.379 120.149 C 241.365 117.275,241.593 116.817,242.559 117.783 M228.281 121.535 C 228.281 123.060,228.359 123.683,228.453 122.921 C 228.548 122.159,228.548 120.912,228.453 120.149 C 228.359 119.387,228.281 120.011,228.281 121.535 M217.423 121.047 C 218.277 121.717,220.882 123.096,223.210 124.112 C 229.104 126.683,233.475 131.038,231.976 132.844 C 231.198 133.781,231.025 133.667,229.738 131.376 C 228.030 128.335,226.490 127.200,223.578 126.836 C 222.136 126.656,219.739 125.856,217.732 124.886 C 215.861 123.981,213.889 123.241,213.349 123.241 C 212.809 123.241,212.367 123.049,212.367 122.814 C 212.367 122.575,213.631 122.375,215.245 122.358 C 218.485 122.324,217.830 121.622,214.499 121.559 C 211.903 121.509,211.019 120.931,212.638 120.341 C 214.665 119.603,215.792 119.770,217.423 121.047 M187.572 123.414 C 188.891 124.585,188.709 124.910,186.780 124.833 L 185.075 124.765 185.076 122.404 L 185.078 120.043 185.868 121.322 C 186.303 122.026,187.070 122.967,187.572 123.414 M237.100 120.850 C 237.100 121.177,237.398 121.558,237.762 121.698 C 238.268 121.892,238.394 122.474,238.295 124.162 C 238.128 127.023,237.308 127.315,236.946 124.642 C 236.793 123.520,236.551 122.074,236.408 121.429 C 236.245 120.694,236.326 120.256,236.624 120.256 C 236.886 120.256,237.100 120.523,237.100 120.850 M162.249 127.063 C 167.219 131.722,167.557 132.384,167.981 138.300 C 168.170 140.924,168.398 143.347,168.490 143.685 C 168.582 144.023,168.336 144.370,167.944 144.456 C 167.107 144.640,166.619 141.657,166.846 137.740 C 166.948 135.990,166.766 135.015,166.130 133.902 C 165.414 132.651,165.395 132.504,166.007 132.995 C 166.744 133.585,166.991 133.215,166.411 132.389 C 165.806 131.526,157.547 125.106,155.581 123.971 C 153.753 122.915,153.566 122.603,153.912 121.189 C 154.063 120.572,159.144 124.152,162.249 127.063 M208.955 122.388 C 208.955 122.927,208.084 122.927,207.249 122.388 C 206.751 122.066,206.869 121.973,207.783 121.968 C 208.428 121.965,208.955 122.154,208.955 122.388 M206.634 123.419 C 207.804 124.275,207.394 124.408,204.478 124.120 C 201.996 123.875,201.957 123.852,203.198 123.374 C 204.946 122.701,205.665 122.711,206.634 123.419 M147.805 130.865 C 146.238 133.143,145.814 134.569,145.538 138.481 C 145.268 142.308,145.336 142.422,147.132 141.144 C 148.027 140.507,148.424 140.417,148.660 140.799 C 148.835 141.082,148.765 141.385,148.504 141.472 C 148.243 141.559,147.242 142.201,146.280 142.898 C 144.179 144.420,143.920 144.306,143.081 141.482 C 141.516 136.210,142.538 132.284,147.389 124.937 L 148.614 123.082 148.740 126.201 C 148.852 128.946,148.739 129.507,147.805 130.865 M144.803 126.993 C 139.807 134.715,140.159 141.820,145.864 148.442 C 149.093 152.191,150.644 155.058,150.000 156.089 C 149.285 157.234,149.023 157.153,148.374 155.585 C 148.067 154.845,146.749 153.153,145.443 151.824 C 137.736 143.978,137.682 132.892,145.312 124.845 C 147.077 122.983,146.892 123.762,144.803 126.993 M216.925 125.733 C 220.610 127.588,220.290 128.820,216.567 127.110 C 215.547 126.642,213.517 125.843,212.055 125.335 C 210.585 124.824,209.515 124.223,209.659 123.989 C 210.135 123.220,213.569 124.045,216.925 125.733 M235.394 124.425 C 235.394 125.315,234.245 127.079,233.665 127.079 C 233.040 127.079,233.190 125.666,233.926 124.615 C 234.725 123.474,235.394 123.387,235.394 124.425 M250.587 125.230 C 253.107 127.152,253.681 129.137,252.083 130.403 C 251.093 131.187,251.131 135.895,252.139 137.434 C 253.200 139.054,253.165 139.122,250.050 141.527 C 246.526 144.247,246.659 144.262,244.357 140.886 C 240.964 135.908,240.404 132.999,242.501 131.234 C 244.575 129.487,247.373 126.455,248.009 125.267 C 248.776 123.831,248.754 123.832,250.587 125.230 M205.331 124.947 C 205.476 125.182,205.106 125.561,204.509 125.788 C 203.655 126.112,203.272 126.742,202.719 128.731 C 202.060 131.100,201.883 131.326,199.958 132.262 C 197.795 133.314,197.450 133.768,198.507 134.174 C 198.876 134.316,199.147 134.953,199.147 135.678 C 199.147 137.394,198.597 136.927,196.768 133.657 C 195.303 131.037,195.258 130.842,195.910 129.945 C 196.288 129.424,197.049 128.323,197.601 127.499 C 199.094 125.270,199.785 124.802,200.788 125.339 C 201.411 125.672,202.003 125.628,203.054 125.172 C 204.780 124.422,204.993 124.401,205.331 124.947 M157.178 127.327 C 157.852 127.725,157.964 128.399,157.994 132.231 C 158.013 134.675,158.216 137.001,158.445 137.401 C 158.728 137.895,158.810 136.633,158.701 133.456 C 158.613 130.887,158.691 128.785,158.874 128.785 C 159.328 128.785,160.768 130.115,160.768 130.535 C 160.768 130.721,161.224 131.365,161.782 131.967 C 162.976 133.256,165.458 140.430,165.458 142.593 C 165.458 145.016,163.968 147.122,162.253 147.122 C 162.154 147.122,162.019 144.771,161.953 141.898 L 161.834 136.674 161.458 141.060 C 161.004 146.353,159.624 146.723,158.922 141.740 C 158.498 138.733,157.916 138.009,155.058 136.940 L 152.878 136.125 153.035 130.856 C 153.221 124.600,153.165 124.741,154.970 125.927 C 155.755 126.443,156.749 127.073,157.178 127.327 M167.900 127.988 C 171.482 131.005,175.667 136.526,175.685 138.259 C 175.700 139.714,170.565 143.875,169.961 142.898 C 169.831 142.687,169.545 140.817,169.325 138.742 C 168.625 132.130,168.160 130.704,165.845 128.058 C 163.892 125.826,163.376 124.947,164.020 124.947 C 164.168 124.947,165.913 126.315,167.900 127.988 M212.283 126.895 C 217.978 128.795,217.873 128.668,215.964 131.325 C 214.436 133.452,212.844 137.961,212.796 140.299 C 212.685 145.753,208.430 146.017,203.090 140.900 C 201.805 139.669,201.266 139.350,201.412 139.906 C 201.530 140.356,201.452 140.725,201.239 140.725 C 200.517 140.725,200.858 136.701,201.727 134.968 C 204.591 129.252,206.932 125.373,207.515 125.373 C 207.629 125.373,209.774 126.058,212.283 126.895 M186.994 126.906 C 182.884 130.373,181.088 132.159,180.281 133.582 C 179.316 135.283,178.439 135.753,178.892 134.327 C 179.056 133.808,178.900 133.211,178.494 132.804 C 177.478 131.788,177.685 131.343,179.173 131.343 C 180.250 131.343,181.030 130.834,183.060 128.804 C 185.766 126.098,186.090 125.878,187.420 125.847 C 188.155 125.829,188.095 125.976,186.994 126.906 M232.409 127.292 C 232.409 128.009,233.495 128.164,233.902 127.505 C 234.381 126.730,234.968 127.062,234.968 128.110 C 234.968 129.511,234.551 130.493,233.963 130.477 C 232.959 130.449,230.965 126.652,231.954 126.652 C 232.205 126.652,232.409 126.940,232.409 127.292 M238.806 126.997 C 238.806 127.187,238.504 127.715,238.135 128.170 C 237.765 128.625,237.544 128.806,237.642 128.571 C 237.741 128.337,237.941 127.809,238.087 127.399 C 238.360 126.632,238.806 126.383,238.806 126.997 M154.307 127.905 C 154.032 128.721,154.446 133.049,154.799 133.049 C 155.198 133.049,155.660 130.362,155.526 128.820 C 155.435 127.761,154.574 127.115,154.307 127.905 M195.736 128.145 C 195.444 128.497,195.013 128.785,194.778 128.785 C 194.540 128.785,194.587 128.502,194.883 128.145 C 195.175 127.793,195.605 127.505,195.840 127.505 C 196.078 127.505,196.032 127.788,195.736 128.145 M223.241 129.159 C 217.867 131.625,213.523 143.410,216.599 147.181 C 217.741 148.580,218.187 147.393,217.519 144.738 C 216.388 140.246,221.074 130.064,224.273 130.064 C 225.302 130.064,225.276 130.119,223.766 131.145 C 221.876 132.430,221.636 133.350,223.433 132.420 C 224.959 131.631,226.011 131.583,226.019 132.303 C 226.024 132.702,226.117 132.693,226.387 132.267 C 226.663 131.831,226.800 131.897,226.970 132.550 C 227.094 133.023,227.629 133.467,228.169 133.546 C 229.875 133.796,229.536 134.610,226.845 136.724 C 223.763 139.146,222.389 141.538,221.970 145.210 C 221.505 149.278,221.522 149.254,219.260 149.254 C 214.250 149.254,212.951 146.872,214.311 140.178 C 215.950 132.111,218.856 128.360,223.454 128.373 L 224.947 128.377 223.241 129.159 M196.764 136.480 C 197.765 137.781,198.713 139.357,198.870 139.982 C 199.027 140.608,200.005 141.958,201.044 142.982 C 202.082 144.005,203.057 145.404,203.209 146.089 C 203.686 148.232,204.194 149.541,204.231 148.721 C 204.274 147.770,204.419 147.781,207.287 148.949 L 209.670 149.920 207.134 152.679 C 204.252 155.813,202.477 159.207,201.454 163.539 C 201.066 165.181,200.488 167.484,200.170 168.657 C 199.851 169.829,199.466 171.604,199.314 172.601 C 198.975 174.831,198.533 174.880,194.743 173.106 C 193.206 172.387,190.882 171.689,189.578 171.554 C 186.605 171.247,186.619 171.066,189.803 168.799 C 203.551 159.011,205.628 149.352,196.419 138.020 C 192.860 133.640,191.675 130.884,192.846 129.713 C 193.257 129.301,193.534 129.712,194.156 131.653 C 194.589 133.007,195.763 135.179,196.764 136.480 M148.434 134.844 C 148.181 135.568,147.974 136.958,147.974 137.931 C 147.974 139.624,147.412 140.725,146.548 140.725 C 145.820 140.725,146.614 135.303,147.623 133.387 C 148.730 131.285,149.310 132.329,148.434 134.844 M193.624 136.652 C 194.452 137.480,194.021 138.424,190.980 142.432 C 190.358 143.252,189.552 144.643,189.189 145.522 C 188.354 147.547,187.505 147.557,185.625 145.564 C 182.244 141.979,182.685 140.064,188.185 134.447 L 190.783 131.793 192.001 134.020 C 192.671 135.244,193.401 136.429,193.624 136.652 M237.100 136.609 C 237.100 137.132,237.481 138.307,237.947 139.220 C 239.097 141.477,238.791 141.529,237.243 139.338 C 235.594 137.005,235.226 135.976,235.893 135.563 C 236.639 135.102,237.100 135.502,237.100 136.609 M235.713 139.126 C 237.592 142.240,238.380 144.281,238.380 146.042 C 238.380 148.034,237.642 147.972,237.276 145.949 C 237.117 145.069,236.245 142.824,235.338 140.959 C 234.431 139.094,233.689 137.414,233.689 137.227 C 233.689 136.343,234.483 137.088,235.713 139.126 M156.476 138.991 C 157.262 139.778,158.202 142.341,158.207 143.714 C 158.208 144.068,157.809 144.607,157.320 144.913 C 156.756 145.265,156.523 145.731,156.682 146.188 C 156.869 146.727,156.764 146.694,156.266 146.055 C 155.882 145.563,155.701 144.797,155.839 144.243 C 155.970 143.715,156.195 142.803,156.340 142.215 C 156.597 141.173,155.946 139.872,155.167 139.872 C 154.959 139.872,154.873 140.736,154.977 141.791 C 155.080 142.846,154.986 143.710,154.768 143.710 C 154.152 143.710,154.296 144.661,155.171 146.379 C 155.959 147.923,155.958 147.941,155.151 147.509 C 154.318 147.063,153.310 145.055,153.716 144.650 C 153.838 144.528,153.723 144.171,153.462 143.856 C 153.125 143.450,153.119 143.125,153.442 142.736 C 153.729 142.389,153.751 141.960,153.500 141.564 C 152.978 140.738,152.985 140.182,153.513 140.509 C 153.763 140.663,153.821 140.474,153.657 140.046 C 153.079 138.538,155.221 137.737,156.476 138.991 M233.499 140.950 C 235.611 145.726,234.807 154.231,232.148 155.242 C 230.278 155.953,230.221 155.839,230.468 151.919 L 230.704 148.188 230.122 150.746 C 229.802 152.154,229.410 154.025,229.250 154.904 C 228.936 156.630,227.537 157.201,227.160 155.757 C 227.000 155.147,226.956 155.172,226.915 155.891 C 226.861 156.862,224.500 158.219,222.907 158.195 C 222.310 158.186,220.484 156.768,217.953 154.349 C 213.700 150.283,212.888 148.664,216.763 151.975 C 218.031 153.058,219.352 153.945,219.699 153.945 C 221.011 153.945,224.336 150.837,225.218 148.786 C 225.699 147.669,226.458 146.425,226.905 146.020 C 227.367 145.601,227.721 144.714,227.725 143.964 C 227.734 142.158,228.408 141.115,228.991 142.004 C 229.222 142.356,229.414 143.064,229.418 143.578 C 229.421 144.092,229.583 144.611,229.778 144.731 C 229.972 144.851,230.044 143.903,229.938 142.624 C 229.734 140.160,230.235 139.571,231.038 141.332 C 231.975 143.390,232.851 148.889,232.659 151.514 C 232.505 153.606,232.557 153.935,232.905 153.092 C 233.564 151.495,233.040 142.784,232.186 141.132 C 231.560 139.921,231.570 138.593,232.206 138.593 C 232.344 138.593,232.925 139.654,233.499 140.950 M254.584 140.215 C 253.763 140.847,251.921 142.585,250.490 144.076 C 248.354 146.302,247.837 146.655,247.604 146.048 C 247.448 145.641,247.532 145.052,247.791 144.740 C 248.533 143.846,253.874 139.588,254.584 139.324 C 256.000 138.798,256.000 139.124,254.584 140.215 M196.695 142.419 C 198.846 146.631,198.139 156.457,195.750 155.570 C 195.025 155.302,189.765 149.129,189.765 148.547 C 189.765 147.424,190.917 145.207,192.450 143.381 C 193.291 142.379,194.102 141.169,194.254 140.692 C 194.672 139.372,195.403 139.890,196.695 142.419 M176.782 141.505 C 176.332 142.924,172.246 146.842,168.870 149.093 C 161.673 153.892,160.426 154.855,157.526 157.851 C 153.151 162.373,150.678 167.492,149.918 173.603 C 149.760 174.870,149.435 176.866,149.194 178.038 C 148.897 179.488,148.896 180.512,149.191 181.237 L 149.626 182.303 149.653 181.155 C 149.704 178.988,150.381 179.580,151.356 182.645 C 153.226 188.517,155.660 190.353,161.620 190.385 C 166.312 190.411,166.850 191.214,162.289 191.384 C 153.026 191.729,145.775 184.279,146.455 175.116 C 147.542 160.471,152.998 153.399,169.678 145.012 C 171.483 144.104,173.793 142.666,174.810 141.816 C 176.758 140.188,177.223 140.115,176.782 141.505 M247.546 149.439 C 251.423 157.256,252.274 164.790,249.475 166.519 C 249.193 166.694,249.291 166.211,249.698 165.424 C 251.726 161.501,249.964 154.838,244.436 145.530 C 242.469 142.218,242.092 142.157,243.072 145.309 C 243.864 147.857,243.831 148.401,242.885 148.401 C 242.172 148.401,241.791 146.499,241.791 142.940 L 241.791 140.144 243.498 142.432 C 244.437 143.691,246.258 146.844,247.546 149.439 M224.987 143.817 C 224.448 145.048,223.893 146.792,223.752 147.693 C 223.439 149.693,222.786 150.542,221.590 150.506 L 220.682 150.479 221.604 150.107 C 222.659 149.682,222.846 149.173,223.249 145.629 C 223.598 142.566,224.062 141.578,225.151 141.578 C 225.932 141.578,225.925 141.671,224.987 143.817 M149.254 145.817 C 149.254 149.932,148.910 150.231,146.941 147.829 C 145.047 145.518,145.050 145.353,147.005 143.741 C 149.195 141.936,149.254 141.991,149.254 145.817 M208.612 145.559 C 210.445 146.087,211.708 148.408,210.156 148.397 C 208.716 148.386,205.135 146.260,204.505 145.043 C 203.557 143.210,203.653 143.100,205.307 144.122 C 206.115 144.621,207.602 145.268,208.612 145.559 M184.389 146.269 C 186.849 148.045,191.121 151.878,190.894 152.105 C 190.436 152.564,182.279 146.580,182.013 145.590 C 181.672 144.322,181.708 144.332,184.389 146.269 M159.744 145.316 C 161.512 146.496,161.270 148.722,159.374 148.720 C 158.609 148.719,158.407 148.457,158.343 147.387 C 158.213 145.186,158.629 144.571,159.744 145.316 M200.347 149.970 C 200.543 153.701,199.155 157.579,196.404 160.981 L 195.370 162.260 194.506 160.323 C 193.440 157.933,192.821 154.527,193.533 154.967 C 193.800 155.132,194.323 156.313,194.694 157.591 C 195.387 159.975,196.162 160.682,196.162 158.931 C 196.162 158.391,196.644 157.295,197.233 156.497 C 198.698 154.511,199.140 152.654,199.158 148.401 C 199.178 143.650,200.076 144.836,200.347 149.970 M127.777 147.155 C 129.387 147.877,131.615 148.869,132.729 149.360 C 133.843 149.851,134.755 150.400,134.755 150.581 C 134.755 151.427,133.779 151.319,132.151 150.291 C 131.170 149.672,129.313 148.803,128.023 148.359 C 125.602 147.526,124.520 146.864,124.520 146.216 C 124.520 145.693,124.517 145.692,127.777 147.155 M153.026 147.313 C 153.120 147.799,152.966 148.004,152.599 147.882 C 152.284 147.776,151.959 147.348,151.878 146.930 C 151.784 146.444,151.938 146.239,152.305 146.361 C 152.620 146.467,152.945 146.895,153.026 147.313 M176.972 148.723 C 176.972 149.839,177.152 151.378,177.371 152.143 C 177.899 153.985,176.703 154.803,172.910 155.196 L 170.149 155.481 170.149 154.052 C 170.149 151.886,171.157 150.367,173.870 148.442 C 176.945 146.260,176.972 146.263,176.972 148.723 M141.151 148.171 C 141.151 148.280,140.336 149.210,139.339 150.240 C 137.469 152.172,134.827 156.554,133.833 159.374 L 133.267 160.981 133.134 159.633 C 132.914 157.404,134.025 154.525,136.045 152.094 C 138.321 149.355,141.151 147.181,141.151 148.171 M155.735 149.574 C 156.932 150.366,157.286 150.789,156.824 150.878 C 156.077 151.022,152.885 149.528,152.456 148.833 C 151.916 147.960,154.012 148.434,155.735 149.574 M184.074 149.726 L 186.000 151.050 184.578 152.267 C 183.125 153.509,183.337 153.999,184.836 152.865 C 186.343 151.725,187.080 152.180,185.608 153.341 C 184.845 153.941,184.222 154.611,184.222 154.828 C 184.222 155.563,185.280 155.208,186.770 153.972 C 188.452 152.578,189.952 152.900,190.931 154.868 C 193.662 160.357,194.216 164.318,191.977 162.352 C 190.975 161.471,187.802 159.915,187.011 159.915 C 186.649 159.915,186.354 159.700,186.354 159.438 C 186.354 159.176,185.788 158.317,185.096 157.529 C 183.632 155.861,181.024 148.401,181.906 148.401 C 182.040 148.401,183.016 148.997,184.074 149.726 M245.139 150.732 C 245.778 152.498,245.462 153.254,243.285 155.165 C 241.227 156.972,241.078 156.894,240.989 153.959 C 240.914 151.454,240.939 151.398,242.525 150.359 C 244.589 149.007,244.512 148.996,245.139 150.732 M143.295 151.919 C 144.870 153.682,144.893 153.755,144.147 154.584 C 141.195 157.866,139.720 164.553,141.317 167.411 C 142.654 169.803,142.543 170.019,140.320 169.353 C 133.452 167.295,132.987 159.515,139.302 152.297 C 141.603 149.666,141.307 149.694,143.295 151.919 M210.661 151.778 C 210.661 151.993,209.775 153.192,208.692 154.443 C 204.720 159.027,203.185 163.311,202.145 172.708 C 201.294 180.400,199.158 186.517,195.764 190.981 C 194.810 192.236,194.030 193.403,194.030 193.574 C 194.030 194.154,190.330 196.547,188.016 197.463 C 185.649 198.400,180.431 197.896,177.612 196.457 C 176.280 195.778,171.429 190.976,171.429 190.338 C 171.429 189.262,172.356 189.766,174.984 192.270 C 179.147 196.238,181.652 197.057,186.100 195.904 C 192.599 194.220,195.351 190.867,198.866 180.349 C 200.367 175.857,200.539 175.125,202.166 166.311 C 202.760 163.098,203.563 160.378,204.497 158.422 C 206.276 154.694,210.661 149.968,210.661 151.778 M153.650 152.425 C 154.163 152.813,154.264 153.108,153.951 153.301 C 153.453 153.609,152.239 152.819,152.239 152.187 C 152.239 151.657,152.752 151.744,153.650 152.425 M168.870 153.731 C 168.870 155.153,168.704 155.650,168.230 155.650 C 167.559 155.650,167.406 154.464,167.859 152.772 C 168.292 151.156,168.870 151.704,168.870 153.731 M236.765 155.757 C 236.836 156.871,236.748 157.783,236.570 157.783 C 236.393 157.783,236.273 156.487,236.305 154.904 C 236.366 151.921,236.544 152.253,236.765 155.757 M166.111 154.260 C 165.808 155.467,165.211 156.059,164.286 156.070 C 163.369 156.081,163.702 154.899,164.876 153.976 C 166.334 152.829,166.462 152.859,166.111 154.260 M216.917 155.330 C 220.269 158.781,220.579 159.937,218.591 161.587 C 218.046 162.039,217.900 161.934,217.654 160.912 C 217.250 159.230,215.854 156.520,214.654 155.085 C 212.265 152.228,214.095 152.426,216.917 155.330 M247.711 154.691 C 250.367 161.187,249.544 166.455,245.558 168.473 C 244.541 168.987,243.171 169.787,242.513 170.251 C 241.068 171.270,241.006 171.218,241.257 169.202 L 241.455 167.615 243.755 167.811 C 246.414 168.037,246.782 167.463,244.456 166.717 C 240.876 165.567,239.993 162.088,242.853 160.400 C 244.627 159.353,245.968 157.316,246.328 155.117 C 246.640 153.219,247.056 153.090,247.711 154.691 M215.386 158.849 C 215.652 159.552,216.177 160.745,216.552 161.499 C 217.208 162.815,217.195 162.911,216.232 163.937 C 215.546 164.667,215.164 165.686,215.022 167.161 C 214.787 169.610,214.719 169.620,211.010 167.756 C 206.685 165.583,206.400 160.499,210.362 156.201 L 212.131 154.282 213.517 155.926 C 214.279 156.830,215.120 158.145,215.386 158.849 M234.784 155.330 C 234.685 155.858,234.591 156.434,234.573 156.610 C 234.531 157.037,234.039 157.004,233.279 156.523 C 232.746 156.186,232.771 156.002,233.452 155.250 C 234.490 154.103,235.007 154.134,234.784 155.330 M146.867 155.909 C 147.031 156.337,146.628 157.166,145.793 158.117 C 143.084 161.202,142.624 164.074,144.354 167.100 C 145.507 169.116,145.385 170.213,144.134 169.081 C 142.783 167.858,141.557 164.455,141.967 163.064 C 143.538 157.741,146.122 153.968,146.867 155.909 M178.678 156.478 C 178.678 158.161,163.748 158.692,161.760 157.080 C 161.055 156.508,161.193 156.472,163.202 156.701 C 166.745 157.105,174.985 157.009,176.134 156.550 C 177.501 156.005,178.678 155.972,178.678 156.478 M244.352 157.352 C 243.726 158.522,241.516 159.594,240.437 159.251 C 239.842 159.062,239.648 159.126,239.846 159.446 C 240.426 160.384,238.744 160.418,235.470 159.535 C 229.186 157.839,226.324 158.498,221.471 162.759 C 218.419 165.438,217.484 166.875,217.484 168.884 C 217.484 170.925,216.442 170.205,216.285 168.056 C 216.113 165.705,216.897 164.540,219.959 162.599 C 221.295 161.753,223.013 160.519,223.776 159.859 C 226.260 157.710,229.376 157.114,233.445 158.009 C 238.141 159.042,239.554 158.994,242.020 157.719 C 244.681 156.342,244.912 156.306,244.352 157.352 M180.553 160.504 C 181.948 162.999,183.787 165.003,185.692 166.105 C 186.334 166.476,185.944 166.896,182.966 169.040 L 179.490 171.542 177.154 169.933 C 173.564 167.461,171.002 163.745,171.002 161.010 C 171.002 159.705,171.803 159.253,174.840 158.844 C 176.130 158.670,177.569 158.372,178.038 158.182 C 178.507 157.992,178.923 157.824,178.961 157.810 C 179.000 157.795,179.716 159.007,180.553 160.504 M148.182 158.626 C 148.324 158.856,147.855 160.375,147.141 162.003 C 146.427 163.630,145.842 165.277,145.842 165.662 C 145.842 166.862,145.100 165.969,144.809 164.419 C 144.303 161.720,147.112 156.895,148.182 158.626 M163.281 159.025 C 163.629 159.245,163.778 159.772,163.641 160.297 C 163.512 160.790,163.580 161.301,163.793 161.432 C 164.005 161.563,164.179 161.168,164.179 160.554 C 164.179 158.123,167.303 159.250,167.727 161.834 C 168.398 165.931,168.900 167.115,171.222 170.083 C 174.056 173.705,174.049 173.391,171.322 174.602 C 166.648 176.678,165.148 176.228,164.761 172.634 C 164.390 169.193,164.141 168.017,163.786 168.017 C 163.591 168.017,163.528 168.881,163.647 169.936 C 163.914 172.298,163.747 172.319,162.282 170.106 C 159.771 166.311,158.142 161.693,158.904 160.530 C 159.823 159.127,160.216 159.215,160.957 160.989 C 161.675 162.708,163.248 165.033,162.682 163.539 C 161.489 160.391,161.208 159.384,161.425 159.034 C 161.732 158.536,162.504 158.533,163.281 159.025 M170.300 162.752 C 171.114 166.049,172.362 167.850,175.528 170.300 C 177.355 171.713,177.661 172.117,177.070 172.331 C 174.564 173.241,169.489 166.841,168.662 161.727 C 168.152 158.575,169.474 159.402,170.300 162.752 M231.489 161.336 C 233.531 163.509,234.525 168.043,233.621 171.059 C 232.977 173.209,232.336 173.290,232.418 171.211 C 232.441 170.634,231.055 168.443,230.668 168.443 C 230.425 168.443,230.364 168.222,230.531 167.951 C 230.711 167.660,230.649 167.574,230.378 167.742 C 229.238 168.446,223.885 164.142,224.551 163.056 C 225.278 161.870,225.888 161.916,226.205 163.181 L 226.499 164.351 227.279 162.609 C 228.393 160.119,229.914 159.659,231.489 161.336 M235.136 161.869 C 235.278 162.240,235.387 163.343,235.378 164.321 L 235.361 166.098 234.700 164.606 C 233.248 161.326,233.224 161.194,234.080 161.194 C 234.518 161.194,234.993 161.498,235.136 161.869 M237.249 163.584 L 236.924 164.819 236.662 163.539 C 236.361 162.070,236.587 161.363,237.172 161.948 C 237.395 162.172,237.430 162.898,237.249 163.584 M159.510 166.844 C 160.430 168.779,161.953 171.597,162.894 173.105 C 164.816 176.184,165.326 178.529,163.622 176.448 C 162.505 175.084,157.968 166.133,157.551 164.470 C 157.012 162.324,157.835 163.322,159.510 166.844 M205.970 165.664 C 205.970 167.104,207.740 169.015,210.792 170.869 C 213.143 172.298,214.872 173.184,220.559 175.877 C 221.860 176.494,222.211 176.941,222.539 178.399 C 222.885 179.940,222.942 180.006,222.982 178.906 C 223.052 176.966,224.296 178.459,224.784 181.068 C 224.995 182.197,225.382 183.320,225.645 183.565 C 226.110 183.997,226.053 183.456,225.330 180.597 C 225.140 179.845,225.221 179.866,226.011 180.777 C 227.510 182.503,227.068 185.064,225.160 185.719 C 221.687 186.912,221.753 186.910,221.690 185.850 L 221.632 184.861 221.443 185.857 C 221.222 187.018,218.740 188.236,217.199 187.942 C 216.652 187.837,216.205 187.892,216.205 188.063 C 216.205 188.707,213.102 188.873,211.991 188.289 C 208.034 186.204,203.228 179.003,203.585 175.693 C 204.701 165.344,204.937 164.018,205.592 164.422 C 205.800 164.551,205.970 165.110,205.970 165.664 M223.827 165.139 C 224.112 165.666,225.489 166.770,226.886 167.591 C 229.546 169.153,231.400 171.393,231.836 173.571 C 231.975 174.269,232.251 174.840,232.449 174.840 C 232.647 174.840,232.706 174.572,232.580 174.244 C 232.454 173.915,232.535 173.534,232.759 173.395 C 232.983 173.256,233.253 173.733,233.359 174.455 C 233.517 175.531,233.372 175.834,232.549 176.147 C 231.584 176.514,231.419 179.375,232.213 181.969 C 232.301 182.255,232.199 182.596,231.987 182.726 C 231.776 182.857,231.409 182.262,231.172 181.404 C 230.800 180.059,227.676 175.737,226.793 175.346 C 224.071 174.143,220.713 169.734,221.739 168.709 C 221.979 168.469,222.175 167.655,222.175 166.901 C 222.175 164.262,222.924 163.463,223.827 165.139 M155.472 165.990 C 155.384 166.752,155.579 167.894,155.907 168.528 C 156.783 170.222,156.628 170.559,155.650 169.083 C 155.045 168.168,154.802 168.017,154.800 168.550 C 154.799 168.961,154.558 169.299,154.264 169.303 C 153.845 169.308,153.847 169.383,154.273 169.653 C 154.726 169.941,154.752 170.474,154.403 172.227 C 154.385 172.314,154.071 172.137,153.705 171.833 C 153.119 171.347,153.075 171.425,153.340 172.484 C 153.567 173.388,153.510 173.606,153.113 173.361 C 152.551 173.013,152.619 172.392,153.668 168.314 C 154.222 166.161,154.982 164.606,155.481 164.606 C 155.565 164.606,155.561 165.229,155.472 165.990 M236.983 168.542 C 236.888 169.309,236.808 168.785,236.806 167.377 C 236.804 165.970,236.881 165.343,236.978 165.984 C 237.076 166.625,237.078 167.776,236.983 168.542 M136.738 169.175 C 137.406 169.642,138.529 170.151,139.232 170.305 C 141.928 170.895,144.549 172.446,144.556 173.454 C 144.564 174.553,143.954 174.645,142.431 173.774 C 141.844 173.439,140.903 173.158,140.339 173.149 C 138.331 173.120,134.887 169.567,134.124 166.738 C 133.869 165.794,133.933 165.824,134.680 166.998 C 135.144 167.728,136.070 168.708,136.738 169.175 M220.469 167.776 C 220.469 168.582,220.666 169.760,220.907 170.394 C 221.483 171.908,221.122 172.190,219.706 171.333 C 218.247 170.451,218.098 169.714,218.997 167.821 C 219.903 165.911,220.469 165.894,220.469 167.776 M188.060 167.540 C 188.060 168.637,177.023 175.261,172.708 176.754 C 165.592 179.217,165.773 179.176,165.076 178.479 C 164.363 177.766,164.236 177.830,168.017 176.976 C 169.307 176.685,171.898 175.774,173.774 174.952 C 175.650 174.130,177.761 173.292,178.465 173.089 C 179.168 172.887,181.375 171.479,183.369 169.961 C 186.810 167.341,188.060 166.696,188.060 167.540 M159.469 174.520 C 159.480 175.927,159.678 176.972,159.933 176.972 C 160.178 176.972,160.347 176.732,160.309 176.439 C 159.926 173.485,160.368 173.378,161.861 176.061 C 163.261 178.575,163.545 180.294,162.273 178.555 C 161.933 178.090,161.076 177.759,160.070 177.703 L 158.422 177.612 158.160 174.627 C 158.016 172.985,157.767 170.874,157.606 169.936 L 157.315 168.230 158.382 170.149 C 159.164 171.554,159.455 172.725,159.469 174.520 M249.041 169.263 C 249.041 169.480,248.417 169.864,247.655 170.117 C 246.892 170.370,245.405 171.152,244.350 171.854 C 242.414 173.142,240.938 173.505,240.938 172.695 C 240.938 172.453,241.274 172.131,241.684 171.979 C 242.095 171.828,243.129 171.269,243.983 170.738 C 245.300 169.918,247.549 169.049,248.721 168.908 C 248.897 168.887,249.041 169.047,249.041 169.263 M217.769 171.639 C 229.141 177.406,231.436 180.580,229.380 187.695 C 228.626 190.306,228.519 191.175,228.920 191.423 C 229.310 191.664,229.239 191.933,228.643 192.473 C 227.487 193.518,226.657 192.502,227.295 190.824 C 227.913 189.199,227.560 189.056,226.152 190.362 C 224.943 191.483,224.285 191.597,221.962 191.092 C 220.464 190.766,220.865 190.424,223.241 189.999 C 227.219 189.288,228.816 187.171,228.475 183.061 C 228.202 179.769,224.600 176.276,218.134 173.034 C 213.517 170.720,211.367 169.296,212.488 169.296 C 212.852 169.296,215.229 170.350,217.769 171.639 M228.915 171.655 C 229.273 172.938,229.656 173.898,229.767 173.787 C 230.028 173.526,228.977 169.760,228.573 169.511 C 228.404 169.406,228.558 170.371,228.915 171.655 M236.084 174.651 C 235.256 176.809,234.707 174.480,235.274 171.215 L 235.570 169.510 235.945 171.773 C 236.151 173.017,236.214 174.312,236.084 174.651 M237.527 171.266 C 237.527 171.617,237.335 171.787,237.100 171.642 C 236.866 171.497,236.674 171.090,236.674 170.739 C 236.674 170.387,236.866 170.218,237.100 170.362 C 237.335 170.507,237.527 170.914,237.527 171.266 M157.350 175.160 C 157.353 176.157,157.164 176.972,156.930 176.972 C 156.694 176.972,156.506 175.875,156.510 174.520 C 156.514 172.780,156.636 172.254,156.930 172.708 C 157.157 173.060,157.346 174.163,157.350 175.160 M194.664 174.250 C 197.284 175.448,198.287 176.123,198.290 176.688 C 198.292 177.118,198.150 177.406,197.974 177.328 C 197.799 177.249,196.215 176.486,194.456 175.631 C 192.697 174.776,190.024 173.868,188.515 173.613 C 184.443 172.925,184.077 172.128,187.952 172.387 C 190.349 172.547,191.856 172.966,194.664 174.250 M155.317 176.247 C 155.008 176.871,153.945 175.603,153.945 174.610 C 153.945 173.087,154.975 173.068,155.248 174.587 C 155.379 175.313,155.409 176.059,155.317 176.247 M213.278 178.465 C 213.273 181.514,213.416 184.776,213.597 185.714 C 213.781 186.673,213.849 184.431,213.751 180.597 C 213.537 172.161,213.290 171.049,213.278 178.465 M191.642 176.127 C 195.450 177.347,197.960 178.724,197.400 179.287 C 197.260 179.427,196.451 179.252,195.602 178.897 C 194.752 178.542,193.811 178.265,193.510 178.282 C 193.210 178.298,193.727 178.591,194.659 178.932 C 197.604 180.010,197.589 181.125,194.559 186.674 C 192.879 189.751,193.504 189.601,185.501 188.846 C 179.426 188.272,179.408 188.260,179.742 185.015 L 179.989 182.610 178.191 181.070 C 177.202 180.224,176.235 179.531,176.043 179.531 C 174.984 179.531,175.948 178.081,177.505 177.331 C 178.502 176.851,179.989 176.095,180.810 175.650 C 183.088 174.416,186.811 174.580,191.642 176.127 M181.115 176.721 C 179.759 177.032,178.511 177.438,178.344 177.624 C 178.176 177.809,178.390 177.834,178.820 177.680 C 180.832 176.955,186.619 176.891,189.187 177.565 C 192.728 178.493,193.497 178.379,190.618 177.353 C 187.526 176.251,184.150 176.027,181.115 176.721 M235.814 178.571 C 235.810 180.036,235.693 180.420,235.394 179.957 C 234.715 178.906,234.912 176.546,235.679 176.546 C 235.757 176.546,235.818 177.457,235.814 178.571 M155.210 179.851 C 155.218 180.144,155.135 180.384,155.027 180.384 C 154.692 180.384,153.092 178.538,153.092 178.151 C 153.092 177.571,155.196 179.258,155.210 179.851 M234.683 181.198 C 235.078 181.677,235.049 181.758,234.542 181.591 C 233.674 181.305,233.046 179.393,233.497 178.408 C 233.794 177.758,233.890 177.885,234.023 179.103 C 234.112 179.923,234.409 180.865,234.683 181.198 M175.905 180.223 C 176.363 181.073,177.197 182.070,177.760 182.439 C 178.673 183.037,178.950 187.503,178.125 188.328 C 177.035 189.419,176.056 187.727,176.325 185.216 C 176.605 182.599,176.566 182.438,175.302 180.998 C 173.896 179.397,173.657 178.678,174.530 178.678 C 174.828 178.678,175.447 179.373,175.905 180.223 M174.167 181.203 C 175.773 182.847,175.795 182.913,175.502 185.254 C 175.169 187.926,173.556 188.750,172.721 186.674 C 172.426 185.939,172.329 185.889,172.308 186.461 C 172.277 187.327,171.844 187.371,169.510 186.744 C 167.307 186.153,166.738 185.366,166.738 182.909 L 166.738 180.907 168.763 180.556 C 169.877 180.364,171.027 180.224,171.317 180.247 C 171.608 180.269,171.741 180.117,171.612 179.909 C 170.951 178.839,172.748 179.749,174.167 181.203 M139.019 180.402 C 140.544 180.642,142.207 181.169,142.714 181.571 C 149.851 187.227,152.361 190.075,145.969 185.264 C 141.472 181.879,140.316 181.517,133.902 181.480 L 128.571 181.450 125.759 183.049 C 122.340 184.993,121.843 185.054,123.481 183.331 C 126.353 180.310,131.863 179.271,139.019 180.402 M157.783 181.059 C 157.783 182.395,156.781 182.249,156.580 180.883 C 156.490 180.268,156.669 179.957,157.113 179.957 C 157.549 179.957,157.783 180.342,157.783 181.059 M159.488 181.237 C 159.488 181.940,159.296 182.516,159.062 182.516 C 158.827 182.516,158.635 182.244,158.635 181.911 C 158.635 181.579,158.519 181.003,158.377 180.632 C 158.207 180.189,158.353 179.957,158.803 179.957 C 159.280 179.957,159.488 180.346,159.488 181.237 M161.744 181.428 C 161.646 182.771,161.057 183.598,160.461 183.230 C 159.749 182.790,160.366 179.898,161.137 180.059 C 161.614 180.158,161.805 180.590,161.744 181.428 M204.819 182.623 C 208.652 188.608,212.558 191.196,219.031 192.037 C 225.371 192.861,225.964 193.185,227.309 196.553 C 228.164 198.692,228.716 199.451,229.865 200.067 C 231.613 201.005,230.870 201.112,228.753 200.228 C 227.660 199.771,227.036 199.103,226.437 197.749 C 225.042 194.594,224.468 194.306,219.785 194.404 C 214.697 194.510,213.736 194.019,207.980 188.382 C 203.362 183.859,202.370 182.504,202.765 181.258 C 203.146 180.056,203.197 180.090,204.819 182.623 M221.962 182.516 C 221.798 183.486,221.753 184.369,221.862 184.478 C 221.972 184.587,222.189 183.877,222.345 182.900 C 222.502 181.922,222.546 181.040,222.445 180.938 C 222.343 180.836,222.125 181.546,221.962 182.516 M165.201 183.305 C 165.673 185.513,165.464 185.746,163.792 184.882 C 162.259 184.089,162.273 184.140,163.138 182.468 C 164.004 180.792,164.726 181.085,165.201 183.305 M201.964 183.723 C 201.844 183.917,202.792 185.110,204.071 186.373 C 207.069 189.334,207.043 189.396,202.878 189.250 C 199.629 189.135,199.371 189.061,199.506 188.273 C 199.751 186.834,201.361 183.369,201.783 183.369 C 202.003 183.369,202.084 183.528,201.964 183.723 M159.463 186.855 C 160.616 187.121,162.101 187.802,162.763 188.368 L 163.966 189.396 160.782 189.143 C 157.263 188.863,156.019 188.258,154.779 186.224 C 153.575 184.250,153.736 184.079,155.656 185.291 C 156.597 185.885,158.310 186.589,159.463 186.855 M173.240 193.923 C 178.109 198.496,178.118 198.509,177.013 199.003 C 176.108 199.409,176.644 199.463,179.957 199.298 C 185.906 199.002,187.332 199.529,183.933 200.768 C 180.172 202.140,177.284 201.394,173.654 198.114 C 172.105 196.715,166.738 190.069,166.738 189.550 C 166.738 188.467,169.179 190.109,173.240 193.923 M187.836 192.373 L 189.530 192.843 188.605 193.593 C 186.200 195.540,179.229 195.009,177.158 192.720 C 176.273 191.743,184.590 191.472,187.836 192.373 M236.146 201.572 C 235.738 201.679,234.970 201.683,234.440 201.581 C 233.909 201.479,234.243 201.392,235.181 201.387 C 236.119 201.382,236.553 201.466,236.146 201.572 " stroke="none" fill="#000000" fill-rule="evenodd"></path></g></svg>